G04 #@! TF.GenerationSoftware,KiCad,Pcbnew,5.1.4-e60b266~84~ubuntu18.04.1*
G04 #@! TF.CreationDate,2020-03-31T13:06:10+02:00*
G04 #@! TF.ProjectId,Esp32LoraBoard,45737033-324c-46f7-9261-426f6172642e,1.0*
G04 #@! TF.SameCoordinates,Original*
G04 #@! TF.FileFunction,Legend,Bot*
G04 #@! TF.FilePolarity,Positive*
%FSLAX46Y46*%
G04 Gerber Fmt 4.6, Leading zero omitted, Abs format (unit mm)*
G04 Created by KiCad (PCBNEW 5.1.4-e60b266~84~ubuntu18.04.1) date 2020-03-31 13:06:10*
%MOMM*%
%LPD*%
G04 APERTURE LIST*
%ADD10C,0.150000*%
%ADD11C,0.120000*%
G04 APERTURE END LIST*
D10*
X181649619Y-86804952D02*
X181649619Y-86328761D01*
X181173428Y-86281142D01*
X181221047Y-86328761D01*
X181268666Y-86424000D01*
X181268666Y-86662095D01*
X181221047Y-86757333D01*
X181173428Y-86804952D01*
X181078190Y-86852571D01*
X180840095Y-86852571D01*
X180744857Y-86804952D01*
X180697238Y-86757333D01*
X180649619Y-86662095D01*
X180649619Y-86424000D01*
X180697238Y-86328761D01*
X180744857Y-86281142D01*
X181221047Y-87424000D02*
X181268666Y-87328761D01*
X181316285Y-87281142D01*
X181411523Y-87233523D01*
X181459142Y-87233523D01*
X181554380Y-87281142D01*
X181602000Y-87328761D01*
X181649619Y-87424000D01*
X181649619Y-87614476D01*
X181602000Y-87709714D01*
X181554380Y-87757333D01*
X181459142Y-87804952D01*
X181411523Y-87804952D01*
X181316285Y-87757333D01*
X181268666Y-87709714D01*
X181221047Y-87614476D01*
X181221047Y-87424000D01*
X181173428Y-87328761D01*
X181125809Y-87281142D01*
X181030571Y-87233523D01*
X180840095Y-87233523D01*
X180744857Y-87281142D01*
X180697238Y-87328761D01*
X180649619Y-87424000D01*
X180649619Y-87614476D01*
X180697238Y-87709714D01*
X180744857Y-87757333D01*
X180840095Y-87804952D01*
X181030571Y-87804952D01*
X181125809Y-87757333D01*
X181173428Y-87709714D01*
X181221047Y-87614476D01*
X180697238Y-88281142D02*
X180649619Y-88281142D01*
X180554380Y-88233523D01*
X180506761Y-88185904D01*
X180649619Y-88757333D02*
X180649619Y-88947809D01*
X180697238Y-89043047D01*
X180744857Y-89090666D01*
X180887714Y-89185904D01*
X181078190Y-89233523D01*
X181459142Y-89233523D01*
X181554380Y-89185904D01*
X181602000Y-89138285D01*
X181649619Y-89043047D01*
X181649619Y-88852571D01*
X181602000Y-88757333D01*
X181554380Y-88709714D01*
X181459142Y-88662095D01*
X181221047Y-88662095D01*
X181125809Y-88709714D01*
X181078190Y-88757333D01*
X181030571Y-88852571D01*
X181030571Y-89043047D01*
X181078190Y-89138285D01*
X181125809Y-89185904D01*
X181221047Y-89233523D01*
X181554380Y-89614476D02*
X181602000Y-89662095D01*
X181649619Y-89757333D01*
X181649619Y-89995428D01*
X181602000Y-90090666D01*
X181554380Y-90138285D01*
X181459142Y-90185904D01*
X181363904Y-90185904D01*
X181221047Y-90138285D01*
X180649619Y-89566857D01*
X180649619Y-90185904D01*
X181221047Y-90757333D02*
X181268666Y-90662095D01*
X181316285Y-90614476D01*
X181411523Y-90566857D01*
X181459142Y-90566857D01*
X181554380Y-90614476D01*
X181602000Y-90662095D01*
X181649619Y-90757333D01*
X181649619Y-90947809D01*
X181602000Y-91043047D01*
X181554380Y-91090666D01*
X181459142Y-91138285D01*
X181411523Y-91138285D01*
X181316285Y-91090666D01*
X181268666Y-91043047D01*
X181221047Y-90947809D01*
X181221047Y-90757333D01*
X181173428Y-90662095D01*
X181125809Y-90614476D01*
X181030571Y-90566857D01*
X180840095Y-90566857D01*
X180744857Y-90614476D01*
X180697238Y-90662095D01*
X180649619Y-90757333D01*
X180649619Y-90947809D01*
X180697238Y-91043047D01*
X180744857Y-91090666D01*
X180840095Y-91138285D01*
X181030571Y-91138285D01*
X181125809Y-91090666D01*
X181173428Y-91043047D01*
X181221047Y-90947809D01*
X180649619Y-92328761D02*
X181316285Y-92328761D01*
X181221047Y-92328761D02*
X181268666Y-92376380D01*
X181316285Y-92471619D01*
X181316285Y-92614476D01*
X181268666Y-92709714D01*
X181173428Y-92757333D01*
X180649619Y-92757333D01*
X181173428Y-92757333D02*
X181268666Y-92804952D01*
X181316285Y-92900190D01*
X181316285Y-93043047D01*
X181268666Y-93138285D01*
X181173428Y-93185904D01*
X180649619Y-93185904D01*
X180649619Y-93662095D02*
X181316285Y-93662095D01*
X181221047Y-93662095D02*
X181268666Y-93709714D01*
X181316285Y-93804952D01*
X181316285Y-93947809D01*
X181268666Y-94043047D01*
X181173428Y-94090666D01*
X180649619Y-94090666D01*
X181173428Y-94090666D02*
X181268666Y-94138285D01*
X181316285Y-94233523D01*
X181316285Y-94376380D01*
X181268666Y-94471619D01*
X181173428Y-94519238D01*
X180649619Y-94519238D01*
D11*
X179832000Y-60960000D02*
X179832000Y-119888000D01*
X173228000Y-60960000D02*
X180418421Y-60960000D01*
X173228000Y-119888000D02*
X180418421Y-119888000D01*
X179832000Y-119888000D02*
X179245579Y-118761496D01*
X179832000Y-119888000D02*
X180418421Y-118761496D01*
X179832000Y-60960000D02*
X179245579Y-62086504D01*
X179832000Y-60960000D02*
X180418421Y-62086504D01*
D10*
X136276994Y-52657506D02*
X136086518Y-52657742D01*
X135991339Y-52705479D01*
X135943779Y-52753157D01*
X135848718Y-52896132D01*
X135801335Y-53086667D01*
X135801807Y-53467619D01*
X135849544Y-53562798D01*
X135897222Y-53610358D01*
X135992519Y-53657859D01*
X136182995Y-53657623D01*
X136278174Y-53609886D01*
X136325734Y-53562208D01*
X136373235Y-53466911D01*
X136372940Y-53228816D01*
X136325203Y-53133637D01*
X136277525Y-53086077D01*
X136182228Y-53038576D01*
X135991752Y-53038812D01*
X135896573Y-53086549D01*
X135849013Y-53134227D01*
X135801512Y-53229524D01*
X137229375Y-52656326D02*
X137038898Y-52656562D01*
X136943719Y-52704299D01*
X136896159Y-52751977D01*
X136801098Y-52894952D01*
X136753715Y-53085487D01*
X136754187Y-53466439D01*
X136801924Y-53561618D01*
X136849602Y-53609178D01*
X136944899Y-53656679D01*
X137135375Y-53656443D01*
X137230554Y-53608706D01*
X137278114Y-53561028D01*
X137325615Y-53465731D01*
X137325320Y-53227636D01*
X137277583Y-53132457D01*
X137229905Y-53084897D01*
X137134608Y-53037396D01*
X136944132Y-53037632D01*
X136848953Y-53085369D01*
X136801393Y-53133047D01*
X136753892Y-53228344D01*
X137801982Y-53607999D02*
X137802041Y-53655618D01*
X137754540Y-53750915D01*
X137706980Y-53798593D01*
X138705564Y-52654498D02*
X138229374Y-52655087D01*
X138182345Y-53131337D01*
X138229905Y-53083659D01*
X138325084Y-53035922D01*
X138563179Y-53035627D01*
X138658476Y-53083128D01*
X138706154Y-53130688D01*
X138753891Y-53225867D01*
X138754186Y-53463962D01*
X138706685Y-53559259D01*
X138659125Y-53606937D01*
X138563946Y-53654674D01*
X138325851Y-53654969D01*
X138230554Y-53607468D01*
X138182876Y-53559908D01*
X139610738Y-52986710D02*
X139611564Y-53653376D01*
X139372171Y-52606053D02*
X139134961Y-53320633D01*
X139754008Y-53319866D01*
X140277522Y-53081122D02*
X140182225Y-53033621D01*
X140134547Y-52986061D01*
X140086810Y-52890882D01*
X140086751Y-52843263D01*
X140134252Y-52747966D01*
X140181812Y-52700288D01*
X140276991Y-52652551D01*
X140467467Y-52652315D01*
X140562764Y-52699816D01*
X140610442Y-52747376D01*
X140658179Y-52842555D01*
X140658238Y-52890174D01*
X140610737Y-52985471D01*
X140563177Y-53033149D01*
X140467998Y-53080886D01*
X140277522Y-53081122D01*
X140182343Y-53128859D01*
X140134783Y-53176537D01*
X140087282Y-53271834D01*
X140087518Y-53462310D01*
X140135255Y-53557489D01*
X140182933Y-53605049D01*
X140278230Y-53652550D01*
X140468706Y-53652314D01*
X140563885Y-53604577D01*
X140611445Y-53556899D01*
X140658946Y-53461602D01*
X140658710Y-53271126D01*
X140610973Y-53175947D01*
X140563295Y-53128387D01*
X140467998Y-53080886D01*
X141849657Y-53650604D02*
X141848831Y-52983937D01*
X141848949Y-53079175D02*
X141896509Y-53031497D01*
X141991689Y-52983760D01*
X142134546Y-52983583D01*
X142229843Y-53031085D01*
X142277580Y-53126264D01*
X142278228Y-53650073D01*
X142277580Y-53126264D02*
X142325081Y-53030967D01*
X142420260Y-52983230D01*
X142563117Y-52983053D01*
X142658414Y-53030554D01*
X142706151Y-53125733D01*
X142706800Y-53649542D01*
X143182990Y-53648952D02*
X143182164Y-52982286D01*
X143182282Y-53077524D02*
X143229842Y-53029846D01*
X143325021Y-52982109D01*
X143467878Y-52981932D01*
X143563175Y-53029433D01*
X143610912Y-53124612D01*
X143611561Y-53648421D01*
X143610912Y-53124612D02*
X143658413Y-53029315D01*
X143753592Y-52981578D01*
X143896449Y-52981401D01*
X143991746Y-53028902D01*
X144039483Y-53124081D01*
X144040132Y-53647890D01*
D11*
X106671910Y-54511801D02*
X173219910Y-54429364D01*
X106680000Y-61042437D02*
X106671184Y-53925381D01*
X173228000Y-60960000D02*
X173219184Y-53842944D01*
X173219910Y-54429364D02*
X172094134Y-55017180D01*
X173219910Y-54429364D02*
X172092681Y-53844339D01*
X106671910Y-54511801D02*
X107799139Y-55096826D01*
X106671910Y-54511801D02*
X107797686Y-53923985D01*
D10*
X183094380Y-94154166D02*
X183094380Y-94344642D01*
X183142000Y-94439880D01*
X183189619Y-94487500D01*
X183332476Y-94582738D01*
X183522952Y-94630357D01*
X183903904Y-94630357D01*
X183999142Y-94582738D01*
X184046761Y-94535119D01*
X184094380Y-94439880D01*
X184094380Y-94249404D01*
X184046761Y-94154166D01*
X183999142Y-94106547D01*
X183903904Y-94058928D01*
X183665809Y-94058928D01*
X183570571Y-94106547D01*
X183522952Y-94154166D01*
X183475333Y-94249404D01*
X183475333Y-94439880D01*
X183522952Y-94535119D01*
X183570571Y-94582738D01*
X183665809Y-94630357D01*
X183427714Y-93201785D02*
X184094380Y-93201785D01*
X183046761Y-93439880D02*
X183761047Y-93677976D01*
X183761047Y-93058928D01*
X184046761Y-92630357D02*
X184094380Y-92630357D01*
X184189619Y-92677976D01*
X184237238Y-92725595D01*
X184094380Y-91677976D02*
X184094380Y-92249404D01*
X184094380Y-91963690D02*
X183094380Y-91963690D01*
X183237238Y-92058928D01*
X183332476Y-92154166D01*
X183380095Y-92249404D01*
X183094380Y-91344642D02*
X183094380Y-90725595D01*
X183475333Y-91058928D01*
X183475333Y-90916071D01*
X183522952Y-90820833D01*
X183570571Y-90773214D01*
X183665809Y-90725595D01*
X183903904Y-90725595D01*
X183999142Y-90773214D01*
X184046761Y-90820833D01*
X184094380Y-90916071D01*
X184094380Y-91201785D01*
X184046761Y-91297023D01*
X183999142Y-91344642D01*
X183094380Y-89820833D02*
X183094380Y-90297023D01*
X183570571Y-90344642D01*
X183522952Y-90297023D01*
X183475333Y-90201785D01*
X183475333Y-89963690D01*
X183522952Y-89868452D01*
X183570571Y-89820833D01*
X183665809Y-89773214D01*
X183903904Y-89773214D01*
X183999142Y-89820833D01*
X184046761Y-89868452D01*
X184094380Y-89963690D01*
X184094380Y-90201785D01*
X184046761Y-90297023D01*
X183999142Y-90344642D01*
X184094380Y-88582738D02*
X183427714Y-88582738D01*
X183522952Y-88582738D02*
X183475333Y-88535119D01*
X183427714Y-88439880D01*
X183427714Y-88297023D01*
X183475333Y-88201785D01*
X183570571Y-88154166D01*
X184094380Y-88154166D01*
X183570571Y-88154166D02*
X183475333Y-88106547D01*
X183427714Y-88011309D01*
X183427714Y-87868452D01*
X183475333Y-87773214D01*
X183570571Y-87725595D01*
X184094380Y-87725595D01*
X184094380Y-87249404D02*
X183427714Y-87249404D01*
X183522952Y-87249404D02*
X183475333Y-87201785D01*
X183427714Y-87106547D01*
X183427714Y-86963690D01*
X183475333Y-86868452D01*
X183570571Y-86820833D01*
X184094380Y-86820833D01*
X183570571Y-86820833D02*
X183475333Y-86773214D01*
X183427714Y-86677976D01*
X183427714Y-86535119D01*
X183475333Y-86439880D01*
X183570571Y-86392261D01*
X184094380Y-86392261D01*
D11*
X182372000Y-122555000D02*
X182372000Y-58420000D01*
X175895000Y-122555000D02*
X182958421Y-122555000D01*
X175895000Y-58420000D02*
X182958421Y-58420000D01*
X182372000Y-58420000D02*
X182958421Y-59546504D01*
X182372000Y-58420000D02*
X181785579Y-59546504D01*
X182372000Y-122555000D02*
X182958421Y-121428496D01*
X182372000Y-122555000D02*
X181785579Y-121428496D01*
D10*
X135842161Y-49800264D02*
X136508827Y-49801443D01*
X136078486Y-50800683D01*
X137411817Y-50803043D02*
X136840390Y-50802032D01*
X137126103Y-50802538D02*
X137127873Y-49802539D01*
X137032383Y-49945228D01*
X136936976Y-50040297D01*
X136841654Y-50087747D01*
X137888091Y-50756267D02*
X137888007Y-50803886D01*
X137840220Y-50899040D01*
X137792516Y-50946574D01*
X138223110Y-49804478D02*
X138889775Y-49805658D01*
X138459435Y-50804897D01*
X139746917Y-49807175D02*
X139270727Y-49806332D01*
X139222265Y-50282437D01*
X139269969Y-50234903D01*
X139365291Y-50187452D01*
X139603386Y-50187874D01*
X139698539Y-50235661D01*
X139746074Y-50283364D01*
X139793524Y-50378687D01*
X139793103Y-50616781D01*
X139745316Y-50711935D01*
X139697612Y-50759470D01*
X139602290Y-50806920D01*
X139364195Y-50806499D01*
X139269042Y-50758711D01*
X139221507Y-50711008D01*
X140699296Y-49808860D02*
X140223107Y-49808017D01*
X140174645Y-50284123D01*
X140222348Y-50236588D01*
X140317670Y-50189138D01*
X140555765Y-50189559D01*
X140650919Y-50237347D01*
X140698454Y-50285050D01*
X140745904Y-50380372D01*
X140745483Y-50618467D01*
X140697695Y-50713621D01*
X140649992Y-50761155D01*
X140554670Y-50808606D01*
X140316575Y-50808184D01*
X140221421Y-50760397D01*
X140173886Y-50712694D01*
X141935620Y-50811050D02*
X141936800Y-50144384D01*
X141936631Y-50239622D02*
X141984334Y-50192088D01*
X142079657Y-50144637D01*
X142222514Y-50144890D01*
X142317667Y-50192678D01*
X142365118Y-50288000D01*
X142364191Y-50811809D01*
X142365118Y-50288000D02*
X142412905Y-50192846D01*
X142508227Y-50145396D01*
X142651084Y-50145649D01*
X142746238Y-50193436D01*
X142793688Y-50288758D01*
X142792761Y-50812567D01*
X143268951Y-50813410D02*
X143270131Y-50146744D01*
X143269962Y-50241982D02*
X143317666Y-50194448D01*
X143412988Y-50146997D01*
X143555845Y-50147250D01*
X143650998Y-50195037D01*
X143698449Y-50290360D01*
X143697522Y-50814168D01*
X143698449Y-50290360D02*
X143746236Y-50195206D01*
X143841559Y-50147756D01*
X143984416Y-50148008D01*
X144079569Y-50195796D01*
X144127020Y-50291118D01*
X144126093Y-50814927D01*
D11*
X104151914Y-51561797D02*
X175906914Y-51688797D01*
X104140000Y-58293000D02*
X104152952Y-50975377D01*
X175895000Y-58420000D02*
X175907952Y-51102377D01*
X175906914Y-51688797D02*
X174779374Y-52273223D01*
X175906914Y-51688797D02*
X174781450Y-51100383D01*
X104151914Y-51561797D02*
X105277378Y-52150211D01*
X104151914Y-51561797D02*
X105279454Y-50977371D01*
D10*
X168496523Y-108768571D02*
X168163190Y-108768571D01*
X168020333Y-109292380D02*
X168496523Y-109292380D01*
X168496523Y-108292380D01*
X168020333Y-108292380D01*
X167639380Y-109244761D02*
X167544142Y-109292380D01*
X167353666Y-109292380D01*
X167258428Y-109244761D01*
X167210809Y-109149523D01*
X167210809Y-109101904D01*
X167258428Y-109006666D01*
X167353666Y-108959047D01*
X167496523Y-108959047D01*
X167591761Y-108911428D01*
X167639380Y-108816190D01*
X167639380Y-108768571D01*
X167591761Y-108673333D01*
X167496523Y-108625714D01*
X167353666Y-108625714D01*
X167258428Y-108673333D01*
X166782238Y-108625714D02*
X166782238Y-109625714D01*
X166782238Y-108673333D02*
X166687000Y-108625714D01*
X166496523Y-108625714D01*
X166401285Y-108673333D01*
X166353666Y-108720952D01*
X166306047Y-108816190D01*
X166306047Y-109101904D01*
X166353666Y-109197142D01*
X166401285Y-109244761D01*
X166496523Y-109292380D01*
X166687000Y-109292380D01*
X166782238Y-109244761D01*
X165972714Y-108292380D02*
X165353666Y-108292380D01*
X165687000Y-108673333D01*
X165544142Y-108673333D01*
X165448904Y-108720952D01*
X165401285Y-108768571D01*
X165353666Y-108863809D01*
X165353666Y-109101904D01*
X165401285Y-109197142D01*
X165448904Y-109244761D01*
X165544142Y-109292380D01*
X165829857Y-109292380D01*
X165925095Y-109244761D01*
X165972714Y-109197142D01*
X164972714Y-108387619D02*
X164925095Y-108340000D01*
X164829857Y-108292380D01*
X164591761Y-108292380D01*
X164496523Y-108340000D01*
X164448904Y-108387619D01*
X164401285Y-108482857D01*
X164401285Y-108578095D01*
X164448904Y-108720952D01*
X165020333Y-109292380D01*
X164401285Y-109292380D01*
X163496523Y-109292380D02*
X163972714Y-109292380D01*
X163972714Y-108292380D01*
X163020333Y-109292380D02*
X163115571Y-109244761D01*
X163163190Y-109197142D01*
X163210809Y-109101904D01*
X163210809Y-108816190D01*
X163163190Y-108720952D01*
X163115571Y-108673333D01*
X163020333Y-108625714D01*
X162877476Y-108625714D01*
X162782238Y-108673333D01*
X162734619Y-108720952D01*
X162687000Y-108816190D01*
X162687000Y-109101904D01*
X162734619Y-109197142D01*
X162782238Y-109244761D01*
X162877476Y-109292380D01*
X163020333Y-109292380D01*
X162258428Y-109292380D02*
X162258428Y-108625714D01*
X162258428Y-108816190D02*
X162210809Y-108720952D01*
X162163190Y-108673333D01*
X162067952Y-108625714D01*
X161972714Y-108625714D01*
X161210809Y-109292380D02*
X161210809Y-108768571D01*
X161258428Y-108673333D01*
X161353666Y-108625714D01*
X161544142Y-108625714D01*
X161639380Y-108673333D01*
X161210809Y-109244761D02*
X161306047Y-109292380D01*
X161544142Y-109292380D01*
X161639380Y-109244761D01*
X161687000Y-109149523D01*
X161687000Y-109054285D01*
X161639380Y-108959047D01*
X161544142Y-108911428D01*
X161306047Y-108911428D01*
X161210809Y-108863809D01*
X160401285Y-108768571D02*
X160258428Y-108816190D01*
X160210809Y-108863809D01*
X160163190Y-108959047D01*
X160163190Y-109101904D01*
X160210809Y-109197142D01*
X160258428Y-109244761D01*
X160353666Y-109292380D01*
X160734619Y-109292380D01*
X160734619Y-108292380D01*
X160401285Y-108292380D01*
X160306047Y-108340000D01*
X160258428Y-108387619D01*
X160210809Y-108482857D01*
X160210809Y-108578095D01*
X160258428Y-108673333D01*
X160306047Y-108720952D01*
X160401285Y-108768571D01*
X160734619Y-108768571D01*
X159591761Y-109292380D02*
X159687000Y-109244761D01*
X159734619Y-109197142D01*
X159782238Y-109101904D01*
X159782238Y-108816190D01*
X159734619Y-108720952D01*
X159687000Y-108673333D01*
X159591761Y-108625714D01*
X159448904Y-108625714D01*
X159353666Y-108673333D01*
X159306047Y-108720952D01*
X159258428Y-108816190D01*
X159258428Y-109101904D01*
X159306047Y-109197142D01*
X159353666Y-109244761D01*
X159448904Y-109292380D01*
X159591761Y-109292380D01*
X158401285Y-109292380D02*
X158401285Y-108768571D01*
X158448904Y-108673333D01*
X158544142Y-108625714D01*
X158734619Y-108625714D01*
X158829857Y-108673333D01*
X158401285Y-109244761D02*
X158496523Y-109292380D01*
X158734619Y-109292380D01*
X158829857Y-109244761D01*
X158877476Y-109149523D01*
X158877476Y-109054285D01*
X158829857Y-108959047D01*
X158734619Y-108911428D01*
X158496523Y-108911428D01*
X158401285Y-108863809D01*
X157925095Y-109292380D02*
X157925095Y-108625714D01*
X157925095Y-108816190D02*
X157877476Y-108720952D01*
X157829857Y-108673333D01*
X157734619Y-108625714D01*
X157639380Y-108625714D01*
X156877476Y-109292380D02*
X156877476Y-108292380D01*
X156877476Y-109244761D02*
X156972714Y-109292380D01*
X157163190Y-109292380D01*
X157258428Y-109244761D01*
X157306047Y-109197142D01*
X157353666Y-109101904D01*
X157353666Y-108816190D01*
X157306047Y-108720952D01*
X157258428Y-108673333D01*
X157163190Y-108625714D01*
X156972714Y-108625714D01*
X156877476Y-108673333D01*
X164210809Y-109942380D02*
X163877476Y-110942380D01*
X163544142Y-109942380D01*
X162687000Y-110942380D02*
X163258428Y-110942380D01*
X162972714Y-110942380D02*
X162972714Y-109942380D01*
X163067952Y-110085238D01*
X163163190Y-110180476D01*
X163258428Y-110228095D01*
X162258428Y-110847142D02*
X162210809Y-110894761D01*
X162258428Y-110942380D01*
X162306047Y-110894761D01*
X162258428Y-110847142D01*
X162258428Y-110942380D01*
X161591761Y-109942380D02*
X161496523Y-109942380D01*
X161401285Y-109990000D01*
X161353666Y-110037619D01*
X161306047Y-110132857D01*
X161258428Y-110323333D01*
X161258428Y-110561428D01*
X161306047Y-110751904D01*
X161353666Y-110847142D01*
X161401285Y-110894761D01*
X161496523Y-110942380D01*
X161591761Y-110942380D01*
X161687000Y-110894761D01*
X161734619Y-110847142D01*
X161782238Y-110751904D01*
X161829857Y-110561428D01*
X161829857Y-110323333D01*
X161782238Y-110132857D01*
X161734619Y-110037619D01*
X161687000Y-109990000D01*
X161591761Y-109942380D01*
X166853666Y-111592380D02*
X166520333Y-112592380D01*
X166187000Y-111592380D01*
X165853666Y-112592380D02*
X165853666Y-111925714D01*
X165853666Y-111592380D02*
X165901285Y-111640000D01*
X165853666Y-111687619D01*
X165806047Y-111640000D01*
X165853666Y-111592380D01*
X165853666Y-111687619D01*
X165377476Y-112592380D02*
X165377476Y-111592380D01*
X165282238Y-112211428D02*
X164996523Y-112592380D01*
X164996523Y-111925714D02*
X165377476Y-112306666D01*
X164710809Y-111925714D02*
X164329857Y-111925714D01*
X164567952Y-111592380D02*
X164567952Y-112449523D01*
X164520333Y-112544761D01*
X164425095Y-112592380D01*
X164329857Y-112592380D01*
X163853666Y-112592380D02*
X163948904Y-112544761D01*
X163996523Y-112497142D01*
X164044142Y-112401904D01*
X164044142Y-112116190D01*
X163996523Y-112020952D01*
X163948904Y-111973333D01*
X163853666Y-111925714D01*
X163710809Y-111925714D01*
X163615571Y-111973333D01*
X163567952Y-112020952D01*
X163520333Y-112116190D01*
X163520333Y-112401904D01*
X163567952Y-112497142D01*
X163615571Y-112544761D01*
X163710809Y-112592380D01*
X163853666Y-112592380D01*
X163091761Y-112592380D02*
X163091761Y-111925714D01*
X163091761Y-112116190D02*
X163044142Y-112020952D01*
X162996523Y-111973333D01*
X162901285Y-111925714D01*
X162806047Y-111925714D01*
X161139380Y-112592380D02*
X161472714Y-112116190D01*
X161710809Y-112592380D02*
X161710809Y-111592380D01*
X161329857Y-111592380D01*
X161234619Y-111640000D01*
X161187000Y-111687619D01*
X161139380Y-111782857D01*
X161139380Y-111925714D01*
X161187000Y-112020952D01*
X161234619Y-112068571D01*
X161329857Y-112116190D01*
X161710809Y-112116190D01*
X160329857Y-112544761D02*
X160425095Y-112592380D01*
X160615571Y-112592380D01*
X160710809Y-112544761D01*
X160758428Y-112449523D01*
X160758428Y-112068571D01*
X160710809Y-111973333D01*
X160615571Y-111925714D01*
X160425095Y-111925714D01*
X160329857Y-111973333D01*
X160282238Y-112068571D01*
X160282238Y-112163809D01*
X160758428Y-112259047D01*
X159472714Y-112544761D02*
X159567952Y-112592380D01*
X159758428Y-112592380D01*
X159853666Y-112544761D01*
X159901285Y-112449523D01*
X159901285Y-112068571D01*
X159853666Y-111973333D01*
X159758428Y-111925714D01*
X159567952Y-111925714D01*
X159472714Y-111973333D01*
X159425095Y-112068571D01*
X159425095Y-112163809D01*
X159901285Y-112259047D01*
X159044142Y-112544761D02*
X158948904Y-112592380D01*
X158758428Y-112592380D01*
X158663190Y-112544761D01*
X158615571Y-112449523D01*
X158615571Y-112401904D01*
X158663190Y-112306666D01*
X158758428Y-112259047D01*
X158901285Y-112259047D01*
X158996523Y-112211428D01*
X159044142Y-112116190D01*
X159044142Y-112068571D01*
X158996523Y-111973333D01*
X158901285Y-111925714D01*
X158758428Y-111925714D01*
X158663190Y-111973333D01*
M02*
