G04 #@! TF.GenerationSoftware,KiCad,Pcbnew,5.1.5+dfsg1-2build2*
G04 #@! TF.CreationDate,2020-10-17T13:38:53+02:00*
G04 #@! TF.ProjectId,Esp32LoraBoard,45737033-324c-46f7-9261-426f6172642e,1.1*
G04 #@! TF.SameCoordinates,Original*
G04 #@! TF.FileFunction,Legend,Bot*
G04 #@! TF.FilePolarity,Positive*
%FSLAX46Y46*%
G04 Gerber Fmt 4.6, Leading zero omitted, Abs format (unit mm)*
G04 Created by KiCad (PCBNEW 5.1.5+dfsg1-2build2) date 2020-10-17 13:38:53*
%MOMM*%
%LPD*%
G04 APERTURE LIST*
%ADD10C,0.400000*%
G04 APERTURE END LIST*
D10*
X166241547Y-103088142D02*
X165574880Y-103088142D01*
X165289166Y-104135761D02*
X166241547Y-104135761D01*
X166241547Y-102135761D01*
X165289166Y-102135761D01*
X164527261Y-104040523D02*
X164336785Y-104135761D01*
X163955833Y-104135761D01*
X163765357Y-104040523D01*
X163670119Y-103850047D01*
X163670119Y-103754809D01*
X163765357Y-103564333D01*
X163955833Y-103469095D01*
X164241547Y-103469095D01*
X164432023Y-103373857D01*
X164527261Y-103183380D01*
X164527261Y-103088142D01*
X164432023Y-102897666D01*
X164241547Y-102802428D01*
X163955833Y-102802428D01*
X163765357Y-102897666D01*
X162812976Y-102802428D02*
X162812976Y-104802428D01*
X162812976Y-102897666D02*
X162622500Y-102802428D01*
X162241547Y-102802428D01*
X162051071Y-102897666D01*
X161955833Y-102992904D01*
X161860595Y-103183380D01*
X161860595Y-103754809D01*
X161955833Y-103945285D01*
X162051071Y-104040523D01*
X162241547Y-104135761D01*
X162622500Y-104135761D01*
X162812976Y-104040523D01*
X161193928Y-102135761D02*
X159955833Y-102135761D01*
X160622500Y-102897666D01*
X160336785Y-102897666D01*
X160146309Y-102992904D01*
X160051071Y-103088142D01*
X159955833Y-103278619D01*
X159955833Y-103754809D01*
X160051071Y-103945285D01*
X160146309Y-104040523D01*
X160336785Y-104135761D01*
X160908214Y-104135761D01*
X161098690Y-104040523D01*
X161193928Y-103945285D01*
X159193928Y-102326238D02*
X159098690Y-102231000D01*
X158908214Y-102135761D01*
X158432023Y-102135761D01*
X158241547Y-102231000D01*
X158146309Y-102326238D01*
X158051071Y-102516714D01*
X158051071Y-102707190D01*
X158146309Y-102992904D01*
X159289166Y-104135761D01*
X158051071Y-104135761D01*
X156241547Y-104135761D02*
X157193928Y-104135761D01*
X157193928Y-102135761D01*
X155289166Y-104135761D02*
X155479642Y-104040523D01*
X155574880Y-103945285D01*
X155670119Y-103754809D01*
X155670119Y-103183380D01*
X155574880Y-102992904D01*
X155479642Y-102897666D01*
X155289166Y-102802428D01*
X155003452Y-102802428D01*
X154812976Y-102897666D01*
X154717738Y-102992904D01*
X154622500Y-103183380D01*
X154622500Y-103754809D01*
X154717738Y-103945285D01*
X154812976Y-104040523D01*
X155003452Y-104135761D01*
X155289166Y-104135761D01*
X153765357Y-104135761D02*
X153765357Y-102802428D01*
X153765357Y-103183380D02*
X153670119Y-102992904D01*
X153574880Y-102897666D01*
X153384404Y-102802428D01*
X153193928Y-102802428D01*
X151670119Y-104135761D02*
X151670119Y-103088142D01*
X151765357Y-102897666D01*
X151955833Y-102802428D01*
X152336785Y-102802428D01*
X152527261Y-102897666D01*
X151670119Y-104040523D02*
X151860595Y-104135761D01*
X152336785Y-104135761D01*
X152527261Y-104040523D01*
X152622500Y-103850047D01*
X152622500Y-103659571D01*
X152527261Y-103469095D01*
X152336785Y-103373857D01*
X151860595Y-103373857D01*
X151670119Y-103278619D01*
X150051071Y-103088142D02*
X149765357Y-103183380D01*
X149670119Y-103278619D01*
X149574880Y-103469095D01*
X149574880Y-103754809D01*
X149670119Y-103945285D01*
X149765357Y-104040523D01*
X149955833Y-104135761D01*
X150717738Y-104135761D01*
X150717738Y-102135761D01*
X150051071Y-102135761D01*
X149860595Y-102231000D01*
X149765357Y-102326238D01*
X149670119Y-102516714D01*
X149670119Y-102707190D01*
X149765357Y-102897666D01*
X149860595Y-102992904D01*
X150051071Y-103088142D01*
X150717738Y-103088142D01*
X148432023Y-104135761D02*
X148622500Y-104040523D01*
X148717738Y-103945285D01*
X148812976Y-103754809D01*
X148812976Y-103183380D01*
X148717738Y-102992904D01*
X148622500Y-102897666D01*
X148432023Y-102802428D01*
X148146309Y-102802428D01*
X147955833Y-102897666D01*
X147860595Y-102992904D01*
X147765357Y-103183380D01*
X147765357Y-103754809D01*
X147860595Y-103945285D01*
X147955833Y-104040523D01*
X148146309Y-104135761D01*
X148432023Y-104135761D01*
X146051071Y-104135761D02*
X146051071Y-103088142D01*
X146146309Y-102897666D01*
X146336785Y-102802428D01*
X146717738Y-102802428D01*
X146908214Y-102897666D01*
X146051071Y-104040523D02*
X146241547Y-104135761D01*
X146717738Y-104135761D01*
X146908214Y-104040523D01*
X147003452Y-103850047D01*
X147003452Y-103659571D01*
X146908214Y-103469095D01*
X146717738Y-103373857D01*
X146241547Y-103373857D01*
X146051071Y-103278619D01*
X145098690Y-104135761D02*
X145098690Y-102802428D01*
X145098690Y-103183380D02*
X145003452Y-102992904D01*
X144908214Y-102897666D01*
X144717738Y-102802428D01*
X144527261Y-102802428D01*
X143003452Y-104135761D02*
X143003452Y-102135761D01*
X143003452Y-104040523D02*
X143193928Y-104135761D01*
X143574880Y-104135761D01*
X143765357Y-104040523D01*
X143860595Y-103945285D01*
X143955833Y-103754809D01*
X143955833Y-103183380D01*
X143860595Y-102992904D01*
X143765357Y-102897666D01*
X143574880Y-102802428D01*
X143193928Y-102802428D01*
X143003452Y-102897666D01*
X157670119Y-105535761D02*
X157003452Y-107535761D01*
X156336785Y-105535761D01*
X154622500Y-107535761D02*
X155765357Y-107535761D01*
X155193928Y-107535761D02*
X155193928Y-105535761D01*
X155384404Y-105821476D01*
X155574880Y-106011952D01*
X155765357Y-106107190D01*
X153765357Y-107345285D02*
X153670119Y-107440523D01*
X153765357Y-107535761D01*
X153860595Y-107440523D01*
X153765357Y-107345285D01*
X153765357Y-107535761D01*
X152908214Y-105726238D02*
X152812976Y-105631000D01*
X152622500Y-105535761D01*
X152146309Y-105535761D01*
X151955833Y-105631000D01*
X151860595Y-105726238D01*
X151765357Y-105916714D01*
X151765357Y-106107190D01*
X151860595Y-106392904D01*
X153003452Y-107535761D01*
X151765357Y-107535761D01*
X162955833Y-108935761D02*
X162289166Y-110935761D01*
X161622500Y-108935761D01*
X160955833Y-110935761D02*
X160955833Y-109602428D01*
X160955833Y-108935761D02*
X161051071Y-109031000D01*
X160955833Y-109126238D01*
X160860595Y-109031000D01*
X160955833Y-108935761D01*
X160955833Y-109126238D01*
X160003452Y-110935761D02*
X160003452Y-108935761D01*
X159812976Y-110173857D02*
X159241547Y-110935761D01*
X159241547Y-109602428D02*
X160003452Y-110364333D01*
X158670119Y-109602428D02*
X157908214Y-109602428D01*
X158384404Y-108935761D02*
X158384404Y-110650047D01*
X158289166Y-110840523D01*
X158098690Y-110935761D01*
X157908214Y-110935761D01*
X156955833Y-110935761D02*
X157146309Y-110840523D01*
X157241547Y-110745285D01*
X157336785Y-110554809D01*
X157336785Y-109983380D01*
X157241547Y-109792904D01*
X157146309Y-109697666D01*
X156955833Y-109602428D01*
X156670119Y-109602428D01*
X156479642Y-109697666D01*
X156384404Y-109792904D01*
X156289166Y-109983380D01*
X156289166Y-110554809D01*
X156384404Y-110745285D01*
X156479642Y-110840523D01*
X156670119Y-110935761D01*
X156955833Y-110935761D01*
X155432023Y-110935761D02*
X155432023Y-109602428D01*
X155432023Y-109983380D02*
X155336785Y-109792904D01*
X155241547Y-109697666D01*
X155051071Y-109602428D01*
X154860595Y-109602428D01*
X151527261Y-110935761D02*
X152193928Y-109983380D01*
X152670119Y-110935761D02*
X152670119Y-108935761D01*
X151908214Y-108935761D01*
X151717738Y-109031000D01*
X151622500Y-109126238D01*
X151527261Y-109316714D01*
X151527261Y-109602428D01*
X151622500Y-109792904D01*
X151717738Y-109888142D01*
X151908214Y-109983380D01*
X152670119Y-109983380D01*
X149908214Y-110840523D02*
X150098690Y-110935761D01*
X150479642Y-110935761D01*
X150670119Y-110840523D01*
X150765357Y-110650047D01*
X150765357Y-109888142D01*
X150670119Y-109697666D01*
X150479642Y-109602428D01*
X150098690Y-109602428D01*
X149908214Y-109697666D01*
X149812976Y-109888142D01*
X149812976Y-110078619D01*
X150765357Y-110269095D01*
X148193928Y-110840523D02*
X148384404Y-110935761D01*
X148765357Y-110935761D01*
X148955833Y-110840523D01*
X149051071Y-110650047D01*
X149051071Y-109888142D01*
X148955833Y-109697666D01*
X148765357Y-109602428D01*
X148384404Y-109602428D01*
X148193928Y-109697666D01*
X148098690Y-109888142D01*
X148098690Y-110078619D01*
X149051071Y-110269095D01*
X147336785Y-110840523D02*
X147146309Y-110935761D01*
X146765357Y-110935761D01*
X146574880Y-110840523D01*
X146479642Y-110650047D01*
X146479642Y-110554809D01*
X146574880Y-110364333D01*
X146765357Y-110269095D01*
X147051071Y-110269095D01*
X147241547Y-110173857D01*
X147336785Y-109983380D01*
X147336785Y-109888142D01*
X147241547Y-109697666D01*
X147051071Y-109602428D01*
X146765357Y-109602428D01*
X146574880Y-109697666D01*
X161670119Y-114335761D02*
X162812976Y-114335761D01*
X162241547Y-114335761D02*
X162241547Y-112335761D01*
X162432023Y-112621476D01*
X162622500Y-112811952D01*
X162812976Y-112907190D01*
X161003452Y-112335761D02*
X159670119Y-112335761D01*
X160527261Y-114335761D01*
X158908214Y-114145285D02*
X158812976Y-114240523D01*
X158908214Y-114335761D01*
X159003452Y-114240523D01*
X158908214Y-114145285D01*
X158908214Y-114335761D01*
X156908214Y-114335761D02*
X158051071Y-114335761D01*
X157479642Y-114335761D02*
X157479642Y-112335761D01*
X157670119Y-112621476D01*
X157860595Y-112811952D01*
X158051071Y-112907190D01*
X155670119Y-112335761D02*
X155479642Y-112335761D01*
X155289166Y-112431000D01*
X155193928Y-112526238D01*
X155098690Y-112716714D01*
X155003452Y-113097666D01*
X155003452Y-113573857D01*
X155098690Y-113954809D01*
X155193928Y-114145285D01*
X155289166Y-114240523D01*
X155479642Y-114335761D01*
X155670119Y-114335761D01*
X155860595Y-114240523D01*
X155955833Y-114145285D01*
X156051071Y-113954809D01*
X156146309Y-113573857D01*
X156146309Y-113097666D01*
X156051071Y-112716714D01*
X155955833Y-112526238D01*
X155860595Y-112431000D01*
X155670119Y-112335761D01*
X154146309Y-114145285D02*
X154051071Y-114240523D01*
X154146309Y-114335761D01*
X154241547Y-114240523D01*
X154146309Y-114145285D01*
X154146309Y-114335761D01*
X153289166Y-112526238D02*
X153193928Y-112431000D01*
X153003452Y-112335761D01*
X152527261Y-112335761D01*
X152336785Y-112431000D01*
X152241547Y-112526238D01*
X152146309Y-112716714D01*
X152146309Y-112907190D01*
X152241547Y-113192904D01*
X153384404Y-114335761D01*
X152146309Y-114335761D01*
X150908214Y-112335761D02*
X150717738Y-112335761D01*
X150527261Y-112431000D01*
X150432023Y-112526238D01*
X150336785Y-112716714D01*
X150241547Y-113097666D01*
X150241547Y-113573857D01*
X150336785Y-113954809D01*
X150432023Y-114145285D01*
X150527261Y-114240523D01*
X150717738Y-114335761D01*
X150908214Y-114335761D01*
X151098690Y-114240523D01*
X151193928Y-114145285D01*
X151289166Y-113954809D01*
X151384404Y-113573857D01*
X151384404Y-113097666D01*
X151289166Y-112716714D01*
X151193928Y-112526238D01*
X151098690Y-112431000D01*
X150908214Y-112335761D01*
X149479642Y-112526238D02*
X149384404Y-112431000D01*
X149193928Y-112335761D01*
X148717738Y-112335761D01*
X148527261Y-112431000D01*
X148432023Y-112526238D01*
X148336785Y-112716714D01*
X148336785Y-112907190D01*
X148432023Y-113192904D01*
X149574880Y-114335761D01*
X148336785Y-114335761D01*
X147098690Y-112335761D02*
X146908214Y-112335761D01*
X146717738Y-112431000D01*
X146622500Y-112526238D01*
X146527261Y-112716714D01*
X146432023Y-113097666D01*
X146432023Y-113573857D01*
X146527261Y-113954809D01*
X146622500Y-114145285D01*
X146717738Y-114240523D01*
X146908214Y-114335761D01*
X147098690Y-114335761D01*
X147289166Y-114240523D01*
X147384404Y-114145285D01*
X147479642Y-113954809D01*
X147574880Y-113573857D01*
X147574880Y-113097666D01*
X147479642Y-112716714D01*
X147384404Y-112526238D01*
X147289166Y-112431000D01*
X147098690Y-112335761D01*
M02*
