G04 #@! TF.GenerationSoftware,KiCad,Pcbnew,5.1.4-e60b266~84~ubuntu18.04.1*
G04 #@! TF.CreationDate,2020-03-31T13:06:10+02:00*
G04 #@! TF.ProjectId,Esp32LoraBoard,45737033-324c-46f7-9261-426f6172642e,1.0*
G04 #@! TF.SameCoordinates,Original*
G04 #@! TF.FileFunction,Soldermask,Bot*
G04 #@! TF.FilePolarity,Negative*
%FSLAX46Y46*%
G04 Gerber Fmt 4.6, Leading zero omitted, Abs format (unit mm)*
G04 Created by KiCad (PCBNEW 5.1.4-e60b266~84~ubuntu18.04.1) date 2020-03-31 13:06:10*
%MOMM*%
%LPD*%
G04 APERTURE LIST*
%ADD10C,0.100000*%
G04 APERTURE END LIST*
D10*
G36*
X116725000Y-120281000D02*
G01*
X114923000Y-120281000D01*
X114923000Y-118479000D01*
X116725000Y-118479000D01*
X116725000Y-120281000D01*
X116725000Y-120281000D01*
G37*
G36*
X121014442Y-118485518D02*
G01*
X121080627Y-118492037D01*
X121250466Y-118543557D01*
X121406991Y-118627222D01*
X121442729Y-118656552D01*
X121544186Y-118739814D01*
X121627448Y-118841271D01*
X121656778Y-118877009D01*
X121740443Y-119033534D01*
X121791963Y-119203373D01*
X121809359Y-119380000D01*
X121791963Y-119556627D01*
X121740443Y-119726466D01*
X121656778Y-119882991D01*
X121646922Y-119895000D01*
X121544186Y-120020186D01*
X121442729Y-120103448D01*
X121406991Y-120132778D01*
X121250466Y-120216443D01*
X121080627Y-120267963D01*
X121014442Y-120274482D01*
X120948260Y-120281000D01*
X120859740Y-120281000D01*
X120793558Y-120274482D01*
X120727373Y-120267963D01*
X120557534Y-120216443D01*
X120401009Y-120132778D01*
X120365271Y-120103448D01*
X120263814Y-120020186D01*
X120161078Y-119895000D01*
X120151222Y-119882991D01*
X120067557Y-119726466D01*
X120016037Y-119556627D01*
X119998641Y-119380000D01*
X120016037Y-119203373D01*
X120067557Y-119033534D01*
X120151222Y-118877009D01*
X120180552Y-118841271D01*
X120263814Y-118739814D01*
X120365271Y-118656552D01*
X120401009Y-118627222D01*
X120557534Y-118543557D01*
X120727373Y-118492037D01*
X120793558Y-118485518D01*
X120859740Y-118479000D01*
X120948260Y-118479000D01*
X121014442Y-118485518D01*
X121014442Y-118485518D01*
G37*
G36*
X118474442Y-118485518D02*
G01*
X118540627Y-118492037D01*
X118710466Y-118543557D01*
X118866991Y-118627222D01*
X118902729Y-118656552D01*
X119004186Y-118739814D01*
X119087448Y-118841271D01*
X119116778Y-118877009D01*
X119200443Y-119033534D01*
X119251963Y-119203373D01*
X119269359Y-119380000D01*
X119251963Y-119556627D01*
X119200443Y-119726466D01*
X119116778Y-119882991D01*
X119106922Y-119895000D01*
X119004186Y-120020186D01*
X118902729Y-120103448D01*
X118866991Y-120132778D01*
X118710466Y-120216443D01*
X118540627Y-120267963D01*
X118474442Y-120274482D01*
X118408260Y-120281000D01*
X118319740Y-120281000D01*
X118253558Y-120274482D01*
X118187373Y-120267963D01*
X118017534Y-120216443D01*
X117861009Y-120132778D01*
X117825271Y-120103448D01*
X117723814Y-120020186D01*
X117621078Y-119895000D01*
X117611222Y-119882991D01*
X117527557Y-119726466D01*
X117476037Y-119556627D01*
X117458641Y-119380000D01*
X117476037Y-119203373D01*
X117527557Y-119033534D01*
X117611222Y-118877009D01*
X117640552Y-118841271D01*
X117723814Y-118739814D01*
X117825271Y-118656552D01*
X117861009Y-118627222D01*
X118017534Y-118543557D01*
X118187373Y-118492037D01*
X118253558Y-118485518D01*
X118319740Y-118479000D01*
X118408260Y-118479000D01*
X118474442Y-118485518D01*
X118474442Y-118485518D01*
G37*
G36*
X145041000Y-119895000D02*
G01*
X141739000Y-119895000D01*
X141739000Y-117793000D01*
X145041000Y-117793000D01*
X145041000Y-119895000D01*
X145041000Y-119895000D01*
G37*
G36*
X150696564Y-114733389D02*
G01*
X150887833Y-114812615D01*
X150887835Y-114812616D01*
X151059973Y-114927635D01*
X151206365Y-115074027D01*
X151321385Y-115246167D01*
X151400611Y-115437436D01*
X151441000Y-115640484D01*
X151441000Y-115847516D01*
X151400611Y-116050564D01*
X151321385Y-116241833D01*
X151321384Y-116241835D01*
X151206365Y-116413973D01*
X151059973Y-116560365D01*
X150887835Y-116675384D01*
X150887834Y-116675385D01*
X150887833Y-116675385D01*
X150696564Y-116754611D01*
X150493516Y-116795000D01*
X150286484Y-116795000D01*
X150083436Y-116754611D01*
X149892167Y-116675385D01*
X149892166Y-116675385D01*
X149892165Y-116675384D01*
X149720027Y-116560365D01*
X149573635Y-116413973D01*
X149458616Y-116241835D01*
X149458615Y-116241833D01*
X149379389Y-116050564D01*
X149339000Y-115847516D01*
X149339000Y-115640484D01*
X149379389Y-115437436D01*
X149458615Y-115246167D01*
X149573635Y-115074027D01*
X149720027Y-114927635D01*
X149892165Y-114812616D01*
X149892167Y-114812615D01*
X150083436Y-114733389D01*
X150286484Y-114693000D01*
X150493516Y-114693000D01*
X150696564Y-114733389D01*
X150696564Y-114733389D01*
G37*
G36*
X136196564Y-114733389D02*
G01*
X136387833Y-114812615D01*
X136387835Y-114812616D01*
X136559973Y-114927635D01*
X136706365Y-115074027D01*
X136821385Y-115246167D01*
X136900611Y-115437436D01*
X136941000Y-115640484D01*
X136941000Y-115847516D01*
X136900611Y-116050564D01*
X136821385Y-116241833D01*
X136821384Y-116241835D01*
X136706365Y-116413973D01*
X136559973Y-116560365D01*
X136387835Y-116675384D01*
X136387834Y-116675385D01*
X136387833Y-116675385D01*
X136196564Y-116754611D01*
X135993516Y-116795000D01*
X135786484Y-116795000D01*
X135583436Y-116754611D01*
X135392167Y-116675385D01*
X135392166Y-116675385D01*
X135392165Y-116675384D01*
X135220027Y-116560365D01*
X135073635Y-116413973D01*
X134958616Y-116241835D01*
X134958615Y-116241833D01*
X134879389Y-116050564D01*
X134839000Y-115847516D01*
X134839000Y-115640484D01*
X134879389Y-115437436D01*
X134958615Y-115246167D01*
X135073635Y-115074027D01*
X135220027Y-114927635D01*
X135392165Y-114812616D01*
X135392167Y-114812615D01*
X135583436Y-114733389D01*
X135786484Y-114693000D01*
X135993516Y-114693000D01*
X136196564Y-114733389D01*
X136196564Y-114733389D01*
G37*
G36*
X136196564Y-112233389D02*
G01*
X136387833Y-112312615D01*
X136387835Y-112312616D01*
X136559973Y-112427635D01*
X136706365Y-112574027D01*
X136821385Y-112746167D01*
X136900611Y-112937436D01*
X136941000Y-113140484D01*
X136941000Y-113347516D01*
X136900611Y-113550564D01*
X136821385Y-113741833D01*
X136821384Y-113741835D01*
X136706365Y-113913973D01*
X136559973Y-114060365D01*
X136387835Y-114175384D01*
X136387834Y-114175385D01*
X136387833Y-114175385D01*
X136196564Y-114254611D01*
X135993516Y-114295000D01*
X135786484Y-114295000D01*
X135583436Y-114254611D01*
X135392167Y-114175385D01*
X135392166Y-114175385D01*
X135392165Y-114175384D01*
X135220027Y-114060365D01*
X135073635Y-113913973D01*
X134958616Y-113741835D01*
X134958615Y-113741833D01*
X134879389Y-113550564D01*
X134839000Y-113347516D01*
X134839000Y-113140484D01*
X134879389Y-112937436D01*
X134958615Y-112746167D01*
X135073635Y-112574027D01*
X135220027Y-112427635D01*
X135392165Y-112312616D01*
X135392167Y-112312615D01*
X135583436Y-112233389D01*
X135786484Y-112193000D01*
X135993516Y-112193000D01*
X136196564Y-112233389D01*
X136196564Y-112233389D01*
G37*
G36*
X136941000Y-111795000D02*
G01*
X134839000Y-111795000D01*
X134839000Y-109693000D01*
X136941000Y-109693000D01*
X136941000Y-111795000D01*
X136941000Y-111795000D01*
G37*
G36*
X150696564Y-109733389D02*
G01*
X150887833Y-109812615D01*
X150887835Y-109812616D01*
X151059973Y-109927635D01*
X151206365Y-110074027D01*
X151321385Y-110246167D01*
X151400611Y-110437436D01*
X151441000Y-110640484D01*
X151441000Y-110847516D01*
X151400611Y-111050564D01*
X151321385Y-111241833D01*
X151321384Y-111241835D01*
X151206365Y-111413973D01*
X151059973Y-111560365D01*
X150887835Y-111675384D01*
X150887834Y-111675385D01*
X150887833Y-111675385D01*
X150696564Y-111754611D01*
X150493516Y-111795000D01*
X150286484Y-111795000D01*
X150083436Y-111754611D01*
X149892167Y-111675385D01*
X149892166Y-111675385D01*
X149892165Y-111675384D01*
X149720027Y-111560365D01*
X149573635Y-111413973D01*
X149458616Y-111241835D01*
X149458615Y-111241833D01*
X149379389Y-111050564D01*
X149339000Y-110847516D01*
X149339000Y-110640484D01*
X149379389Y-110437436D01*
X149458615Y-110246167D01*
X149573635Y-110074027D01*
X149720027Y-109927635D01*
X149892165Y-109812616D01*
X149892167Y-109812615D01*
X150083436Y-109733389D01*
X150286484Y-109693000D01*
X150493516Y-109693000D01*
X150696564Y-109733389D01*
X150696564Y-109733389D01*
G37*
G36*
X109685871Y-108652786D02*
G01*
X109891530Y-108715172D01*
X110081055Y-108816475D01*
X110081058Y-108816477D01*
X110081059Y-108816478D01*
X110247186Y-108952814D01*
X110383522Y-109118941D01*
X110383525Y-109118945D01*
X110484828Y-109308470D01*
X110547214Y-109514129D01*
X110568278Y-109728000D01*
X110547214Y-109941871D01*
X110484828Y-110147530D01*
X110383525Y-110337055D01*
X110383523Y-110337058D01*
X110383522Y-110337059D01*
X110247186Y-110503186D01*
X110081059Y-110639522D01*
X110081055Y-110639525D01*
X109891530Y-110740828D01*
X109685871Y-110803214D01*
X109525591Y-110819000D01*
X107898409Y-110819000D01*
X107738129Y-110803214D01*
X107532470Y-110740828D01*
X107342945Y-110639525D01*
X107342941Y-110639522D01*
X107176814Y-110503186D01*
X107040478Y-110337059D01*
X107040477Y-110337058D01*
X107040475Y-110337055D01*
X106939172Y-110147530D01*
X106876786Y-109941871D01*
X106855722Y-109728000D01*
X106876786Y-109514129D01*
X106939172Y-109308470D01*
X107040475Y-109118945D01*
X107040478Y-109118941D01*
X107176814Y-108952814D01*
X107342941Y-108816478D01*
X107342942Y-108816477D01*
X107342945Y-108816475D01*
X107532470Y-108715172D01*
X107738129Y-108652786D01*
X107898409Y-108637000D01*
X109525591Y-108637000D01*
X109685871Y-108652786D01*
X109685871Y-108652786D01*
G37*
G36*
X145041000Y-108695000D02*
G01*
X141739000Y-108695000D01*
X141739000Y-106593000D01*
X145041000Y-106593000D01*
X145041000Y-108695000D01*
X145041000Y-108695000D01*
G37*
G36*
X175887000Y-106548000D02*
G01*
X171585000Y-106548000D01*
X171585000Y-105096000D01*
X175887000Y-105096000D01*
X175887000Y-106548000D01*
X175887000Y-106548000D01*
G37*
G36*
X109685871Y-103572786D02*
G01*
X109891530Y-103635172D01*
X110081055Y-103736475D01*
X110081058Y-103736477D01*
X110081059Y-103736478D01*
X110247186Y-103872814D01*
X110383522Y-104038941D01*
X110383525Y-104038945D01*
X110484828Y-104228470D01*
X110547214Y-104434129D01*
X110568278Y-104648000D01*
X110547214Y-104861871D01*
X110484828Y-105067530D01*
X110383525Y-105257055D01*
X110383523Y-105257058D01*
X110383522Y-105257059D01*
X110247186Y-105423186D01*
X110081059Y-105559522D01*
X110081055Y-105559525D01*
X109891530Y-105660828D01*
X109685871Y-105723214D01*
X109525591Y-105739000D01*
X107898409Y-105739000D01*
X107738129Y-105723214D01*
X107532470Y-105660828D01*
X107342945Y-105559525D01*
X107342941Y-105559522D01*
X107176814Y-105423186D01*
X107040478Y-105257059D01*
X107040477Y-105257058D01*
X107040475Y-105257055D01*
X106939172Y-105067530D01*
X106876786Y-104861871D01*
X106855722Y-104648000D01*
X106876786Y-104434129D01*
X106939172Y-104228470D01*
X107040475Y-104038945D01*
X107040478Y-104038941D01*
X107176814Y-103872814D01*
X107342941Y-103736478D01*
X107342942Y-103736477D01*
X107342945Y-103736475D01*
X107532470Y-103635172D01*
X107738129Y-103572786D01*
X107898409Y-103557000D01*
X109525591Y-103557000D01*
X109685871Y-103572786D01*
X109685871Y-103572786D01*
G37*
G36*
X175887000Y-100898000D02*
G01*
X171585000Y-100898000D01*
X171585000Y-99446000D01*
X175887000Y-99446000D01*
X175887000Y-100898000D01*
X175887000Y-100898000D01*
G37*
G36*
X109685871Y-98492786D02*
G01*
X109891530Y-98555172D01*
X110081055Y-98656475D01*
X110081058Y-98656477D01*
X110081059Y-98656478D01*
X110247186Y-98792814D01*
X110383522Y-98958941D01*
X110383525Y-98958945D01*
X110484828Y-99148470D01*
X110547214Y-99354129D01*
X110568278Y-99568000D01*
X110547214Y-99781871D01*
X110484828Y-99987530D01*
X110383525Y-100177055D01*
X110383523Y-100177058D01*
X110383522Y-100177059D01*
X110247186Y-100343186D01*
X110081059Y-100479522D01*
X110081055Y-100479525D01*
X109891530Y-100580828D01*
X109685871Y-100643214D01*
X109525591Y-100659000D01*
X107898409Y-100659000D01*
X107738129Y-100643214D01*
X107532470Y-100580828D01*
X107342945Y-100479525D01*
X107342941Y-100479522D01*
X107176814Y-100343186D01*
X107040478Y-100177059D01*
X107040477Y-100177058D01*
X107040475Y-100177055D01*
X106939172Y-99987530D01*
X106876786Y-99781871D01*
X106855722Y-99568000D01*
X106876786Y-99354129D01*
X106939172Y-99148470D01*
X107040475Y-98958945D01*
X107040478Y-98958941D01*
X107176814Y-98792814D01*
X107342941Y-98656478D01*
X107342942Y-98656477D01*
X107342945Y-98656475D01*
X107532470Y-98555172D01*
X107738129Y-98492786D01*
X107898409Y-98477000D01*
X109525591Y-98477000D01*
X109685871Y-98492786D01*
X109685871Y-98492786D01*
G37*
G36*
X110428217Y-93400808D02*
G01*
X110459489Y-93410294D01*
X110488308Y-93425698D01*
X110513570Y-93446430D01*
X110534302Y-93471692D01*
X110549706Y-93500511D01*
X110559192Y-93531783D01*
X110563000Y-93570448D01*
X110563000Y-95405552D01*
X110559192Y-95444217D01*
X110549706Y-95475489D01*
X110534302Y-95504308D01*
X110513570Y-95529570D01*
X110488308Y-95550302D01*
X110459489Y-95565706D01*
X110428217Y-95575192D01*
X110389552Y-95579000D01*
X107034448Y-95579000D01*
X106995783Y-95575192D01*
X106964511Y-95565706D01*
X106935692Y-95550302D01*
X106910430Y-95529570D01*
X106889698Y-95504308D01*
X106874294Y-95475489D01*
X106864808Y-95444217D01*
X106861000Y-95405552D01*
X106861000Y-93570448D01*
X106864808Y-93531783D01*
X106874294Y-93500511D01*
X106889698Y-93471692D01*
X106910430Y-93446430D01*
X106935692Y-93425698D01*
X106964511Y-93410294D01*
X106995783Y-93400808D01*
X107034448Y-93397000D01*
X110389552Y-93397000D01*
X110428217Y-93400808D01*
X110428217Y-93400808D01*
G37*
G36*
X137268015Y-90896973D02*
G01*
X137371879Y-90928479D01*
X137399055Y-90943005D01*
X137467600Y-90979643D01*
X137551501Y-91048499D01*
X137620357Y-91132400D01*
X137656995Y-91200945D01*
X137671521Y-91228121D01*
X137675388Y-91240869D01*
X137684760Y-91263496D01*
X137698374Y-91283870D01*
X137715701Y-91301197D01*
X137736075Y-91314811D01*
X137758714Y-91324188D01*
X137782747Y-91328969D01*
X137807251Y-91328969D01*
X137831285Y-91324189D01*
X137853924Y-91314812D01*
X137874298Y-91301198D01*
X137891625Y-91283871D01*
X137905239Y-91263497D01*
X137914612Y-91240869D01*
X137918479Y-91228121D01*
X137933005Y-91200945D01*
X137969643Y-91132400D01*
X138038499Y-91048499D01*
X138122400Y-90979643D01*
X138190945Y-90943005D01*
X138218121Y-90928479D01*
X138321985Y-90896973D01*
X138402933Y-90889000D01*
X138457067Y-90889000D01*
X138538015Y-90896973D01*
X138641879Y-90928479D01*
X138669055Y-90943005D01*
X138737600Y-90979643D01*
X138821501Y-91048499D01*
X138890357Y-91132400D01*
X138926995Y-91200945D01*
X138941521Y-91228121D01*
X138945388Y-91240869D01*
X138954760Y-91263496D01*
X138968374Y-91283870D01*
X138985701Y-91301197D01*
X139006075Y-91314811D01*
X139028714Y-91324188D01*
X139052747Y-91328969D01*
X139077251Y-91328969D01*
X139101285Y-91324189D01*
X139123924Y-91314812D01*
X139144298Y-91301198D01*
X139161625Y-91283871D01*
X139175239Y-91263497D01*
X139184612Y-91240869D01*
X139188479Y-91228121D01*
X139203005Y-91200945D01*
X139239643Y-91132400D01*
X139308499Y-91048499D01*
X139392400Y-90979643D01*
X139460945Y-90943005D01*
X139488121Y-90928479D01*
X139591985Y-90896973D01*
X139672933Y-90889000D01*
X139727067Y-90889000D01*
X139808015Y-90896973D01*
X139911879Y-90928479D01*
X139939055Y-90943005D01*
X140007600Y-90979643D01*
X140091501Y-91048499D01*
X140160357Y-91132400D01*
X140196995Y-91200945D01*
X140211521Y-91228121D01*
X140215388Y-91240869D01*
X140224760Y-91263496D01*
X140238374Y-91283870D01*
X140255701Y-91301197D01*
X140276075Y-91314811D01*
X140298714Y-91324188D01*
X140322747Y-91328969D01*
X140347251Y-91328969D01*
X140371285Y-91324189D01*
X140393924Y-91314812D01*
X140414298Y-91301198D01*
X140431625Y-91283871D01*
X140445239Y-91263497D01*
X140454612Y-91240869D01*
X140458479Y-91228121D01*
X140473005Y-91200945D01*
X140509643Y-91132400D01*
X140578499Y-91048499D01*
X140662400Y-90979643D01*
X140730945Y-90943005D01*
X140758121Y-90928479D01*
X140861985Y-90896973D01*
X140942933Y-90889000D01*
X140997067Y-90889000D01*
X141078015Y-90896973D01*
X141181879Y-90928479D01*
X141209055Y-90943005D01*
X141277600Y-90979643D01*
X141361501Y-91048499D01*
X141430357Y-91132400D01*
X141466995Y-91200945D01*
X141481521Y-91228121D01*
X141485388Y-91240869D01*
X141494760Y-91263496D01*
X141508374Y-91283870D01*
X141525701Y-91301197D01*
X141546075Y-91314811D01*
X141568714Y-91324188D01*
X141592747Y-91328969D01*
X141617251Y-91328969D01*
X141641285Y-91324189D01*
X141663924Y-91314812D01*
X141684298Y-91301198D01*
X141701625Y-91283871D01*
X141715239Y-91263497D01*
X141724612Y-91240869D01*
X141728479Y-91228121D01*
X141743005Y-91200945D01*
X141779643Y-91132400D01*
X141848499Y-91048499D01*
X141932400Y-90979643D01*
X142000945Y-90943005D01*
X142028121Y-90928479D01*
X142131985Y-90896973D01*
X142212933Y-90889000D01*
X142267067Y-90889000D01*
X142348015Y-90896973D01*
X142451879Y-90928479D01*
X142479055Y-90943005D01*
X142547600Y-90979643D01*
X142631501Y-91048499D01*
X142700357Y-91132400D01*
X142736995Y-91200945D01*
X142751521Y-91228121D01*
X142783027Y-91331985D01*
X142793666Y-91440000D01*
X142783027Y-91548015D01*
X142751521Y-91651879D01*
X142751519Y-91651882D01*
X142700357Y-91747600D01*
X142631501Y-91831501D01*
X142547600Y-91900357D01*
X142492014Y-91930068D01*
X142451879Y-91951521D01*
X142439131Y-91955388D01*
X142416504Y-91964760D01*
X142396130Y-91978374D01*
X142378803Y-91995701D01*
X142365189Y-92016075D01*
X142355812Y-92038714D01*
X142351031Y-92062747D01*
X142351031Y-92087251D01*
X142355811Y-92111285D01*
X142365188Y-92133924D01*
X142378802Y-92154298D01*
X142396129Y-92171625D01*
X142416503Y-92185239D01*
X142439131Y-92194612D01*
X142451879Y-92198479D01*
X142479055Y-92213005D01*
X142547600Y-92249643D01*
X142631501Y-92318499D01*
X142700357Y-92402400D01*
X142736995Y-92470945D01*
X142751521Y-92498121D01*
X142783027Y-92601985D01*
X142793666Y-92710000D01*
X142783027Y-92818015D01*
X142751521Y-92921879D01*
X142751191Y-92922496D01*
X142700357Y-93017600D01*
X142631501Y-93101501D01*
X142547600Y-93170357D01*
X142479055Y-93206995D01*
X142451879Y-93221521D01*
X142348015Y-93253027D01*
X142267067Y-93261000D01*
X142212933Y-93261000D01*
X142131985Y-93253027D01*
X142028121Y-93221521D01*
X142000945Y-93206995D01*
X141932400Y-93170357D01*
X141848499Y-93101501D01*
X141779643Y-93017600D01*
X141728809Y-92922496D01*
X141728479Y-92921879D01*
X141724612Y-92909131D01*
X141715240Y-92886504D01*
X141701626Y-92866130D01*
X141684299Y-92848803D01*
X141663925Y-92835189D01*
X141641286Y-92825812D01*
X141617253Y-92821031D01*
X141592749Y-92821031D01*
X141568715Y-92825811D01*
X141546076Y-92835188D01*
X141525702Y-92848802D01*
X141508375Y-92866129D01*
X141494761Y-92886503D01*
X141485388Y-92909131D01*
X141481521Y-92921879D01*
X141481191Y-92922496D01*
X141430357Y-93017600D01*
X141361501Y-93101501D01*
X141277600Y-93170357D01*
X141209055Y-93206995D01*
X141181879Y-93221521D01*
X141078015Y-93253027D01*
X140997067Y-93261000D01*
X140942933Y-93261000D01*
X140861985Y-93253027D01*
X140758121Y-93221521D01*
X140730945Y-93206995D01*
X140662400Y-93170357D01*
X140578499Y-93101501D01*
X140509643Y-93017600D01*
X140458809Y-92922496D01*
X140458479Y-92921879D01*
X140454612Y-92909131D01*
X140445240Y-92886504D01*
X140431626Y-92866130D01*
X140414299Y-92848803D01*
X140393925Y-92835189D01*
X140371286Y-92825812D01*
X140347253Y-92821031D01*
X140322749Y-92821031D01*
X140298715Y-92825811D01*
X140276076Y-92835188D01*
X140255702Y-92848802D01*
X140238375Y-92866129D01*
X140224761Y-92886503D01*
X140215388Y-92909131D01*
X140211521Y-92921879D01*
X140211191Y-92922496D01*
X140160357Y-93017600D01*
X140091501Y-93101501D01*
X140007600Y-93170357D01*
X139939055Y-93206995D01*
X139911879Y-93221521D01*
X139808015Y-93253027D01*
X139727067Y-93261000D01*
X139672933Y-93261000D01*
X139591985Y-93253027D01*
X139488121Y-93221521D01*
X139460945Y-93206995D01*
X139392400Y-93170357D01*
X139308499Y-93101501D01*
X139239643Y-93017600D01*
X139188809Y-92922496D01*
X139188479Y-92921879D01*
X139184612Y-92909131D01*
X139175240Y-92886504D01*
X139161626Y-92866130D01*
X139144299Y-92848803D01*
X139123925Y-92835189D01*
X139101286Y-92825812D01*
X139077253Y-92821031D01*
X139052749Y-92821031D01*
X139028715Y-92825811D01*
X139006076Y-92835188D01*
X138985702Y-92848802D01*
X138968375Y-92866129D01*
X138954761Y-92886503D01*
X138945388Y-92909131D01*
X138941521Y-92921879D01*
X138941191Y-92922496D01*
X138890357Y-93017600D01*
X138821501Y-93101501D01*
X138737600Y-93170357D01*
X138669055Y-93206995D01*
X138641879Y-93221521D01*
X138538015Y-93253027D01*
X138457067Y-93261000D01*
X138402933Y-93261000D01*
X138321985Y-93253027D01*
X138218121Y-93221521D01*
X138190945Y-93206995D01*
X138122400Y-93170357D01*
X138038499Y-93101501D01*
X137969645Y-93017601D01*
X137969644Y-93017600D01*
X137946236Y-92973807D01*
X137932625Y-92953437D01*
X137915298Y-92936110D01*
X137894924Y-92922496D01*
X137872285Y-92913119D01*
X137848252Y-92908338D01*
X137823748Y-92908338D01*
X137799714Y-92913118D01*
X137777076Y-92922495D01*
X137756701Y-92936109D01*
X137739374Y-92953436D01*
X137725760Y-92973810D01*
X137716383Y-92996449D01*
X137711602Y-93020482D01*
X137711000Y-93032735D01*
X137711000Y-93261000D01*
X136609000Y-93261000D01*
X136609000Y-92159000D01*
X136837265Y-92159000D01*
X136861651Y-92156598D01*
X136885100Y-92149485D01*
X136906711Y-92137934D01*
X136925653Y-92122389D01*
X136941198Y-92103447D01*
X136952749Y-92081836D01*
X136959862Y-92058387D01*
X136962264Y-92034001D01*
X136961058Y-92021748D01*
X137358338Y-92021748D01*
X137358338Y-92046252D01*
X137363118Y-92070286D01*
X137372495Y-92092924D01*
X137386109Y-92113299D01*
X137403436Y-92130626D01*
X137423810Y-92144240D01*
X137446449Y-92153617D01*
X137470482Y-92158398D01*
X137482735Y-92159000D01*
X137711000Y-92159000D01*
X137711000Y-92387265D01*
X137713402Y-92411651D01*
X137720515Y-92435100D01*
X137732066Y-92456711D01*
X137747611Y-92475653D01*
X137766553Y-92491198D01*
X137788164Y-92502749D01*
X137811613Y-92509862D01*
X137835999Y-92512264D01*
X137860385Y-92509862D01*
X137883834Y-92502749D01*
X137905445Y-92491198D01*
X137924387Y-92475653D01*
X137939932Y-92456711D01*
X137946233Y-92446198D01*
X137969644Y-92402400D01*
X138038499Y-92318499D01*
X138122400Y-92249643D01*
X138190945Y-92213005D01*
X138218121Y-92198479D01*
X138230869Y-92194612D01*
X138253496Y-92185240D01*
X138273870Y-92171626D01*
X138291197Y-92154299D01*
X138304811Y-92133925D01*
X138314188Y-92111286D01*
X138318969Y-92087253D01*
X138318969Y-92062749D01*
X138318969Y-92062747D01*
X138541031Y-92062747D01*
X138541031Y-92087251D01*
X138545811Y-92111285D01*
X138555188Y-92133924D01*
X138568802Y-92154298D01*
X138586129Y-92171625D01*
X138606503Y-92185239D01*
X138629131Y-92194612D01*
X138641879Y-92198479D01*
X138669055Y-92213005D01*
X138737600Y-92249643D01*
X138821501Y-92318499D01*
X138890357Y-92402400D01*
X138926995Y-92470945D01*
X138941521Y-92498121D01*
X138945388Y-92510869D01*
X138954760Y-92533496D01*
X138968374Y-92553870D01*
X138985701Y-92571197D01*
X139006075Y-92584811D01*
X139028714Y-92594188D01*
X139052747Y-92598969D01*
X139077251Y-92598969D01*
X139101285Y-92594189D01*
X139123924Y-92584812D01*
X139144298Y-92571198D01*
X139161625Y-92553871D01*
X139175239Y-92533497D01*
X139184612Y-92510869D01*
X139188479Y-92498121D01*
X139203005Y-92470945D01*
X139239643Y-92402400D01*
X139308499Y-92318499D01*
X139392400Y-92249643D01*
X139460945Y-92213005D01*
X139488121Y-92198479D01*
X139500869Y-92194612D01*
X139523496Y-92185240D01*
X139543870Y-92171626D01*
X139561197Y-92154299D01*
X139574811Y-92133925D01*
X139584188Y-92111286D01*
X139588969Y-92087253D01*
X139588969Y-92062749D01*
X139588969Y-92062747D01*
X139811031Y-92062747D01*
X139811031Y-92087251D01*
X139815811Y-92111285D01*
X139825188Y-92133924D01*
X139838802Y-92154298D01*
X139856129Y-92171625D01*
X139876503Y-92185239D01*
X139899131Y-92194612D01*
X139911879Y-92198479D01*
X139939055Y-92213005D01*
X140007600Y-92249643D01*
X140091501Y-92318499D01*
X140160357Y-92402400D01*
X140196995Y-92470945D01*
X140211521Y-92498121D01*
X140215388Y-92510869D01*
X140224760Y-92533496D01*
X140238374Y-92553870D01*
X140255701Y-92571197D01*
X140276075Y-92584811D01*
X140298714Y-92594188D01*
X140322747Y-92598969D01*
X140347251Y-92598969D01*
X140371285Y-92594189D01*
X140393924Y-92584812D01*
X140414298Y-92571198D01*
X140431625Y-92553871D01*
X140445239Y-92533497D01*
X140454612Y-92510869D01*
X140458479Y-92498121D01*
X140473005Y-92470945D01*
X140509643Y-92402400D01*
X140578499Y-92318499D01*
X140662400Y-92249643D01*
X140730945Y-92213005D01*
X140758121Y-92198479D01*
X140770869Y-92194612D01*
X140793496Y-92185240D01*
X140813870Y-92171626D01*
X140831197Y-92154299D01*
X140844811Y-92133925D01*
X140854188Y-92111286D01*
X140858969Y-92087253D01*
X140858969Y-92062749D01*
X140858969Y-92062747D01*
X141081031Y-92062747D01*
X141081031Y-92087251D01*
X141085811Y-92111285D01*
X141095188Y-92133924D01*
X141108802Y-92154298D01*
X141126129Y-92171625D01*
X141146503Y-92185239D01*
X141169131Y-92194612D01*
X141181879Y-92198479D01*
X141209055Y-92213005D01*
X141277600Y-92249643D01*
X141361501Y-92318499D01*
X141430357Y-92402400D01*
X141466995Y-92470945D01*
X141481521Y-92498121D01*
X141485388Y-92510869D01*
X141494760Y-92533496D01*
X141508374Y-92553870D01*
X141525701Y-92571197D01*
X141546075Y-92584811D01*
X141568714Y-92594188D01*
X141592747Y-92598969D01*
X141617251Y-92598969D01*
X141641285Y-92594189D01*
X141663924Y-92584812D01*
X141684298Y-92571198D01*
X141701625Y-92553871D01*
X141715239Y-92533497D01*
X141724612Y-92510869D01*
X141728479Y-92498121D01*
X141743005Y-92470945D01*
X141779643Y-92402400D01*
X141848499Y-92318499D01*
X141932400Y-92249643D01*
X142000945Y-92213005D01*
X142028121Y-92198479D01*
X142040869Y-92194612D01*
X142063496Y-92185240D01*
X142083870Y-92171626D01*
X142101197Y-92154299D01*
X142114811Y-92133925D01*
X142124188Y-92111286D01*
X142128969Y-92087253D01*
X142128969Y-92062749D01*
X142124189Y-92038715D01*
X142114812Y-92016076D01*
X142101198Y-91995702D01*
X142083871Y-91978375D01*
X142063497Y-91964761D01*
X142040869Y-91955388D01*
X142028121Y-91951521D01*
X141987986Y-91930068D01*
X141932400Y-91900357D01*
X141848499Y-91831501D01*
X141779643Y-91747600D01*
X141728481Y-91651882D01*
X141728479Y-91651879D01*
X141724612Y-91639131D01*
X141715240Y-91616504D01*
X141701626Y-91596130D01*
X141684299Y-91578803D01*
X141663925Y-91565189D01*
X141641286Y-91555812D01*
X141617253Y-91551031D01*
X141592749Y-91551031D01*
X141568715Y-91555811D01*
X141546076Y-91565188D01*
X141525702Y-91578802D01*
X141508375Y-91596129D01*
X141494761Y-91616503D01*
X141485388Y-91639131D01*
X141481521Y-91651879D01*
X141481519Y-91651882D01*
X141430357Y-91747600D01*
X141361501Y-91831501D01*
X141277600Y-91900357D01*
X141222014Y-91930068D01*
X141181879Y-91951521D01*
X141169131Y-91955388D01*
X141146504Y-91964760D01*
X141126130Y-91978374D01*
X141108803Y-91995701D01*
X141095189Y-92016075D01*
X141085812Y-92038714D01*
X141081031Y-92062747D01*
X140858969Y-92062747D01*
X140854189Y-92038715D01*
X140844812Y-92016076D01*
X140831198Y-91995702D01*
X140813871Y-91978375D01*
X140793497Y-91964761D01*
X140770869Y-91955388D01*
X140758121Y-91951521D01*
X140717986Y-91930068D01*
X140662400Y-91900357D01*
X140578499Y-91831501D01*
X140509643Y-91747600D01*
X140458481Y-91651882D01*
X140458479Y-91651879D01*
X140454612Y-91639131D01*
X140445240Y-91616504D01*
X140431626Y-91596130D01*
X140414299Y-91578803D01*
X140393925Y-91565189D01*
X140371286Y-91555812D01*
X140347253Y-91551031D01*
X140322749Y-91551031D01*
X140298715Y-91555811D01*
X140276076Y-91565188D01*
X140255702Y-91578802D01*
X140238375Y-91596129D01*
X140224761Y-91616503D01*
X140215388Y-91639131D01*
X140211521Y-91651879D01*
X140211519Y-91651882D01*
X140160357Y-91747600D01*
X140091501Y-91831501D01*
X140007600Y-91900357D01*
X139952014Y-91930068D01*
X139911879Y-91951521D01*
X139899131Y-91955388D01*
X139876504Y-91964760D01*
X139856130Y-91978374D01*
X139838803Y-91995701D01*
X139825189Y-92016075D01*
X139815812Y-92038714D01*
X139811031Y-92062747D01*
X139588969Y-92062747D01*
X139584189Y-92038715D01*
X139574812Y-92016076D01*
X139561198Y-91995702D01*
X139543871Y-91978375D01*
X139523497Y-91964761D01*
X139500869Y-91955388D01*
X139488121Y-91951521D01*
X139447986Y-91930068D01*
X139392400Y-91900357D01*
X139308499Y-91831501D01*
X139239643Y-91747600D01*
X139188481Y-91651882D01*
X139188479Y-91651879D01*
X139184612Y-91639131D01*
X139175240Y-91616504D01*
X139161626Y-91596130D01*
X139144299Y-91578803D01*
X139123925Y-91565189D01*
X139101286Y-91555812D01*
X139077253Y-91551031D01*
X139052749Y-91551031D01*
X139028715Y-91555811D01*
X139006076Y-91565188D01*
X138985702Y-91578802D01*
X138968375Y-91596129D01*
X138954761Y-91616503D01*
X138945388Y-91639131D01*
X138941521Y-91651879D01*
X138941519Y-91651882D01*
X138890357Y-91747600D01*
X138821501Y-91831501D01*
X138737600Y-91900357D01*
X138682014Y-91930068D01*
X138641879Y-91951521D01*
X138629131Y-91955388D01*
X138606504Y-91964760D01*
X138586130Y-91978374D01*
X138568803Y-91995701D01*
X138555189Y-92016075D01*
X138545812Y-92038714D01*
X138541031Y-92062747D01*
X138318969Y-92062747D01*
X138314189Y-92038715D01*
X138304812Y-92016076D01*
X138291198Y-91995702D01*
X138273871Y-91978375D01*
X138253497Y-91964761D01*
X138230869Y-91955388D01*
X138218121Y-91951521D01*
X138177986Y-91930068D01*
X138122400Y-91900357D01*
X138038499Y-91831501D01*
X137969643Y-91747600D01*
X137918481Y-91651882D01*
X137918479Y-91651879D01*
X137914612Y-91639131D01*
X137905240Y-91616504D01*
X137891626Y-91596130D01*
X137874299Y-91578803D01*
X137853925Y-91565189D01*
X137831286Y-91555812D01*
X137807253Y-91551031D01*
X137782749Y-91551031D01*
X137758715Y-91555811D01*
X137736076Y-91565188D01*
X137715702Y-91578802D01*
X137698375Y-91596129D01*
X137684761Y-91616503D01*
X137675388Y-91639131D01*
X137671521Y-91651879D01*
X137671519Y-91651882D01*
X137620357Y-91747600D01*
X137551501Y-91831501D01*
X137467600Y-91900356D01*
X137423807Y-91923764D01*
X137403437Y-91937375D01*
X137386110Y-91954702D01*
X137372496Y-91975076D01*
X137363119Y-91997715D01*
X137358338Y-92021748D01*
X136961058Y-92021748D01*
X136959862Y-92009615D01*
X136952749Y-91986166D01*
X136941198Y-91964555D01*
X136925653Y-91945613D01*
X136906711Y-91930068D01*
X136896198Y-91923767D01*
X136852400Y-91900356D01*
X136768499Y-91831501D01*
X136699643Y-91747600D01*
X136648481Y-91651882D01*
X136648479Y-91651879D01*
X136616973Y-91548015D01*
X136606334Y-91440000D01*
X136616973Y-91331985D01*
X136648479Y-91228121D01*
X136663005Y-91200945D01*
X136699643Y-91132400D01*
X136768499Y-91048499D01*
X136852400Y-90979643D01*
X136920945Y-90943005D01*
X136948121Y-90928479D01*
X137051985Y-90896973D01*
X137132933Y-90889000D01*
X137187067Y-90889000D01*
X137268015Y-90896973D01*
X137268015Y-90896973D01*
G37*
G36*
X127393000Y-93103000D02*
G01*
X125591000Y-93103000D01*
X125591000Y-91301000D01*
X127393000Y-91301000D01*
X127393000Y-93103000D01*
X127393000Y-93103000D01*
G37*
G36*
X108049916Y-87970334D02*
G01*
X108158492Y-88003271D01*
X108158495Y-88003272D01*
X108194601Y-88022571D01*
X108258557Y-88056756D01*
X108346264Y-88128736D01*
X108418244Y-88216443D01*
X108452429Y-88280399D01*
X108471728Y-88316505D01*
X108471729Y-88316508D01*
X108504666Y-88425084D01*
X108515787Y-88538000D01*
X108504666Y-88650916D01*
X108471729Y-88759492D01*
X108471728Y-88759495D01*
X108461738Y-88778185D01*
X108418244Y-88859557D01*
X108346264Y-88947264D01*
X108258557Y-89019244D01*
X108194601Y-89053429D01*
X108158495Y-89072728D01*
X108158492Y-89072729D01*
X108049916Y-89105666D01*
X107965298Y-89114000D01*
X107058702Y-89114000D01*
X106974084Y-89105666D01*
X106865508Y-89072729D01*
X106865505Y-89072728D01*
X106829399Y-89053429D01*
X106765443Y-89019244D01*
X106677736Y-88947264D01*
X106605756Y-88859557D01*
X106562262Y-88778185D01*
X106552272Y-88759495D01*
X106552271Y-88759492D01*
X106519334Y-88650916D01*
X106508213Y-88538000D01*
X106519334Y-88425084D01*
X106552271Y-88316508D01*
X106552272Y-88316505D01*
X106571571Y-88280399D01*
X106605756Y-88216443D01*
X106677736Y-88128736D01*
X106765443Y-88056756D01*
X106829399Y-88022571D01*
X106865505Y-88003272D01*
X106865508Y-88003271D01*
X106974084Y-87970334D01*
X107058702Y-87962000D01*
X107965298Y-87962000D01*
X108049916Y-87970334D01*
X108049916Y-87970334D01*
G37*
G36*
X173846442Y-87243518D02*
G01*
X173912627Y-87250037D01*
X174082466Y-87301557D01*
X174238991Y-87385222D01*
X174274729Y-87414552D01*
X174376186Y-87497814D01*
X174459448Y-87599271D01*
X174488778Y-87635009D01*
X174572443Y-87791534D01*
X174623963Y-87961373D01*
X174641359Y-88138000D01*
X174623963Y-88314627D01*
X174572443Y-88484466D01*
X174488778Y-88640991D01*
X174459448Y-88676729D01*
X174376186Y-88778186D01*
X174277036Y-88859555D01*
X174238991Y-88890778D01*
X174082466Y-88974443D01*
X173912627Y-89025963D01*
X173846442Y-89032482D01*
X173780260Y-89039000D01*
X173691740Y-89039000D01*
X173625557Y-89032481D01*
X173559373Y-89025963D01*
X173389534Y-88974443D01*
X173233009Y-88890778D01*
X173194964Y-88859555D01*
X173095814Y-88778186D01*
X173012552Y-88676729D01*
X172983222Y-88640991D01*
X172899557Y-88484466D01*
X172848037Y-88314627D01*
X172830641Y-88138000D01*
X172848037Y-87961373D01*
X172899557Y-87791534D01*
X172983222Y-87635009D01*
X173012552Y-87599271D01*
X173095814Y-87497814D01*
X173197271Y-87414552D01*
X173233009Y-87385222D01*
X173389534Y-87301557D01*
X173559373Y-87250037D01*
X173625558Y-87243518D01*
X173691740Y-87237000D01*
X173780260Y-87237000D01*
X173846442Y-87243518D01*
X173846442Y-87243518D01*
G37*
G36*
X127393000Y-89039000D02*
G01*
X125591000Y-89039000D01*
X125591000Y-87237000D01*
X127393000Y-87237000D01*
X127393000Y-89039000D01*
X127393000Y-89039000D01*
G37*
G36*
X167779000Y-86880000D02*
G01*
X165977000Y-86880000D01*
X165977000Y-85078000D01*
X167779000Y-85078000D01*
X167779000Y-86880000D01*
X167779000Y-86880000D01*
G37*
G36*
X173846443Y-84703519D02*
G01*
X173912627Y-84710037D01*
X174082466Y-84761557D01*
X174238991Y-84845222D01*
X174274729Y-84874552D01*
X174376186Y-84957814D01*
X174459448Y-85059271D01*
X174488778Y-85095009D01*
X174572443Y-85251534D01*
X174623963Y-85421373D01*
X174641359Y-85598000D01*
X174623963Y-85774627D01*
X174572443Y-85944466D01*
X174488778Y-86100991D01*
X174459448Y-86136729D01*
X174376186Y-86238186D01*
X174274729Y-86321448D01*
X174238991Y-86350778D01*
X174082466Y-86434443D01*
X173912627Y-86485963D01*
X173846442Y-86492482D01*
X173780260Y-86499000D01*
X173691740Y-86499000D01*
X173625558Y-86492482D01*
X173559373Y-86485963D01*
X173389534Y-86434443D01*
X173233009Y-86350778D01*
X173197271Y-86321448D01*
X173095814Y-86238186D01*
X173012552Y-86136729D01*
X172983222Y-86100991D01*
X172899557Y-85944466D01*
X172848037Y-85774627D01*
X172830641Y-85598000D01*
X172848037Y-85421373D01*
X172899557Y-85251534D01*
X172983222Y-85095009D01*
X173012552Y-85059271D01*
X173095814Y-84957814D01*
X173197271Y-84874552D01*
X173233009Y-84845222D01*
X173389534Y-84761557D01*
X173559373Y-84710037D01*
X173625557Y-84703519D01*
X173691740Y-84697000D01*
X173780260Y-84697000D01*
X173846443Y-84703519D01*
X173846443Y-84703519D01*
G37*
G36*
X173846442Y-82163518D02*
G01*
X173912627Y-82170037D01*
X174082466Y-82221557D01*
X174238991Y-82305222D01*
X174274729Y-82334552D01*
X174376186Y-82417814D01*
X174459448Y-82519271D01*
X174488778Y-82555009D01*
X174572443Y-82711534D01*
X174623963Y-82881373D01*
X174641359Y-83058000D01*
X174623963Y-83234627D01*
X174572443Y-83404466D01*
X174488778Y-83560991D01*
X174459448Y-83596729D01*
X174376186Y-83698186D01*
X174274729Y-83781448D01*
X174238991Y-83810778D01*
X174082466Y-83894443D01*
X173912627Y-83945963D01*
X173846442Y-83952482D01*
X173780260Y-83959000D01*
X173691740Y-83959000D01*
X173625558Y-83952482D01*
X173559373Y-83945963D01*
X173389534Y-83894443D01*
X173233009Y-83810778D01*
X173197271Y-83781448D01*
X173095814Y-83698186D01*
X173012552Y-83596729D01*
X172983222Y-83560991D01*
X172899557Y-83404466D01*
X172848037Y-83234627D01*
X172830641Y-83058000D01*
X172848037Y-82881373D01*
X172899557Y-82711534D01*
X172983222Y-82555009D01*
X173012552Y-82519271D01*
X173095814Y-82417814D01*
X173197271Y-82334552D01*
X173233009Y-82305222D01*
X173389534Y-82221557D01*
X173559373Y-82170037D01*
X173625558Y-82163518D01*
X173691740Y-82157000D01*
X173780260Y-82157000D01*
X173846442Y-82163518D01*
X173846442Y-82163518D01*
G37*
G36*
X123046443Y-81401519D02*
G01*
X123112627Y-81408037D01*
X123282466Y-81459557D01*
X123438991Y-81543222D01*
X123474729Y-81572552D01*
X123576186Y-81655814D01*
X123659448Y-81757271D01*
X123688778Y-81793009D01*
X123772443Y-81949534D01*
X123823963Y-82119373D01*
X123841359Y-82296000D01*
X123823963Y-82472627D01*
X123772443Y-82642466D01*
X123688778Y-82798991D01*
X123659448Y-82834729D01*
X123576186Y-82936186D01*
X123474729Y-83019448D01*
X123438991Y-83048778D01*
X123282466Y-83132443D01*
X123112627Y-83183963D01*
X123046442Y-83190482D01*
X122980260Y-83197000D01*
X122891740Y-83197000D01*
X122825558Y-83190482D01*
X122759373Y-83183963D01*
X122589534Y-83132443D01*
X122433009Y-83048778D01*
X122397271Y-83019448D01*
X122295814Y-82936186D01*
X122212552Y-82834729D01*
X122183222Y-82798991D01*
X122099557Y-82642466D01*
X122048037Y-82472627D01*
X122030641Y-82296000D01*
X122048037Y-82119373D01*
X122099557Y-81949534D01*
X122183222Y-81793009D01*
X122212552Y-81757271D01*
X122295814Y-81655814D01*
X122397271Y-81572552D01*
X122433009Y-81543222D01*
X122589534Y-81459557D01*
X122759373Y-81408037D01*
X122825557Y-81401519D01*
X122891740Y-81395000D01*
X122980260Y-81395000D01*
X123046443Y-81401519D01*
X123046443Y-81401519D01*
G37*
G36*
X125586443Y-81401519D02*
G01*
X125652627Y-81408037D01*
X125822466Y-81459557D01*
X125978991Y-81543222D01*
X126014729Y-81572552D01*
X126116186Y-81655814D01*
X126199448Y-81757271D01*
X126228778Y-81793009D01*
X126312443Y-81949534D01*
X126363963Y-82119373D01*
X126381359Y-82296000D01*
X126363963Y-82472627D01*
X126312443Y-82642466D01*
X126228778Y-82798991D01*
X126199448Y-82834729D01*
X126116186Y-82936186D01*
X126014729Y-83019448D01*
X125978991Y-83048778D01*
X125822466Y-83132443D01*
X125652627Y-83183963D01*
X125586442Y-83190482D01*
X125520260Y-83197000D01*
X125431740Y-83197000D01*
X125365558Y-83190482D01*
X125299373Y-83183963D01*
X125129534Y-83132443D01*
X124973009Y-83048778D01*
X124937271Y-83019448D01*
X124835814Y-82936186D01*
X124752552Y-82834729D01*
X124723222Y-82798991D01*
X124639557Y-82642466D01*
X124588037Y-82472627D01*
X124570641Y-82296000D01*
X124588037Y-82119373D01*
X124639557Y-81949534D01*
X124723222Y-81793009D01*
X124752552Y-81757271D01*
X124835814Y-81655814D01*
X124937271Y-81572552D01*
X124973009Y-81543222D01*
X125129534Y-81459557D01*
X125299373Y-81408037D01*
X125365557Y-81401519D01*
X125431740Y-81395000D01*
X125520260Y-81395000D01*
X125586443Y-81401519D01*
X125586443Y-81401519D01*
G37*
G36*
X120506443Y-81401519D02*
G01*
X120572627Y-81408037D01*
X120742466Y-81459557D01*
X120898991Y-81543222D01*
X120934729Y-81572552D01*
X121036186Y-81655814D01*
X121119448Y-81757271D01*
X121148778Y-81793009D01*
X121232443Y-81949534D01*
X121283963Y-82119373D01*
X121301359Y-82296000D01*
X121283963Y-82472627D01*
X121232443Y-82642466D01*
X121148778Y-82798991D01*
X121119448Y-82834729D01*
X121036186Y-82936186D01*
X120934729Y-83019448D01*
X120898991Y-83048778D01*
X120742466Y-83132443D01*
X120572627Y-83183963D01*
X120506442Y-83190482D01*
X120440260Y-83197000D01*
X120351740Y-83197000D01*
X120285558Y-83190482D01*
X120219373Y-83183963D01*
X120049534Y-83132443D01*
X119893009Y-83048778D01*
X119857271Y-83019448D01*
X119755814Y-82936186D01*
X119672552Y-82834729D01*
X119643222Y-82798991D01*
X119559557Y-82642466D01*
X119508037Y-82472627D01*
X119490641Y-82296000D01*
X119508037Y-82119373D01*
X119559557Y-81949534D01*
X119643222Y-81793009D01*
X119672552Y-81757271D01*
X119755814Y-81655814D01*
X119857271Y-81572552D01*
X119893009Y-81543222D01*
X120049534Y-81459557D01*
X120219373Y-81408037D01*
X120285557Y-81401519D01*
X120351740Y-81395000D01*
X120440260Y-81395000D01*
X120506443Y-81401519D01*
X120506443Y-81401519D01*
G37*
G36*
X116217000Y-83197000D02*
G01*
X114415000Y-83197000D01*
X114415000Y-81395000D01*
X116217000Y-81395000D01*
X116217000Y-83197000D01*
X116217000Y-83197000D01*
G37*
G36*
X117966443Y-81401519D02*
G01*
X118032627Y-81408037D01*
X118202466Y-81459557D01*
X118358991Y-81543222D01*
X118394729Y-81572552D01*
X118496186Y-81655814D01*
X118579448Y-81757271D01*
X118608778Y-81793009D01*
X118692443Y-81949534D01*
X118743963Y-82119373D01*
X118761359Y-82296000D01*
X118743963Y-82472627D01*
X118692443Y-82642466D01*
X118608778Y-82798991D01*
X118579448Y-82834729D01*
X118496186Y-82936186D01*
X118394729Y-83019448D01*
X118358991Y-83048778D01*
X118202466Y-83132443D01*
X118032627Y-83183963D01*
X117966442Y-83190482D01*
X117900260Y-83197000D01*
X117811740Y-83197000D01*
X117745558Y-83190482D01*
X117679373Y-83183963D01*
X117509534Y-83132443D01*
X117353009Y-83048778D01*
X117317271Y-83019448D01*
X117215814Y-82936186D01*
X117132552Y-82834729D01*
X117103222Y-82798991D01*
X117019557Y-82642466D01*
X116968037Y-82472627D01*
X116950641Y-82296000D01*
X116968037Y-82119373D01*
X117019557Y-81949534D01*
X117103222Y-81793009D01*
X117132552Y-81757271D01*
X117215814Y-81655814D01*
X117317271Y-81572552D01*
X117353009Y-81543222D01*
X117509534Y-81459557D01*
X117679373Y-81408037D01*
X117745557Y-81401519D01*
X117811740Y-81395000D01*
X117900260Y-81395000D01*
X117966443Y-81401519D01*
X117966443Y-81401519D01*
G37*
G36*
X108049916Y-80820334D02*
G01*
X108158492Y-80853271D01*
X108158495Y-80853272D01*
X108194601Y-80872571D01*
X108258557Y-80906756D01*
X108346264Y-80978736D01*
X108418244Y-81066443D01*
X108452429Y-81130399D01*
X108471728Y-81166505D01*
X108471729Y-81166508D01*
X108504666Y-81275084D01*
X108515787Y-81388000D01*
X108504666Y-81500916D01*
X108471729Y-81609492D01*
X108471728Y-81609495D01*
X108452429Y-81645601D01*
X108418244Y-81709557D01*
X108346264Y-81797264D01*
X108258557Y-81869244D01*
X108194601Y-81903429D01*
X108158495Y-81922728D01*
X108158492Y-81922729D01*
X108049916Y-81955666D01*
X107965298Y-81964000D01*
X107058702Y-81964000D01*
X106974084Y-81955666D01*
X106865508Y-81922729D01*
X106865505Y-81922728D01*
X106829399Y-81903429D01*
X106765443Y-81869244D01*
X106677736Y-81797264D01*
X106605756Y-81709557D01*
X106571571Y-81645601D01*
X106552272Y-81609495D01*
X106552271Y-81609492D01*
X106519334Y-81500916D01*
X106508213Y-81388000D01*
X106519334Y-81275084D01*
X106552271Y-81166508D01*
X106552272Y-81166505D01*
X106571571Y-81130399D01*
X106605756Y-81066443D01*
X106677736Y-80978736D01*
X106765443Y-80906756D01*
X106829399Y-80872571D01*
X106865505Y-80853272D01*
X106865508Y-80853271D01*
X106974084Y-80820334D01*
X107058702Y-80812000D01*
X107965298Y-80812000D01*
X108049916Y-80820334D01*
X108049916Y-80820334D01*
G37*
G36*
X174637000Y-81419000D02*
G01*
X172835000Y-81419000D01*
X172835000Y-79617000D01*
X174637000Y-79617000D01*
X174637000Y-81419000D01*
X174637000Y-81419000D01*
G37*
G36*
X110936217Y-73842808D02*
G01*
X110967489Y-73852294D01*
X110996308Y-73867698D01*
X111021570Y-73888430D01*
X111042302Y-73913692D01*
X111057706Y-73942511D01*
X111067192Y-73973783D01*
X111071000Y-74012448D01*
X111071000Y-75847552D01*
X111067192Y-75886217D01*
X111057706Y-75917489D01*
X111042302Y-75946308D01*
X111021570Y-75971570D01*
X110996308Y-75992302D01*
X110967489Y-76007706D01*
X110936217Y-76017192D01*
X110897552Y-76021000D01*
X107542448Y-76021000D01*
X107503783Y-76017192D01*
X107472511Y-76007706D01*
X107443692Y-75992302D01*
X107418430Y-75971570D01*
X107397698Y-75946308D01*
X107382294Y-75917489D01*
X107372808Y-75886217D01*
X107369000Y-75847552D01*
X107369000Y-74012448D01*
X107372808Y-73973783D01*
X107382294Y-73942511D01*
X107397698Y-73913692D01*
X107418430Y-73888430D01*
X107443692Y-73867698D01*
X107472511Y-73852294D01*
X107503783Y-73842808D01*
X107542448Y-73839000D01*
X110897552Y-73839000D01*
X110936217Y-73842808D01*
X110936217Y-73842808D01*
G37*
G36*
X110193871Y-68774786D02*
G01*
X110399530Y-68837172D01*
X110589055Y-68938475D01*
X110589058Y-68938477D01*
X110589059Y-68938478D01*
X110755186Y-69074814D01*
X110891522Y-69240941D01*
X110891525Y-69240945D01*
X110992828Y-69430470D01*
X111055214Y-69636129D01*
X111076278Y-69850000D01*
X111055214Y-70063871D01*
X110992828Y-70269530D01*
X110891525Y-70459055D01*
X110891523Y-70459058D01*
X110891522Y-70459059D01*
X110755186Y-70625186D01*
X110589059Y-70761522D01*
X110589055Y-70761525D01*
X110399530Y-70862828D01*
X110193871Y-70925214D01*
X110033591Y-70941000D01*
X108406409Y-70941000D01*
X108246129Y-70925214D01*
X108040470Y-70862828D01*
X107850945Y-70761525D01*
X107850941Y-70761522D01*
X107684814Y-70625186D01*
X107548478Y-70459059D01*
X107548477Y-70459058D01*
X107548475Y-70459055D01*
X107447172Y-70269530D01*
X107384786Y-70063871D01*
X107363722Y-69850000D01*
X107384786Y-69636129D01*
X107447172Y-69430470D01*
X107548475Y-69240945D01*
X107548478Y-69240941D01*
X107684814Y-69074814D01*
X107850941Y-68938478D01*
X107850942Y-68938477D01*
X107850945Y-68938475D01*
X108040470Y-68837172D01*
X108246129Y-68774786D01*
X108406409Y-68759000D01*
X110033591Y-68759000D01*
X110193871Y-68774786D01*
X110193871Y-68774786D01*
G37*
G36*
X172195442Y-65145518D02*
G01*
X172261627Y-65152037D01*
X172431466Y-65203557D01*
X172587991Y-65287222D01*
X172623729Y-65316552D01*
X172725186Y-65399814D01*
X172808448Y-65501271D01*
X172837778Y-65537009D01*
X172921443Y-65693534D01*
X172972963Y-65863373D01*
X172990359Y-66040000D01*
X172972963Y-66216627D01*
X172921443Y-66386466D01*
X172837778Y-66542991D01*
X172808448Y-66578729D01*
X172725186Y-66680186D01*
X172623729Y-66763448D01*
X172587991Y-66792778D01*
X172431466Y-66876443D01*
X172261627Y-66927963D01*
X172195442Y-66934482D01*
X172129260Y-66941000D01*
X172040740Y-66941000D01*
X171974558Y-66934482D01*
X171908373Y-66927963D01*
X171738534Y-66876443D01*
X171582009Y-66792778D01*
X171546271Y-66763448D01*
X171444814Y-66680186D01*
X171361552Y-66578729D01*
X171332222Y-66542991D01*
X171248557Y-66386466D01*
X171197037Y-66216627D01*
X171179641Y-66040000D01*
X171197037Y-65863373D01*
X171248557Y-65693534D01*
X171332222Y-65537009D01*
X171361552Y-65501271D01*
X171444814Y-65399814D01*
X171546271Y-65316552D01*
X171582009Y-65287222D01*
X171738534Y-65203557D01*
X171908373Y-65152037D01*
X171974558Y-65145518D01*
X172040740Y-65139000D01*
X172129260Y-65139000D01*
X172195442Y-65145518D01*
X172195442Y-65145518D01*
G37*
G36*
X162826000Y-66941000D02*
G01*
X161024000Y-66941000D01*
X161024000Y-65139000D01*
X162826000Y-65139000D01*
X162826000Y-66941000D01*
X162826000Y-66941000D01*
G37*
G36*
X164575442Y-65145518D02*
G01*
X164641627Y-65152037D01*
X164811466Y-65203557D01*
X164967991Y-65287222D01*
X165003729Y-65316552D01*
X165105186Y-65399814D01*
X165188448Y-65501271D01*
X165217778Y-65537009D01*
X165301443Y-65693534D01*
X165352963Y-65863373D01*
X165370359Y-66040000D01*
X165352963Y-66216627D01*
X165301443Y-66386466D01*
X165217778Y-66542991D01*
X165188448Y-66578729D01*
X165105186Y-66680186D01*
X165003729Y-66763448D01*
X164967991Y-66792778D01*
X164811466Y-66876443D01*
X164641627Y-66927963D01*
X164575442Y-66934482D01*
X164509260Y-66941000D01*
X164420740Y-66941000D01*
X164354558Y-66934482D01*
X164288373Y-66927963D01*
X164118534Y-66876443D01*
X163962009Y-66792778D01*
X163926271Y-66763448D01*
X163824814Y-66680186D01*
X163741552Y-66578729D01*
X163712222Y-66542991D01*
X163628557Y-66386466D01*
X163577037Y-66216627D01*
X163559641Y-66040000D01*
X163577037Y-65863373D01*
X163628557Y-65693534D01*
X163712222Y-65537009D01*
X163741552Y-65501271D01*
X163824814Y-65399814D01*
X163926271Y-65316552D01*
X163962009Y-65287222D01*
X164118534Y-65203557D01*
X164288373Y-65152037D01*
X164354558Y-65145518D01*
X164420740Y-65139000D01*
X164509260Y-65139000D01*
X164575442Y-65145518D01*
X164575442Y-65145518D01*
G37*
G36*
X167115442Y-65145518D02*
G01*
X167181627Y-65152037D01*
X167351466Y-65203557D01*
X167507991Y-65287222D01*
X167543729Y-65316552D01*
X167645186Y-65399814D01*
X167728448Y-65501271D01*
X167757778Y-65537009D01*
X167841443Y-65693534D01*
X167892963Y-65863373D01*
X167910359Y-66040000D01*
X167892963Y-66216627D01*
X167841443Y-66386466D01*
X167757778Y-66542991D01*
X167728448Y-66578729D01*
X167645186Y-66680186D01*
X167543729Y-66763448D01*
X167507991Y-66792778D01*
X167351466Y-66876443D01*
X167181627Y-66927963D01*
X167115442Y-66934482D01*
X167049260Y-66941000D01*
X166960740Y-66941000D01*
X166894558Y-66934482D01*
X166828373Y-66927963D01*
X166658534Y-66876443D01*
X166502009Y-66792778D01*
X166466271Y-66763448D01*
X166364814Y-66680186D01*
X166281552Y-66578729D01*
X166252222Y-66542991D01*
X166168557Y-66386466D01*
X166117037Y-66216627D01*
X166099641Y-66040000D01*
X166117037Y-65863373D01*
X166168557Y-65693534D01*
X166252222Y-65537009D01*
X166281552Y-65501271D01*
X166364814Y-65399814D01*
X166466271Y-65316552D01*
X166502009Y-65287222D01*
X166658534Y-65203557D01*
X166828373Y-65152037D01*
X166894558Y-65145518D01*
X166960740Y-65139000D01*
X167049260Y-65139000D01*
X167115442Y-65145518D01*
X167115442Y-65145518D01*
G37*
G36*
X169655442Y-65145518D02*
G01*
X169721627Y-65152037D01*
X169891466Y-65203557D01*
X170047991Y-65287222D01*
X170083729Y-65316552D01*
X170185186Y-65399814D01*
X170268448Y-65501271D01*
X170297778Y-65537009D01*
X170381443Y-65693534D01*
X170432963Y-65863373D01*
X170450359Y-66040000D01*
X170432963Y-66216627D01*
X170381443Y-66386466D01*
X170297778Y-66542991D01*
X170268448Y-66578729D01*
X170185186Y-66680186D01*
X170083729Y-66763448D01*
X170047991Y-66792778D01*
X169891466Y-66876443D01*
X169721627Y-66927963D01*
X169655442Y-66934482D01*
X169589260Y-66941000D01*
X169500740Y-66941000D01*
X169434558Y-66934482D01*
X169368373Y-66927963D01*
X169198534Y-66876443D01*
X169042009Y-66792778D01*
X169006271Y-66763448D01*
X168904814Y-66680186D01*
X168821552Y-66578729D01*
X168792222Y-66542991D01*
X168708557Y-66386466D01*
X168657037Y-66216627D01*
X168639641Y-66040000D01*
X168657037Y-65863373D01*
X168708557Y-65693534D01*
X168792222Y-65537009D01*
X168821552Y-65501271D01*
X168904814Y-65399814D01*
X169006271Y-65316552D01*
X169042009Y-65287222D01*
X169198534Y-65203557D01*
X169368373Y-65152037D01*
X169434558Y-65145518D01*
X169500740Y-65139000D01*
X169589260Y-65139000D01*
X169655442Y-65145518D01*
X169655442Y-65145518D01*
G37*
G36*
X113677000Y-61861000D02*
G01*
X111875000Y-61861000D01*
X111875000Y-60059000D01*
X113677000Y-60059000D01*
X113677000Y-61861000D01*
X113677000Y-61861000D01*
G37*
G36*
X117966442Y-60065518D02*
G01*
X118032627Y-60072037D01*
X118202466Y-60123557D01*
X118358991Y-60207222D01*
X118394729Y-60236552D01*
X118496186Y-60319814D01*
X118579448Y-60421271D01*
X118608778Y-60457009D01*
X118692443Y-60613534D01*
X118743963Y-60783373D01*
X118761359Y-60960000D01*
X118743963Y-61136627D01*
X118692443Y-61306466D01*
X118608778Y-61462991D01*
X118579448Y-61498729D01*
X118496186Y-61600186D01*
X118394729Y-61683448D01*
X118358991Y-61712778D01*
X118202466Y-61796443D01*
X118032627Y-61847963D01*
X117966443Y-61854481D01*
X117900260Y-61861000D01*
X117811740Y-61861000D01*
X117745557Y-61854481D01*
X117679373Y-61847963D01*
X117509534Y-61796443D01*
X117353009Y-61712778D01*
X117317271Y-61683448D01*
X117215814Y-61600186D01*
X117132552Y-61498729D01*
X117103222Y-61462991D01*
X117019557Y-61306466D01*
X116968037Y-61136627D01*
X116950641Y-60960000D01*
X116968037Y-60783373D01*
X117019557Y-60613534D01*
X117103222Y-60457009D01*
X117132552Y-60421271D01*
X117215814Y-60319814D01*
X117317271Y-60236552D01*
X117353009Y-60207222D01*
X117509534Y-60123557D01*
X117679373Y-60072037D01*
X117745558Y-60065518D01*
X117811740Y-60059000D01*
X117900260Y-60059000D01*
X117966442Y-60065518D01*
X117966442Y-60065518D01*
G37*
G36*
X115426442Y-60065518D02*
G01*
X115492627Y-60072037D01*
X115662466Y-60123557D01*
X115818991Y-60207222D01*
X115854729Y-60236552D01*
X115956186Y-60319814D01*
X116039448Y-60421271D01*
X116068778Y-60457009D01*
X116152443Y-60613534D01*
X116203963Y-60783373D01*
X116221359Y-60960000D01*
X116203963Y-61136627D01*
X116152443Y-61306466D01*
X116068778Y-61462991D01*
X116039448Y-61498729D01*
X115956186Y-61600186D01*
X115854729Y-61683448D01*
X115818991Y-61712778D01*
X115662466Y-61796443D01*
X115492627Y-61847963D01*
X115426443Y-61854481D01*
X115360260Y-61861000D01*
X115271740Y-61861000D01*
X115205557Y-61854481D01*
X115139373Y-61847963D01*
X114969534Y-61796443D01*
X114813009Y-61712778D01*
X114777271Y-61683448D01*
X114675814Y-61600186D01*
X114592552Y-61498729D01*
X114563222Y-61462991D01*
X114479557Y-61306466D01*
X114428037Y-61136627D01*
X114410641Y-60960000D01*
X114428037Y-60783373D01*
X114479557Y-60613534D01*
X114563222Y-60457009D01*
X114592552Y-60421271D01*
X114675814Y-60319814D01*
X114777271Y-60236552D01*
X114813009Y-60207222D01*
X114969534Y-60123557D01*
X115139373Y-60072037D01*
X115205558Y-60065518D01*
X115271740Y-60059000D01*
X115360260Y-60059000D01*
X115426442Y-60065518D01*
X115426442Y-60065518D01*
G37*
M02*
