G04 #@! TF.GenerationSoftware,KiCad,Pcbnew,5.1.4-e60b266~84~ubuntu18.04.1*
G04 #@! TF.CreationDate,2020-03-31T13:06:10+02:00*
G04 #@! TF.ProjectId,Esp32LoraBoard,45737033-324c-46f7-9261-426f6172642e,1.0*
G04 #@! TF.SameCoordinates,Original*
G04 #@! TF.FileFunction,Legend,Top*
G04 #@! TF.FilePolarity,Positive*
%FSLAX46Y46*%
G04 Gerber Fmt 4.6, Leading zero omitted, Abs format (unit mm)*
G04 Created by KiCad (PCBNEW 5.1.4-e60b266~84~ubuntu18.04.1) date 2020-03-31 13:06:10*
%MOMM*%
%LPD*%
G04 APERTURE LIST*
%ADD10C,0.100000*%
%ADD11C,0.300000*%
%ADD12C,0.010000*%
%ADD13C,0.120000*%
%ADD14C,0.200000*%
%ADD15C,0.152400*%
%ADD16C,0.150000*%
%ADD17C,0.254000*%
G04 APERTURE END LIST*
D10*
X114272190Y-97873238D02*
X114034095Y-98039904D01*
X114272190Y-98158952D02*
X113772190Y-98158952D01*
X113772190Y-97968476D01*
X113796000Y-97920857D01*
X113819809Y-97897047D01*
X113867428Y-97873238D01*
X113938857Y-97873238D01*
X113986476Y-97897047D01*
X114010285Y-97920857D01*
X114034095Y-97968476D01*
X114034095Y-98158952D01*
X114319809Y-97397047D02*
X114319809Y-97016095D01*
X114272190Y-96825619D02*
X114248380Y-96873238D01*
X114200761Y-96897047D01*
X113772190Y-96897047D01*
X114272190Y-96563714D02*
X114248380Y-96611333D01*
X114224571Y-96635142D01*
X114176952Y-96658952D01*
X114034095Y-96658952D01*
X113986476Y-96635142D01*
X113962666Y-96611333D01*
X113938857Y-96563714D01*
X113938857Y-96492285D01*
X113962666Y-96444666D01*
X113986476Y-96420857D01*
X114034095Y-96397047D01*
X114176952Y-96397047D01*
X114224571Y-96420857D01*
X114248380Y-96444666D01*
X114272190Y-96492285D01*
X114272190Y-96563714D01*
X113938857Y-96230380D02*
X114272190Y-96135142D01*
X114034095Y-96039904D01*
X114272190Y-95944666D01*
X113938857Y-95849428D01*
X114272190Y-103195333D02*
X114034095Y-103362000D01*
X114272190Y-103481047D02*
X113772190Y-103481047D01*
X113772190Y-103290571D01*
X113796000Y-103242952D01*
X113819809Y-103219142D01*
X113867428Y-103195333D01*
X113938857Y-103195333D01*
X113986476Y-103219142D01*
X114010285Y-103242952D01*
X114034095Y-103290571D01*
X114034095Y-103481047D01*
X114319809Y-103100095D02*
X114319809Y-102719142D01*
X114272190Y-102600095D02*
X113772190Y-102600095D01*
X114272190Y-102385809D02*
X114010285Y-102385809D01*
X113962666Y-102409619D01*
X113938857Y-102457238D01*
X113938857Y-102528666D01*
X113962666Y-102576285D01*
X113986476Y-102600095D01*
X114272190Y-102147714D02*
X113938857Y-102147714D01*
X113772190Y-102147714D02*
X113796000Y-102171523D01*
X113819809Y-102147714D01*
X113796000Y-102123904D01*
X113772190Y-102147714D01*
X113819809Y-102147714D01*
X113938857Y-101695333D02*
X114343619Y-101695333D01*
X114391238Y-101719142D01*
X114415047Y-101742952D01*
X114438857Y-101790571D01*
X114438857Y-101862000D01*
X114415047Y-101909619D01*
X114248380Y-101695333D02*
X114272190Y-101742952D01*
X114272190Y-101838190D01*
X114248380Y-101885809D01*
X114224571Y-101909619D01*
X114176952Y-101933428D01*
X114034095Y-101933428D01*
X113986476Y-101909619D01*
X113962666Y-101885809D01*
X113938857Y-101838190D01*
X113938857Y-101742952D01*
X113962666Y-101695333D01*
X114272190Y-101457238D02*
X113772190Y-101457238D01*
X114272190Y-101242952D02*
X114010285Y-101242952D01*
X113962666Y-101266761D01*
X113938857Y-101314380D01*
X113938857Y-101385809D01*
X113962666Y-101433428D01*
X113986476Y-101457238D01*
X114248380Y-110930380D02*
X114272190Y-110978000D01*
X114272190Y-111073238D01*
X114248380Y-111120857D01*
X114200761Y-111144666D01*
X114010285Y-111144666D01*
X113962666Y-111120857D01*
X113938857Y-111073238D01*
X113938857Y-110978000D01*
X113962666Y-110930380D01*
X114010285Y-110906571D01*
X114057904Y-110906571D01*
X114105523Y-111144666D01*
X114272190Y-110739904D02*
X113938857Y-110478000D01*
X113938857Y-110739904D02*
X114272190Y-110478000D01*
X113938857Y-110358952D02*
X113938857Y-110168476D01*
X113772190Y-110287523D02*
X114200761Y-110287523D01*
X114248380Y-110263714D01*
X114272190Y-110216095D01*
X114272190Y-110168476D01*
X114224571Y-110001809D02*
X114248380Y-109978000D01*
X114272190Y-110001809D01*
X114248380Y-110025619D01*
X114224571Y-110001809D01*
X114272190Y-110001809D01*
X113772190Y-109835142D02*
X114272190Y-109668476D01*
X113772190Y-109501809D01*
X114272190Y-109263714D02*
X114248380Y-109311333D01*
X114224571Y-109335142D01*
X114176952Y-109358952D01*
X114034095Y-109358952D01*
X113986476Y-109335142D01*
X113962666Y-109311333D01*
X113938857Y-109263714D01*
X113938857Y-109192285D01*
X113962666Y-109144666D01*
X113986476Y-109120857D01*
X114034095Y-109097047D01*
X114176952Y-109097047D01*
X114224571Y-109120857D01*
X114248380Y-109144666D01*
X114272190Y-109192285D01*
X114272190Y-109263714D01*
X114272190Y-108811333D02*
X114248380Y-108858952D01*
X114200761Y-108882761D01*
X113772190Y-108882761D01*
X113938857Y-108692285D02*
X113938857Y-108501809D01*
X113772190Y-108620857D02*
X114200761Y-108620857D01*
X114248380Y-108597047D01*
X114272190Y-108549428D01*
X114272190Y-108501809D01*
X114224571Y-108335142D02*
X114248380Y-108311333D01*
X114272190Y-108335142D01*
X114248380Y-108358952D01*
X114224571Y-108335142D01*
X114272190Y-108335142D01*
X171640571Y-63980190D02*
X171640571Y-63480190D01*
X171759619Y-63480190D01*
X171831047Y-63504000D01*
X171878666Y-63551619D01*
X171902476Y-63599238D01*
X171926285Y-63694476D01*
X171926285Y-63765904D01*
X171902476Y-63861142D01*
X171878666Y-63908761D01*
X171831047Y-63956380D01*
X171759619Y-63980190D01*
X171640571Y-63980190D01*
X172069142Y-63480190D02*
X172354857Y-63480190D01*
X172212000Y-63980190D02*
X172212000Y-63480190D01*
X172807238Y-63980190D02*
X172640571Y-63742095D01*
X172521523Y-63980190D02*
X172521523Y-63480190D01*
X172712000Y-63480190D01*
X172759619Y-63504000D01*
X172783428Y-63527809D01*
X172807238Y-63575428D01*
X172807238Y-63646857D01*
X172783428Y-63694476D01*
X172759619Y-63718285D01*
X172712000Y-63742095D01*
X172521523Y-63742095D01*
X169588666Y-63980190D02*
X169422000Y-63742095D01*
X169302952Y-63980190D02*
X169302952Y-63480190D01*
X169493428Y-63480190D01*
X169541047Y-63504000D01*
X169564857Y-63527809D01*
X169588666Y-63575428D01*
X169588666Y-63646857D01*
X169564857Y-63694476D01*
X169541047Y-63718285D01*
X169493428Y-63742095D01*
X169302952Y-63742095D01*
X169755333Y-63480190D02*
X170088666Y-63980190D01*
X170088666Y-63480190D02*
X169755333Y-63980190D01*
X166497047Y-63480190D02*
X166782761Y-63480190D01*
X166639904Y-63980190D02*
X166639904Y-63480190D01*
X166901809Y-63480190D02*
X167235142Y-63980190D01*
X167235142Y-63480190D02*
X166901809Y-63980190D01*
X163937190Y-63980190D02*
X163770523Y-63742095D01*
X163651476Y-63980190D02*
X163651476Y-63480190D01*
X163841952Y-63480190D01*
X163889571Y-63504000D01*
X163913380Y-63527809D01*
X163937190Y-63575428D01*
X163937190Y-63646857D01*
X163913380Y-63694476D01*
X163889571Y-63718285D01*
X163841952Y-63742095D01*
X163651476Y-63742095D01*
X164080047Y-63480190D02*
X164365761Y-63480190D01*
X164222904Y-63980190D02*
X164222904Y-63480190D01*
X164508619Y-63956380D02*
X164580047Y-63980190D01*
X164699095Y-63980190D01*
X164746714Y-63956380D01*
X164770523Y-63932571D01*
X164794333Y-63884952D01*
X164794333Y-63837333D01*
X164770523Y-63789714D01*
X164746714Y-63765904D01*
X164699095Y-63742095D01*
X164603857Y-63718285D01*
X164556238Y-63694476D01*
X164532428Y-63670666D01*
X164508619Y-63623047D01*
X164508619Y-63575428D01*
X164532428Y-63527809D01*
X164556238Y-63504000D01*
X164603857Y-63480190D01*
X164722904Y-63480190D01*
X164794333Y-63504000D01*
X161671047Y-63504000D02*
X161623428Y-63480190D01*
X161552000Y-63480190D01*
X161480571Y-63504000D01*
X161432952Y-63551619D01*
X161409142Y-63599238D01*
X161385333Y-63694476D01*
X161385333Y-63765904D01*
X161409142Y-63861142D01*
X161432952Y-63908761D01*
X161480571Y-63956380D01*
X161552000Y-63980190D01*
X161599619Y-63980190D01*
X161671047Y-63956380D01*
X161694857Y-63932571D01*
X161694857Y-63765904D01*
X161599619Y-63765904D01*
X161909142Y-63980190D02*
X161909142Y-63480190D01*
X162194857Y-63980190D01*
X162194857Y-63480190D01*
X162432952Y-63980190D02*
X162432952Y-63480190D01*
X162552000Y-63480190D01*
X162623428Y-63504000D01*
X162671047Y-63551619D01*
X162694857Y-63599238D01*
X162718666Y-63694476D01*
X162718666Y-63765904D01*
X162694857Y-63861142D01*
X162671047Y-63908761D01*
X162623428Y-63956380D01*
X162552000Y-63980190D01*
X162432952Y-63980190D01*
D11*
X150289714Y-93862857D02*
X150789714Y-93862857D01*
X151004000Y-94648571D02*
X150289714Y-94648571D01*
X150289714Y-93148571D01*
X151004000Y-93148571D01*
X151575428Y-94577142D02*
X151718285Y-94648571D01*
X152004000Y-94648571D01*
X152146857Y-94577142D01*
X152218285Y-94434285D01*
X152218285Y-94362857D01*
X152146857Y-94220000D01*
X152004000Y-94148571D01*
X151789714Y-94148571D01*
X151646857Y-94077142D01*
X151575428Y-93934285D01*
X151575428Y-93862857D01*
X151646857Y-93720000D01*
X151789714Y-93648571D01*
X152004000Y-93648571D01*
X152146857Y-93720000D01*
X152861142Y-93648571D02*
X152861142Y-95148571D01*
X152861142Y-93720000D02*
X153004000Y-93648571D01*
X153289714Y-93648571D01*
X153432571Y-93720000D01*
X153504000Y-93791428D01*
X153575428Y-93934285D01*
X153575428Y-94362857D01*
X153504000Y-94505714D01*
X153432571Y-94577142D01*
X153289714Y-94648571D01*
X153004000Y-94648571D01*
X152861142Y-94577142D01*
X154075428Y-93148571D02*
X155004000Y-93148571D01*
X154504000Y-93720000D01*
X154718285Y-93720000D01*
X154861142Y-93791428D01*
X154932571Y-93862857D01*
X155004000Y-94005714D01*
X155004000Y-94362857D01*
X154932571Y-94505714D01*
X154861142Y-94577142D01*
X154718285Y-94648571D01*
X154289714Y-94648571D01*
X154146857Y-94577142D01*
X154075428Y-94505714D01*
X155575428Y-93291428D02*
X155646857Y-93220000D01*
X155789714Y-93148571D01*
X156146857Y-93148571D01*
X156289714Y-93220000D01*
X156361142Y-93291428D01*
X156432571Y-93434285D01*
X156432571Y-93577142D01*
X156361142Y-93791428D01*
X155504000Y-94648571D01*
X156432571Y-94648571D01*
X157789714Y-94648571D02*
X157075428Y-94648571D01*
X157075428Y-93148571D01*
X158504000Y-94648571D02*
X158361142Y-94577142D01*
X158289714Y-94505714D01*
X158218285Y-94362857D01*
X158218285Y-93934285D01*
X158289714Y-93791428D01*
X158361142Y-93720000D01*
X158504000Y-93648571D01*
X158718285Y-93648571D01*
X158861142Y-93720000D01*
X158932571Y-93791428D01*
X159004000Y-93934285D01*
X159004000Y-94362857D01*
X158932571Y-94505714D01*
X158861142Y-94577142D01*
X158718285Y-94648571D01*
X158504000Y-94648571D01*
X159646857Y-94648571D02*
X159646857Y-93648571D01*
X159646857Y-93934285D02*
X159718285Y-93791428D01*
X159789714Y-93720000D01*
X159932571Y-93648571D01*
X160075428Y-93648571D01*
X161218285Y-94648571D02*
X161218285Y-93862857D01*
X161146857Y-93720000D01*
X161004000Y-93648571D01*
X160718285Y-93648571D01*
X160575428Y-93720000D01*
X161218285Y-94577142D02*
X161075428Y-94648571D01*
X160718285Y-94648571D01*
X160575428Y-94577142D01*
X160504000Y-94434285D01*
X160504000Y-94291428D01*
X160575428Y-94148571D01*
X160718285Y-94077142D01*
X161075428Y-94077142D01*
X161218285Y-94005714D01*
X162432571Y-93862857D02*
X162646857Y-93934285D01*
X162718285Y-94005714D01*
X162789714Y-94148571D01*
X162789714Y-94362857D01*
X162718285Y-94505714D01*
X162646857Y-94577142D01*
X162504000Y-94648571D01*
X161932571Y-94648571D01*
X161932571Y-93148571D01*
X162432571Y-93148571D01*
X162575428Y-93220000D01*
X162646857Y-93291428D01*
X162718285Y-93434285D01*
X162718285Y-93577142D01*
X162646857Y-93720000D01*
X162575428Y-93791428D01*
X162432571Y-93862857D01*
X161932571Y-93862857D01*
X163646857Y-94648571D02*
X163504000Y-94577142D01*
X163432571Y-94505714D01*
X163361142Y-94362857D01*
X163361142Y-93934285D01*
X163432571Y-93791428D01*
X163504000Y-93720000D01*
X163646857Y-93648571D01*
X163861142Y-93648571D01*
X164004000Y-93720000D01*
X164075428Y-93791428D01*
X164146857Y-93934285D01*
X164146857Y-94362857D01*
X164075428Y-94505714D01*
X164004000Y-94577142D01*
X163861142Y-94648571D01*
X163646857Y-94648571D01*
X165432571Y-94648571D02*
X165432571Y-93862857D01*
X165361142Y-93720000D01*
X165218285Y-93648571D01*
X164932571Y-93648571D01*
X164789714Y-93720000D01*
X165432571Y-94577142D02*
X165289714Y-94648571D01*
X164932571Y-94648571D01*
X164789714Y-94577142D01*
X164718285Y-94434285D01*
X164718285Y-94291428D01*
X164789714Y-94148571D01*
X164932571Y-94077142D01*
X165289714Y-94077142D01*
X165432571Y-94005714D01*
X166146857Y-94648571D02*
X166146857Y-93648571D01*
X166146857Y-93934285D02*
X166218285Y-93791428D01*
X166289714Y-93720000D01*
X166432571Y-93648571D01*
X166575428Y-93648571D01*
X167718285Y-94648571D02*
X167718285Y-93148571D01*
X167718285Y-94577142D02*
X167575428Y-94648571D01*
X167289714Y-94648571D01*
X167146857Y-94577142D01*
X167075428Y-94505714D01*
X167004000Y-94362857D01*
X167004000Y-93934285D01*
X167075428Y-93791428D01*
X167146857Y-93720000D01*
X167289714Y-93648571D01*
X167575428Y-93648571D01*
X167718285Y-93720000D01*
X156718285Y-95698571D02*
X157218285Y-97198571D01*
X157718285Y-95698571D01*
X159004000Y-97198571D02*
X158146857Y-97198571D01*
X158575428Y-97198571D02*
X158575428Y-95698571D01*
X158432571Y-95912857D01*
X158289714Y-96055714D01*
X158146857Y-96127142D01*
X159646857Y-97055714D02*
X159718285Y-97127142D01*
X159646857Y-97198571D01*
X159575428Y-97127142D01*
X159646857Y-97055714D01*
X159646857Y-97198571D01*
X160646857Y-95698571D02*
X160789714Y-95698571D01*
X160932571Y-95770000D01*
X161004000Y-95841428D01*
X161075428Y-95984285D01*
X161146857Y-96270000D01*
X161146857Y-96627142D01*
X161075428Y-96912857D01*
X161004000Y-97055714D01*
X160932571Y-97127142D01*
X160789714Y-97198571D01*
X160646857Y-97198571D01*
X160504000Y-97127142D01*
X160432571Y-97055714D01*
X160361142Y-96912857D01*
X160289714Y-96627142D01*
X160289714Y-96270000D01*
X160361142Y-95984285D01*
X160432571Y-95841428D01*
X160504000Y-95770000D01*
X160646857Y-95698571D01*
X152754000Y-98248571D02*
X153254000Y-99748571D01*
X153754000Y-98248571D01*
X154254000Y-99748571D02*
X154254000Y-98748571D01*
X154254000Y-98248571D02*
X154182571Y-98320000D01*
X154254000Y-98391428D01*
X154325428Y-98320000D01*
X154254000Y-98248571D01*
X154254000Y-98391428D01*
X154968285Y-99748571D02*
X154968285Y-98248571D01*
X155111142Y-99177142D02*
X155539714Y-99748571D01*
X155539714Y-98748571D02*
X154968285Y-99320000D01*
X155968285Y-98748571D02*
X156539714Y-98748571D01*
X156182571Y-98248571D02*
X156182571Y-99534285D01*
X156254000Y-99677142D01*
X156396857Y-99748571D01*
X156539714Y-99748571D01*
X157254000Y-99748571D02*
X157111142Y-99677142D01*
X157039714Y-99605714D01*
X156968285Y-99462857D01*
X156968285Y-99034285D01*
X157039714Y-98891428D01*
X157111142Y-98820000D01*
X157254000Y-98748571D01*
X157468285Y-98748571D01*
X157611142Y-98820000D01*
X157682571Y-98891428D01*
X157754000Y-99034285D01*
X157754000Y-99462857D01*
X157682571Y-99605714D01*
X157611142Y-99677142D01*
X157468285Y-99748571D01*
X157254000Y-99748571D01*
X158396857Y-99748571D02*
X158396857Y-98748571D01*
X158396857Y-99034285D02*
X158468285Y-98891428D01*
X158539714Y-98820000D01*
X158682571Y-98748571D01*
X158825428Y-98748571D01*
X161325428Y-99748571D02*
X160825428Y-99034285D01*
X160468285Y-99748571D02*
X160468285Y-98248571D01*
X161039714Y-98248571D01*
X161182571Y-98320000D01*
X161254000Y-98391428D01*
X161325428Y-98534285D01*
X161325428Y-98748571D01*
X161254000Y-98891428D01*
X161182571Y-98962857D01*
X161039714Y-99034285D01*
X160468285Y-99034285D01*
X162539714Y-99677142D02*
X162396857Y-99748571D01*
X162111142Y-99748571D01*
X161968285Y-99677142D01*
X161896857Y-99534285D01*
X161896857Y-98962857D01*
X161968285Y-98820000D01*
X162111142Y-98748571D01*
X162396857Y-98748571D01*
X162539714Y-98820000D01*
X162611142Y-98962857D01*
X162611142Y-99105714D01*
X161896857Y-99248571D01*
X163825428Y-99677142D02*
X163682571Y-99748571D01*
X163396857Y-99748571D01*
X163254000Y-99677142D01*
X163182571Y-99534285D01*
X163182571Y-98962857D01*
X163254000Y-98820000D01*
X163396857Y-98748571D01*
X163682571Y-98748571D01*
X163825428Y-98820000D01*
X163896857Y-98962857D01*
X163896857Y-99105714D01*
X163182571Y-99248571D01*
X164468285Y-99677142D02*
X164611142Y-99748571D01*
X164896857Y-99748571D01*
X165039714Y-99677142D01*
X165111142Y-99534285D01*
X165111142Y-99462857D01*
X165039714Y-99320000D01*
X164896857Y-99248571D01*
X164682571Y-99248571D01*
X164539714Y-99177142D01*
X164468285Y-99034285D01*
X164468285Y-98962857D01*
X164539714Y-98820000D01*
X164682571Y-98748571D01*
X164896857Y-98748571D01*
X165039714Y-98820000D01*
D10*
X171327000Y-80898952D02*
X171303190Y-80946571D01*
X171303190Y-81018000D01*
X171327000Y-81089428D01*
X171374619Y-81137047D01*
X171422238Y-81160857D01*
X171517476Y-81184666D01*
X171588904Y-81184666D01*
X171684142Y-81160857D01*
X171731761Y-81137047D01*
X171779380Y-81089428D01*
X171803190Y-81018000D01*
X171803190Y-80970380D01*
X171779380Y-80898952D01*
X171755571Y-80875142D01*
X171588904Y-80875142D01*
X171588904Y-80970380D01*
X171803190Y-80660857D02*
X171303190Y-80660857D01*
X171803190Y-80375142D01*
X171303190Y-80375142D01*
X171803190Y-80137047D02*
X171303190Y-80137047D01*
X171303190Y-80018000D01*
X171327000Y-79946571D01*
X171374619Y-79898952D01*
X171422238Y-79875142D01*
X171517476Y-79851333D01*
X171588904Y-79851333D01*
X171684142Y-79875142D01*
X171731761Y-79898952D01*
X171779380Y-79946571D01*
X171803190Y-80018000D01*
X171803190Y-80137047D01*
X171303190Y-84153238D02*
X171803190Y-83986571D01*
X171303190Y-83819904D01*
X171755571Y-83367523D02*
X171779380Y-83391333D01*
X171803190Y-83462761D01*
X171803190Y-83510380D01*
X171779380Y-83581809D01*
X171731761Y-83629428D01*
X171684142Y-83653238D01*
X171588904Y-83677047D01*
X171517476Y-83677047D01*
X171422238Y-83653238D01*
X171374619Y-83629428D01*
X171327000Y-83581809D01*
X171303190Y-83510380D01*
X171303190Y-83462761D01*
X171327000Y-83391333D01*
X171350809Y-83367523D01*
X171755571Y-82867523D02*
X171779380Y-82891333D01*
X171803190Y-82962761D01*
X171803190Y-83010380D01*
X171779380Y-83081809D01*
X171731761Y-83129428D01*
X171684142Y-83153238D01*
X171588904Y-83177047D01*
X171517476Y-83177047D01*
X171422238Y-83153238D01*
X171374619Y-83129428D01*
X171327000Y-83081809D01*
X171303190Y-83010380D01*
X171303190Y-82962761D01*
X171327000Y-82891333D01*
X171350809Y-82867523D01*
X171850809Y-82772285D02*
X171850809Y-82391333D01*
X171350809Y-82296095D02*
X171327000Y-82272285D01*
X171303190Y-82224666D01*
X171303190Y-82105619D01*
X171327000Y-82058000D01*
X171350809Y-82034190D01*
X171398428Y-82010380D01*
X171446047Y-82010380D01*
X171517476Y-82034190D01*
X171803190Y-82319904D01*
X171803190Y-82010380D01*
X171779380Y-86193238D02*
X171803190Y-86121809D01*
X171803190Y-86002761D01*
X171779380Y-85955142D01*
X171755571Y-85931333D01*
X171707952Y-85907523D01*
X171660333Y-85907523D01*
X171612714Y-85931333D01*
X171588904Y-85955142D01*
X171565095Y-86002761D01*
X171541285Y-86098000D01*
X171517476Y-86145619D01*
X171493666Y-86169428D01*
X171446047Y-86193238D01*
X171398428Y-86193238D01*
X171350809Y-86169428D01*
X171327000Y-86145619D01*
X171303190Y-86098000D01*
X171303190Y-85978952D01*
X171327000Y-85907523D01*
X171755571Y-85407523D02*
X171779380Y-85431333D01*
X171803190Y-85502761D01*
X171803190Y-85550380D01*
X171779380Y-85621809D01*
X171731761Y-85669428D01*
X171684142Y-85693238D01*
X171588904Y-85717047D01*
X171517476Y-85717047D01*
X171422238Y-85693238D01*
X171374619Y-85669428D01*
X171327000Y-85621809D01*
X171303190Y-85550380D01*
X171303190Y-85502761D01*
X171327000Y-85431333D01*
X171350809Y-85407523D01*
X171803190Y-84955142D02*
X171803190Y-85193238D01*
X171303190Y-85193238D01*
X171779380Y-88872142D02*
X171803190Y-88800714D01*
X171803190Y-88681666D01*
X171779380Y-88634047D01*
X171755571Y-88610238D01*
X171707952Y-88586428D01*
X171660333Y-88586428D01*
X171612714Y-88610238D01*
X171588904Y-88634047D01*
X171565095Y-88681666D01*
X171541285Y-88776904D01*
X171517476Y-88824523D01*
X171493666Y-88848333D01*
X171446047Y-88872142D01*
X171398428Y-88872142D01*
X171350809Y-88848333D01*
X171327000Y-88824523D01*
X171303190Y-88776904D01*
X171303190Y-88657857D01*
X171327000Y-88586428D01*
X171803190Y-88372142D02*
X171303190Y-88372142D01*
X171303190Y-88253095D01*
X171327000Y-88181666D01*
X171374619Y-88134047D01*
X171422238Y-88110238D01*
X171517476Y-88086428D01*
X171588904Y-88086428D01*
X171684142Y-88110238D01*
X171731761Y-88134047D01*
X171779380Y-88181666D01*
X171803190Y-88253095D01*
X171803190Y-88372142D01*
X171660333Y-87895952D02*
X171660333Y-87657857D01*
X171803190Y-87943571D02*
X171303190Y-87776904D01*
X171803190Y-87610238D01*
X114367619Y-116172880D02*
X114320000Y-116196690D01*
X114224761Y-116196690D01*
X114177142Y-116172880D01*
X114153333Y-116125261D01*
X114153333Y-115934785D01*
X114177142Y-115887166D01*
X114224761Y-115863357D01*
X114320000Y-115863357D01*
X114367619Y-115887166D01*
X114391428Y-115934785D01*
X114391428Y-115982404D01*
X114153333Y-116030023D01*
X114558095Y-116196690D02*
X114820000Y-115863357D01*
X114558095Y-115863357D02*
X114820000Y-116196690D01*
X114939047Y-115863357D02*
X115129523Y-115863357D01*
X115010476Y-115696690D02*
X115010476Y-116125261D01*
X115034285Y-116172880D01*
X115081904Y-116196690D01*
X115129523Y-116196690D01*
X115486666Y-116172880D02*
X115439047Y-116196690D01*
X115343809Y-116196690D01*
X115296190Y-116172880D01*
X115272380Y-116125261D01*
X115272380Y-115934785D01*
X115296190Y-115887166D01*
X115343809Y-115863357D01*
X115439047Y-115863357D01*
X115486666Y-115887166D01*
X115510476Y-115934785D01*
X115510476Y-115982404D01*
X115272380Y-116030023D01*
X115724761Y-116196690D02*
X115724761Y-115863357D01*
X115724761Y-115958595D02*
X115748571Y-115910976D01*
X115772380Y-115887166D01*
X115820000Y-115863357D01*
X115867619Y-115863357D01*
X116034285Y-115863357D02*
X116034285Y-116196690D01*
X116034285Y-115910976D02*
X116058095Y-115887166D01*
X116105714Y-115863357D01*
X116177142Y-115863357D01*
X116224761Y-115887166D01*
X116248571Y-115934785D01*
X116248571Y-116196690D01*
X116700952Y-116196690D02*
X116700952Y-115934785D01*
X116677142Y-115887166D01*
X116629523Y-115863357D01*
X116534285Y-115863357D01*
X116486666Y-115887166D01*
X116700952Y-116172880D02*
X116653333Y-116196690D01*
X116534285Y-116196690D01*
X116486666Y-116172880D01*
X116462857Y-116125261D01*
X116462857Y-116077642D01*
X116486666Y-116030023D01*
X116534285Y-116006214D01*
X116653333Y-116006214D01*
X116700952Y-115982404D01*
X117010476Y-116196690D02*
X116962857Y-116172880D01*
X116939047Y-116125261D01*
X116939047Y-115696690D01*
X114236666Y-116546690D02*
X114403333Y-117046690D01*
X114570000Y-116546690D01*
X114808095Y-117046690D02*
X114760476Y-117022880D01*
X114736666Y-116999071D01*
X114712857Y-116951452D01*
X114712857Y-116808595D01*
X114736666Y-116760976D01*
X114760476Y-116737166D01*
X114808095Y-116713357D01*
X114879523Y-116713357D01*
X114927142Y-116737166D01*
X114950952Y-116760976D01*
X114974761Y-116808595D01*
X114974761Y-116951452D01*
X114950952Y-116999071D01*
X114927142Y-117022880D01*
X114879523Y-117046690D01*
X114808095Y-117046690D01*
X115260476Y-117046690D02*
X115212857Y-117022880D01*
X115189047Y-116975261D01*
X115189047Y-116546690D01*
X115379523Y-116713357D02*
X115570000Y-116713357D01*
X115450952Y-116546690D02*
X115450952Y-116975261D01*
X115474761Y-117022880D01*
X115522380Y-117046690D01*
X115570000Y-117046690D01*
X115950952Y-117046690D02*
X115950952Y-116784785D01*
X115927142Y-116737166D01*
X115879523Y-116713357D01*
X115784285Y-116713357D01*
X115736666Y-116737166D01*
X115950952Y-117022880D02*
X115903333Y-117046690D01*
X115784285Y-117046690D01*
X115736666Y-117022880D01*
X115712857Y-116975261D01*
X115712857Y-116927642D01*
X115736666Y-116880023D01*
X115784285Y-116856214D01*
X115903333Y-116856214D01*
X115950952Y-116832404D01*
X116403333Y-116713357D02*
X116403333Y-117118119D01*
X116379523Y-117165738D01*
X116355714Y-117189547D01*
X116308095Y-117213357D01*
X116236666Y-117213357D01*
X116189047Y-117189547D01*
X116403333Y-117022880D02*
X116355714Y-117046690D01*
X116260476Y-117046690D01*
X116212857Y-117022880D01*
X116189047Y-116999071D01*
X116165238Y-116951452D01*
X116165238Y-116808595D01*
X116189047Y-116760976D01*
X116212857Y-116737166D01*
X116260476Y-116713357D01*
X116355714Y-116713357D01*
X116403333Y-116737166D01*
X116831904Y-117022880D02*
X116784285Y-117046690D01*
X116689047Y-117046690D01*
X116641428Y-117022880D01*
X116617619Y-116975261D01*
X116617619Y-116784785D01*
X116641428Y-116737166D01*
X116689047Y-116713357D01*
X116784285Y-116713357D01*
X116831904Y-116737166D01*
X116855714Y-116784785D01*
X116855714Y-116832404D01*
X116617619Y-116880023D01*
X120237333Y-116566190D02*
X120404000Y-117066190D01*
X120570666Y-116566190D01*
X121023047Y-117018571D02*
X120999238Y-117042380D01*
X120927809Y-117066190D01*
X120880190Y-117066190D01*
X120808761Y-117042380D01*
X120761142Y-116994761D01*
X120737333Y-116947142D01*
X120713523Y-116851904D01*
X120713523Y-116780476D01*
X120737333Y-116685238D01*
X120761142Y-116637619D01*
X120808761Y-116590000D01*
X120880190Y-116566190D01*
X120927809Y-116566190D01*
X120999238Y-116590000D01*
X121023047Y-116613809D01*
X121523047Y-117018571D02*
X121499238Y-117042380D01*
X121427809Y-117066190D01*
X121380190Y-117066190D01*
X121308761Y-117042380D01*
X121261142Y-116994761D01*
X121237333Y-116947142D01*
X121213523Y-116851904D01*
X121213523Y-116780476D01*
X121237333Y-116685238D01*
X121261142Y-116637619D01*
X121308761Y-116590000D01*
X121380190Y-116566190D01*
X121427809Y-116566190D01*
X121499238Y-116590000D01*
X121523047Y-116613809D01*
X118034666Y-117066190D02*
X118034666Y-116566190D01*
X118153714Y-116566190D01*
X118225142Y-116590000D01*
X118272761Y-116637619D01*
X118296571Y-116685238D01*
X118320380Y-116780476D01*
X118320380Y-116851904D01*
X118296571Y-116947142D01*
X118272761Y-116994761D01*
X118225142Y-117042380D01*
X118153714Y-117066190D01*
X118034666Y-117066190D01*
X118534666Y-116566190D02*
X118534666Y-116970952D01*
X118558476Y-117018571D01*
X118582285Y-117042380D01*
X118629904Y-117066190D01*
X118725142Y-117066190D01*
X118772761Y-117042380D01*
X118796571Y-117018571D01*
X118820380Y-116970952D01*
X118820380Y-116566190D01*
X118987047Y-116566190D02*
X119272761Y-116566190D01*
X119129904Y-117066190D02*
X119129904Y-116566190D01*
X111601404Y-62972190D02*
X111768071Y-63472190D01*
X111934738Y-62972190D01*
X112101404Y-63281714D02*
X112482357Y-63281714D01*
X112887119Y-63210285D02*
X112958547Y-63234095D01*
X112982357Y-63257904D01*
X113006166Y-63305523D01*
X113006166Y-63376952D01*
X112982357Y-63424571D01*
X112958547Y-63448380D01*
X112910928Y-63472190D01*
X112720452Y-63472190D01*
X112720452Y-62972190D01*
X112887119Y-62972190D01*
X112934738Y-62996000D01*
X112958547Y-63019809D01*
X112982357Y-63067428D01*
X112982357Y-63115047D01*
X112958547Y-63162666D01*
X112934738Y-63186476D01*
X112887119Y-63210285D01*
X112720452Y-63210285D01*
X113434738Y-63472190D02*
X113434738Y-63210285D01*
X113410928Y-63162666D01*
X113363309Y-63138857D01*
X113268071Y-63138857D01*
X113220452Y-63162666D01*
X113434738Y-63448380D02*
X113387119Y-63472190D01*
X113268071Y-63472190D01*
X113220452Y-63448380D01*
X113196642Y-63400761D01*
X113196642Y-63353142D01*
X113220452Y-63305523D01*
X113268071Y-63281714D01*
X113387119Y-63281714D01*
X113434738Y-63257904D01*
X113601404Y-63138857D02*
X113791880Y-63138857D01*
X113672833Y-62972190D02*
X113672833Y-63400761D01*
X113696642Y-63448380D01*
X113744261Y-63472190D01*
X113791880Y-63472190D01*
X113887119Y-63138857D02*
X114077595Y-63138857D01*
X113958547Y-62972190D02*
X113958547Y-63400761D01*
X113982357Y-63448380D01*
X114029976Y-63472190D01*
X114077595Y-63472190D01*
X115125547Y-62996000D02*
X115077928Y-62972190D01*
X115006500Y-62972190D01*
X114935071Y-62996000D01*
X114887452Y-63043619D01*
X114863642Y-63091238D01*
X114839833Y-63186476D01*
X114839833Y-63257904D01*
X114863642Y-63353142D01*
X114887452Y-63400761D01*
X114935071Y-63448380D01*
X115006500Y-63472190D01*
X115054119Y-63472190D01*
X115125547Y-63448380D01*
X115149357Y-63424571D01*
X115149357Y-63257904D01*
X115054119Y-63257904D01*
X115363642Y-63472190D02*
X115363642Y-62972190D01*
X115649357Y-63472190D01*
X115649357Y-62972190D01*
X115887452Y-63472190D02*
X115887452Y-62972190D01*
X116006500Y-62972190D01*
X116077928Y-62996000D01*
X116125547Y-63043619D01*
X116149357Y-63091238D01*
X116173166Y-63186476D01*
X116173166Y-63257904D01*
X116149357Y-63353142D01*
X116125547Y-63400761D01*
X116077928Y-63448380D01*
X116006500Y-63472190D01*
X115887452Y-63472190D01*
X124380761Y-80244190D02*
X124547428Y-80744190D01*
X124714095Y-80244190D01*
X125166476Y-80696571D02*
X125142666Y-80720380D01*
X125071238Y-80744190D01*
X125023619Y-80744190D01*
X124952190Y-80720380D01*
X124904571Y-80672761D01*
X124880761Y-80625142D01*
X124856952Y-80529904D01*
X124856952Y-80458476D01*
X124880761Y-80363238D01*
X124904571Y-80315619D01*
X124952190Y-80268000D01*
X125023619Y-80244190D01*
X125071238Y-80244190D01*
X125142666Y-80268000D01*
X125166476Y-80291809D01*
X125666476Y-80696571D02*
X125642666Y-80720380D01*
X125571238Y-80744190D01*
X125523619Y-80744190D01*
X125452190Y-80720380D01*
X125404571Y-80672761D01*
X125380761Y-80625142D01*
X125356952Y-80529904D01*
X125356952Y-80458476D01*
X125380761Y-80363238D01*
X125404571Y-80315619D01*
X125452190Y-80268000D01*
X125523619Y-80244190D01*
X125571238Y-80244190D01*
X125642666Y-80268000D01*
X125666476Y-80291809D01*
X125761714Y-80791809D02*
X126142666Y-80791809D01*
X126237904Y-80291809D02*
X126261714Y-80268000D01*
X126309333Y-80244190D01*
X126428380Y-80244190D01*
X126476000Y-80268000D01*
X126499809Y-80291809D01*
X126523619Y-80339428D01*
X126523619Y-80387047D01*
X126499809Y-80458476D01*
X126214095Y-80744190D01*
X126523619Y-80744190D01*
X122269333Y-80244190D02*
X122436000Y-80744190D01*
X122602666Y-80244190D01*
X123055047Y-80696571D02*
X123031238Y-80720380D01*
X122959809Y-80744190D01*
X122912190Y-80744190D01*
X122840761Y-80720380D01*
X122793142Y-80672761D01*
X122769333Y-80625142D01*
X122745523Y-80529904D01*
X122745523Y-80458476D01*
X122769333Y-80363238D01*
X122793142Y-80315619D01*
X122840761Y-80268000D01*
X122912190Y-80244190D01*
X122959809Y-80244190D01*
X123031238Y-80268000D01*
X123055047Y-80291809D01*
X123555047Y-80696571D02*
X123531238Y-80720380D01*
X123459809Y-80744190D01*
X123412190Y-80744190D01*
X123340761Y-80720380D01*
X123293142Y-80672761D01*
X123269333Y-80625142D01*
X123245523Y-80529904D01*
X123245523Y-80458476D01*
X123269333Y-80363238D01*
X123293142Y-80315619D01*
X123340761Y-80268000D01*
X123412190Y-80244190D01*
X123459809Y-80244190D01*
X123531238Y-80268000D01*
X123555047Y-80291809D01*
X119396000Y-80553714D02*
X119776952Y-80553714D01*
X119586476Y-80744190D02*
X119586476Y-80363238D01*
X119967428Y-80244190D02*
X120276952Y-80244190D01*
X120110285Y-80434666D01*
X120181714Y-80434666D01*
X120229333Y-80458476D01*
X120253142Y-80482285D01*
X120276952Y-80529904D01*
X120276952Y-80648952D01*
X120253142Y-80696571D01*
X120229333Y-80720380D01*
X120181714Y-80744190D01*
X120038857Y-80744190D01*
X119991238Y-80720380D01*
X119967428Y-80696571D01*
X120491238Y-80696571D02*
X120515047Y-80720380D01*
X120491238Y-80744190D01*
X120467428Y-80720380D01*
X120491238Y-80696571D01*
X120491238Y-80744190D01*
X120681714Y-80244190D02*
X120991238Y-80244190D01*
X120824571Y-80434666D01*
X120896000Y-80434666D01*
X120943619Y-80458476D01*
X120967428Y-80482285D01*
X120991238Y-80529904D01*
X120991238Y-80648952D01*
X120967428Y-80696571D01*
X120943619Y-80720380D01*
X120896000Y-80744190D01*
X120753142Y-80744190D01*
X120705523Y-80720380D01*
X120681714Y-80696571D01*
X121134095Y-80244190D02*
X121300761Y-80744190D01*
X121467428Y-80244190D01*
X116617904Y-80244190D02*
X116784571Y-80744190D01*
X116951238Y-80244190D01*
X117117904Y-80553714D02*
X117498857Y-80553714D01*
X117903619Y-80482285D02*
X117975047Y-80506095D01*
X117998857Y-80529904D01*
X118022666Y-80577523D01*
X118022666Y-80648952D01*
X117998857Y-80696571D01*
X117975047Y-80720380D01*
X117927428Y-80744190D01*
X117736952Y-80744190D01*
X117736952Y-80244190D01*
X117903619Y-80244190D01*
X117951238Y-80268000D01*
X117975047Y-80291809D01*
X117998857Y-80339428D01*
X117998857Y-80387047D01*
X117975047Y-80434666D01*
X117951238Y-80458476D01*
X117903619Y-80482285D01*
X117736952Y-80482285D01*
X118451238Y-80744190D02*
X118451238Y-80482285D01*
X118427428Y-80434666D01*
X118379809Y-80410857D01*
X118284571Y-80410857D01*
X118236952Y-80434666D01*
X118451238Y-80720380D02*
X118403619Y-80744190D01*
X118284571Y-80744190D01*
X118236952Y-80720380D01*
X118213142Y-80672761D01*
X118213142Y-80625142D01*
X118236952Y-80577523D01*
X118284571Y-80553714D01*
X118403619Y-80553714D01*
X118451238Y-80529904D01*
X118617904Y-80410857D02*
X118808380Y-80410857D01*
X118689333Y-80244190D02*
X118689333Y-80672761D01*
X118713142Y-80720380D01*
X118760761Y-80744190D01*
X118808380Y-80744190D01*
X118903619Y-80410857D02*
X119094095Y-80410857D01*
X118975047Y-80244190D02*
X118975047Y-80672761D01*
X118998857Y-80720380D01*
X119046476Y-80744190D01*
X119094095Y-80744190D01*
X114935047Y-80268000D02*
X114887428Y-80244190D01*
X114816000Y-80244190D01*
X114744571Y-80268000D01*
X114696952Y-80315619D01*
X114673142Y-80363238D01*
X114649333Y-80458476D01*
X114649333Y-80529904D01*
X114673142Y-80625142D01*
X114696952Y-80672761D01*
X114744571Y-80720380D01*
X114816000Y-80744190D01*
X114863619Y-80744190D01*
X114935047Y-80720380D01*
X114958857Y-80696571D01*
X114958857Y-80529904D01*
X114863619Y-80529904D01*
X115173142Y-80744190D02*
X115173142Y-80244190D01*
X115458857Y-80744190D01*
X115458857Y-80244190D01*
X115696952Y-80744190D02*
X115696952Y-80244190D01*
X115816000Y-80244190D01*
X115887428Y-80268000D01*
X115935047Y-80315619D01*
X115958857Y-80363238D01*
X115982666Y-80458476D01*
X115982666Y-80529904D01*
X115958857Y-80625142D01*
X115935047Y-80672761D01*
X115887428Y-80720380D01*
X115816000Y-80744190D01*
X115696952Y-80744190D01*
X117034809Y-62972190D02*
X117344333Y-62972190D01*
X117177666Y-63162666D01*
X117249095Y-63162666D01*
X117296714Y-63186476D01*
X117320523Y-63210285D01*
X117344333Y-63257904D01*
X117344333Y-63376952D01*
X117320523Y-63424571D01*
X117296714Y-63448380D01*
X117249095Y-63472190D01*
X117106238Y-63472190D01*
X117058619Y-63448380D01*
X117034809Y-63424571D01*
X117558619Y-63424571D02*
X117582428Y-63448380D01*
X117558619Y-63472190D01*
X117534809Y-63448380D01*
X117558619Y-63424571D01*
X117558619Y-63472190D01*
X117749095Y-62972190D02*
X118058619Y-62972190D01*
X117891952Y-63162666D01*
X117963380Y-63162666D01*
X118011000Y-63186476D01*
X118034809Y-63210285D01*
X118058619Y-63257904D01*
X118058619Y-63376952D01*
X118034809Y-63424571D01*
X118011000Y-63448380D01*
X117963380Y-63472190D01*
X117820523Y-63472190D01*
X117772904Y-63448380D01*
X117749095Y-63424571D01*
X118201476Y-62972190D02*
X118368142Y-63472190D01*
X118534809Y-62972190D01*
X119011000Y-63138857D02*
X119201476Y-63138857D01*
X119082428Y-63472190D02*
X119082428Y-63043619D01*
X119106238Y-62996000D01*
X119153857Y-62972190D01*
X119201476Y-62972190D01*
X119368142Y-63472190D02*
X119368142Y-63138857D01*
X119368142Y-63234095D02*
X119391952Y-63186476D01*
X119415761Y-63162666D01*
X119463380Y-63138857D01*
X119511000Y-63138857D01*
X119749095Y-63472190D02*
X119701476Y-63448380D01*
X119677666Y-63424571D01*
X119653857Y-63376952D01*
X119653857Y-63234095D01*
X119677666Y-63186476D01*
X119701476Y-63162666D01*
X119749095Y-63138857D01*
X119820523Y-63138857D01*
X119868142Y-63162666D01*
X119891952Y-63186476D01*
X119915761Y-63234095D01*
X119915761Y-63376952D01*
X119891952Y-63424571D01*
X119868142Y-63448380D01*
X119820523Y-63472190D01*
X119749095Y-63472190D01*
X120130047Y-63472190D02*
X120130047Y-63138857D01*
X120130047Y-63186476D02*
X120153857Y-63162666D01*
X120201476Y-63138857D01*
X120272904Y-63138857D01*
X120320523Y-63162666D01*
X120344333Y-63210285D01*
X120344333Y-63472190D01*
X120344333Y-63210285D02*
X120368142Y-63162666D01*
X120415761Y-63138857D01*
X120487190Y-63138857D01*
X120534809Y-63162666D01*
X120558619Y-63210285D01*
X120558619Y-63472190D01*
X121177666Y-62972190D02*
X121177666Y-63376952D01*
X121201476Y-63424571D01*
X121225285Y-63448380D01*
X121272904Y-63472190D01*
X121368142Y-63472190D01*
X121415761Y-63448380D01*
X121439571Y-63424571D01*
X121463380Y-63376952D01*
X121463380Y-62972190D01*
X121677666Y-63448380D02*
X121749095Y-63472190D01*
X121868142Y-63472190D01*
X121915761Y-63448380D01*
X121939571Y-63424571D01*
X121963380Y-63376952D01*
X121963380Y-63329333D01*
X121939571Y-63281714D01*
X121915761Y-63257904D01*
X121868142Y-63234095D01*
X121772904Y-63210285D01*
X121725285Y-63186476D01*
X121701476Y-63162666D01*
X121677666Y-63115047D01*
X121677666Y-63067428D01*
X121701476Y-63019809D01*
X121725285Y-62996000D01*
X121772904Y-62972190D01*
X121891952Y-62972190D01*
X121963380Y-62996000D01*
X122344333Y-63210285D02*
X122415761Y-63234095D01*
X122439571Y-63257904D01*
X122463380Y-63305523D01*
X122463380Y-63376952D01*
X122439571Y-63424571D01*
X122415761Y-63448380D01*
X122368142Y-63472190D01*
X122177666Y-63472190D01*
X122177666Y-62972190D01*
X122344333Y-62972190D01*
X122391952Y-62996000D01*
X122415761Y-63019809D01*
X122439571Y-63067428D01*
X122439571Y-63115047D01*
X122415761Y-63162666D01*
X122391952Y-63186476D01*
X122344333Y-63210285D01*
X122177666Y-63210285D01*
D12*
G36*
X135114337Y-101171258D02*
G01*
X135153819Y-101171659D01*
X135269508Y-101174451D01*
X135366397Y-101182742D01*
X135447789Y-101197424D01*
X135516985Y-101219385D01*
X135577288Y-101249514D01*
X135632000Y-101288702D01*
X135651541Y-101305724D01*
X135683958Y-101345555D01*
X135713188Y-101399605D01*
X135735717Y-101459515D01*
X135748029Y-101516931D01*
X135749308Y-101538148D01*
X135741291Y-101596961D01*
X135719809Y-101661205D01*
X135688709Y-101722013D01*
X135651842Y-101770522D01*
X135645854Y-101776374D01*
X135595129Y-101817513D01*
X135539583Y-101849627D01*
X135476012Y-101873557D01*
X135401214Y-101890145D01*
X135311986Y-101900233D01*
X135205126Y-101904661D01*
X135156180Y-101905037D01*
X135093946Y-101904737D01*
X135050180Y-101903484D01*
X135020777Y-101900746D01*
X135001629Y-101895993D01*
X134988631Y-101888693D01*
X134981663Y-101882459D01*
X134975082Y-101874886D01*
X134969920Y-101865116D01*
X134966005Y-101850532D01*
X134963165Y-101828518D01*
X134961228Y-101796456D01*
X134960024Y-101751728D01*
X134959380Y-101691718D01*
X134959125Y-101613809D01*
X134959086Y-101538148D01*
X134958838Y-101437233D01*
X134958891Y-101356619D01*
X134959851Y-101318014D01*
X135105841Y-101318014D01*
X135105841Y-101758281D01*
X135198974Y-101758196D01*
X135255015Y-101756588D01*
X135313709Y-101752448D01*
X135362680Y-101746656D01*
X135364170Y-101746418D01*
X135443316Y-101727282D01*
X135504706Y-101697479D01*
X135551403Y-101655070D01*
X135581073Y-101609153D01*
X135599355Y-101558218D01*
X135597937Y-101510392D01*
X135576720Y-101459125D01*
X135535219Y-101406091D01*
X135477710Y-101366792D01*
X135402958Y-101340523D01*
X135353000Y-101331227D01*
X135296292Y-101324699D01*
X135236189Y-101319974D01*
X135185069Y-101318009D01*
X135182041Y-101318000D01*
X135105841Y-101318014D01*
X134959851Y-101318014D01*
X134960448Y-101294043D01*
X134964710Y-101247247D01*
X134972878Y-101213970D01*
X134986152Y-101191951D01*
X135005734Y-101178931D01*
X135032825Y-101172649D01*
X135068626Y-101170845D01*
X135114337Y-101171258D01*
X135114337Y-101171258D01*
G37*
X135114337Y-101171258D02*
X135153819Y-101171659D01*
X135269508Y-101174451D01*
X135366397Y-101182742D01*
X135447789Y-101197424D01*
X135516985Y-101219385D01*
X135577288Y-101249514D01*
X135632000Y-101288702D01*
X135651541Y-101305724D01*
X135683958Y-101345555D01*
X135713188Y-101399605D01*
X135735717Y-101459515D01*
X135748029Y-101516931D01*
X135749308Y-101538148D01*
X135741291Y-101596961D01*
X135719809Y-101661205D01*
X135688709Y-101722013D01*
X135651842Y-101770522D01*
X135645854Y-101776374D01*
X135595129Y-101817513D01*
X135539583Y-101849627D01*
X135476012Y-101873557D01*
X135401214Y-101890145D01*
X135311986Y-101900233D01*
X135205126Y-101904661D01*
X135156180Y-101905037D01*
X135093946Y-101904737D01*
X135050180Y-101903484D01*
X135020777Y-101900746D01*
X135001629Y-101895993D01*
X134988631Y-101888693D01*
X134981663Y-101882459D01*
X134975082Y-101874886D01*
X134969920Y-101865116D01*
X134966005Y-101850532D01*
X134963165Y-101828518D01*
X134961228Y-101796456D01*
X134960024Y-101751728D01*
X134959380Y-101691718D01*
X134959125Y-101613809D01*
X134959086Y-101538148D01*
X134958838Y-101437233D01*
X134958891Y-101356619D01*
X134959851Y-101318014D01*
X135105841Y-101318014D01*
X135105841Y-101758281D01*
X135198974Y-101758196D01*
X135255015Y-101756588D01*
X135313709Y-101752448D01*
X135362680Y-101746656D01*
X135364170Y-101746418D01*
X135443316Y-101727282D01*
X135504706Y-101697479D01*
X135551403Y-101655070D01*
X135581073Y-101609153D01*
X135599355Y-101558218D01*
X135597937Y-101510392D01*
X135576720Y-101459125D01*
X135535219Y-101406091D01*
X135477710Y-101366792D01*
X135402958Y-101340523D01*
X135353000Y-101331227D01*
X135296292Y-101324699D01*
X135236189Y-101319974D01*
X135185069Y-101318009D01*
X135182041Y-101318000D01*
X135105841Y-101318014D01*
X134959851Y-101318014D01*
X134960448Y-101294043D01*
X134964710Y-101247247D01*
X134972878Y-101213970D01*
X134986152Y-101191951D01*
X135005734Y-101178931D01*
X135032825Y-101172649D01*
X135068626Y-101170845D01*
X135114337Y-101171258D01*
G36*
X136522914Y-101171338D02*
G01*
X136592322Y-101171710D01*
X136644711Y-101172577D01*
X136682861Y-101174138D01*
X136709549Y-101176595D01*
X136727555Y-101180149D01*
X136739659Y-101185002D01*
X136748639Y-101191353D01*
X136751890Y-101194276D01*
X136771665Y-101225334D01*
X136775226Y-101261020D01*
X136762217Y-101292702D01*
X136756202Y-101299105D01*
X136746473Y-101305313D01*
X136730807Y-101310102D01*
X136706300Y-101313706D01*
X136670047Y-101316356D01*
X136619143Y-101318287D01*
X136550682Y-101319731D01*
X136488091Y-101320610D01*
X136240374Y-101323659D01*
X136236989Y-101388570D01*
X136233603Y-101453481D01*
X136401750Y-101453481D01*
X136474749Y-101454111D01*
X136528191Y-101456745D01*
X136565080Y-101462501D01*
X136588420Y-101472496D01*
X136601214Y-101487848D01*
X136606466Y-101509674D01*
X136607263Y-101529930D01*
X136604785Y-101554784D01*
X136595431Y-101573098D01*
X136576325Y-101585829D01*
X136544590Y-101593933D01*
X136497349Y-101598368D01*
X136431725Y-101600091D01*
X136395907Y-101600237D01*
X136234730Y-101600237D01*
X136234730Y-101758281D01*
X136483086Y-101758281D01*
X136564495Y-101758394D01*
X136626366Y-101758904D01*
X136671740Y-101760062D01*
X136703654Y-101762122D01*
X136725149Y-101765338D01*
X136739265Y-101769964D01*
X136749040Y-101776251D01*
X136754019Y-101780859D01*
X136771098Y-101807752D01*
X136776597Y-101831659D01*
X136768745Y-101860859D01*
X136754019Y-101882459D01*
X136746162Y-101889258D01*
X136736020Y-101894538D01*
X136720864Y-101898490D01*
X136697967Y-101901305D01*
X136664599Y-101903174D01*
X136618033Y-101904290D01*
X136555541Y-101904843D01*
X136474394Y-101905025D01*
X136432286Y-101905037D01*
X136342110Y-101904957D01*
X136271784Y-101904590D01*
X136218579Y-101903744D01*
X136179768Y-101902228D01*
X136152621Y-101899851D01*
X136134410Y-101896421D01*
X136122408Y-101891746D01*
X136113886Y-101885636D01*
X136110552Y-101882459D01*
X136103953Y-101874862D01*
X136098781Y-101865062D01*
X136094862Y-101850431D01*
X136092024Y-101828344D01*
X136090093Y-101796174D01*
X136088896Y-101751295D01*
X136088260Y-101691081D01*
X136088011Y-101612905D01*
X136087974Y-101540115D01*
X136088008Y-101446899D01*
X136088243Y-101373623D01*
X136088878Y-101317650D01*
X136090114Y-101276343D01*
X136092152Y-101247064D01*
X136095191Y-101227176D01*
X136099431Y-101214042D01*
X136105073Y-101205024D01*
X136112317Y-101197485D01*
X136114102Y-101195804D01*
X136122763Y-101188364D01*
X136132826Y-101182601D01*
X136147083Y-101178304D01*
X136168325Y-101175256D01*
X136199344Y-101173243D01*
X136242931Y-101172052D01*
X136301877Y-101171467D01*
X136378974Y-101171275D01*
X136433707Y-101171259D01*
X136522914Y-101171338D01*
X136522914Y-101171338D01*
G37*
X136522914Y-101171338D02*
X136592322Y-101171710D01*
X136644711Y-101172577D01*
X136682861Y-101174138D01*
X136709549Y-101176595D01*
X136727555Y-101180149D01*
X136739659Y-101185002D01*
X136748639Y-101191353D01*
X136751890Y-101194276D01*
X136771665Y-101225334D01*
X136775226Y-101261020D01*
X136762217Y-101292702D01*
X136756202Y-101299105D01*
X136746473Y-101305313D01*
X136730807Y-101310102D01*
X136706300Y-101313706D01*
X136670047Y-101316356D01*
X136619143Y-101318287D01*
X136550682Y-101319731D01*
X136488091Y-101320610D01*
X136240374Y-101323659D01*
X136236989Y-101388570D01*
X136233603Y-101453481D01*
X136401750Y-101453481D01*
X136474749Y-101454111D01*
X136528191Y-101456745D01*
X136565080Y-101462501D01*
X136588420Y-101472496D01*
X136601214Y-101487848D01*
X136606466Y-101509674D01*
X136607263Y-101529930D01*
X136604785Y-101554784D01*
X136595431Y-101573098D01*
X136576325Y-101585829D01*
X136544590Y-101593933D01*
X136497349Y-101598368D01*
X136431725Y-101600091D01*
X136395907Y-101600237D01*
X136234730Y-101600237D01*
X136234730Y-101758281D01*
X136483086Y-101758281D01*
X136564495Y-101758394D01*
X136626366Y-101758904D01*
X136671740Y-101760062D01*
X136703654Y-101762122D01*
X136725149Y-101765338D01*
X136739265Y-101769964D01*
X136749040Y-101776251D01*
X136754019Y-101780859D01*
X136771098Y-101807752D01*
X136776597Y-101831659D01*
X136768745Y-101860859D01*
X136754019Y-101882459D01*
X136746162Y-101889258D01*
X136736020Y-101894538D01*
X136720864Y-101898490D01*
X136697967Y-101901305D01*
X136664599Y-101903174D01*
X136618033Y-101904290D01*
X136555541Y-101904843D01*
X136474394Y-101905025D01*
X136432286Y-101905037D01*
X136342110Y-101904957D01*
X136271784Y-101904590D01*
X136218579Y-101903744D01*
X136179768Y-101902228D01*
X136152621Y-101899851D01*
X136134410Y-101896421D01*
X136122408Y-101891746D01*
X136113886Y-101885636D01*
X136110552Y-101882459D01*
X136103953Y-101874862D01*
X136098781Y-101865062D01*
X136094862Y-101850431D01*
X136092024Y-101828344D01*
X136090093Y-101796174D01*
X136088896Y-101751295D01*
X136088260Y-101691081D01*
X136088011Y-101612905D01*
X136087974Y-101540115D01*
X136088008Y-101446899D01*
X136088243Y-101373623D01*
X136088878Y-101317650D01*
X136090114Y-101276343D01*
X136092152Y-101247064D01*
X136095191Y-101227176D01*
X136099431Y-101214042D01*
X136105073Y-101205024D01*
X136112317Y-101197485D01*
X136114102Y-101195804D01*
X136122763Y-101188364D01*
X136132826Y-101182601D01*
X136147083Y-101178304D01*
X136168325Y-101175256D01*
X136199344Y-101173243D01*
X136242931Y-101172052D01*
X136301877Y-101171467D01*
X136378974Y-101171275D01*
X136433707Y-101171259D01*
X136522914Y-101171338D01*
G36*
X137544005Y-101172543D02*
G01*
X137618820Y-101177773D01*
X137688402Y-101185942D01*
X137748706Y-101196742D01*
X137795688Y-101209865D01*
X137825302Y-101225005D01*
X137829848Y-101229461D01*
X137845654Y-101264042D01*
X137840861Y-101299543D01*
X137816344Y-101329917D01*
X137815174Y-101330788D01*
X137800754Y-101340146D01*
X137785700Y-101345068D01*
X137764703Y-101345665D01*
X137732451Y-101342053D01*
X137683635Y-101334346D01*
X137679708Y-101333697D01*
X137606969Y-101324761D01*
X137528491Y-101320353D01*
X137449781Y-101320311D01*
X137376347Y-101324471D01*
X137313697Y-101332671D01*
X137267338Y-101344749D01*
X137264292Y-101345963D01*
X137230660Y-101364807D01*
X137218844Y-101383877D01*
X137228094Y-101402631D01*
X137257661Y-101420529D01*
X137306797Y-101437029D01*
X137374751Y-101451588D01*
X137420063Y-101458598D01*
X137514252Y-101472081D01*
X137589164Y-101484406D01*
X137647991Y-101496641D01*
X137693923Y-101509853D01*
X137730153Y-101525109D01*
X137759870Y-101543477D01*
X137786266Y-101566023D01*
X137807478Y-101588163D01*
X137832643Y-101619011D01*
X137845027Y-101645537D01*
X137848900Y-101678218D01*
X137849041Y-101690187D01*
X137846132Y-101729904D01*
X137834506Y-101759451D01*
X137814385Y-101785678D01*
X137773492Y-101825768D01*
X137727891Y-101856341D01*
X137674195Y-101878395D01*
X137609016Y-101892927D01*
X137528964Y-101900933D01*
X137430651Y-101903410D01*
X137414419Y-101903369D01*
X137348859Y-101902010D01*
X137283842Y-101898922D01*
X137226456Y-101894548D01*
X137183786Y-101889332D01*
X137180336Y-101888733D01*
X137137912Y-101878683D01*
X137101928Y-101865988D01*
X137081558Y-101854382D01*
X137062601Y-101823764D01*
X137061281Y-101788110D01*
X137077623Y-101756336D01*
X137081279Y-101752743D01*
X137096393Y-101742068D01*
X137115293Y-101737468D01*
X137144546Y-101738251D01*
X137180057Y-101742319D01*
X137219738Y-101745954D01*
X137275363Y-101749020D01*
X137340302Y-101751245D01*
X137407923Y-101752356D01*
X137425708Y-101752429D01*
X137493580Y-101752156D01*
X137543254Y-101750838D01*
X137579098Y-101748019D01*
X137605484Y-101743242D01*
X137626782Y-101736049D01*
X137639582Y-101730059D01*
X137667708Y-101713425D01*
X137685640Y-101698360D01*
X137688261Y-101694089D01*
X137682732Y-101676455D01*
X137656448Y-101659384D01*
X137611230Y-101643650D01*
X137548900Y-101630030D01*
X137530537Y-101626996D01*
X137434618Y-101611930D01*
X137358067Y-101599338D01*
X137297928Y-101588303D01*
X137251248Y-101577912D01*
X137215071Y-101567248D01*
X137186443Y-101555397D01*
X137162410Y-101541443D01*
X137140016Y-101524473D01*
X137116306Y-101503570D01*
X137108328Y-101496241D01*
X137080355Y-101468891D01*
X137065548Y-101447221D01*
X137059756Y-101422424D01*
X137058819Y-101391175D01*
X137069133Y-101329897D01*
X137099956Y-101277832D01*
X137151113Y-101235150D01*
X137222425Y-101202017D01*
X137273308Y-101187156D01*
X137328608Y-101177558D01*
X137394855Y-101172128D01*
X137468002Y-101170559D01*
X137544005Y-101172543D01*
X137544005Y-101172543D01*
G37*
X137544005Y-101172543D02*
X137618820Y-101177773D01*
X137688402Y-101185942D01*
X137748706Y-101196742D01*
X137795688Y-101209865D01*
X137825302Y-101225005D01*
X137829848Y-101229461D01*
X137845654Y-101264042D01*
X137840861Y-101299543D01*
X137816344Y-101329917D01*
X137815174Y-101330788D01*
X137800754Y-101340146D01*
X137785700Y-101345068D01*
X137764703Y-101345665D01*
X137732451Y-101342053D01*
X137683635Y-101334346D01*
X137679708Y-101333697D01*
X137606969Y-101324761D01*
X137528491Y-101320353D01*
X137449781Y-101320311D01*
X137376347Y-101324471D01*
X137313697Y-101332671D01*
X137267338Y-101344749D01*
X137264292Y-101345963D01*
X137230660Y-101364807D01*
X137218844Y-101383877D01*
X137228094Y-101402631D01*
X137257661Y-101420529D01*
X137306797Y-101437029D01*
X137374751Y-101451588D01*
X137420063Y-101458598D01*
X137514252Y-101472081D01*
X137589164Y-101484406D01*
X137647991Y-101496641D01*
X137693923Y-101509853D01*
X137730153Y-101525109D01*
X137759870Y-101543477D01*
X137786266Y-101566023D01*
X137807478Y-101588163D01*
X137832643Y-101619011D01*
X137845027Y-101645537D01*
X137848900Y-101678218D01*
X137849041Y-101690187D01*
X137846132Y-101729904D01*
X137834506Y-101759451D01*
X137814385Y-101785678D01*
X137773492Y-101825768D01*
X137727891Y-101856341D01*
X137674195Y-101878395D01*
X137609016Y-101892927D01*
X137528964Y-101900933D01*
X137430651Y-101903410D01*
X137414419Y-101903369D01*
X137348859Y-101902010D01*
X137283842Y-101898922D01*
X137226456Y-101894548D01*
X137183786Y-101889332D01*
X137180336Y-101888733D01*
X137137912Y-101878683D01*
X137101928Y-101865988D01*
X137081558Y-101854382D01*
X137062601Y-101823764D01*
X137061281Y-101788110D01*
X137077623Y-101756336D01*
X137081279Y-101752743D01*
X137096393Y-101742068D01*
X137115293Y-101737468D01*
X137144546Y-101738251D01*
X137180057Y-101742319D01*
X137219738Y-101745954D01*
X137275363Y-101749020D01*
X137340302Y-101751245D01*
X137407923Y-101752356D01*
X137425708Y-101752429D01*
X137493580Y-101752156D01*
X137543254Y-101750838D01*
X137579098Y-101748019D01*
X137605484Y-101743242D01*
X137626782Y-101736049D01*
X137639582Y-101730059D01*
X137667708Y-101713425D01*
X137685640Y-101698360D01*
X137688261Y-101694089D01*
X137682732Y-101676455D01*
X137656448Y-101659384D01*
X137611230Y-101643650D01*
X137548900Y-101630030D01*
X137530537Y-101626996D01*
X137434618Y-101611930D01*
X137358067Y-101599338D01*
X137297928Y-101588303D01*
X137251248Y-101577912D01*
X137215071Y-101567248D01*
X137186443Y-101555397D01*
X137162410Y-101541443D01*
X137140016Y-101524473D01*
X137116306Y-101503570D01*
X137108328Y-101496241D01*
X137080355Y-101468891D01*
X137065548Y-101447221D01*
X137059756Y-101422424D01*
X137058819Y-101391175D01*
X137069133Y-101329897D01*
X137099956Y-101277832D01*
X137151113Y-101235150D01*
X137222425Y-101202017D01*
X137273308Y-101187156D01*
X137328608Y-101177558D01*
X137394855Y-101172128D01*
X137468002Y-101170559D01*
X137544005Y-101172543D01*
G36*
X138311886Y-101193837D02*
G01*
X138318466Y-101201410D01*
X138323629Y-101211179D01*
X138327544Y-101225763D01*
X138330384Y-101247777D01*
X138332321Y-101279840D01*
X138333525Y-101324567D01*
X138334169Y-101384577D01*
X138334424Y-101462486D01*
X138334463Y-101538148D01*
X138334394Y-101631994D01*
X138334070Y-101705881D01*
X138333322Y-101762424D01*
X138331976Y-101804241D01*
X138329862Y-101833949D01*
X138326808Y-101854165D01*
X138322642Y-101867506D01*
X138317192Y-101876590D01*
X138311886Y-101882459D01*
X138278882Y-101902139D01*
X138243717Y-101900373D01*
X138212253Y-101878909D01*
X138205024Y-101870529D01*
X138199374Y-101860806D01*
X138195109Y-101847053D01*
X138192035Y-101826581D01*
X138189956Y-101796704D01*
X138188678Y-101754733D01*
X138188007Y-101697981D01*
X138187749Y-101623759D01*
X138187708Y-101539729D01*
X138187708Y-101226677D01*
X138215417Y-101198968D01*
X138249571Y-101175655D01*
X138282702Y-101174815D01*
X138311886Y-101193837D01*
X138311886Y-101193837D01*
G37*
X138311886Y-101193837D02*
X138318466Y-101201410D01*
X138323629Y-101211179D01*
X138327544Y-101225763D01*
X138330384Y-101247777D01*
X138332321Y-101279840D01*
X138333525Y-101324567D01*
X138334169Y-101384577D01*
X138334424Y-101462486D01*
X138334463Y-101538148D01*
X138334394Y-101631994D01*
X138334070Y-101705881D01*
X138333322Y-101762424D01*
X138331976Y-101804241D01*
X138329862Y-101833949D01*
X138326808Y-101854165D01*
X138322642Y-101867506D01*
X138317192Y-101876590D01*
X138311886Y-101882459D01*
X138278882Y-101902139D01*
X138243717Y-101900373D01*
X138212253Y-101878909D01*
X138205024Y-101870529D01*
X138199374Y-101860806D01*
X138195109Y-101847053D01*
X138192035Y-101826581D01*
X138189956Y-101796704D01*
X138188678Y-101754733D01*
X138188007Y-101697981D01*
X138187749Y-101623759D01*
X138187708Y-101539729D01*
X138187708Y-101226677D01*
X138215417Y-101198968D01*
X138249571Y-101175655D01*
X138282702Y-101174815D01*
X138311886Y-101193837D01*
G36*
X139285627Y-101176791D02*
G01*
X139354143Y-101188287D01*
X139406765Y-101206159D01*
X139441000Y-101229691D01*
X139450329Y-101243116D01*
X139459815Y-101274340D01*
X139453431Y-101302587D01*
X139433278Y-101329374D01*
X139401963Y-101341905D01*
X139356525Y-101340888D01*
X139321382Y-101334098D01*
X139243289Y-101321163D01*
X139163482Y-101319934D01*
X139074153Y-101330433D01*
X139049479Y-101334882D01*
X138966417Y-101358300D01*
X138901435Y-101393137D01*
X138855247Y-101438796D01*
X138828563Y-101494686D01*
X138823045Y-101523580D01*
X138826657Y-101582204D01*
X138849979Y-101634071D01*
X138890884Y-101678170D01*
X138947249Y-101713491D01*
X139016948Y-101739021D01*
X139097856Y-101753751D01*
X139187848Y-101756670D01*
X139284798Y-101746767D01*
X139290272Y-101745833D01*
X139328833Y-101738651D01*
X139350214Y-101731713D01*
X139359481Y-101721419D01*
X139361702Y-101704168D01*
X139361752Y-101695033D01*
X139361752Y-101656681D01*
X139293277Y-101656681D01*
X139232808Y-101652539D01*
X139191543Y-101639339D01*
X139167533Y-101615922D01*
X139158831Y-101581128D01*
X139158725Y-101576586D01*
X139163816Y-101546846D01*
X139181275Y-101525611D01*
X139213769Y-101511558D01*
X139263965Y-101503365D01*
X139312585Y-101500353D01*
X139383252Y-101498625D01*
X139434510Y-101501262D01*
X139469469Y-101510992D01*
X139491238Y-101530545D01*
X139502928Y-101562648D01*
X139507648Y-101610030D01*
X139508508Y-101672263D01*
X139507099Y-101741727D01*
X139502860Y-101788978D01*
X139495772Y-101814204D01*
X139494397Y-101816180D01*
X139455480Y-101847700D01*
X139398422Y-101872662D01*
X139326839Y-101890532D01*
X139244350Y-101900778D01*
X139154569Y-101902865D01*
X139061116Y-101896260D01*
X139006152Y-101888148D01*
X138919942Y-101863746D01*
X138839816Y-101823854D01*
X138772731Y-101772079D01*
X138762535Y-101761731D01*
X138729406Y-101718227D01*
X138699514Y-101664310D01*
X138676351Y-101607784D01*
X138663410Y-101556451D01*
X138661850Y-101536736D01*
X138668490Y-101495611D01*
X138686140Y-101444444D01*
X138711411Y-101390586D01*
X138740919Y-101341387D01*
X138766989Y-101308526D01*
X138827943Y-101259644D01*
X138906739Y-101220737D01*
X139000551Y-101192686D01*
X139106558Y-101176371D01*
X139203708Y-101172384D01*
X139285627Y-101176791D01*
X139285627Y-101176791D01*
G37*
X139285627Y-101176791D02*
X139354143Y-101188287D01*
X139406765Y-101206159D01*
X139441000Y-101229691D01*
X139450329Y-101243116D01*
X139459815Y-101274340D01*
X139453431Y-101302587D01*
X139433278Y-101329374D01*
X139401963Y-101341905D01*
X139356525Y-101340888D01*
X139321382Y-101334098D01*
X139243289Y-101321163D01*
X139163482Y-101319934D01*
X139074153Y-101330433D01*
X139049479Y-101334882D01*
X138966417Y-101358300D01*
X138901435Y-101393137D01*
X138855247Y-101438796D01*
X138828563Y-101494686D01*
X138823045Y-101523580D01*
X138826657Y-101582204D01*
X138849979Y-101634071D01*
X138890884Y-101678170D01*
X138947249Y-101713491D01*
X139016948Y-101739021D01*
X139097856Y-101753751D01*
X139187848Y-101756670D01*
X139284798Y-101746767D01*
X139290272Y-101745833D01*
X139328833Y-101738651D01*
X139350214Y-101731713D01*
X139359481Y-101721419D01*
X139361702Y-101704168D01*
X139361752Y-101695033D01*
X139361752Y-101656681D01*
X139293277Y-101656681D01*
X139232808Y-101652539D01*
X139191543Y-101639339D01*
X139167533Y-101615922D01*
X139158831Y-101581128D01*
X139158725Y-101576586D01*
X139163816Y-101546846D01*
X139181275Y-101525611D01*
X139213769Y-101511558D01*
X139263965Y-101503365D01*
X139312585Y-101500353D01*
X139383252Y-101498625D01*
X139434510Y-101501262D01*
X139469469Y-101510992D01*
X139491238Y-101530545D01*
X139502928Y-101562648D01*
X139507648Y-101610030D01*
X139508508Y-101672263D01*
X139507099Y-101741727D01*
X139502860Y-101788978D01*
X139495772Y-101814204D01*
X139494397Y-101816180D01*
X139455480Y-101847700D01*
X139398422Y-101872662D01*
X139326839Y-101890532D01*
X139244350Y-101900778D01*
X139154569Y-101902865D01*
X139061116Y-101896260D01*
X139006152Y-101888148D01*
X138919942Y-101863746D01*
X138839816Y-101823854D01*
X138772731Y-101772079D01*
X138762535Y-101761731D01*
X138729406Y-101718227D01*
X138699514Y-101664310D01*
X138676351Y-101607784D01*
X138663410Y-101556451D01*
X138661850Y-101536736D01*
X138668490Y-101495611D01*
X138686140Y-101444444D01*
X138711411Y-101390586D01*
X138740919Y-101341387D01*
X138766989Y-101308526D01*
X138827943Y-101259644D01*
X138906739Y-101220737D01*
X139000551Y-101192686D01*
X139106558Y-101176371D01*
X139203708Y-101172384D01*
X139285627Y-101176791D01*
G36*
X139935594Y-101175640D02*
G01*
X139959160Y-101189465D01*
X139989973Y-101212073D01*
X140029630Y-101244530D01*
X140079728Y-101287900D01*
X140141865Y-101343250D01*
X140217636Y-101411643D01*
X140304374Y-101490276D01*
X140484997Y-101654070D01*
X140490641Y-101434221D01*
X140492679Y-101358543D01*
X140494645Y-101302186D01*
X140496974Y-101261898D01*
X140500102Y-101234427D01*
X140504463Y-101216521D01*
X140510492Y-101204929D01*
X140518624Y-101196400D01*
X140522936Y-101192815D01*
X140557467Y-101173862D01*
X140590325Y-101176633D01*
X140616390Y-101192825D01*
X140643041Y-101214391D01*
X140646356Y-101529343D01*
X140647273Y-101621971D01*
X140647740Y-101694736D01*
X140647595Y-101750353D01*
X140646676Y-101791534D01*
X140644821Y-101820995D01*
X140641869Y-101841447D01*
X140637658Y-101855605D01*
X140632026Y-101866183D01*
X140625781Y-101874666D01*
X140612269Y-101890399D01*
X140598825Y-101900828D01*
X140583584Y-101904831D01*
X140564682Y-101901286D01*
X140540253Y-101889071D01*
X140508435Y-101867063D01*
X140467360Y-101834141D01*
X140415166Y-101789183D01*
X140349986Y-101731067D01*
X140276152Y-101664291D01*
X140010863Y-101423650D01*
X140005219Y-101642781D01*
X140003177Y-101718320D01*
X140001206Y-101774546D01*
X139998869Y-101814716D01*
X139995727Y-101842088D01*
X139991344Y-101859920D01*
X139985284Y-101871471D01*
X139977108Y-101879999D01*
X139972924Y-101883474D01*
X139935943Y-101902564D01*
X139901000Y-101899685D01*
X139870572Y-101875292D01*
X139863611Y-101865478D01*
X139858185Y-101854018D01*
X139854105Y-101838160D01*
X139851179Y-101815155D01*
X139849216Y-101782254D01*
X139848025Y-101736708D01*
X139847416Y-101675765D01*
X139847197Y-101596678D01*
X139847174Y-101538148D01*
X139847248Y-101446599D01*
X139847595Y-101374879D01*
X139848407Y-101320237D01*
X139849875Y-101279924D01*
X139852189Y-101251190D01*
X139855541Y-101231285D01*
X139860120Y-101217460D01*
X139866119Y-101206964D01*
X139870572Y-101201003D01*
X139881858Y-101186883D01*
X139892407Y-101176221D01*
X139903815Y-101170084D01*
X139917678Y-101169535D01*
X139935594Y-101175640D01*
X139935594Y-101175640D01*
G37*
X139935594Y-101175640D02*
X139959160Y-101189465D01*
X139989973Y-101212073D01*
X140029630Y-101244530D01*
X140079728Y-101287900D01*
X140141865Y-101343250D01*
X140217636Y-101411643D01*
X140304374Y-101490276D01*
X140484997Y-101654070D01*
X140490641Y-101434221D01*
X140492679Y-101358543D01*
X140494645Y-101302186D01*
X140496974Y-101261898D01*
X140500102Y-101234427D01*
X140504463Y-101216521D01*
X140510492Y-101204929D01*
X140518624Y-101196400D01*
X140522936Y-101192815D01*
X140557467Y-101173862D01*
X140590325Y-101176633D01*
X140616390Y-101192825D01*
X140643041Y-101214391D01*
X140646356Y-101529343D01*
X140647273Y-101621971D01*
X140647740Y-101694736D01*
X140647595Y-101750353D01*
X140646676Y-101791534D01*
X140644821Y-101820995D01*
X140641869Y-101841447D01*
X140637658Y-101855605D01*
X140632026Y-101866183D01*
X140625781Y-101874666D01*
X140612269Y-101890399D01*
X140598825Y-101900828D01*
X140583584Y-101904831D01*
X140564682Y-101901286D01*
X140540253Y-101889071D01*
X140508435Y-101867063D01*
X140467360Y-101834141D01*
X140415166Y-101789183D01*
X140349986Y-101731067D01*
X140276152Y-101664291D01*
X140010863Y-101423650D01*
X140005219Y-101642781D01*
X140003177Y-101718320D01*
X140001206Y-101774546D01*
X139998869Y-101814716D01*
X139995727Y-101842088D01*
X139991344Y-101859920D01*
X139985284Y-101871471D01*
X139977108Y-101879999D01*
X139972924Y-101883474D01*
X139935943Y-101902564D01*
X139901000Y-101899685D01*
X139870572Y-101875292D01*
X139863611Y-101865478D01*
X139858185Y-101854018D01*
X139854105Y-101838160D01*
X139851179Y-101815155D01*
X139849216Y-101782254D01*
X139848025Y-101736708D01*
X139847416Y-101675765D01*
X139847197Y-101596678D01*
X139847174Y-101538148D01*
X139847248Y-101446599D01*
X139847595Y-101374879D01*
X139848407Y-101320237D01*
X139849875Y-101279924D01*
X139852189Y-101251190D01*
X139855541Y-101231285D01*
X139860120Y-101217460D01*
X139866119Y-101206964D01*
X139870572Y-101201003D01*
X139881858Y-101186883D01*
X139892407Y-101176221D01*
X139903815Y-101170084D01*
X139917678Y-101169535D01*
X139935594Y-101175640D01*
G36*
X141466051Y-101171452D02*
G01*
X141542409Y-101172366D01*
X141600925Y-101174503D01*
X141643963Y-101178367D01*
X141673891Y-101184459D01*
X141693076Y-101193282D01*
X141703884Y-101205338D01*
X141708681Y-101221131D01*
X141709835Y-101241162D01*
X141709841Y-101243527D01*
X141708839Y-101266184D01*
X141704104Y-101283695D01*
X141693041Y-101296766D01*
X141673056Y-101306105D01*
X141641554Y-101312419D01*
X141595940Y-101316414D01*
X141533621Y-101318798D01*
X141452001Y-101320278D01*
X141426985Y-101320606D01*
X141184908Y-101323659D01*
X141181522Y-101388570D01*
X141178137Y-101453481D01*
X141346284Y-101453481D01*
X141411974Y-101453723D01*
X141458880Y-101454748D01*
X141490791Y-101457003D01*
X141511499Y-101460934D01*
X141524792Y-101466990D01*
X141534463Y-101475616D01*
X141534525Y-101475685D01*
X141552064Y-101509304D01*
X141551430Y-101545640D01*
X141533022Y-101576615D01*
X141529379Y-101579799D01*
X141516449Y-101588004D01*
X141498732Y-101593713D01*
X141472278Y-101597354D01*
X141433140Y-101599359D01*
X141377370Y-101600156D01*
X141341702Y-101600237D01*
X141179263Y-101600237D01*
X141179263Y-101758281D01*
X141425869Y-101758281D01*
X141507288Y-101758423D01*
X141569118Y-101759006D01*
X141614345Y-101760260D01*
X141645956Y-101762419D01*
X141666939Y-101765715D01*
X141680281Y-101770381D01*
X141688969Y-101776649D01*
X141691158Y-101778925D01*
X141707322Y-101810472D01*
X141708505Y-101846360D01*
X141695244Y-101877477D01*
X141684751Y-101887463D01*
X141673837Y-101892961D01*
X141656925Y-101897214D01*
X141631341Y-101900372D01*
X141594409Y-101902584D01*
X141543454Y-101903998D01*
X141475802Y-101904764D01*
X141388777Y-101905030D01*
X141369102Y-101905037D01*
X141280619Y-101904979D01*
X141211935Y-101904659D01*
X141160272Y-101903859D01*
X141122853Y-101902359D01*
X141096898Y-101899941D01*
X141079630Y-101896386D01*
X141068270Y-101891474D01*
X141060040Y-101884987D01*
X141055525Y-101880330D01*
X141048729Y-101872081D01*
X141043420Y-101861861D01*
X141039414Y-101846992D01*
X141036529Y-101824794D01*
X141034582Y-101792585D01*
X141033389Y-101747688D01*
X141032769Y-101687420D01*
X141032537Y-101609103D01*
X141032508Y-101543186D01*
X141032579Y-101450820D01*
X141032916Y-101378309D01*
X141033706Y-101322929D01*
X141035134Y-101281957D01*
X141037387Y-101252670D01*
X141040651Y-101232345D01*
X141045112Y-101218258D01*
X141050956Y-101207687D01*
X141055905Y-101201003D01*
X141079302Y-101171259D01*
X141369482Y-101171259D01*
X141466051Y-101171452D01*
X141466051Y-101171452D01*
G37*
X141466051Y-101171452D02*
X141542409Y-101172366D01*
X141600925Y-101174503D01*
X141643963Y-101178367D01*
X141673891Y-101184459D01*
X141693076Y-101193282D01*
X141703884Y-101205338D01*
X141708681Y-101221131D01*
X141709835Y-101241162D01*
X141709841Y-101243527D01*
X141708839Y-101266184D01*
X141704104Y-101283695D01*
X141693041Y-101296766D01*
X141673056Y-101306105D01*
X141641554Y-101312419D01*
X141595940Y-101316414D01*
X141533621Y-101318798D01*
X141452001Y-101320278D01*
X141426985Y-101320606D01*
X141184908Y-101323659D01*
X141181522Y-101388570D01*
X141178137Y-101453481D01*
X141346284Y-101453481D01*
X141411974Y-101453723D01*
X141458880Y-101454748D01*
X141490791Y-101457003D01*
X141511499Y-101460934D01*
X141524792Y-101466990D01*
X141534463Y-101475616D01*
X141534525Y-101475685D01*
X141552064Y-101509304D01*
X141551430Y-101545640D01*
X141533022Y-101576615D01*
X141529379Y-101579799D01*
X141516449Y-101588004D01*
X141498732Y-101593713D01*
X141472278Y-101597354D01*
X141433140Y-101599359D01*
X141377370Y-101600156D01*
X141341702Y-101600237D01*
X141179263Y-101600237D01*
X141179263Y-101758281D01*
X141425869Y-101758281D01*
X141507288Y-101758423D01*
X141569118Y-101759006D01*
X141614345Y-101760260D01*
X141645956Y-101762419D01*
X141666939Y-101765715D01*
X141680281Y-101770381D01*
X141688969Y-101776649D01*
X141691158Y-101778925D01*
X141707322Y-101810472D01*
X141708505Y-101846360D01*
X141695244Y-101877477D01*
X141684751Y-101887463D01*
X141673837Y-101892961D01*
X141656925Y-101897214D01*
X141631341Y-101900372D01*
X141594409Y-101902584D01*
X141543454Y-101903998D01*
X141475802Y-101904764D01*
X141388777Y-101905030D01*
X141369102Y-101905037D01*
X141280619Y-101904979D01*
X141211935Y-101904659D01*
X141160272Y-101903859D01*
X141122853Y-101902359D01*
X141096898Y-101899941D01*
X141079630Y-101896386D01*
X141068270Y-101891474D01*
X141060040Y-101884987D01*
X141055525Y-101880330D01*
X141048729Y-101872081D01*
X141043420Y-101861861D01*
X141039414Y-101846992D01*
X141036529Y-101824794D01*
X141034582Y-101792585D01*
X141033389Y-101747688D01*
X141032769Y-101687420D01*
X141032537Y-101609103D01*
X141032508Y-101543186D01*
X141032579Y-101450820D01*
X141032916Y-101378309D01*
X141033706Y-101322929D01*
X141035134Y-101281957D01*
X141037387Y-101252670D01*
X141040651Y-101232345D01*
X141045112Y-101218258D01*
X141050956Y-101207687D01*
X141055905Y-101201003D01*
X141079302Y-101171259D01*
X141369482Y-101171259D01*
X141466051Y-101171452D01*
G36*
X142254017Y-101171467D02*
G01*
X142382996Y-101175828D01*
X142492699Y-101189053D01*
X142584934Y-101211933D01*
X142661510Y-101245262D01*
X142724235Y-101289830D01*
X142774920Y-101346428D01*
X142815371Y-101415850D01*
X142816167Y-101417543D01*
X142840309Y-101479675D01*
X142848911Y-101534701D01*
X142841939Y-101590079D01*
X142819362Y-101653265D01*
X142815080Y-101662881D01*
X142785880Y-101719158D01*
X142753064Y-101762643D01*
X142710710Y-101799609D01*
X142652898Y-101836327D01*
X142649539Y-101838244D01*
X142599212Y-101862419D01*
X142542329Y-101880474D01*
X142475235Y-101893031D01*
X142394273Y-101900714D01*
X142295790Y-101904145D01*
X142260994Y-101904443D01*
X142095302Y-101905037D01*
X142071905Y-101875292D01*
X142064965Y-101865511D01*
X142059550Y-101854089D01*
X142055473Y-101838287D01*
X142052545Y-101815367D01*
X142050575Y-101782588D01*
X142049933Y-101758281D01*
X142206552Y-101758281D01*
X142300434Y-101758281D01*
X142355372Y-101756675D01*
X142411768Y-101752447D01*
X142458053Y-101746484D01*
X142460847Y-101745982D01*
X142543056Y-101723928D01*
X142606822Y-101690792D01*
X142654160Y-101645039D01*
X142687090Y-101585131D01*
X142692816Y-101569253D01*
X142698429Y-101544525D01*
X142695999Y-101520094D01*
X142684175Y-101487592D01*
X142677048Y-101471626D01*
X142653708Y-101429198D01*
X142625588Y-101399432D01*
X142594648Y-101378703D01*
X142532674Y-101351729D01*
X142453359Y-101332190D01*
X142360961Y-101320938D01*
X142294041Y-101318462D01*
X142206552Y-101318014D01*
X142206552Y-101758281D01*
X142049933Y-101758281D01*
X142049376Y-101737213D01*
X142048758Y-101676503D01*
X142048533Y-101597718D01*
X142048508Y-101536112D01*
X142048508Y-101226677D01*
X142076217Y-101198968D01*
X142088514Y-101187736D01*
X142101811Y-101180045D01*
X142120380Y-101175232D01*
X142148494Y-101172638D01*
X142190425Y-101171602D01*
X142250445Y-101171462D01*
X142254017Y-101171467D01*
X142254017Y-101171467D01*
G37*
X142254017Y-101171467D02*
X142382996Y-101175828D01*
X142492699Y-101189053D01*
X142584934Y-101211933D01*
X142661510Y-101245262D01*
X142724235Y-101289830D01*
X142774920Y-101346428D01*
X142815371Y-101415850D01*
X142816167Y-101417543D01*
X142840309Y-101479675D01*
X142848911Y-101534701D01*
X142841939Y-101590079D01*
X142819362Y-101653265D01*
X142815080Y-101662881D01*
X142785880Y-101719158D01*
X142753064Y-101762643D01*
X142710710Y-101799609D01*
X142652898Y-101836327D01*
X142649539Y-101838244D01*
X142599212Y-101862419D01*
X142542329Y-101880474D01*
X142475235Y-101893031D01*
X142394273Y-101900714D01*
X142295790Y-101904145D01*
X142260994Y-101904443D01*
X142095302Y-101905037D01*
X142071905Y-101875292D01*
X142064965Y-101865511D01*
X142059550Y-101854089D01*
X142055473Y-101838287D01*
X142052545Y-101815367D01*
X142050575Y-101782588D01*
X142049933Y-101758281D01*
X142206552Y-101758281D01*
X142300434Y-101758281D01*
X142355372Y-101756675D01*
X142411768Y-101752447D01*
X142458053Y-101746484D01*
X142460847Y-101745982D01*
X142543056Y-101723928D01*
X142606822Y-101690792D01*
X142654160Y-101645039D01*
X142687090Y-101585131D01*
X142692816Y-101569253D01*
X142698429Y-101544525D01*
X142695999Y-101520094D01*
X142684175Y-101487592D01*
X142677048Y-101471626D01*
X142653708Y-101429198D01*
X142625588Y-101399432D01*
X142594648Y-101378703D01*
X142532674Y-101351729D01*
X142453359Y-101332190D01*
X142360961Y-101320938D01*
X142294041Y-101318462D01*
X142206552Y-101318014D01*
X142206552Y-101758281D01*
X142049933Y-101758281D01*
X142049376Y-101737213D01*
X142048758Y-101676503D01*
X142048533Y-101597718D01*
X142048508Y-101536112D01*
X142048508Y-101226677D01*
X142076217Y-101198968D01*
X142088514Y-101187736D01*
X142101811Y-101180045D01*
X142120380Y-101175232D01*
X142148494Y-101172638D01*
X142190425Y-101171602D01*
X142250445Y-101171462D01*
X142254017Y-101171467D01*
G36*
X144980373Y-101173226D02*
G01*
X144999963Y-101180227D01*
X145000718Y-101180569D01*
X145027321Y-101200870D01*
X145041978Y-101221753D01*
X145044846Y-101231544D01*
X145044704Y-101244553D01*
X145040669Y-101263087D01*
X145031854Y-101289449D01*
X145017377Y-101325944D01*
X144996353Y-101374879D01*
X144967896Y-101438557D01*
X144931123Y-101519285D01*
X144910883Y-101563408D01*
X144874333Y-101642177D01*
X144840023Y-101714615D01*
X144809260Y-101778072D01*
X144783356Y-101829900D01*
X144763618Y-101867451D01*
X144751358Y-101888076D01*
X144748932Y-101890925D01*
X144717891Y-101903494D01*
X144682829Y-101901811D01*
X144654708Y-101886524D01*
X144653562Y-101885281D01*
X144642376Y-101868346D01*
X144623612Y-101835362D01*
X144599583Y-101790572D01*
X144572605Y-101738224D01*
X144562909Y-101718934D01*
X144489722Y-101572342D01*
X144409948Y-101731585D01*
X144381475Y-101786607D01*
X144355058Y-101834324D01*
X144332856Y-101871085D01*
X144317027Y-101893236D01*
X144311662Y-101897933D01*
X144269965Y-101904294D01*
X144235557Y-101890925D01*
X144225436Y-101876638D01*
X144207922Y-101844884D01*
X144184443Y-101798789D01*
X144156428Y-101741477D01*
X144125307Y-101676072D01*
X144092507Y-101605699D01*
X144059458Y-101533483D01*
X144027589Y-101462547D01*
X143998327Y-101396017D01*
X143973103Y-101337018D01*
X143953344Y-101288673D01*
X143940480Y-101254107D01*
X143935939Y-101236445D01*
X143935985Y-101235805D01*
X143947034Y-101213580D01*
X143969118Y-101190945D01*
X143970418Y-101189960D01*
X143997561Y-101174617D01*
X144022666Y-101174766D01*
X144032076Y-101177658D01*
X144043542Y-101183910D01*
X144055718Y-101196206D01*
X144070065Y-101217100D01*
X144088044Y-101249141D01*
X144111115Y-101294880D01*
X144140738Y-101356869D01*
X144167453Y-101414090D01*
X144198188Y-101480418D01*
X144225729Y-101540066D01*
X144248646Y-101589917D01*
X144265506Y-101626856D01*
X144274881Y-101647765D01*
X144276248Y-101651037D01*
X144282397Y-101645689D01*
X144296530Y-101623301D01*
X144316765Y-101587138D01*
X144341223Y-101540469D01*
X144350956Y-101521214D01*
X144383925Y-101456196D01*
X144409351Y-101408846D01*
X144429320Y-101376411D01*
X144445918Y-101356138D01*
X144461232Y-101345274D01*
X144477348Y-101341067D01*
X144487851Y-101340592D01*
X144506378Y-101342234D01*
X144522612Y-101349023D01*
X144538743Y-101363758D01*
X144556959Y-101389236D01*
X144579447Y-101428253D01*
X144608397Y-101483606D01*
X144624370Y-101515095D01*
X144650278Y-101565279D01*
X144672875Y-101606896D01*
X144690166Y-101636434D01*
X144700158Y-101650381D01*
X144701517Y-101650962D01*
X144707969Y-101639985D01*
X144722416Y-101611482D01*
X144743411Y-101568436D01*
X144769505Y-101513830D01*
X144799254Y-101450646D01*
X144813888Y-101419263D01*
X144851958Y-101338270D01*
X144882613Y-101275948D01*
X144907445Y-101230263D01*
X144928045Y-101199181D01*
X144946006Y-101180670D01*
X144962918Y-101172696D01*
X144980373Y-101173226D01*
X144980373Y-101173226D01*
G37*
X144980373Y-101173226D02*
X144999963Y-101180227D01*
X145000718Y-101180569D01*
X145027321Y-101200870D01*
X145041978Y-101221753D01*
X145044846Y-101231544D01*
X145044704Y-101244553D01*
X145040669Y-101263087D01*
X145031854Y-101289449D01*
X145017377Y-101325944D01*
X144996353Y-101374879D01*
X144967896Y-101438557D01*
X144931123Y-101519285D01*
X144910883Y-101563408D01*
X144874333Y-101642177D01*
X144840023Y-101714615D01*
X144809260Y-101778072D01*
X144783356Y-101829900D01*
X144763618Y-101867451D01*
X144751358Y-101888076D01*
X144748932Y-101890925D01*
X144717891Y-101903494D01*
X144682829Y-101901811D01*
X144654708Y-101886524D01*
X144653562Y-101885281D01*
X144642376Y-101868346D01*
X144623612Y-101835362D01*
X144599583Y-101790572D01*
X144572605Y-101738224D01*
X144562909Y-101718934D01*
X144489722Y-101572342D01*
X144409948Y-101731585D01*
X144381475Y-101786607D01*
X144355058Y-101834324D01*
X144332856Y-101871085D01*
X144317027Y-101893236D01*
X144311662Y-101897933D01*
X144269965Y-101904294D01*
X144235557Y-101890925D01*
X144225436Y-101876638D01*
X144207922Y-101844884D01*
X144184443Y-101798789D01*
X144156428Y-101741477D01*
X144125307Y-101676072D01*
X144092507Y-101605699D01*
X144059458Y-101533483D01*
X144027589Y-101462547D01*
X143998327Y-101396017D01*
X143973103Y-101337018D01*
X143953344Y-101288673D01*
X143940480Y-101254107D01*
X143935939Y-101236445D01*
X143935985Y-101235805D01*
X143947034Y-101213580D01*
X143969118Y-101190945D01*
X143970418Y-101189960D01*
X143997561Y-101174617D01*
X144022666Y-101174766D01*
X144032076Y-101177658D01*
X144043542Y-101183910D01*
X144055718Y-101196206D01*
X144070065Y-101217100D01*
X144088044Y-101249141D01*
X144111115Y-101294880D01*
X144140738Y-101356869D01*
X144167453Y-101414090D01*
X144198188Y-101480418D01*
X144225729Y-101540066D01*
X144248646Y-101589917D01*
X144265506Y-101626856D01*
X144274881Y-101647765D01*
X144276248Y-101651037D01*
X144282397Y-101645689D01*
X144296530Y-101623301D01*
X144316765Y-101587138D01*
X144341223Y-101540469D01*
X144350956Y-101521214D01*
X144383925Y-101456196D01*
X144409351Y-101408846D01*
X144429320Y-101376411D01*
X144445918Y-101356138D01*
X144461232Y-101345274D01*
X144477348Y-101341067D01*
X144487851Y-101340592D01*
X144506378Y-101342234D01*
X144522612Y-101349023D01*
X144538743Y-101363758D01*
X144556959Y-101389236D01*
X144579447Y-101428253D01*
X144608397Y-101483606D01*
X144624370Y-101515095D01*
X144650278Y-101565279D01*
X144672875Y-101606896D01*
X144690166Y-101636434D01*
X144700158Y-101650381D01*
X144701517Y-101650962D01*
X144707969Y-101639985D01*
X144722416Y-101611482D01*
X144743411Y-101568436D01*
X144769505Y-101513830D01*
X144799254Y-101450646D01*
X144813888Y-101419263D01*
X144851958Y-101338270D01*
X144882613Y-101275948D01*
X144907445Y-101230263D01*
X144928045Y-101199181D01*
X144946006Y-101180670D01*
X144962918Y-101172696D01*
X144980373Y-101173226D01*
G36*
X145424322Y-101178069D02*
G01*
X145448035Y-101192839D01*
X145474686Y-101214419D01*
X145474686Y-101535965D01*
X145474601Y-101630022D01*
X145474237Y-101704124D01*
X145473432Y-101760896D01*
X145472021Y-101802960D01*
X145469841Y-101832940D01*
X145466729Y-101853459D01*
X145462522Y-101867141D01*
X145457056Y-101876608D01*
X145453180Y-101881274D01*
X145421742Y-101901767D01*
X145385941Y-101900931D01*
X145354581Y-101883456D01*
X145327930Y-101861876D01*
X145327930Y-101214419D01*
X145354581Y-101192839D01*
X145380302Y-101177141D01*
X145401308Y-101171259D01*
X145424322Y-101178069D01*
X145424322Y-101178069D01*
G37*
X145424322Y-101178069D02*
X145448035Y-101192839D01*
X145474686Y-101214419D01*
X145474686Y-101535965D01*
X145474601Y-101630022D01*
X145474237Y-101704124D01*
X145473432Y-101760896D01*
X145472021Y-101802960D01*
X145469841Y-101832940D01*
X145466729Y-101853459D01*
X145462522Y-101867141D01*
X145457056Y-101876608D01*
X145453180Y-101881274D01*
X145421742Y-101901767D01*
X145385941Y-101900931D01*
X145354581Y-101883456D01*
X145327930Y-101861876D01*
X145327930Y-101214419D01*
X145354581Y-101192839D01*
X145380302Y-101177141D01*
X145401308Y-101171259D01*
X145424322Y-101178069D01*
G36*
X146198773Y-101171355D02*
G01*
X146277480Y-101171734D01*
X146338571Y-101172525D01*
X146384525Y-101173862D01*
X146417822Y-101175875D01*
X146440944Y-101178698D01*
X146456370Y-101182461D01*
X146466579Y-101187297D01*
X146471521Y-101191014D01*
X146497165Y-101223550D01*
X146500267Y-101257330D01*
X146484419Y-101288018D01*
X146474056Y-101300281D01*
X146462904Y-101308642D01*
X146446743Y-101313849D01*
X146421350Y-101316649D01*
X146382506Y-101317788D01*
X146325988Y-101318013D01*
X146314888Y-101318014D01*
X146168952Y-101318014D01*
X146168952Y-101588948D01*
X146168856Y-101674346D01*
X146168419Y-101740056D01*
X146167420Y-101788966D01*
X146165636Y-101823965D01*
X146162845Y-101847941D01*
X146158825Y-101863785D01*
X146153353Y-101874383D01*
X146146374Y-101882459D01*
X146113442Y-101902304D01*
X146079062Y-101900740D01*
X146047884Y-101878098D01*
X146045594Y-101875292D01*
X146038137Y-101864684D01*
X146032455Y-101852273D01*
X146028309Y-101835042D01*
X146025458Y-101809976D01*
X146023662Y-101774059D01*
X146022680Y-101724275D01*
X146022272Y-101657609D01*
X146022197Y-101581781D01*
X146022197Y-101318014D01*
X145882835Y-101318014D01*
X145823030Y-101317610D01*
X145781626Y-101316032D01*
X145754456Y-101312739D01*
X145737354Y-101307184D01*
X145726151Y-101298823D01*
X145724791Y-101297370D01*
X145708433Y-101264131D01*
X145709880Y-101226554D01*
X145728686Y-101193837D01*
X145735958Y-101187490D01*
X145745335Y-101182458D01*
X145759317Y-101178588D01*
X145780404Y-101175729D01*
X145811097Y-101173727D01*
X145853897Y-101172431D01*
X145911303Y-101171690D01*
X145985818Y-101171350D01*
X146079941Y-101171260D01*
X146099968Y-101171259D01*
X146198773Y-101171355D01*
X146198773Y-101171355D01*
G37*
X146198773Y-101171355D02*
X146277480Y-101171734D01*
X146338571Y-101172525D01*
X146384525Y-101173862D01*
X146417822Y-101175875D01*
X146440944Y-101178698D01*
X146456370Y-101182461D01*
X146466579Y-101187297D01*
X146471521Y-101191014D01*
X146497165Y-101223550D01*
X146500267Y-101257330D01*
X146484419Y-101288018D01*
X146474056Y-101300281D01*
X146462904Y-101308642D01*
X146446743Y-101313849D01*
X146421350Y-101316649D01*
X146382506Y-101317788D01*
X146325988Y-101318013D01*
X146314888Y-101318014D01*
X146168952Y-101318014D01*
X146168952Y-101588948D01*
X146168856Y-101674346D01*
X146168419Y-101740056D01*
X146167420Y-101788966D01*
X146165636Y-101823965D01*
X146162845Y-101847941D01*
X146158825Y-101863785D01*
X146153353Y-101874383D01*
X146146374Y-101882459D01*
X146113442Y-101902304D01*
X146079062Y-101900740D01*
X146047884Y-101878098D01*
X146045594Y-101875292D01*
X146038137Y-101864684D01*
X146032455Y-101852273D01*
X146028309Y-101835042D01*
X146025458Y-101809976D01*
X146023662Y-101774059D01*
X146022680Y-101724275D01*
X146022272Y-101657609D01*
X146022197Y-101581781D01*
X146022197Y-101318014D01*
X145882835Y-101318014D01*
X145823030Y-101317610D01*
X145781626Y-101316032D01*
X145754456Y-101312739D01*
X145737354Y-101307184D01*
X145726151Y-101298823D01*
X145724791Y-101297370D01*
X145708433Y-101264131D01*
X145709880Y-101226554D01*
X145728686Y-101193837D01*
X145735958Y-101187490D01*
X145745335Y-101182458D01*
X145759317Y-101178588D01*
X145780404Y-101175729D01*
X145811097Y-101173727D01*
X145853897Y-101172431D01*
X145911303Y-101171690D01*
X145985818Y-101171350D01*
X146079941Y-101171260D01*
X146099968Y-101171259D01*
X146198773Y-101171355D01*
G36*
X147464531Y-101176725D02*
G01*
X147495910Y-101198968D01*
X147523619Y-101226677D01*
X147523619Y-101536112D01*
X147523546Y-101627991D01*
X147523203Y-101700032D01*
X147522400Y-101754972D01*
X147520949Y-101795552D01*
X147518660Y-101824509D01*
X147515344Y-101844583D01*
X147510813Y-101858513D01*
X147504877Y-101869037D01*
X147500222Y-101875292D01*
X147469491Y-101899865D01*
X147434204Y-101902533D01*
X147401953Y-101887463D01*
X147391296Y-101878566D01*
X147384172Y-101866749D01*
X147379875Y-101847718D01*
X147377699Y-101817184D01*
X147376936Y-101770854D01*
X147376863Y-101735063D01*
X147376863Y-101600237D01*
X146880152Y-101600237D01*
X146880152Y-101722892D01*
X146879639Y-101778979D01*
X146877584Y-101817525D01*
X146873216Y-101843553D01*
X146865764Y-101862089D01*
X146856755Y-101875292D01*
X146825852Y-101899796D01*
X146790904Y-101902698D01*
X146757446Y-101885281D01*
X146748312Y-101876151D01*
X146741860Y-101864047D01*
X146737605Y-101845193D01*
X146735060Y-101815812D01*
X146733737Y-101772129D01*
X146733151Y-101710367D01*
X146733083Y-101696192D01*
X146732599Y-101579823D01*
X146732349Y-101483919D01*
X146732431Y-101406369D01*
X146732939Y-101345061D01*
X146733970Y-101297882D01*
X146735621Y-101262722D01*
X146737987Y-101237468D01*
X146741165Y-101220009D01*
X146745252Y-101208233D01*
X146750342Y-101200027D01*
X146755974Y-101193837D01*
X146787836Y-101174036D01*
X146821065Y-101176725D01*
X146852443Y-101198968D01*
X146865141Y-101213318D01*
X146873234Y-101229170D01*
X146877750Y-101251746D01*
X146879714Y-101286270D01*
X146880152Y-101337968D01*
X146880152Y-101453481D01*
X147376863Y-101453481D01*
X147376863Y-101334948D01*
X147377370Y-101280340D01*
X147379406Y-101243467D01*
X147383743Y-101219499D01*
X147391155Y-101203607D01*
X147399441Y-101193837D01*
X147431302Y-101174036D01*
X147464531Y-101176725D01*
X147464531Y-101176725D01*
G37*
X147464531Y-101176725D02*
X147495910Y-101198968D01*
X147523619Y-101226677D01*
X147523619Y-101536112D01*
X147523546Y-101627991D01*
X147523203Y-101700032D01*
X147522400Y-101754972D01*
X147520949Y-101795552D01*
X147518660Y-101824509D01*
X147515344Y-101844583D01*
X147510813Y-101858513D01*
X147504877Y-101869037D01*
X147500222Y-101875292D01*
X147469491Y-101899865D01*
X147434204Y-101902533D01*
X147401953Y-101887463D01*
X147391296Y-101878566D01*
X147384172Y-101866749D01*
X147379875Y-101847718D01*
X147377699Y-101817184D01*
X147376936Y-101770854D01*
X147376863Y-101735063D01*
X147376863Y-101600237D01*
X146880152Y-101600237D01*
X146880152Y-101722892D01*
X146879639Y-101778979D01*
X146877584Y-101817525D01*
X146873216Y-101843553D01*
X146865764Y-101862089D01*
X146856755Y-101875292D01*
X146825852Y-101899796D01*
X146790904Y-101902698D01*
X146757446Y-101885281D01*
X146748312Y-101876151D01*
X146741860Y-101864047D01*
X146737605Y-101845193D01*
X146735060Y-101815812D01*
X146733737Y-101772129D01*
X146733151Y-101710367D01*
X146733083Y-101696192D01*
X146732599Y-101579823D01*
X146732349Y-101483919D01*
X146732431Y-101406369D01*
X146732939Y-101345061D01*
X146733970Y-101297882D01*
X146735621Y-101262722D01*
X146737987Y-101237468D01*
X146741165Y-101220009D01*
X146745252Y-101208233D01*
X146750342Y-101200027D01*
X146755974Y-101193837D01*
X146787836Y-101174036D01*
X146821065Y-101176725D01*
X146852443Y-101198968D01*
X146865141Y-101213318D01*
X146873234Y-101229170D01*
X146877750Y-101251746D01*
X146879714Y-101286270D01*
X146880152Y-101337968D01*
X146880152Y-101453481D01*
X147376863Y-101453481D01*
X147376863Y-101334948D01*
X147377370Y-101280340D01*
X147379406Y-101243467D01*
X147383743Y-101219499D01*
X147391155Y-101203607D01*
X147399441Y-101193837D01*
X147431302Y-101174036D01*
X147464531Y-101176725D01*
G36*
X138497921Y-94572490D02*
G01*
X138601027Y-94608238D01*
X138697022Y-94664507D01*
X138782753Y-94741288D01*
X138855070Y-94838573D01*
X138887555Y-94899892D01*
X138915668Y-94985660D01*
X138929295Y-95084677D01*
X138927786Y-95186471D01*
X138911031Y-95278714D01*
X138865237Y-95391432D01*
X138798832Y-95489207D01*
X138715191Y-95570115D01*
X138617688Y-95632232D01*
X138509700Y-95673634D01*
X138394601Y-95692397D01*
X138275766Y-95686598D01*
X138217189Y-95674206D01*
X138103028Y-95629797D01*
X138001635Y-95562033D01*
X137915455Y-95473001D01*
X137846934Y-95364791D01*
X137841136Y-95352973D01*
X137821096Y-95308628D01*
X137808513Y-95271280D01*
X137801681Y-95231880D01*
X137798895Y-95181381D01*
X137798432Y-95126433D01*
X137799197Y-95060415D01*
X137802648Y-95012689D01*
X137810523Y-94974103D01*
X137824557Y-94935506D01*
X137841880Y-94897426D01*
X137906495Y-94789328D01*
X137986066Y-94701803D01*
X138077440Y-94634841D01*
X138177464Y-94588436D01*
X138282988Y-94562581D01*
X138390858Y-94557268D01*
X138497921Y-94572490D01*
X138497921Y-94572490D01*
G37*
X138497921Y-94572490D02*
X138601027Y-94608238D01*
X138697022Y-94664507D01*
X138782753Y-94741288D01*
X138855070Y-94838573D01*
X138887555Y-94899892D01*
X138915668Y-94985660D01*
X138929295Y-95084677D01*
X138927786Y-95186471D01*
X138911031Y-95278714D01*
X138865237Y-95391432D01*
X138798832Y-95489207D01*
X138715191Y-95570115D01*
X138617688Y-95632232D01*
X138509700Y-95673634D01*
X138394601Y-95692397D01*
X138275766Y-95686598D01*
X138217189Y-95674206D01*
X138103028Y-95629797D01*
X138001635Y-95562033D01*
X137915455Y-95473001D01*
X137846934Y-95364791D01*
X137841136Y-95352973D01*
X137821096Y-95308628D01*
X137808513Y-95271280D01*
X137801681Y-95231880D01*
X137798895Y-95181381D01*
X137798432Y-95126433D01*
X137799197Y-95060415D01*
X137802648Y-95012689D01*
X137810523Y-94974103D01*
X137824557Y-94935506D01*
X137841880Y-94897426D01*
X137906495Y-94789328D01*
X137986066Y-94701803D01*
X138077440Y-94634841D01*
X138177464Y-94588436D01*
X138282988Y-94562581D01*
X138390858Y-94557268D01*
X138497921Y-94572490D01*
G36*
X148066270Y-95492825D02*
G01*
X148183041Y-95493304D01*
X148222729Y-95493545D01*
X148768486Y-95497135D01*
X148775351Y-97590919D01*
X148776258Y-97874842D01*
X148777062Y-98132640D01*
X148777815Y-98365646D01*
X148778569Y-98575194D01*
X148779375Y-98762618D01*
X148780285Y-98929250D01*
X148781351Y-99076425D01*
X148782624Y-99205477D01*
X148784156Y-99317739D01*
X148785998Y-99414544D01*
X148788203Y-99497226D01*
X148790822Y-99567119D01*
X148793906Y-99625557D01*
X148797508Y-99673872D01*
X148801678Y-99713400D01*
X148806469Y-99745473D01*
X148811931Y-99771424D01*
X148818118Y-99792589D01*
X148825080Y-99810299D01*
X148832869Y-99825889D01*
X148841537Y-99840693D01*
X148851135Y-99856044D01*
X148861715Y-99873276D01*
X148863884Y-99876946D01*
X148900268Y-99939031D01*
X148374431Y-99935434D01*
X147848594Y-99931838D01*
X147841729Y-99816331D01*
X147837992Y-99760899D01*
X147834097Y-99728851D01*
X147828811Y-99716135D01*
X147820903Y-99718696D01*
X147814270Y-99726024D01*
X147785374Y-99752714D01*
X147738279Y-99787021D01*
X147679620Y-99824846D01*
X147616031Y-99862090D01*
X147554149Y-99894653D01*
X147506634Y-99916077D01*
X147395316Y-99951283D01*
X147267596Y-99976222D01*
X147132901Y-99989941D01*
X147000663Y-99991486D01*
X146880308Y-99979906D01*
X146878326Y-99979574D01*
X146713641Y-99938250D01*
X146559479Y-99872412D01*
X146417328Y-99783474D01*
X146288675Y-99672852D01*
X146175007Y-99541961D01*
X146077810Y-99392216D01*
X145998572Y-99225033D01*
X145955430Y-99101190D01*
X145926979Y-98997581D01*
X145905880Y-98897252D01*
X145891488Y-98794109D01*
X145883158Y-98682057D01*
X145880245Y-98555001D01*
X145881535Y-98451252D01*
X146894650Y-98451252D01*
X146899444Y-98625222D01*
X146914568Y-98774895D01*
X146940485Y-98901597D01*
X146977663Y-99006658D01*
X147026565Y-99091406D01*
X147087658Y-99157169D01*
X147158177Y-99203659D01*
X147194871Y-99221014D01*
X147226696Y-99231419D01*
X147262177Y-99236179D01*
X147309841Y-99236601D01*
X147361189Y-99234748D01*
X147462169Y-99225841D01*
X147542035Y-99208398D01*
X147567135Y-99199661D01*
X147624448Y-99173857D01*
X147684897Y-99141453D01*
X147711297Y-99125233D01*
X147779946Y-99080205D01*
X147779946Y-97652982D01*
X147704432Y-97607718D01*
X147599121Y-97556572D01*
X147491525Y-97526324D01*
X147385581Y-97516795D01*
X147285224Y-97527807D01*
X147194387Y-97559181D01*
X147117007Y-97610740D01*
X147092039Y-97635488D01*
X147031856Y-97716577D01*
X146983145Y-97814734D01*
X146945499Y-97931643D01*
X146918512Y-98068985D01*
X146901775Y-98228444D01*
X146894883Y-98411700D01*
X146894650Y-98451252D01*
X145881535Y-98451252D01*
X145882073Y-98408067D01*
X145893647Y-98182053D01*
X145916920Y-97978192D01*
X145952504Y-97793513D01*
X146001013Y-97625048D01*
X146063060Y-97469826D01*
X146085201Y-97423808D01*
X146174385Y-97273739D01*
X146282159Y-97140377D01*
X146405990Y-97025877D01*
X146543342Y-96932389D01*
X146691683Y-96862068D01*
X146780604Y-96833060D01*
X146867933Y-96815840D01*
X146973011Y-96805594D01*
X147087029Y-96802318D01*
X147201177Y-96806009D01*
X147306648Y-96816660D01*
X147391334Y-96833370D01*
X147492128Y-96866140D01*
X147589822Y-96908279D01*
X147675296Y-96955519D01*
X147720789Y-96987581D01*
X147752169Y-97011422D01*
X147774142Y-97025939D01*
X147779141Y-97028000D01*
X147780690Y-97014718D01*
X147782135Y-96976663D01*
X147783443Y-96916519D01*
X147784583Y-96836973D01*
X147785521Y-96740711D01*
X147786226Y-96630419D01*
X147786667Y-96508781D01*
X147786811Y-96384885D01*
X147786730Y-96226196D01*
X147786335Y-96092408D01*
X147785395Y-95980960D01*
X147783680Y-95889295D01*
X147780957Y-95814853D01*
X147776997Y-95755075D01*
X147771569Y-95707402D01*
X147764441Y-95669274D01*
X147755384Y-95638134D01*
X147744167Y-95611421D01*
X147730558Y-95586577D01*
X147714328Y-95561043D01*
X147712240Y-95557881D01*
X147691306Y-95524810D01*
X147678667Y-95502069D01*
X147676973Y-95497272D01*
X147690216Y-95495759D01*
X147728002Y-95494528D01*
X147787416Y-95493599D01*
X147865542Y-95492992D01*
X147959465Y-95492727D01*
X148066270Y-95492825D01*
X148066270Y-95492825D01*
G37*
X148066270Y-95492825D02*
X148183041Y-95493304D01*
X148222729Y-95493545D01*
X148768486Y-95497135D01*
X148775351Y-97590919D01*
X148776258Y-97874842D01*
X148777062Y-98132640D01*
X148777815Y-98365646D01*
X148778569Y-98575194D01*
X148779375Y-98762618D01*
X148780285Y-98929250D01*
X148781351Y-99076425D01*
X148782624Y-99205477D01*
X148784156Y-99317739D01*
X148785998Y-99414544D01*
X148788203Y-99497226D01*
X148790822Y-99567119D01*
X148793906Y-99625557D01*
X148797508Y-99673872D01*
X148801678Y-99713400D01*
X148806469Y-99745473D01*
X148811931Y-99771424D01*
X148818118Y-99792589D01*
X148825080Y-99810299D01*
X148832869Y-99825889D01*
X148841537Y-99840693D01*
X148851135Y-99856044D01*
X148861715Y-99873276D01*
X148863884Y-99876946D01*
X148900268Y-99939031D01*
X148374431Y-99935434D01*
X147848594Y-99931838D01*
X147841729Y-99816331D01*
X147837992Y-99760899D01*
X147834097Y-99728851D01*
X147828811Y-99716135D01*
X147820903Y-99718696D01*
X147814270Y-99726024D01*
X147785374Y-99752714D01*
X147738279Y-99787021D01*
X147679620Y-99824846D01*
X147616031Y-99862090D01*
X147554149Y-99894653D01*
X147506634Y-99916077D01*
X147395316Y-99951283D01*
X147267596Y-99976222D01*
X147132901Y-99989941D01*
X147000663Y-99991486D01*
X146880308Y-99979906D01*
X146878326Y-99979574D01*
X146713641Y-99938250D01*
X146559479Y-99872412D01*
X146417328Y-99783474D01*
X146288675Y-99672852D01*
X146175007Y-99541961D01*
X146077810Y-99392216D01*
X145998572Y-99225033D01*
X145955430Y-99101190D01*
X145926979Y-98997581D01*
X145905880Y-98897252D01*
X145891488Y-98794109D01*
X145883158Y-98682057D01*
X145880245Y-98555001D01*
X145881535Y-98451252D01*
X146894650Y-98451252D01*
X146899444Y-98625222D01*
X146914568Y-98774895D01*
X146940485Y-98901597D01*
X146977663Y-99006658D01*
X147026565Y-99091406D01*
X147087658Y-99157169D01*
X147158177Y-99203659D01*
X147194871Y-99221014D01*
X147226696Y-99231419D01*
X147262177Y-99236179D01*
X147309841Y-99236601D01*
X147361189Y-99234748D01*
X147462169Y-99225841D01*
X147542035Y-99208398D01*
X147567135Y-99199661D01*
X147624448Y-99173857D01*
X147684897Y-99141453D01*
X147711297Y-99125233D01*
X147779946Y-99080205D01*
X147779946Y-97652982D01*
X147704432Y-97607718D01*
X147599121Y-97556572D01*
X147491525Y-97526324D01*
X147385581Y-97516795D01*
X147285224Y-97527807D01*
X147194387Y-97559181D01*
X147117007Y-97610740D01*
X147092039Y-97635488D01*
X147031856Y-97716577D01*
X146983145Y-97814734D01*
X146945499Y-97931643D01*
X146918512Y-98068985D01*
X146901775Y-98228444D01*
X146894883Y-98411700D01*
X146894650Y-98451252D01*
X145881535Y-98451252D01*
X145882073Y-98408067D01*
X145893647Y-98182053D01*
X145916920Y-97978192D01*
X145952504Y-97793513D01*
X146001013Y-97625048D01*
X146063060Y-97469826D01*
X146085201Y-97423808D01*
X146174385Y-97273739D01*
X146282159Y-97140377D01*
X146405990Y-97025877D01*
X146543342Y-96932389D01*
X146691683Y-96862068D01*
X146780604Y-96833060D01*
X146867933Y-96815840D01*
X146973011Y-96805594D01*
X147087029Y-96802318D01*
X147201177Y-96806009D01*
X147306648Y-96816660D01*
X147391334Y-96833370D01*
X147492128Y-96866140D01*
X147589822Y-96908279D01*
X147675296Y-96955519D01*
X147720789Y-96987581D01*
X147752169Y-97011422D01*
X147774142Y-97025939D01*
X147779141Y-97028000D01*
X147780690Y-97014718D01*
X147782135Y-96976663D01*
X147783443Y-96916519D01*
X147784583Y-96836973D01*
X147785521Y-96740711D01*
X147786226Y-96630419D01*
X147786667Y-96508781D01*
X147786811Y-96384885D01*
X147786730Y-96226196D01*
X147786335Y-96092408D01*
X147785395Y-95980960D01*
X147783680Y-95889295D01*
X147780957Y-95814853D01*
X147776997Y-95755075D01*
X147771569Y-95707402D01*
X147764441Y-95669274D01*
X147755384Y-95638134D01*
X147744167Y-95611421D01*
X147730558Y-95586577D01*
X147714328Y-95561043D01*
X147712240Y-95557881D01*
X147691306Y-95524810D01*
X147678667Y-95502069D01*
X147676973Y-95497272D01*
X147690216Y-95495759D01*
X147728002Y-95494528D01*
X147787416Y-95493599D01*
X147865542Y-95492992D01*
X147959465Y-95492727D01*
X148066270Y-95492825D01*
G36*
X144391505Y-96800229D02*
G01*
X144459531Y-96805378D01*
X144654163Y-96831273D01*
X144826529Y-96872575D01*
X144977470Y-96929853D01*
X145107825Y-97003674D01*
X145218434Y-97094608D01*
X145310135Y-97203222D01*
X145383770Y-97330085D01*
X145437539Y-97467352D01*
X145451187Y-97511137D01*
X145463073Y-97552141D01*
X145473334Y-97592569D01*
X145482113Y-97634630D01*
X145489548Y-97680531D01*
X145495780Y-97732480D01*
X145500950Y-97792685D01*
X145505196Y-97863352D01*
X145508660Y-97946689D01*
X145511481Y-98044905D01*
X145513800Y-98160205D01*
X145515757Y-98294799D01*
X145517491Y-98450893D01*
X145519143Y-98630695D01*
X145520324Y-98771676D01*
X145528270Y-99739622D01*
X145579756Y-99832770D01*
X145604137Y-99877645D01*
X145622280Y-99912501D01*
X145630935Y-99931054D01*
X145631243Y-99932311D01*
X145618014Y-99933749D01*
X145580326Y-99935074D01*
X145521183Y-99936249D01*
X145443586Y-99937237D01*
X145350536Y-99937999D01*
X145245035Y-99938500D01*
X145130084Y-99938701D01*
X145116378Y-99938703D01*
X144601513Y-99938703D01*
X144601513Y-99822000D01*
X144600635Y-99769260D01*
X144598292Y-99728926D01*
X144594921Y-99707300D01*
X144593431Y-99705298D01*
X144579804Y-99713683D01*
X144551757Y-99735692D01*
X144515303Y-99766601D01*
X144514485Y-99767316D01*
X144447962Y-99816843D01*
X144363948Y-99866575D01*
X144271937Y-99911626D01*
X144181421Y-99947110D01*
X144141567Y-99959236D01*
X144062255Y-99974637D01*
X143964935Y-99984465D01*
X143858516Y-99988580D01*
X143751907Y-99986841D01*
X143654017Y-99979108D01*
X143585513Y-99967981D01*
X143417520Y-99918648D01*
X143266281Y-99848342D01*
X143132782Y-99757933D01*
X143018006Y-99648295D01*
X142922937Y-99520299D01*
X142848560Y-99374818D01*
X142816474Y-99286541D01*
X142796365Y-99200739D01*
X142783038Y-99097736D01*
X142776872Y-98987034D01*
X142777074Y-98970925D01*
X143705648Y-98970925D01*
X143713348Y-99053184D01*
X143738989Y-99121546D01*
X143786378Y-99184970D01*
X143804579Y-99203567D01*
X143869282Y-99253846D01*
X143944066Y-99286056D01*
X144033662Y-99301648D01*
X144128012Y-99302796D01*
X144217501Y-99295216D01*
X144286018Y-99280389D01*
X144315775Y-99269253D01*
X144369408Y-99238904D01*
X144426235Y-99196221D01*
X144478082Y-99148317D01*
X144516778Y-99102301D01*
X144527054Y-99085421D01*
X144535042Y-99061782D01*
X144540721Y-99024168D01*
X144544356Y-98968985D01*
X144546211Y-98892640D01*
X144546594Y-98819981D01*
X144546335Y-98735270D01*
X144545287Y-98674018D01*
X144543045Y-98632227D01*
X144539206Y-98605899D01*
X144533365Y-98591035D01*
X144525118Y-98583639D01*
X144522567Y-98582461D01*
X144500400Y-98578833D01*
X144456680Y-98575866D01*
X144397311Y-98573827D01*
X144328196Y-98572983D01*
X144313189Y-98572982D01*
X144220805Y-98574457D01*
X144149432Y-98578842D01*
X144092719Y-98586738D01*
X144045872Y-98598270D01*
X143929669Y-98642215D01*
X143838543Y-98696243D01*
X143771705Y-98761219D01*
X143728365Y-98838005D01*
X143707734Y-98927467D01*
X143705648Y-98970925D01*
X142777074Y-98970925D01*
X142778244Y-98878133D01*
X142787532Y-98780536D01*
X142794777Y-98741105D01*
X142841039Y-98594701D01*
X142911384Y-98459995D01*
X143004484Y-98338280D01*
X143119012Y-98230847D01*
X143253640Y-98138988D01*
X143407040Y-98063996D01*
X143537459Y-98018458D01*
X143624623Y-97994533D01*
X143707996Y-97975943D01*
X143792976Y-97962084D01*
X143884965Y-97952351D01*
X143989362Y-97946141D01*
X144111568Y-97942851D01*
X144222055Y-97941924D01*
X144549677Y-97941027D01*
X144543401Y-97842547D01*
X144525579Y-97735695D01*
X144487667Y-97643852D01*
X144431280Y-97569310D01*
X144358031Y-97514364D01*
X144293535Y-97487552D01*
X144201123Y-97470654D01*
X144091111Y-97468227D01*
X143968656Y-97479378D01*
X143838914Y-97503210D01*
X143707042Y-97538830D01*
X143578198Y-97585343D01*
X143484566Y-97627883D01*
X143439517Y-97649728D01*
X143405156Y-97664984D01*
X143387681Y-97670937D01*
X143386733Y-97670746D01*
X143380703Y-97657412D01*
X143365645Y-97622068D01*
X143342977Y-97568101D01*
X143314115Y-97498896D01*
X143280477Y-97417840D01*
X143246284Y-97335118D01*
X143109586Y-97003803D01*
X143206820Y-96987833D01*
X143248964Y-96979820D01*
X143312319Y-96966361D01*
X143391457Y-96948679D01*
X143480951Y-96927996D01*
X143575373Y-96905532D01*
X143612973Y-96896403D01*
X143775637Y-96858674D01*
X143918050Y-96830388D01*
X144045527Y-96810972D01*
X144163384Y-96799854D01*
X144276938Y-96796464D01*
X144391505Y-96800229D01*
X144391505Y-96800229D01*
G37*
X144391505Y-96800229D02*
X144459531Y-96805378D01*
X144654163Y-96831273D01*
X144826529Y-96872575D01*
X144977470Y-96929853D01*
X145107825Y-97003674D01*
X145218434Y-97094608D01*
X145310135Y-97203222D01*
X145383770Y-97330085D01*
X145437539Y-97467352D01*
X145451187Y-97511137D01*
X145463073Y-97552141D01*
X145473334Y-97592569D01*
X145482113Y-97634630D01*
X145489548Y-97680531D01*
X145495780Y-97732480D01*
X145500950Y-97792685D01*
X145505196Y-97863352D01*
X145508660Y-97946689D01*
X145511481Y-98044905D01*
X145513800Y-98160205D01*
X145515757Y-98294799D01*
X145517491Y-98450893D01*
X145519143Y-98630695D01*
X145520324Y-98771676D01*
X145528270Y-99739622D01*
X145579756Y-99832770D01*
X145604137Y-99877645D01*
X145622280Y-99912501D01*
X145630935Y-99931054D01*
X145631243Y-99932311D01*
X145618014Y-99933749D01*
X145580326Y-99935074D01*
X145521183Y-99936249D01*
X145443586Y-99937237D01*
X145350536Y-99937999D01*
X145245035Y-99938500D01*
X145130084Y-99938701D01*
X145116378Y-99938703D01*
X144601513Y-99938703D01*
X144601513Y-99822000D01*
X144600635Y-99769260D01*
X144598292Y-99728926D01*
X144594921Y-99707300D01*
X144593431Y-99705298D01*
X144579804Y-99713683D01*
X144551757Y-99735692D01*
X144515303Y-99766601D01*
X144514485Y-99767316D01*
X144447962Y-99816843D01*
X144363948Y-99866575D01*
X144271937Y-99911626D01*
X144181421Y-99947110D01*
X144141567Y-99959236D01*
X144062255Y-99974637D01*
X143964935Y-99984465D01*
X143858516Y-99988580D01*
X143751907Y-99986841D01*
X143654017Y-99979108D01*
X143585513Y-99967981D01*
X143417520Y-99918648D01*
X143266281Y-99848342D01*
X143132782Y-99757933D01*
X143018006Y-99648295D01*
X142922937Y-99520299D01*
X142848560Y-99374818D01*
X142816474Y-99286541D01*
X142796365Y-99200739D01*
X142783038Y-99097736D01*
X142776872Y-98987034D01*
X142777074Y-98970925D01*
X143705648Y-98970925D01*
X143713348Y-99053184D01*
X143738989Y-99121546D01*
X143786378Y-99184970D01*
X143804579Y-99203567D01*
X143869282Y-99253846D01*
X143944066Y-99286056D01*
X144033662Y-99301648D01*
X144128012Y-99302796D01*
X144217501Y-99295216D01*
X144286018Y-99280389D01*
X144315775Y-99269253D01*
X144369408Y-99238904D01*
X144426235Y-99196221D01*
X144478082Y-99148317D01*
X144516778Y-99102301D01*
X144527054Y-99085421D01*
X144535042Y-99061782D01*
X144540721Y-99024168D01*
X144544356Y-98968985D01*
X144546211Y-98892640D01*
X144546594Y-98819981D01*
X144546335Y-98735270D01*
X144545287Y-98674018D01*
X144543045Y-98632227D01*
X144539206Y-98605899D01*
X144533365Y-98591035D01*
X144525118Y-98583639D01*
X144522567Y-98582461D01*
X144500400Y-98578833D01*
X144456680Y-98575866D01*
X144397311Y-98573827D01*
X144328196Y-98572983D01*
X144313189Y-98572982D01*
X144220805Y-98574457D01*
X144149432Y-98578842D01*
X144092719Y-98586738D01*
X144045872Y-98598270D01*
X143929669Y-98642215D01*
X143838543Y-98696243D01*
X143771705Y-98761219D01*
X143728365Y-98838005D01*
X143707734Y-98927467D01*
X143705648Y-98970925D01*
X142777074Y-98970925D01*
X142778244Y-98878133D01*
X142787532Y-98780536D01*
X142794777Y-98741105D01*
X142841039Y-98594701D01*
X142911384Y-98459995D01*
X143004484Y-98338280D01*
X143119012Y-98230847D01*
X143253640Y-98138988D01*
X143407040Y-98063996D01*
X143537459Y-98018458D01*
X143624623Y-97994533D01*
X143707996Y-97975943D01*
X143792976Y-97962084D01*
X143884965Y-97952351D01*
X143989362Y-97946141D01*
X144111568Y-97942851D01*
X144222055Y-97941924D01*
X144549677Y-97941027D01*
X144543401Y-97842547D01*
X144525579Y-97735695D01*
X144487667Y-97643852D01*
X144431280Y-97569310D01*
X144358031Y-97514364D01*
X144293535Y-97487552D01*
X144201123Y-97470654D01*
X144091111Y-97468227D01*
X143968656Y-97479378D01*
X143838914Y-97503210D01*
X143707042Y-97538830D01*
X143578198Y-97585343D01*
X143484566Y-97627883D01*
X143439517Y-97649728D01*
X143405156Y-97664984D01*
X143387681Y-97670937D01*
X143386733Y-97670746D01*
X143380703Y-97657412D01*
X143365645Y-97622068D01*
X143342977Y-97568101D01*
X143314115Y-97498896D01*
X143280477Y-97417840D01*
X143246284Y-97335118D01*
X143109586Y-97003803D01*
X143206820Y-96987833D01*
X143248964Y-96979820D01*
X143312319Y-96966361D01*
X143391457Y-96948679D01*
X143480951Y-96927996D01*
X143575373Y-96905532D01*
X143612973Y-96896403D01*
X143775637Y-96858674D01*
X143918050Y-96830388D01*
X144045527Y-96810972D01*
X144163384Y-96799854D01*
X144276938Y-96796464D01*
X144391505Y-96800229D01*
G36*
X141663962Y-95696499D02*
G01*
X141812014Y-95712707D01*
X141955452Y-95741718D01*
X142100110Y-95785045D01*
X142251824Y-95844201D01*
X142416428Y-95920700D01*
X142446071Y-95935517D01*
X142514098Y-95969031D01*
X142578256Y-95999208D01*
X142632215Y-96023166D01*
X142669640Y-96038024D01*
X142675389Y-96039895D01*
X142730486Y-96056402D01*
X142483851Y-96415201D01*
X142423552Y-96502893D01*
X142368422Y-96583012D01*
X142320336Y-96652836D01*
X142281168Y-96709647D01*
X142252794Y-96750723D01*
X142237087Y-96773346D01*
X142234536Y-96776928D01*
X142224171Y-96769438D01*
X142198660Y-96746918D01*
X142162563Y-96713461D01*
X142142642Y-96694550D01*
X142029773Y-96604778D01*
X141903014Y-96536561D01*
X141793783Y-96499195D01*
X141728214Y-96487460D01*
X141646116Y-96480308D01*
X141557144Y-96477874D01*
X141470956Y-96480288D01*
X141397205Y-96487683D01*
X141367776Y-96493347D01*
X141235133Y-96538982D01*
X141115606Y-96608663D01*
X141009283Y-96702260D01*
X140916253Y-96819649D01*
X140836605Y-96960700D01*
X140770426Y-97125286D01*
X140717806Y-97313280D01*
X140686533Y-97474217D01*
X140678374Y-97545263D01*
X140672815Y-97637046D01*
X140669802Y-97742968D01*
X140669281Y-97856434D01*
X140671200Y-97970849D01*
X140675503Y-98079617D01*
X140682137Y-98176143D01*
X140691049Y-98253831D01*
X140692979Y-98265817D01*
X140735499Y-98458892D01*
X140793433Y-98629773D01*
X140867133Y-98779224D01*
X140956951Y-98908011D01*
X141020707Y-98977639D01*
X141135286Y-99072173D01*
X141260942Y-99142246D01*
X141395557Y-99187477D01*
X141537011Y-99207484D01*
X141683183Y-99201885D01*
X141831955Y-99170300D01*
X141919911Y-99139394D01*
X142041629Y-99077506D01*
X142167080Y-98988729D01*
X142237353Y-98928694D01*
X142276811Y-98893947D01*
X142307812Y-98868454D01*
X142325458Y-98856170D01*
X142327648Y-98855795D01*
X142335524Y-98868347D01*
X142355932Y-98901516D01*
X142387132Y-98952458D01*
X142427386Y-99018331D01*
X142474957Y-99096289D01*
X142528104Y-99183490D01*
X142557687Y-99232067D01*
X142783648Y-99603215D01*
X142501527Y-99742639D01*
X142399522Y-99792719D01*
X142316889Y-99832210D01*
X142248578Y-99863073D01*
X142189537Y-99887268D01*
X142134714Y-99906758D01*
X142079060Y-99923503D01*
X142017523Y-99939465D01*
X141958540Y-99953482D01*
X141906115Y-99964329D01*
X141851288Y-99972526D01*
X141788572Y-99978528D01*
X141712477Y-99982790D01*
X141617516Y-99985767D01*
X141553513Y-99987052D01*
X141462192Y-99987930D01*
X141374627Y-99987487D01*
X141296612Y-99985852D01*
X141233942Y-99983149D01*
X141192413Y-99979505D01*
X141189952Y-99979142D01*
X140974303Y-99932487D01*
X140771793Y-99861729D01*
X140582495Y-99766914D01*
X140406479Y-99648089D01*
X140243816Y-99505300D01*
X140094578Y-99338594D01*
X139986496Y-99190433D01*
X139871434Y-98996502D01*
X139778423Y-98791699D01*
X139707013Y-98574383D01*
X139656756Y-98342912D01*
X139627201Y-98095643D01*
X139617889Y-97844559D01*
X139625548Y-97601670D01*
X139649613Y-97377570D01*
X139690852Y-97168477D01*
X139750027Y-96970613D01*
X139827904Y-96780196D01*
X139837203Y-96760468D01*
X139939648Y-96576059D01*
X140065472Y-96400576D01*
X140211112Y-96237650D01*
X140373001Y-96090914D01*
X140547576Y-95964001D01*
X140710244Y-95870905D01*
X140874573Y-95797991D01*
X141039251Y-95745174D01*
X141210652Y-95711015D01*
X141395153Y-95694078D01*
X141505459Y-95691580D01*
X141663962Y-95696499D01*
X141663962Y-95696499D01*
G37*
X141663962Y-95696499D02*
X141812014Y-95712707D01*
X141955452Y-95741718D01*
X142100110Y-95785045D01*
X142251824Y-95844201D01*
X142416428Y-95920700D01*
X142446071Y-95935517D01*
X142514098Y-95969031D01*
X142578256Y-95999208D01*
X142632215Y-96023166D01*
X142669640Y-96038024D01*
X142675389Y-96039895D01*
X142730486Y-96056402D01*
X142483851Y-96415201D01*
X142423552Y-96502893D01*
X142368422Y-96583012D01*
X142320336Y-96652836D01*
X142281168Y-96709647D01*
X142252794Y-96750723D01*
X142237087Y-96773346D01*
X142234536Y-96776928D01*
X142224171Y-96769438D01*
X142198660Y-96746918D01*
X142162563Y-96713461D01*
X142142642Y-96694550D01*
X142029773Y-96604778D01*
X141903014Y-96536561D01*
X141793783Y-96499195D01*
X141728214Y-96487460D01*
X141646116Y-96480308D01*
X141557144Y-96477874D01*
X141470956Y-96480288D01*
X141397205Y-96487683D01*
X141367776Y-96493347D01*
X141235133Y-96538982D01*
X141115606Y-96608663D01*
X141009283Y-96702260D01*
X140916253Y-96819649D01*
X140836605Y-96960700D01*
X140770426Y-97125286D01*
X140717806Y-97313280D01*
X140686533Y-97474217D01*
X140678374Y-97545263D01*
X140672815Y-97637046D01*
X140669802Y-97742968D01*
X140669281Y-97856434D01*
X140671200Y-97970849D01*
X140675503Y-98079617D01*
X140682137Y-98176143D01*
X140691049Y-98253831D01*
X140692979Y-98265817D01*
X140735499Y-98458892D01*
X140793433Y-98629773D01*
X140867133Y-98779224D01*
X140956951Y-98908011D01*
X141020707Y-98977639D01*
X141135286Y-99072173D01*
X141260942Y-99142246D01*
X141395557Y-99187477D01*
X141537011Y-99207484D01*
X141683183Y-99201885D01*
X141831955Y-99170300D01*
X141919911Y-99139394D01*
X142041629Y-99077506D01*
X142167080Y-98988729D01*
X142237353Y-98928694D01*
X142276811Y-98893947D01*
X142307812Y-98868454D01*
X142325458Y-98856170D01*
X142327648Y-98855795D01*
X142335524Y-98868347D01*
X142355932Y-98901516D01*
X142387132Y-98952458D01*
X142427386Y-99018331D01*
X142474957Y-99096289D01*
X142528104Y-99183490D01*
X142557687Y-99232067D01*
X142783648Y-99603215D01*
X142501527Y-99742639D01*
X142399522Y-99792719D01*
X142316889Y-99832210D01*
X142248578Y-99863073D01*
X142189537Y-99887268D01*
X142134714Y-99906758D01*
X142079060Y-99923503D01*
X142017523Y-99939465D01*
X141958540Y-99953482D01*
X141906115Y-99964329D01*
X141851288Y-99972526D01*
X141788572Y-99978528D01*
X141712477Y-99982790D01*
X141617516Y-99985767D01*
X141553513Y-99987052D01*
X141462192Y-99987930D01*
X141374627Y-99987487D01*
X141296612Y-99985852D01*
X141233942Y-99983149D01*
X141192413Y-99979505D01*
X141189952Y-99979142D01*
X140974303Y-99932487D01*
X140771793Y-99861729D01*
X140582495Y-99766914D01*
X140406479Y-99648089D01*
X140243816Y-99505300D01*
X140094578Y-99338594D01*
X139986496Y-99190433D01*
X139871434Y-98996502D01*
X139778423Y-98791699D01*
X139707013Y-98574383D01*
X139656756Y-98342912D01*
X139627201Y-98095643D01*
X139617889Y-97844559D01*
X139625548Y-97601670D01*
X139649613Y-97377570D01*
X139690852Y-97168477D01*
X139750027Y-96970613D01*
X139827904Y-96780196D01*
X139837203Y-96760468D01*
X139939648Y-96576059D01*
X140065472Y-96400576D01*
X140211112Y-96237650D01*
X140373001Y-96090914D01*
X140547576Y-95964001D01*
X140710244Y-95870905D01*
X140874573Y-95797991D01*
X141039251Y-95745174D01*
X141210652Y-95711015D01*
X141395153Y-95694078D01*
X141505459Y-95691580D01*
X141663962Y-95696499D01*
G36*
X135268257Y-95009689D02*
G01*
X135532780Y-95009725D01*
X135655912Y-95009730D01*
X137626811Y-95009730D01*
X137626811Y-95125910D01*
X137639211Y-95267291D01*
X137676636Y-95397684D01*
X137739423Y-95517862D01*
X137827906Y-95628602D01*
X137857843Y-95658511D01*
X137965534Y-95743348D01*
X138084275Y-95805221D01*
X138210540Y-95844159D01*
X138340803Y-95860190D01*
X138471535Y-95853342D01*
X138599212Y-95823643D01*
X138720305Y-95771120D01*
X138831288Y-95695803D01*
X138881132Y-95650363D01*
X138974017Y-95538952D01*
X139042127Y-95416435D01*
X139084871Y-95284215D01*
X139101653Y-95143692D01*
X139101876Y-95129867D01*
X139102756Y-95009734D01*
X139155557Y-95009732D01*
X139202396Y-95016089D01*
X139245183Y-95031556D01*
X139248011Y-95033154D01*
X139257675Y-95038168D01*
X139266549Y-95042073D01*
X139274665Y-95046007D01*
X139282057Y-95051106D01*
X139288755Y-95058508D01*
X139294792Y-95069351D01*
X139300199Y-95084772D01*
X139305010Y-95105909D01*
X139309255Y-95133899D01*
X139312968Y-95169879D01*
X139316179Y-95214987D01*
X139318922Y-95270360D01*
X139321228Y-95337137D01*
X139323129Y-95416453D01*
X139324658Y-95509447D01*
X139325846Y-95617257D01*
X139326726Y-95741019D01*
X139327330Y-95881871D01*
X139327689Y-96040950D01*
X139327835Y-96219395D01*
X139327802Y-96418342D01*
X139327620Y-96638929D01*
X139327323Y-96882293D01*
X139326941Y-97149572D01*
X139326508Y-97441903D01*
X139326055Y-97760424D01*
X139326002Y-97799230D01*
X139325596Y-98119782D01*
X139325251Y-98414012D01*
X139324931Y-98683056D01*
X139324600Y-98928052D01*
X139324221Y-99150137D01*
X139323757Y-99350447D01*
X139323172Y-99530119D01*
X139322430Y-99690290D01*
X139321494Y-99832098D01*
X139320327Y-99956679D01*
X139318893Y-100065170D01*
X139317156Y-100158707D01*
X139315078Y-100238429D01*
X139312624Y-100305472D01*
X139309756Y-100360973D01*
X139306439Y-100406068D01*
X139302636Y-100441895D01*
X139298310Y-100469591D01*
X139293425Y-100490293D01*
X139287945Y-100505137D01*
X139281832Y-100515260D01*
X139275050Y-100521800D01*
X139267563Y-100525893D01*
X139259334Y-100528676D01*
X139250327Y-100531287D01*
X139240505Y-100534862D01*
X139238106Y-100535950D01*
X139230565Y-100538396D01*
X139217944Y-100540642D01*
X139199141Y-100542698D01*
X139173053Y-100544572D01*
X139138578Y-100546271D01*
X139094615Y-100547803D01*
X139040061Y-100549177D01*
X138973815Y-100550400D01*
X138894774Y-100551481D01*
X138801837Y-100552427D01*
X138693901Y-100553247D01*
X138569864Y-100553947D01*
X138428624Y-100554538D01*
X138269079Y-100555025D01*
X138090128Y-100555419D01*
X137890668Y-100555725D01*
X137669596Y-100555953D01*
X137425812Y-100556110D01*
X137158213Y-100556205D01*
X136865697Y-100556245D01*
X136547161Y-100556238D01*
X136443979Y-100556228D01*
X136118377Y-100556176D01*
X135819119Y-100556091D01*
X135545091Y-100555963D01*
X135295176Y-100555785D01*
X135068260Y-100555548D01*
X134863227Y-100555242D01*
X134678962Y-100554860D01*
X134514350Y-100554392D01*
X134368275Y-100553830D01*
X134239624Y-100553165D01*
X134127279Y-100552388D01*
X134030126Y-100551491D01*
X133947050Y-100550465D01*
X133876936Y-100549301D01*
X133818668Y-100547991D01*
X133771131Y-100546525D01*
X133733210Y-100544896D01*
X133703790Y-100543093D01*
X133681755Y-100541110D01*
X133665990Y-100538936D01*
X133655380Y-100536563D01*
X133649596Y-100534391D01*
X133639316Y-100530056D01*
X133629878Y-100526859D01*
X133621245Y-100523665D01*
X133613381Y-100519338D01*
X133606252Y-100512744D01*
X133599821Y-100502747D01*
X133594053Y-100488212D01*
X133588911Y-100468003D01*
X133584360Y-100440985D01*
X133580365Y-100406023D01*
X133576889Y-100361981D01*
X133573898Y-100307724D01*
X133571354Y-100242117D01*
X133569223Y-100164024D01*
X133567468Y-100072310D01*
X133566055Y-99965840D01*
X133565685Y-99924973D01*
X133932116Y-99924973D01*
X135227266Y-99924973D01*
X135202345Y-99887217D01*
X135177553Y-99848417D01*
X135156560Y-99811469D01*
X135139065Y-99773788D01*
X135124770Y-99732788D01*
X135113377Y-99685883D01*
X135104587Y-99630487D01*
X135098102Y-99564016D01*
X135093623Y-99483883D01*
X135090850Y-99387502D01*
X135089487Y-99272289D01*
X135089233Y-99135657D01*
X135089791Y-98975020D01*
X135090107Y-98915382D01*
X135093675Y-98276041D01*
X135498702Y-98827449D01*
X135613446Y-98983876D01*
X135712857Y-99120088D01*
X135798010Y-99237890D01*
X135869978Y-99339084D01*
X135929834Y-99425477D01*
X135978652Y-99498874D01*
X136017505Y-99561077D01*
X136047466Y-99613893D01*
X136069609Y-99659125D01*
X136085007Y-99698578D01*
X136094734Y-99734058D01*
X136099863Y-99767368D01*
X136101468Y-99800313D01*
X136100621Y-99834697D01*
X136100405Y-99839019D01*
X136095946Y-99925031D01*
X137515308Y-99924973D01*
X137409735Y-99818522D01*
X137381087Y-99789406D01*
X137353910Y-99761076D01*
X137327011Y-99731968D01*
X137299197Y-99700520D01*
X137269275Y-99665169D01*
X137236054Y-99624354D01*
X137198339Y-99576511D01*
X137154940Y-99520079D01*
X137104662Y-99453494D01*
X137046312Y-99375195D01*
X136978700Y-99283619D01*
X136900631Y-99177204D01*
X136810912Y-99054387D01*
X136708352Y-98913605D01*
X136591758Y-98753297D01*
X136496191Y-98621798D01*
X136376251Y-98456596D01*
X136271620Y-98312152D01*
X136181352Y-98187094D01*
X136104497Y-98080052D01*
X136040109Y-97989654D01*
X135987239Y-97914529D01*
X135944940Y-97853304D01*
X135912264Y-97804610D01*
X135888262Y-97767074D01*
X135871987Y-97739325D01*
X135862492Y-97719992D01*
X135858827Y-97707703D01*
X135859929Y-97701242D01*
X135873276Y-97684048D01*
X135902134Y-97647655D01*
X135944760Y-97594224D01*
X135999415Y-97525919D01*
X136064356Y-97444903D01*
X136137842Y-97353340D01*
X136218132Y-97253392D01*
X136303485Y-97147224D01*
X136392160Y-97036997D01*
X136482414Y-96924876D01*
X136532056Y-96863244D01*
X137764627Y-96863244D01*
X137815854Y-96955919D01*
X137867081Y-97048595D01*
X137867081Y-99739622D01*
X137815854Y-99832298D01*
X137764627Y-99924973D01*
X138370604Y-99924973D01*
X138515266Y-99924931D01*
X138634756Y-99924741D01*
X138731358Y-99924308D01*
X138807358Y-99923536D01*
X138865043Y-99922330D01*
X138906699Y-99920594D01*
X138934611Y-99918232D01*
X138951065Y-99915150D01*
X138958348Y-99911251D01*
X138958745Y-99906440D01*
X138954542Y-99900622D01*
X138954499Y-99900574D01*
X138937187Y-99875532D01*
X138914264Y-99834815D01*
X138894019Y-99794168D01*
X138855621Y-99712162D01*
X138847789Y-96863244D01*
X137764627Y-96863244D01*
X136532056Y-96863244D01*
X136572507Y-96813024D01*
X136660698Y-96703604D01*
X136745246Y-96598778D01*
X136824408Y-96500711D01*
X136896444Y-96411566D01*
X136959613Y-96333505D01*
X137012173Y-96268692D01*
X137052383Y-96219290D01*
X137076000Y-96190487D01*
X137167710Y-96082778D01*
X137255940Y-95985580D01*
X137337597Y-95902076D01*
X137409590Y-95835448D01*
X137460681Y-95794599D01*
X137521093Y-95751135D01*
X136131702Y-95751135D01*
X136132092Y-95832666D01*
X136128209Y-95892606D01*
X136113610Y-95948177D01*
X136091012Y-96000855D01*
X136076322Y-96030615D01*
X136060528Y-96060103D01*
X136042186Y-96091276D01*
X136019855Y-96126093D01*
X135992091Y-96166510D01*
X135957451Y-96214486D01*
X135914493Y-96271978D01*
X135861773Y-96340943D01*
X135797849Y-96423339D01*
X135721279Y-96521124D01*
X135630619Y-96636255D01*
X135524426Y-96770690D01*
X135512432Y-96785859D01*
X135093675Y-97315412D01*
X135089622Y-96728922D01*
X135088805Y-96553251D01*
X135088979Y-96404532D01*
X135090151Y-96282275D01*
X135092331Y-96185989D01*
X135095526Y-96115183D01*
X135099744Y-96069369D01*
X135101162Y-96060679D01*
X135123409Y-95969135D01*
X135152557Y-95886608D01*
X135185818Y-95820253D01*
X135205800Y-95792110D01*
X135240278Y-95751135D01*
X134586086Y-95751135D01*
X134430031Y-95751269D01*
X134299533Y-95751703D01*
X134192690Y-95752489D01*
X134107602Y-95753676D01*
X134042365Y-95755317D01*
X133995079Y-95757461D01*
X133963843Y-95760159D01*
X133946754Y-95763462D01*
X133941912Y-95767421D01*
X133942247Y-95768298D01*
X133956115Y-95789231D01*
X133979268Y-95822412D01*
X133991246Y-95839193D01*
X134003631Y-95855940D01*
X134014763Y-95870915D01*
X134024712Y-95885594D01*
X134033549Y-95901449D01*
X134041343Y-95919955D01*
X134048165Y-95942585D01*
X134054084Y-95970813D01*
X134059171Y-96006113D01*
X134063496Y-96049958D01*
X134067129Y-96103822D01*
X134070140Y-96169180D01*
X134072599Y-96247504D01*
X134074577Y-96340268D01*
X134076142Y-96448947D01*
X134077366Y-96575013D01*
X134078319Y-96719942D01*
X134079070Y-96885206D01*
X134079689Y-97072279D01*
X134080248Y-97282635D01*
X134080815Y-97517748D01*
X134081345Y-97733741D01*
X134081845Y-97974535D01*
X134082105Y-98204274D01*
X134082132Y-98421493D01*
X134081933Y-98624722D01*
X134081514Y-98812496D01*
X134080882Y-98983345D01*
X134080044Y-99135803D01*
X134079008Y-99268403D01*
X134077780Y-99379676D01*
X134076367Y-99468156D01*
X134074775Y-99532375D01*
X134073013Y-99570865D01*
X134072679Y-99574933D01*
X134060534Y-99668248D01*
X134041573Y-99743190D01*
X134012698Y-99808594D01*
X133970810Y-99873293D01*
X133965571Y-99880352D01*
X133932116Y-99924973D01*
X133565685Y-99924973D01*
X133564946Y-99843479D01*
X133564107Y-99704090D01*
X133563502Y-99546539D01*
X133563095Y-99369691D01*
X133562850Y-99172410D01*
X133562733Y-98953560D01*
X133562705Y-98712007D01*
X133562733Y-98446615D01*
X133562780Y-98156249D01*
X133562810Y-97839773D01*
X133562811Y-97776946D01*
X133562828Y-97457137D01*
X133562888Y-97163661D01*
X133562998Y-96895390D01*
X133563167Y-96651198D01*
X133563403Y-96429957D01*
X133563716Y-96230540D01*
X133564115Y-96051820D01*
X133564607Y-95892671D01*
X133565203Y-95751966D01*
X133565910Y-95628576D01*
X133566737Y-95521376D01*
X133567693Y-95429238D01*
X133568787Y-95351035D01*
X133570027Y-95285641D01*
X133571422Y-95231928D01*
X133572982Y-95188769D01*
X133574714Y-95155037D01*
X133576628Y-95129605D01*
X133578732Y-95111347D01*
X133581034Y-95099134D01*
X133583545Y-95091841D01*
X133583637Y-95091659D01*
X133588808Y-95080518D01*
X133593115Y-95070431D01*
X133597879Y-95061346D01*
X133604422Y-95053212D01*
X133614065Y-95045976D01*
X133628129Y-95039586D01*
X133647937Y-95033989D01*
X133674809Y-95029133D01*
X133710067Y-95024966D01*
X133755032Y-95021436D01*
X133811026Y-95018491D01*
X133879371Y-95016077D01*
X133961386Y-95014144D01*
X134058395Y-95012638D01*
X134171718Y-95011508D01*
X134302677Y-95010702D01*
X134452593Y-95010166D01*
X134622787Y-95009849D01*
X134814582Y-95009699D01*
X135029298Y-95009663D01*
X135268257Y-95009689D01*
X135268257Y-95009689D01*
G37*
X135268257Y-95009689D02*
X135532780Y-95009725D01*
X135655912Y-95009730D01*
X137626811Y-95009730D01*
X137626811Y-95125910D01*
X137639211Y-95267291D01*
X137676636Y-95397684D01*
X137739423Y-95517862D01*
X137827906Y-95628602D01*
X137857843Y-95658511D01*
X137965534Y-95743348D01*
X138084275Y-95805221D01*
X138210540Y-95844159D01*
X138340803Y-95860190D01*
X138471535Y-95853342D01*
X138599212Y-95823643D01*
X138720305Y-95771120D01*
X138831288Y-95695803D01*
X138881132Y-95650363D01*
X138974017Y-95538952D01*
X139042127Y-95416435D01*
X139084871Y-95284215D01*
X139101653Y-95143692D01*
X139101876Y-95129867D01*
X139102756Y-95009734D01*
X139155557Y-95009732D01*
X139202396Y-95016089D01*
X139245183Y-95031556D01*
X139248011Y-95033154D01*
X139257675Y-95038168D01*
X139266549Y-95042073D01*
X139274665Y-95046007D01*
X139282057Y-95051106D01*
X139288755Y-95058508D01*
X139294792Y-95069351D01*
X139300199Y-95084772D01*
X139305010Y-95105909D01*
X139309255Y-95133899D01*
X139312968Y-95169879D01*
X139316179Y-95214987D01*
X139318922Y-95270360D01*
X139321228Y-95337137D01*
X139323129Y-95416453D01*
X139324658Y-95509447D01*
X139325846Y-95617257D01*
X139326726Y-95741019D01*
X139327330Y-95881871D01*
X139327689Y-96040950D01*
X139327835Y-96219395D01*
X139327802Y-96418342D01*
X139327620Y-96638929D01*
X139327323Y-96882293D01*
X139326941Y-97149572D01*
X139326508Y-97441903D01*
X139326055Y-97760424D01*
X139326002Y-97799230D01*
X139325596Y-98119782D01*
X139325251Y-98414012D01*
X139324931Y-98683056D01*
X139324600Y-98928052D01*
X139324221Y-99150137D01*
X139323757Y-99350447D01*
X139323172Y-99530119D01*
X139322430Y-99690290D01*
X139321494Y-99832098D01*
X139320327Y-99956679D01*
X139318893Y-100065170D01*
X139317156Y-100158707D01*
X139315078Y-100238429D01*
X139312624Y-100305472D01*
X139309756Y-100360973D01*
X139306439Y-100406068D01*
X139302636Y-100441895D01*
X139298310Y-100469591D01*
X139293425Y-100490293D01*
X139287945Y-100505137D01*
X139281832Y-100515260D01*
X139275050Y-100521800D01*
X139267563Y-100525893D01*
X139259334Y-100528676D01*
X139250327Y-100531287D01*
X139240505Y-100534862D01*
X139238106Y-100535950D01*
X139230565Y-100538396D01*
X139217944Y-100540642D01*
X139199141Y-100542698D01*
X139173053Y-100544572D01*
X139138578Y-100546271D01*
X139094615Y-100547803D01*
X139040061Y-100549177D01*
X138973815Y-100550400D01*
X138894774Y-100551481D01*
X138801837Y-100552427D01*
X138693901Y-100553247D01*
X138569864Y-100553947D01*
X138428624Y-100554538D01*
X138269079Y-100555025D01*
X138090128Y-100555419D01*
X137890668Y-100555725D01*
X137669596Y-100555953D01*
X137425812Y-100556110D01*
X137158213Y-100556205D01*
X136865697Y-100556245D01*
X136547161Y-100556238D01*
X136443979Y-100556228D01*
X136118377Y-100556176D01*
X135819119Y-100556091D01*
X135545091Y-100555963D01*
X135295176Y-100555785D01*
X135068260Y-100555548D01*
X134863227Y-100555242D01*
X134678962Y-100554860D01*
X134514350Y-100554392D01*
X134368275Y-100553830D01*
X134239624Y-100553165D01*
X134127279Y-100552388D01*
X134030126Y-100551491D01*
X133947050Y-100550465D01*
X133876936Y-100549301D01*
X133818668Y-100547991D01*
X133771131Y-100546525D01*
X133733210Y-100544896D01*
X133703790Y-100543093D01*
X133681755Y-100541110D01*
X133665990Y-100538936D01*
X133655380Y-100536563D01*
X133649596Y-100534391D01*
X133639316Y-100530056D01*
X133629878Y-100526859D01*
X133621245Y-100523665D01*
X133613381Y-100519338D01*
X133606252Y-100512744D01*
X133599821Y-100502747D01*
X133594053Y-100488212D01*
X133588911Y-100468003D01*
X133584360Y-100440985D01*
X133580365Y-100406023D01*
X133576889Y-100361981D01*
X133573898Y-100307724D01*
X133571354Y-100242117D01*
X133569223Y-100164024D01*
X133567468Y-100072310D01*
X133566055Y-99965840D01*
X133565685Y-99924973D01*
X133932116Y-99924973D01*
X135227266Y-99924973D01*
X135202345Y-99887217D01*
X135177553Y-99848417D01*
X135156560Y-99811469D01*
X135139065Y-99773788D01*
X135124770Y-99732788D01*
X135113377Y-99685883D01*
X135104587Y-99630487D01*
X135098102Y-99564016D01*
X135093623Y-99483883D01*
X135090850Y-99387502D01*
X135089487Y-99272289D01*
X135089233Y-99135657D01*
X135089791Y-98975020D01*
X135090107Y-98915382D01*
X135093675Y-98276041D01*
X135498702Y-98827449D01*
X135613446Y-98983876D01*
X135712857Y-99120088D01*
X135798010Y-99237890D01*
X135869978Y-99339084D01*
X135929834Y-99425477D01*
X135978652Y-99498874D01*
X136017505Y-99561077D01*
X136047466Y-99613893D01*
X136069609Y-99659125D01*
X136085007Y-99698578D01*
X136094734Y-99734058D01*
X136099863Y-99767368D01*
X136101468Y-99800313D01*
X136100621Y-99834697D01*
X136100405Y-99839019D01*
X136095946Y-99925031D01*
X137515308Y-99924973D01*
X137409735Y-99818522D01*
X137381087Y-99789406D01*
X137353910Y-99761076D01*
X137327011Y-99731968D01*
X137299197Y-99700520D01*
X137269275Y-99665169D01*
X137236054Y-99624354D01*
X137198339Y-99576511D01*
X137154940Y-99520079D01*
X137104662Y-99453494D01*
X137046312Y-99375195D01*
X136978700Y-99283619D01*
X136900631Y-99177204D01*
X136810912Y-99054387D01*
X136708352Y-98913605D01*
X136591758Y-98753297D01*
X136496191Y-98621798D01*
X136376251Y-98456596D01*
X136271620Y-98312152D01*
X136181352Y-98187094D01*
X136104497Y-98080052D01*
X136040109Y-97989654D01*
X135987239Y-97914529D01*
X135944940Y-97853304D01*
X135912264Y-97804610D01*
X135888262Y-97767074D01*
X135871987Y-97739325D01*
X135862492Y-97719992D01*
X135858827Y-97707703D01*
X135859929Y-97701242D01*
X135873276Y-97684048D01*
X135902134Y-97647655D01*
X135944760Y-97594224D01*
X135999415Y-97525919D01*
X136064356Y-97444903D01*
X136137842Y-97353340D01*
X136218132Y-97253392D01*
X136303485Y-97147224D01*
X136392160Y-97036997D01*
X136482414Y-96924876D01*
X136532056Y-96863244D01*
X137764627Y-96863244D01*
X137815854Y-96955919D01*
X137867081Y-97048595D01*
X137867081Y-99739622D01*
X137815854Y-99832298D01*
X137764627Y-99924973D01*
X138370604Y-99924973D01*
X138515266Y-99924931D01*
X138634756Y-99924741D01*
X138731358Y-99924308D01*
X138807358Y-99923536D01*
X138865043Y-99922330D01*
X138906699Y-99920594D01*
X138934611Y-99918232D01*
X138951065Y-99915150D01*
X138958348Y-99911251D01*
X138958745Y-99906440D01*
X138954542Y-99900622D01*
X138954499Y-99900574D01*
X138937187Y-99875532D01*
X138914264Y-99834815D01*
X138894019Y-99794168D01*
X138855621Y-99712162D01*
X138847789Y-96863244D01*
X137764627Y-96863244D01*
X136532056Y-96863244D01*
X136572507Y-96813024D01*
X136660698Y-96703604D01*
X136745246Y-96598778D01*
X136824408Y-96500711D01*
X136896444Y-96411566D01*
X136959613Y-96333505D01*
X137012173Y-96268692D01*
X137052383Y-96219290D01*
X137076000Y-96190487D01*
X137167710Y-96082778D01*
X137255940Y-95985580D01*
X137337597Y-95902076D01*
X137409590Y-95835448D01*
X137460681Y-95794599D01*
X137521093Y-95751135D01*
X136131702Y-95751135D01*
X136132092Y-95832666D01*
X136128209Y-95892606D01*
X136113610Y-95948177D01*
X136091012Y-96000855D01*
X136076322Y-96030615D01*
X136060528Y-96060103D01*
X136042186Y-96091276D01*
X136019855Y-96126093D01*
X135992091Y-96166510D01*
X135957451Y-96214486D01*
X135914493Y-96271978D01*
X135861773Y-96340943D01*
X135797849Y-96423339D01*
X135721279Y-96521124D01*
X135630619Y-96636255D01*
X135524426Y-96770690D01*
X135512432Y-96785859D01*
X135093675Y-97315412D01*
X135089622Y-96728922D01*
X135088805Y-96553251D01*
X135088979Y-96404532D01*
X135090151Y-96282275D01*
X135092331Y-96185989D01*
X135095526Y-96115183D01*
X135099744Y-96069369D01*
X135101162Y-96060679D01*
X135123409Y-95969135D01*
X135152557Y-95886608D01*
X135185818Y-95820253D01*
X135205800Y-95792110D01*
X135240278Y-95751135D01*
X134586086Y-95751135D01*
X134430031Y-95751269D01*
X134299533Y-95751703D01*
X134192690Y-95752489D01*
X134107602Y-95753676D01*
X134042365Y-95755317D01*
X133995079Y-95757461D01*
X133963843Y-95760159D01*
X133946754Y-95763462D01*
X133941912Y-95767421D01*
X133942247Y-95768298D01*
X133956115Y-95789231D01*
X133979268Y-95822412D01*
X133991246Y-95839193D01*
X134003631Y-95855940D01*
X134014763Y-95870915D01*
X134024712Y-95885594D01*
X134033549Y-95901449D01*
X134041343Y-95919955D01*
X134048165Y-95942585D01*
X134054084Y-95970813D01*
X134059171Y-96006113D01*
X134063496Y-96049958D01*
X134067129Y-96103822D01*
X134070140Y-96169180D01*
X134072599Y-96247504D01*
X134074577Y-96340268D01*
X134076142Y-96448947D01*
X134077366Y-96575013D01*
X134078319Y-96719942D01*
X134079070Y-96885206D01*
X134079689Y-97072279D01*
X134080248Y-97282635D01*
X134080815Y-97517748D01*
X134081345Y-97733741D01*
X134081845Y-97974535D01*
X134082105Y-98204274D01*
X134082132Y-98421493D01*
X134081933Y-98624722D01*
X134081514Y-98812496D01*
X134080882Y-98983345D01*
X134080044Y-99135803D01*
X134079008Y-99268403D01*
X134077780Y-99379676D01*
X134076367Y-99468156D01*
X134074775Y-99532375D01*
X134073013Y-99570865D01*
X134072679Y-99574933D01*
X134060534Y-99668248D01*
X134041573Y-99743190D01*
X134012698Y-99808594D01*
X133970810Y-99873293D01*
X133965571Y-99880352D01*
X133932116Y-99924973D01*
X133565685Y-99924973D01*
X133564946Y-99843479D01*
X133564107Y-99704090D01*
X133563502Y-99546539D01*
X133563095Y-99369691D01*
X133562850Y-99172410D01*
X133562733Y-98953560D01*
X133562705Y-98712007D01*
X133562733Y-98446615D01*
X133562780Y-98156249D01*
X133562810Y-97839773D01*
X133562811Y-97776946D01*
X133562828Y-97457137D01*
X133562888Y-97163661D01*
X133562998Y-96895390D01*
X133563167Y-96651198D01*
X133563403Y-96429957D01*
X133563716Y-96230540D01*
X133564115Y-96051820D01*
X133564607Y-95892671D01*
X133565203Y-95751966D01*
X133565910Y-95628576D01*
X133566737Y-95521376D01*
X133567693Y-95429238D01*
X133568787Y-95351035D01*
X133570027Y-95285641D01*
X133571422Y-95231928D01*
X133572982Y-95188769D01*
X133574714Y-95155037D01*
X133576628Y-95129605D01*
X133578732Y-95111347D01*
X133581034Y-95099134D01*
X133583545Y-95091841D01*
X133583637Y-95091659D01*
X133588808Y-95080518D01*
X133593115Y-95070431D01*
X133597879Y-95061346D01*
X133604422Y-95053212D01*
X133614065Y-95045976D01*
X133628129Y-95039586D01*
X133647937Y-95033989D01*
X133674809Y-95029133D01*
X133710067Y-95024966D01*
X133755032Y-95021436D01*
X133811026Y-95018491D01*
X133879371Y-95016077D01*
X133961386Y-95014144D01*
X134058395Y-95012638D01*
X134171718Y-95011508D01*
X134302677Y-95010702D01*
X134452593Y-95010166D01*
X134622787Y-95009849D01*
X134814582Y-95009699D01*
X135029298Y-95009663D01*
X135268257Y-95009689D01*
D13*
X166558000Y-76700000D02*
X166558000Y-77750000D01*
X166558000Y-77750000D02*
X164708000Y-77750000D01*
X166558000Y-74700000D02*
X166558000Y-75700000D01*
X166538000Y-74690000D02*
X164108000Y-74690000D01*
X119186000Y-62290000D02*
X119186000Y-59630000D01*
X114046000Y-62290000D02*
X119186000Y-62290000D01*
X114046000Y-59630000D02*
X119186000Y-59630000D01*
X114046000Y-62290000D02*
X114046000Y-59630000D01*
X112776000Y-62290000D02*
X111446000Y-62290000D01*
X111446000Y-62290000D02*
X111446000Y-60960000D01*
X127921936Y-65638000D02*
X129126064Y-65638000D01*
X127921936Y-67458000D02*
X129126064Y-67458000D01*
D14*
X162893000Y-59910000D02*
X163243000Y-59910000D01*
X163243000Y-59910000D02*
X163243000Y-62010000D01*
X163243000Y-62010000D02*
X162893000Y-62010000D01*
X162893000Y-62010000D02*
X162893000Y-59910000D01*
X161493000Y-59735000D02*
X162543000Y-59735000D01*
D15*
X122732800Y-70053200D02*
X122732800Y-66344800D01*
X122732800Y-66344800D02*
X116027200Y-66344800D01*
X116027200Y-66344800D02*
X116027200Y-70053200D01*
X116027200Y-70053200D02*
X122732800Y-70053200D01*
D13*
X123574564Y-73639000D02*
X122370436Y-73639000D01*
X123574564Y-75459000D02*
X122370436Y-75459000D01*
X116455436Y-73639000D02*
X117659564Y-73639000D01*
X116455436Y-75459000D02*
X117659564Y-75459000D01*
X136295000Y-86570000D02*
X136295000Y-87350000D01*
X136295000Y-87350000D02*
X137295000Y-87350000D01*
X154535000Y-86570000D02*
X154535000Y-87350000D01*
X154535000Y-87350000D02*
X153535000Y-87350000D01*
X136295000Y-61605000D02*
X154535000Y-61605000D01*
X154535000Y-61605000D02*
X154535000Y-68025000D01*
X136295000Y-61605000D02*
X136295000Y-68025000D01*
X136295000Y-68025000D02*
X135915000Y-68025000D01*
X129265000Y-70735436D02*
X129265000Y-71939564D01*
X131085000Y-70735436D02*
X131085000Y-71939564D01*
X133625000Y-70735436D02*
X133625000Y-71939564D01*
X131805000Y-70735436D02*
X131805000Y-71939564D01*
X170976000Y-103247000D02*
X171476000Y-102997000D01*
X170976000Y-102747000D02*
X170976000Y-103247000D01*
X171476000Y-102997000D02*
X170976000Y-102747000D01*
X153190000Y-118717000D02*
X153190000Y-102517000D01*
X153190000Y-102517000D02*
X153590000Y-102517000D01*
X168990000Y-118717000D02*
X169390000Y-118717000D01*
X169390000Y-118717000D02*
X169390000Y-102517000D01*
X169390000Y-102517000D02*
X168990000Y-102517000D01*
X153190000Y-118717000D02*
X153540000Y-118717000D01*
X153540000Y-118717000D02*
X153540000Y-119617000D01*
X110422000Y-81153000D02*
X110422000Y-81813000D01*
X108692000Y-81153000D02*
X110422000Y-81153000D01*
X106122000Y-88773000D02*
X106332000Y-88773000D01*
X106122000Y-81153000D02*
X106332000Y-81153000D01*
X108692000Y-88773000D02*
X110422000Y-88773000D01*
X110422000Y-88773000D02*
X110422000Y-88123000D01*
X111122000Y-83203000D02*
X111122000Y-83653000D01*
X111122000Y-83203000D02*
X110732000Y-83203000D01*
X129126064Y-64918000D02*
X127921936Y-64918000D01*
X129126064Y-63098000D02*
X127921936Y-63098000D01*
X156062000Y-84995936D02*
X156062000Y-86200064D01*
X157882000Y-84995936D02*
X157882000Y-86200064D01*
X172360000Y-112362064D02*
X172360000Y-111157936D01*
X170540000Y-112362064D02*
X170540000Y-111157936D01*
X161650000Y-71722064D02*
X161650000Y-70517936D01*
X163470000Y-71722064D02*
X163470000Y-70517936D01*
X142935000Y-93840000D02*
X142935000Y-93017530D01*
X142935000Y-91132470D02*
X142935000Y-90310000D01*
X142935000Y-92402470D02*
X142935000Y-91747530D01*
X137920000Y-93840000D02*
X142935000Y-93840000D01*
X136465000Y-90310000D02*
X142935000Y-90310000D01*
X137920000Y-93840000D02*
X137920000Y-93273471D01*
X137920000Y-92146529D02*
X137920000Y-92003471D01*
X137866529Y-91950000D02*
X137723471Y-91950000D01*
X136596529Y-91950000D02*
X136465000Y-91950000D01*
X136465000Y-91950000D02*
X136465000Y-91747530D01*
X136465000Y-91132470D02*
X136465000Y-90310000D01*
X137160000Y-93840000D02*
X136400000Y-93840000D01*
X136400000Y-93840000D02*
X136400000Y-92710000D01*
X173415000Y-67370000D02*
X173415000Y-64710000D01*
X163195000Y-67370000D02*
X173415000Y-67370000D01*
X163195000Y-64710000D02*
X173415000Y-64710000D01*
X163195000Y-67370000D02*
X163195000Y-64710000D01*
X161925000Y-67370000D02*
X160595000Y-67370000D01*
X160595000Y-67370000D02*
X160595000Y-66040000D01*
X106496179Y-96474841D02*
G75*
G02X106512000Y-92488000I1665821J1986841D01*
G01*
X106496179Y-101554841D02*
G75*
G02X106512000Y-97568000I1665821J1986841D01*
G01*
X106496179Y-106634841D02*
G75*
G02X106512000Y-102648000I1665821J1986841D01*
G01*
X106496179Y-111714841D02*
G75*
G02X106512000Y-107728000I1665821J1986841D01*
G01*
X113622000Y-90838000D02*
X104802000Y-90838000D01*
X104802000Y-90838000D02*
X104802000Y-113378000D01*
X104802000Y-113378000D02*
X113622000Y-113378000D01*
X113622000Y-113378000D02*
X113622000Y-90838000D01*
X112812000Y-90838000D02*
X112812000Y-93378000D01*
X112812000Y-113378000D02*
X112812000Y-110838000D01*
X112812000Y-95488000D02*
X112812000Y-98568000D01*
X112812000Y-100568000D02*
X112812000Y-103648000D01*
X112812000Y-105648000D02*
X112812000Y-108728000D01*
X111812000Y-93488000D02*
X113622000Y-93488000D01*
X113622000Y-93488000D02*
X113622000Y-95488000D01*
X113622000Y-95488000D02*
X111812000Y-95488000D01*
X111812000Y-95488000D02*
X111812000Y-93488000D01*
X111812000Y-98568000D02*
X113622000Y-98568000D01*
X113622000Y-98568000D02*
X113622000Y-100568000D01*
X113622000Y-100568000D02*
X111812000Y-100568000D01*
X111812000Y-100568000D02*
X111812000Y-98568000D01*
X111812000Y-103648000D02*
X113622000Y-103648000D01*
X113622000Y-103648000D02*
X113622000Y-105648000D01*
X113622000Y-105648000D02*
X111812000Y-105648000D01*
X111812000Y-105648000D02*
X111812000Y-103648000D01*
X111812000Y-108728000D02*
X113622000Y-108728000D01*
X113622000Y-108728000D02*
X113622000Y-110728000D01*
X113622000Y-110728000D02*
X111812000Y-110728000D01*
X111812000Y-110728000D02*
X111812000Y-108728000D01*
X106512000Y-96488000D02*
X106512000Y-97568000D01*
X106512000Y-101568000D02*
X106512000Y-102648000D01*
X106512000Y-106648000D02*
X106512000Y-107728000D01*
X106512000Y-92488000D02*
X106512000Y-91748000D01*
X106512000Y-91748000D02*
X111812000Y-91748000D01*
X111812000Y-91748000D02*
X111812000Y-112468000D01*
X111812000Y-112468000D02*
X106512000Y-112468000D01*
X106512000Y-112468000D02*
X106512000Y-111728000D01*
X114422000Y-94788000D02*
X113822000Y-94488000D01*
X113822000Y-94488000D02*
X114422000Y-94188000D01*
X114422000Y-94188000D02*
X114422000Y-94788000D01*
X114494000Y-120710000D02*
X114494000Y-119380000D01*
X115824000Y-120710000D02*
X114494000Y-120710000D01*
X117094000Y-120710000D02*
X117094000Y-118050000D01*
X117094000Y-118050000D02*
X122234000Y-118050000D01*
X117094000Y-120710000D02*
X122234000Y-120710000D01*
X122234000Y-120710000D02*
X122234000Y-118050000D01*
X116418000Y-93458000D02*
X118848000Y-93458000D01*
X116398000Y-93448000D02*
X116398000Y-92448000D01*
X116398000Y-90398000D02*
X118248000Y-90398000D01*
X116398000Y-91448000D02*
X116398000Y-90398000D01*
X118552000Y-87114000D02*
X118552000Y-88164000D01*
X118552000Y-88164000D02*
X116702000Y-88164000D01*
X118552000Y-85114000D02*
X118552000Y-86114000D01*
X118532000Y-85104000D02*
X116102000Y-85104000D01*
X171950000Y-70170000D02*
X173000000Y-70170000D01*
X173000000Y-70170000D02*
X173000000Y-72020000D01*
X169950000Y-70170000D02*
X170950000Y-70170000D01*
X169940000Y-70190000D02*
X169940000Y-72620000D01*
X173142000Y-74690000D02*
X170712000Y-74690000D01*
X173162000Y-74700000D02*
X173162000Y-75700000D01*
X173162000Y-77750000D02*
X171312000Y-77750000D01*
X173162000Y-76700000D02*
X173162000Y-77750000D01*
X152051936Y-88752000D02*
X153256064Y-88752000D01*
X152051936Y-90572000D02*
X153256064Y-90572000D01*
X121010000Y-86773936D02*
X121010000Y-87978064D01*
X122830000Y-86773936D02*
X122830000Y-87978064D01*
X121010000Y-91853936D02*
X121010000Y-93058064D01*
X122830000Y-91853936D02*
X122830000Y-93058064D01*
X114914000Y-102202064D02*
X114914000Y-100997936D01*
X116734000Y-102202064D02*
X116734000Y-100997936D01*
X114914000Y-97158564D02*
X114914000Y-95954436D01*
X116734000Y-97158564D02*
X116734000Y-95954436D01*
X117454000Y-95954436D02*
X117454000Y-97158564D01*
X119274000Y-95954436D02*
X119274000Y-97158564D01*
X111866000Y-87179564D02*
X111866000Y-85975436D01*
X113686000Y-87179564D02*
X113686000Y-85975436D01*
X170836000Y-86392936D02*
X170836000Y-87597064D01*
X169016000Y-86392936D02*
X169016000Y-87597064D01*
X164190000Y-70517936D02*
X164190000Y-71722064D01*
X166010000Y-70517936D02*
X166010000Y-71722064D01*
X170836000Y-82390064D02*
X170836000Y-81185936D01*
X169016000Y-82390064D02*
X169016000Y-81185936D01*
X173842000Y-70263936D02*
X173842000Y-71468064D01*
X175662000Y-70263936D02*
X175662000Y-71468064D01*
X169058000Y-70517936D02*
X169058000Y-71722064D01*
X167238000Y-70517936D02*
X167238000Y-71722064D01*
X125162000Y-89468000D02*
X127822000Y-89468000D01*
X125162000Y-89408000D02*
X125162000Y-89468000D01*
X127822000Y-89408000D02*
X127822000Y-89468000D01*
X125162000Y-89408000D02*
X127822000Y-89408000D01*
X125162000Y-88138000D02*
X125162000Y-86808000D01*
X125162000Y-86808000D02*
X126492000Y-86808000D01*
X125162000Y-90872000D02*
X126492000Y-90872000D01*
X125162000Y-92202000D02*
X125162000Y-90872000D01*
X125162000Y-93472000D02*
X127822000Y-93472000D01*
X127822000Y-93472000D02*
X127822000Y-93532000D01*
X125162000Y-93472000D02*
X125162000Y-93532000D01*
X125162000Y-93532000D02*
X127822000Y-93532000D01*
X165548000Y-87309000D02*
X168208000Y-87309000D01*
X165548000Y-87249000D02*
X165548000Y-87309000D01*
X168208000Y-87249000D02*
X168208000Y-87309000D01*
X165548000Y-87249000D02*
X168208000Y-87249000D01*
X165548000Y-85979000D02*
X165548000Y-84649000D01*
X165548000Y-84649000D02*
X166878000Y-84649000D01*
X126806000Y-83626000D02*
X126806000Y-80966000D01*
X116586000Y-83626000D02*
X126806000Y-83626000D01*
X116586000Y-80966000D02*
X126806000Y-80966000D01*
X116586000Y-83626000D02*
X116586000Y-80966000D01*
X115316000Y-83626000D02*
X113986000Y-83626000D01*
X113986000Y-83626000D02*
X113986000Y-82296000D01*
X172406000Y-89468000D02*
X175066000Y-89468000D01*
X172406000Y-81788000D02*
X172406000Y-89468000D01*
X175066000Y-81788000D02*
X175066000Y-89468000D01*
X172406000Y-81788000D02*
X175066000Y-81788000D01*
X172406000Y-80518000D02*
X172406000Y-79188000D01*
X172406000Y-79188000D02*
X173736000Y-79188000D01*
X111435821Y-72943159D02*
G75*
G02X111420000Y-76930000I-1665821J-1986841D01*
G01*
X111435821Y-67863159D02*
G75*
G02X111420000Y-71850000I-1665821J-1986841D01*
G01*
X104310000Y-78580000D02*
X113130000Y-78580000D01*
X113130000Y-78580000D02*
X113130000Y-66200000D01*
X113130000Y-66200000D02*
X104310000Y-66200000D01*
X104310000Y-66200000D02*
X104310000Y-78580000D01*
X105120000Y-78580000D02*
X105120000Y-76040000D01*
X105120000Y-66200000D02*
X105120000Y-68740000D01*
X105120000Y-73930000D02*
X105120000Y-70850000D01*
X106120000Y-75930000D02*
X104310000Y-75930000D01*
X104310000Y-75930000D02*
X104310000Y-73930000D01*
X104310000Y-73930000D02*
X106120000Y-73930000D01*
X106120000Y-73930000D02*
X106120000Y-75930000D01*
X106120000Y-70850000D02*
X104310000Y-70850000D01*
X104310000Y-70850000D02*
X104310000Y-68850000D01*
X104310000Y-68850000D02*
X106120000Y-68850000D01*
X106120000Y-68850000D02*
X106120000Y-70850000D01*
X111420000Y-72930000D02*
X111420000Y-71850000D01*
X111420000Y-76930000D02*
X111420000Y-77670000D01*
X111420000Y-77670000D02*
X106120000Y-77670000D01*
X106120000Y-77670000D02*
X106120000Y-67110000D01*
X106120000Y-67110000D02*
X111420000Y-67110000D01*
X111420000Y-67110000D02*
X111420000Y-67850000D01*
X103510000Y-74630000D02*
X104110000Y-74930000D01*
X104110000Y-74930000D02*
X103510000Y-75230000D01*
X103510000Y-75230000D02*
X103510000Y-74630000D01*
X131920064Y-111400000D02*
X130715936Y-111400000D01*
X131920064Y-109580000D02*
X130715936Y-109580000D01*
X131920064Y-112120000D02*
X130715936Y-112120000D01*
X131920064Y-113940000D02*
X130715936Y-113940000D01*
X130715936Y-107040000D02*
X131920064Y-107040000D01*
X130715936Y-108860000D02*
X131920064Y-108860000D01*
X130715936Y-116480000D02*
X131920064Y-116480000D01*
X130715936Y-114660000D02*
X131920064Y-114660000D01*
X142890000Y-113244000D02*
X143890000Y-113244000D01*
X143390000Y-112744000D02*
X143390000Y-113744000D01*
X149490000Y-116744000D02*
X149490000Y-119144000D01*
X149490000Y-111944000D02*
X149490000Y-114544000D01*
X149490000Y-107344000D02*
X149490000Y-109744000D01*
X136190000Y-109144000D02*
X135890000Y-109444000D01*
X135590000Y-109144000D02*
X136190000Y-109144000D01*
X135890000Y-109444000D02*
X135590000Y-109144000D01*
X137290000Y-107344000D02*
X137290000Y-119144000D01*
X141390000Y-107344000D02*
X137290000Y-107344000D01*
X141390000Y-119144000D02*
X137290000Y-119144000D01*
X149490000Y-119144000D02*
X145390000Y-119144000D01*
X145390000Y-107344000D02*
X149490000Y-107344000D01*
X146390000Y-113244000D02*
G75*
G03X146390000Y-113244000I-3000000J0D01*
G01*
D16*
X168052761Y-75223619D02*
X167957523Y-75176000D01*
X167862285Y-75080761D01*
X167719428Y-74937904D01*
X167624190Y-74890285D01*
X167528952Y-74890285D01*
X167576571Y-75128380D02*
X167481333Y-75080761D01*
X167386095Y-74985523D01*
X167338476Y-74795047D01*
X167338476Y-74461714D01*
X167386095Y-74271238D01*
X167481333Y-74176000D01*
X167576571Y-74128380D01*
X167767047Y-74128380D01*
X167862285Y-74176000D01*
X167957523Y-74271238D01*
X168005142Y-74461714D01*
X168005142Y-74795047D01*
X167957523Y-74985523D01*
X167862285Y-75080761D01*
X167767047Y-75128380D01*
X167576571Y-75128380D01*
X168862285Y-74461714D02*
X168862285Y-75128380D01*
X168624190Y-74080761D02*
X168386095Y-74795047D01*
X169005142Y-74795047D01*
X109898380Y-61293333D02*
X110612666Y-61293333D01*
X110755523Y-61340952D01*
X110850761Y-61436190D01*
X110898380Y-61579047D01*
X110898380Y-61674285D01*
X109993619Y-60864761D02*
X109946000Y-60817142D01*
X109898380Y-60721904D01*
X109898380Y-60483809D01*
X109946000Y-60388571D01*
X109993619Y-60340952D01*
X110088857Y-60293333D01*
X110184095Y-60293333D01*
X110326952Y-60340952D01*
X110898380Y-60912380D01*
X110898380Y-60293333D01*
X125928380Y-66714666D02*
X125452190Y-67048000D01*
X125928380Y-67286095D02*
X124928380Y-67286095D01*
X124928380Y-66905142D01*
X124976000Y-66809904D01*
X125023619Y-66762285D01*
X125118857Y-66714666D01*
X125261714Y-66714666D01*
X125356952Y-66762285D01*
X125404571Y-66809904D01*
X125452190Y-66905142D01*
X125452190Y-67286095D01*
X125928380Y-65762285D02*
X125928380Y-66333714D01*
X125928380Y-66048000D02*
X124928380Y-66048000D01*
X125071238Y-66143238D01*
X125166476Y-66238476D01*
X125214095Y-66333714D01*
D17*
X165995047Y-60385476D02*
X165874095Y-60325000D01*
X165753142Y-60204047D01*
X165571714Y-60022619D01*
X165450761Y-59962142D01*
X165329809Y-59962142D01*
X165390285Y-60264523D02*
X165269333Y-60204047D01*
X165148380Y-60083095D01*
X165087904Y-59841190D01*
X165087904Y-59417857D01*
X165148380Y-59175952D01*
X165269333Y-59055000D01*
X165390285Y-58994523D01*
X165632190Y-58994523D01*
X165753142Y-59055000D01*
X165874095Y-59175952D01*
X165934571Y-59417857D01*
X165934571Y-59841190D01*
X165874095Y-60083095D01*
X165753142Y-60204047D01*
X165632190Y-60264523D01*
X165390285Y-60264523D01*
X167144095Y-60264523D02*
X166418380Y-60264523D01*
X166781238Y-60264523D02*
X166781238Y-58994523D01*
X166660285Y-59175952D01*
X166539333Y-59296904D01*
X166418380Y-59357380D01*
D16*
X115316095Y-64730380D02*
X115316095Y-65539904D01*
X115363714Y-65635142D01*
X115411333Y-65682761D01*
X115506571Y-65730380D01*
X115697047Y-65730380D01*
X115792285Y-65682761D01*
X115839904Y-65635142D01*
X115887523Y-65539904D01*
X115887523Y-64730380D01*
X116887523Y-65730380D02*
X116316095Y-65730380D01*
X116601809Y-65730380D02*
X116601809Y-64730380D01*
X116506571Y-64873238D01*
X116411333Y-64968476D01*
X116316095Y-65016095D01*
X123023333Y-73001142D02*
X122975714Y-73048761D01*
X122832857Y-73096380D01*
X122737619Y-73096380D01*
X122594761Y-73048761D01*
X122499523Y-72953523D01*
X122451904Y-72858285D01*
X122404285Y-72667809D01*
X122404285Y-72524952D01*
X122451904Y-72334476D01*
X122499523Y-72239238D01*
X122594761Y-72144000D01*
X122737619Y-72096380D01*
X122832857Y-72096380D01*
X122975714Y-72144000D01*
X123023333Y-72191619D01*
X123404285Y-72191619D02*
X123451904Y-72144000D01*
X123547142Y-72096380D01*
X123785238Y-72096380D01*
X123880476Y-72144000D01*
X123928095Y-72191619D01*
X123975714Y-72286857D01*
X123975714Y-72382095D01*
X123928095Y-72524952D01*
X123356666Y-73096380D01*
X123975714Y-73096380D01*
X116890833Y-73086142D02*
X116843214Y-73133761D01*
X116700357Y-73181380D01*
X116605119Y-73181380D01*
X116462261Y-73133761D01*
X116367023Y-73038523D01*
X116319404Y-72943285D01*
X116271785Y-72752809D01*
X116271785Y-72609952D01*
X116319404Y-72419476D01*
X116367023Y-72324238D01*
X116462261Y-72229000D01*
X116605119Y-72181380D01*
X116700357Y-72181380D01*
X116843214Y-72229000D01*
X116890833Y-72276619D01*
X117843214Y-73181380D02*
X117271785Y-73181380D01*
X117557500Y-73181380D02*
X117557500Y-72181380D01*
X117462261Y-72324238D01*
X117367023Y-72419476D01*
X117271785Y-72467095D01*
X134257380Y-86661904D02*
X135066904Y-86661904D01*
X135162142Y-86614285D01*
X135209761Y-86566666D01*
X135257380Y-86471428D01*
X135257380Y-86280952D01*
X135209761Y-86185714D01*
X135162142Y-86138095D01*
X135066904Y-86090476D01*
X134257380Y-86090476D01*
X134352619Y-85661904D02*
X134305000Y-85614285D01*
X134257380Y-85519047D01*
X134257380Y-85280952D01*
X134305000Y-85185714D01*
X134352619Y-85138095D01*
X134447857Y-85090476D01*
X134543095Y-85090476D01*
X134685952Y-85138095D01*
X135257380Y-85709523D01*
X135257380Y-85090476D01*
X130008333Y-75160142D02*
X129960714Y-75207761D01*
X129817857Y-75255380D01*
X129722619Y-75255380D01*
X129579761Y-75207761D01*
X129484523Y-75112523D01*
X129436904Y-75017285D01*
X129389285Y-74826809D01*
X129389285Y-74683952D01*
X129436904Y-74493476D01*
X129484523Y-74398238D01*
X129579761Y-74303000D01*
X129722619Y-74255380D01*
X129817857Y-74255380D01*
X129960714Y-74303000D01*
X130008333Y-74350619D01*
X130341666Y-74255380D02*
X130960714Y-74255380D01*
X130627380Y-74636333D01*
X130770238Y-74636333D01*
X130865476Y-74683952D01*
X130913095Y-74731571D01*
X130960714Y-74826809D01*
X130960714Y-75064904D01*
X130913095Y-75160142D01*
X130865476Y-75207761D01*
X130770238Y-75255380D01*
X130484523Y-75255380D01*
X130389285Y-75207761D01*
X130341666Y-75160142D01*
X132548333Y-75096642D02*
X132500714Y-75144261D01*
X132357857Y-75191880D01*
X132262619Y-75191880D01*
X132119761Y-75144261D01*
X132024523Y-75049023D01*
X131976904Y-74953785D01*
X131929285Y-74763309D01*
X131929285Y-74620452D01*
X131976904Y-74429976D01*
X132024523Y-74334738D01*
X132119761Y-74239500D01*
X132262619Y-74191880D01*
X132357857Y-74191880D01*
X132500714Y-74239500D01*
X132548333Y-74287119D01*
X133405476Y-74525214D02*
X133405476Y-75191880D01*
X133167380Y-74144261D02*
X132929285Y-74858547D01*
X133548333Y-74858547D01*
X171553333Y-97702666D02*
X172029523Y-97702666D01*
X171458095Y-97988380D02*
X171791428Y-96988380D01*
X172124761Y-97988380D01*
X172458095Y-97464571D02*
X172791428Y-97464571D01*
X172934285Y-97988380D02*
X172458095Y-97988380D01*
X172458095Y-96988380D01*
X172934285Y-96988380D01*
X173886666Y-97988380D02*
X173315238Y-97988380D01*
X173600952Y-97988380D02*
X173600952Y-96988380D01*
X173505714Y-97131238D01*
X173410476Y-97226476D01*
X173315238Y-97274095D01*
X151542380Y-111378904D02*
X152351904Y-111378904D01*
X152447142Y-111331285D01*
X152494761Y-111283666D01*
X152542380Y-111188428D01*
X152542380Y-110997952D01*
X152494761Y-110902714D01*
X152447142Y-110855095D01*
X152351904Y-110807476D01*
X151542380Y-110807476D01*
X151542380Y-110426523D02*
X151542380Y-109807476D01*
X151923333Y-110140809D01*
X151923333Y-109997952D01*
X151970952Y-109902714D01*
X152018571Y-109855095D01*
X152113809Y-109807476D01*
X152351904Y-109807476D01*
X152447142Y-109855095D01*
X152494761Y-109902714D01*
X152542380Y-109997952D01*
X152542380Y-110283666D01*
X152494761Y-110378904D01*
X152447142Y-110426523D01*
X108378666Y-79208380D02*
X108378666Y-79922666D01*
X108331047Y-80065523D01*
X108235809Y-80160761D01*
X108092952Y-80208380D01*
X107997714Y-80208380D01*
X109378666Y-80208380D02*
X108807238Y-80208380D01*
X109092952Y-80208380D02*
X109092952Y-79208380D01*
X108997714Y-79351238D01*
X108902476Y-79446476D01*
X108807238Y-79494095D01*
X125579142Y-64174666D02*
X125626761Y-64222285D01*
X125674380Y-64365142D01*
X125674380Y-64460380D01*
X125626761Y-64603238D01*
X125531523Y-64698476D01*
X125436285Y-64746095D01*
X125245809Y-64793714D01*
X125102952Y-64793714D01*
X124912476Y-64746095D01*
X124817238Y-64698476D01*
X124722000Y-64603238D01*
X124674380Y-64460380D01*
X124674380Y-64365142D01*
X124722000Y-64222285D01*
X124769619Y-64174666D01*
X124674380Y-63269904D02*
X124674380Y-63746095D01*
X125150571Y-63793714D01*
X125102952Y-63746095D01*
X125055333Y-63650857D01*
X125055333Y-63412761D01*
X125102952Y-63317523D01*
X125150571Y-63269904D01*
X125245809Y-63222285D01*
X125483904Y-63222285D01*
X125579142Y-63269904D01*
X125626761Y-63317523D01*
X125674380Y-63412761D01*
X125674380Y-63650857D01*
X125626761Y-63746095D01*
X125579142Y-63793714D01*
X159149142Y-85764666D02*
X159196761Y-85812285D01*
X159244380Y-85955142D01*
X159244380Y-86050380D01*
X159196761Y-86193238D01*
X159101523Y-86288476D01*
X159006285Y-86336095D01*
X158815809Y-86383714D01*
X158672952Y-86383714D01*
X158482476Y-86336095D01*
X158387238Y-86288476D01*
X158292000Y-86193238D01*
X158244380Y-86050380D01*
X158244380Y-85955142D01*
X158292000Y-85812285D01*
X158339619Y-85764666D01*
X158244380Y-84907523D02*
X158244380Y-85098000D01*
X158292000Y-85193238D01*
X158339619Y-85240857D01*
X158482476Y-85336095D01*
X158672952Y-85383714D01*
X159053904Y-85383714D01*
X159149142Y-85336095D01*
X159196761Y-85288476D01*
X159244380Y-85193238D01*
X159244380Y-85002761D01*
X159196761Y-84907523D01*
X159149142Y-84859904D01*
X159053904Y-84812285D01*
X158815809Y-84812285D01*
X158720571Y-84859904D01*
X158672952Y-84907523D01*
X158625333Y-85002761D01*
X158625333Y-85193238D01*
X158672952Y-85288476D01*
X158720571Y-85336095D01*
X158815809Y-85383714D01*
X171029333Y-115673142D02*
X170981714Y-115720761D01*
X170838857Y-115768380D01*
X170743619Y-115768380D01*
X170600761Y-115720761D01*
X170505523Y-115625523D01*
X170457904Y-115530285D01*
X170410285Y-115339809D01*
X170410285Y-115196952D01*
X170457904Y-115006476D01*
X170505523Y-114911238D01*
X170600761Y-114816000D01*
X170743619Y-114768380D01*
X170838857Y-114768380D01*
X170981714Y-114816000D01*
X171029333Y-114863619D01*
X171362666Y-114768380D02*
X172029333Y-114768380D01*
X171600761Y-115768380D01*
X162139333Y-68429142D02*
X162091714Y-68476761D01*
X161948857Y-68524380D01*
X161853619Y-68524380D01*
X161710761Y-68476761D01*
X161615523Y-68381523D01*
X161567904Y-68286285D01*
X161520285Y-68095809D01*
X161520285Y-67952952D01*
X161567904Y-67762476D01*
X161615523Y-67667238D01*
X161710761Y-67572000D01*
X161853619Y-67524380D01*
X161948857Y-67524380D01*
X162091714Y-67572000D01*
X162139333Y-67619619D01*
X162710761Y-67952952D02*
X162615523Y-67905333D01*
X162567904Y-67857714D01*
X162520285Y-67762476D01*
X162520285Y-67714857D01*
X162567904Y-67619619D01*
X162615523Y-67572000D01*
X162710761Y-67524380D01*
X162901238Y-67524380D01*
X162996476Y-67572000D01*
X163044095Y-67619619D01*
X163091714Y-67714857D01*
X163091714Y-67762476D01*
X163044095Y-67857714D01*
X162996476Y-67905333D01*
X162901238Y-67952952D01*
X162710761Y-67952952D01*
X162615523Y-68000571D01*
X162567904Y-68048190D01*
X162520285Y-68143428D01*
X162520285Y-68333904D01*
X162567904Y-68429142D01*
X162615523Y-68476761D01*
X162710761Y-68524380D01*
X162901238Y-68524380D01*
X162996476Y-68476761D01*
X163044095Y-68429142D01*
X163091714Y-68333904D01*
X163091714Y-68143428D01*
X163044095Y-68048190D01*
X162996476Y-68000571D01*
X162901238Y-67952952D01*
X134917380Y-92408333D02*
X135631666Y-92408333D01*
X135774523Y-92455952D01*
X135869761Y-92551190D01*
X135917380Y-92694047D01*
X135917380Y-92789285D01*
X135250714Y-91503571D02*
X135917380Y-91503571D01*
X134869761Y-91741666D02*
X135584047Y-91979761D01*
X135584047Y-91360714D01*
X160067666Y-62444380D02*
X160067666Y-63158666D01*
X160020047Y-63301523D01*
X159924809Y-63396761D01*
X159781952Y-63444380D01*
X159686714Y-63444380D01*
X161020047Y-62444380D02*
X160543857Y-62444380D01*
X160496238Y-62920571D01*
X160543857Y-62872952D01*
X160639095Y-62825333D01*
X160877190Y-62825333D01*
X160972428Y-62872952D01*
X161020047Y-62920571D01*
X161067666Y-63015809D01*
X161067666Y-63253904D01*
X161020047Y-63349142D01*
X160972428Y-63396761D01*
X160877190Y-63444380D01*
X160639095Y-63444380D01*
X160543857Y-63396761D01*
X160496238Y-63349142D01*
X109394666Y-114260380D02*
X109394666Y-114974666D01*
X109347047Y-115117523D01*
X109251809Y-115212761D01*
X109108952Y-115260380D01*
X109013714Y-115260380D01*
X110299428Y-114260380D02*
X110108952Y-114260380D01*
X110013714Y-114308000D01*
X109966095Y-114355619D01*
X109870857Y-114498476D01*
X109823238Y-114688952D01*
X109823238Y-115069904D01*
X109870857Y-115165142D01*
X109918476Y-115212761D01*
X110013714Y-115260380D01*
X110204190Y-115260380D01*
X110299428Y-115212761D01*
X110347047Y-115165142D01*
X110394666Y-115069904D01*
X110394666Y-114831809D01*
X110347047Y-114736571D01*
X110299428Y-114688952D01*
X110204190Y-114641333D01*
X110013714Y-114641333D01*
X109918476Y-114688952D01*
X109870857Y-114736571D01*
X109823238Y-114831809D01*
X112946380Y-119713333D02*
X113660666Y-119713333D01*
X113803523Y-119760952D01*
X113898761Y-119856190D01*
X113946380Y-119999047D01*
X113946380Y-120094285D01*
X112946380Y-119332380D02*
X112946380Y-118665714D01*
X113946380Y-119094285D01*
X115220761Y-91479619D02*
X115125523Y-91432000D01*
X115030285Y-91336761D01*
X114887428Y-91193904D01*
X114792190Y-91146285D01*
X114696952Y-91146285D01*
X114744571Y-91384380D02*
X114649333Y-91336761D01*
X114554095Y-91241523D01*
X114506476Y-91051047D01*
X114506476Y-90717714D01*
X114554095Y-90527238D01*
X114649333Y-90432000D01*
X114744571Y-90384380D01*
X114935047Y-90384380D01*
X115030285Y-90432000D01*
X115125523Y-90527238D01*
X115173142Y-90717714D01*
X115173142Y-91051047D01*
X115125523Y-91241523D01*
X115030285Y-91336761D01*
X114935047Y-91384380D01*
X114744571Y-91384380D01*
X115554095Y-90479619D02*
X115601714Y-90432000D01*
X115696952Y-90384380D01*
X115935047Y-90384380D01*
X116030285Y-90432000D01*
X116077904Y-90479619D01*
X116125523Y-90574857D01*
X116125523Y-90670095D01*
X116077904Y-90812952D01*
X115506476Y-91384380D01*
X116125523Y-91384380D01*
X114966761Y-85129619D02*
X114871523Y-85082000D01*
X114776285Y-84986761D01*
X114633428Y-84843904D01*
X114538190Y-84796285D01*
X114442952Y-84796285D01*
X114490571Y-85034380D02*
X114395333Y-84986761D01*
X114300095Y-84891523D01*
X114252476Y-84701047D01*
X114252476Y-84367714D01*
X114300095Y-84177238D01*
X114395333Y-84082000D01*
X114490571Y-84034380D01*
X114681047Y-84034380D01*
X114776285Y-84082000D01*
X114871523Y-84177238D01*
X114919142Y-84367714D01*
X114919142Y-84701047D01*
X114871523Y-84891523D01*
X114776285Y-84986761D01*
X114681047Y-85034380D01*
X114490571Y-85034380D01*
X115252476Y-84034380D02*
X115871523Y-84034380D01*
X115538190Y-84415333D01*
X115681047Y-84415333D01*
X115776285Y-84462952D01*
X115823904Y-84510571D01*
X115871523Y-84605809D01*
X115871523Y-84843904D01*
X115823904Y-84939142D01*
X115776285Y-84986761D01*
X115681047Y-85034380D01*
X115395333Y-85034380D01*
X115300095Y-84986761D01*
X115252476Y-84939142D01*
X172878761Y-68873619D02*
X172783523Y-68826000D01*
X172688285Y-68730761D01*
X172545428Y-68587904D01*
X172450190Y-68540285D01*
X172354952Y-68540285D01*
X172402571Y-68778380D02*
X172307333Y-68730761D01*
X172212095Y-68635523D01*
X172164476Y-68445047D01*
X172164476Y-68111714D01*
X172212095Y-67921238D01*
X172307333Y-67826000D01*
X172402571Y-67778380D01*
X172593047Y-67778380D01*
X172688285Y-67826000D01*
X172783523Y-67921238D01*
X172831142Y-68111714D01*
X172831142Y-68445047D01*
X172783523Y-68635523D01*
X172688285Y-68730761D01*
X172593047Y-68778380D01*
X172402571Y-68778380D01*
X173735904Y-67778380D02*
X173259714Y-67778380D01*
X173212095Y-68254571D01*
X173259714Y-68206952D01*
X173354952Y-68159333D01*
X173593047Y-68159333D01*
X173688285Y-68206952D01*
X173735904Y-68254571D01*
X173783523Y-68349809D01*
X173783523Y-68587904D01*
X173735904Y-68683142D01*
X173688285Y-68730761D01*
X173593047Y-68778380D01*
X173354952Y-68778380D01*
X173259714Y-68730761D01*
X173212095Y-68683142D01*
X174148761Y-75223619D02*
X174053523Y-75176000D01*
X173958285Y-75080761D01*
X173815428Y-74937904D01*
X173720190Y-74890285D01*
X173624952Y-74890285D01*
X173672571Y-75128380D02*
X173577333Y-75080761D01*
X173482095Y-74985523D01*
X173434476Y-74795047D01*
X173434476Y-74461714D01*
X173482095Y-74271238D01*
X173577333Y-74176000D01*
X173672571Y-74128380D01*
X173863047Y-74128380D01*
X173958285Y-74176000D01*
X174053523Y-74271238D01*
X174101142Y-74461714D01*
X174101142Y-74795047D01*
X174053523Y-74985523D01*
X173958285Y-75080761D01*
X173863047Y-75128380D01*
X173672571Y-75128380D01*
X174958285Y-74128380D02*
X174767809Y-74128380D01*
X174672571Y-74176000D01*
X174624952Y-74223619D01*
X174529714Y-74366476D01*
X174482095Y-74556952D01*
X174482095Y-74937904D01*
X174529714Y-75033142D01*
X174577333Y-75080761D01*
X174672571Y-75128380D01*
X174863047Y-75128380D01*
X174958285Y-75080761D01*
X175005904Y-75033142D01*
X175053523Y-74937904D01*
X175053523Y-74699809D01*
X175005904Y-74604571D01*
X174958285Y-74556952D01*
X174863047Y-74509333D01*
X174672571Y-74509333D01*
X174577333Y-74556952D01*
X174529714Y-74604571D01*
X174482095Y-74699809D01*
X152487333Y-88294380D02*
X152154000Y-87818190D01*
X151915904Y-88294380D02*
X151915904Y-87294380D01*
X152296857Y-87294380D01*
X152392095Y-87342000D01*
X152439714Y-87389619D01*
X152487333Y-87484857D01*
X152487333Y-87627714D01*
X152439714Y-87722952D01*
X152392095Y-87770571D01*
X152296857Y-87818190D01*
X151915904Y-87818190D01*
X152868285Y-87389619D02*
X152915904Y-87342000D01*
X153011142Y-87294380D01*
X153249238Y-87294380D01*
X153344476Y-87342000D01*
X153392095Y-87389619D01*
X153439714Y-87484857D01*
X153439714Y-87580095D01*
X153392095Y-87722952D01*
X152820666Y-88294380D01*
X153439714Y-88294380D01*
X124192380Y-87542666D02*
X123716190Y-87876000D01*
X124192380Y-88114095D02*
X123192380Y-88114095D01*
X123192380Y-87733142D01*
X123240000Y-87637904D01*
X123287619Y-87590285D01*
X123382857Y-87542666D01*
X123525714Y-87542666D01*
X123620952Y-87590285D01*
X123668571Y-87637904D01*
X123716190Y-87733142D01*
X123716190Y-88114095D01*
X123192380Y-87209333D02*
X123192380Y-86590285D01*
X123573333Y-86923619D01*
X123573333Y-86780761D01*
X123620952Y-86685523D01*
X123668571Y-86637904D01*
X123763809Y-86590285D01*
X124001904Y-86590285D01*
X124097142Y-86637904D01*
X124144761Y-86685523D01*
X124192380Y-86780761D01*
X124192380Y-87066476D01*
X124144761Y-87161714D01*
X124097142Y-87209333D01*
X124192380Y-92622666D02*
X123716190Y-92956000D01*
X124192380Y-93194095D02*
X123192380Y-93194095D01*
X123192380Y-92813142D01*
X123240000Y-92717904D01*
X123287619Y-92670285D01*
X123382857Y-92622666D01*
X123525714Y-92622666D01*
X123620952Y-92670285D01*
X123668571Y-92717904D01*
X123716190Y-92813142D01*
X123716190Y-93194095D01*
X123525714Y-91765523D02*
X124192380Y-91765523D01*
X123144761Y-92003619D02*
X123859047Y-92241714D01*
X123859047Y-91622666D01*
X115657333Y-105100380D02*
X115324000Y-104624190D01*
X115085904Y-105100380D02*
X115085904Y-104100380D01*
X115466857Y-104100380D01*
X115562095Y-104148000D01*
X115609714Y-104195619D01*
X115657333Y-104290857D01*
X115657333Y-104433714D01*
X115609714Y-104528952D01*
X115562095Y-104576571D01*
X115466857Y-104624190D01*
X115085904Y-104624190D01*
X116562095Y-104100380D02*
X116085904Y-104100380D01*
X116038285Y-104576571D01*
X116085904Y-104528952D01*
X116181142Y-104481333D01*
X116419238Y-104481333D01*
X116514476Y-104528952D01*
X116562095Y-104576571D01*
X116609714Y-104671809D01*
X116609714Y-104909904D01*
X116562095Y-105005142D01*
X116514476Y-105052761D01*
X116419238Y-105100380D01*
X116181142Y-105100380D01*
X116085904Y-105052761D01*
X116038285Y-105005142D01*
X115657333Y-93924380D02*
X115324000Y-93448190D01*
X115085904Y-93924380D02*
X115085904Y-92924380D01*
X115466857Y-92924380D01*
X115562095Y-92972000D01*
X115609714Y-93019619D01*
X115657333Y-93114857D01*
X115657333Y-93257714D01*
X115609714Y-93352952D01*
X115562095Y-93400571D01*
X115466857Y-93448190D01*
X115085904Y-93448190D01*
X116514476Y-92924380D02*
X116324000Y-92924380D01*
X116228761Y-92972000D01*
X116181142Y-93019619D01*
X116085904Y-93162476D01*
X116038285Y-93352952D01*
X116038285Y-93733904D01*
X116085904Y-93829142D01*
X116133523Y-93876761D01*
X116228761Y-93924380D01*
X116419238Y-93924380D01*
X116514476Y-93876761D01*
X116562095Y-93829142D01*
X116609714Y-93733904D01*
X116609714Y-93495809D01*
X116562095Y-93400571D01*
X116514476Y-93352952D01*
X116419238Y-93305333D01*
X116228761Y-93305333D01*
X116133523Y-93352952D01*
X116085904Y-93400571D01*
X116038285Y-93495809D01*
X118197333Y-100274380D02*
X117864000Y-99798190D01*
X117625904Y-100274380D02*
X117625904Y-99274380D01*
X118006857Y-99274380D01*
X118102095Y-99322000D01*
X118149714Y-99369619D01*
X118197333Y-99464857D01*
X118197333Y-99607714D01*
X118149714Y-99702952D01*
X118102095Y-99750571D01*
X118006857Y-99798190D01*
X117625904Y-99798190D01*
X118530666Y-99274380D02*
X119197333Y-99274380D01*
X118768761Y-100274380D01*
X112609333Y-90077880D02*
X112276000Y-89601690D01*
X112037904Y-90077880D02*
X112037904Y-89077880D01*
X112418857Y-89077880D01*
X112514095Y-89125500D01*
X112561714Y-89173119D01*
X112609333Y-89268357D01*
X112609333Y-89411214D01*
X112561714Y-89506452D01*
X112514095Y-89554071D01*
X112418857Y-89601690D01*
X112037904Y-89601690D01*
X113180761Y-89506452D02*
X113085523Y-89458833D01*
X113037904Y-89411214D01*
X112990285Y-89315976D01*
X112990285Y-89268357D01*
X113037904Y-89173119D01*
X113085523Y-89125500D01*
X113180761Y-89077880D01*
X113371238Y-89077880D01*
X113466476Y-89125500D01*
X113514095Y-89173119D01*
X113561714Y-89268357D01*
X113561714Y-89315976D01*
X113514095Y-89411214D01*
X113466476Y-89458833D01*
X113371238Y-89506452D01*
X113180761Y-89506452D01*
X113085523Y-89554071D01*
X113037904Y-89601690D01*
X112990285Y-89696928D01*
X112990285Y-89887404D01*
X113037904Y-89982642D01*
X113085523Y-90030261D01*
X113180761Y-90077880D01*
X113371238Y-90077880D01*
X113466476Y-90030261D01*
X113514095Y-89982642D01*
X113561714Y-89887404D01*
X113561714Y-89696928D01*
X113514095Y-89601690D01*
X113466476Y-89554071D01*
X113371238Y-89506452D01*
X169759333Y-84399380D02*
X169426000Y-83923190D01*
X169187904Y-84399380D02*
X169187904Y-83399380D01*
X169568857Y-83399380D01*
X169664095Y-83447000D01*
X169711714Y-83494619D01*
X169759333Y-83589857D01*
X169759333Y-83732714D01*
X169711714Y-83827952D01*
X169664095Y-83875571D01*
X169568857Y-83923190D01*
X169187904Y-83923190D01*
X170235523Y-84399380D02*
X170426000Y-84399380D01*
X170521238Y-84351761D01*
X170568857Y-84304142D01*
X170664095Y-84161285D01*
X170711714Y-83970809D01*
X170711714Y-83589857D01*
X170664095Y-83494619D01*
X170616476Y-83447000D01*
X170521238Y-83399380D01*
X170330761Y-83399380D01*
X170235523Y-83447000D01*
X170187904Y-83494619D01*
X170140285Y-83589857D01*
X170140285Y-83827952D01*
X170187904Y-83923190D01*
X170235523Y-83970809D01*
X170330761Y-84018428D01*
X170521238Y-84018428D01*
X170616476Y-83970809D01*
X170664095Y-83923190D01*
X170711714Y-83827952D01*
X164457142Y-68524380D02*
X164123809Y-68048190D01*
X163885714Y-68524380D02*
X163885714Y-67524380D01*
X164266666Y-67524380D01*
X164361904Y-67572000D01*
X164409523Y-67619619D01*
X164457142Y-67714857D01*
X164457142Y-67857714D01*
X164409523Y-67952952D01*
X164361904Y-68000571D01*
X164266666Y-68048190D01*
X163885714Y-68048190D01*
X165409523Y-68524380D02*
X164838095Y-68524380D01*
X165123809Y-68524380D02*
X165123809Y-67524380D01*
X165028571Y-67667238D01*
X164933333Y-67762476D01*
X164838095Y-67810095D01*
X166028571Y-67524380D02*
X166123809Y-67524380D01*
X166219047Y-67572000D01*
X166266666Y-67619619D01*
X166314285Y-67714857D01*
X166361904Y-67905333D01*
X166361904Y-68143428D01*
X166314285Y-68333904D01*
X166266666Y-68429142D01*
X166219047Y-68476761D01*
X166123809Y-68524380D01*
X166028571Y-68524380D01*
X165933333Y-68476761D01*
X165885714Y-68429142D01*
X165838095Y-68333904D01*
X165790476Y-68143428D01*
X165790476Y-67905333D01*
X165838095Y-67714857D01*
X165885714Y-67619619D01*
X165933333Y-67572000D01*
X166028571Y-67524380D01*
X169283142Y-79192380D02*
X168949809Y-78716190D01*
X168711714Y-79192380D02*
X168711714Y-78192380D01*
X169092666Y-78192380D01*
X169187904Y-78240000D01*
X169235523Y-78287619D01*
X169283142Y-78382857D01*
X169283142Y-78525714D01*
X169235523Y-78620952D01*
X169187904Y-78668571D01*
X169092666Y-78716190D01*
X168711714Y-78716190D01*
X170235523Y-79192380D02*
X169664095Y-79192380D01*
X169949809Y-79192380D02*
X169949809Y-78192380D01*
X169854571Y-78335238D01*
X169759333Y-78430476D01*
X169664095Y-78478095D01*
X171187904Y-79192380D02*
X170616476Y-79192380D01*
X170902190Y-79192380D02*
X170902190Y-78192380D01*
X170806952Y-78335238D01*
X170711714Y-78430476D01*
X170616476Y-78478095D01*
X175204380Y-67190857D02*
X174728190Y-67524190D01*
X175204380Y-67762285D02*
X174204380Y-67762285D01*
X174204380Y-67381333D01*
X174252000Y-67286095D01*
X174299619Y-67238476D01*
X174394857Y-67190857D01*
X174537714Y-67190857D01*
X174632952Y-67238476D01*
X174680571Y-67286095D01*
X174728190Y-67381333D01*
X174728190Y-67762285D01*
X175204380Y-66238476D02*
X175204380Y-66809904D01*
X175204380Y-66524190D02*
X174204380Y-66524190D01*
X174347238Y-66619428D01*
X174442476Y-66714666D01*
X174490095Y-66809904D01*
X174299619Y-65857523D02*
X174252000Y-65809904D01*
X174204380Y-65714666D01*
X174204380Y-65476571D01*
X174252000Y-65381333D01*
X174299619Y-65333714D01*
X174394857Y-65286095D01*
X174490095Y-65286095D01*
X174632952Y-65333714D01*
X175204380Y-65905142D01*
X175204380Y-65286095D01*
X167505142Y-68524380D02*
X167171809Y-68048190D01*
X166933714Y-68524380D02*
X166933714Y-67524380D01*
X167314666Y-67524380D01*
X167409904Y-67572000D01*
X167457523Y-67619619D01*
X167505142Y-67714857D01*
X167505142Y-67857714D01*
X167457523Y-67952952D01*
X167409904Y-68000571D01*
X167314666Y-68048190D01*
X166933714Y-68048190D01*
X168457523Y-68524380D02*
X167886095Y-68524380D01*
X168171809Y-68524380D02*
X168171809Y-67524380D01*
X168076571Y-67667238D01*
X167981333Y-67762476D01*
X167886095Y-67810095D01*
X168790857Y-67524380D02*
X169409904Y-67524380D01*
X169076571Y-67905333D01*
X169219428Y-67905333D01*
X169314666Y-67952952D01*
X169362285Y-68000571D01*
X169409904Y-68095809D01*
X169409904Y-68333904D01*
X169362285Y-68429142D01*
X169314666Y-68476761D01*
X169219428Y-68524380D01*
X168933714Y-68524380D01*
X168838476Y-68476761D01*
X168790857Y-68429142D01*
D10*
X124575333Y-85534190D02*
X124861047Y-85534190D01*
X124718190Y-86034190D02*
X124718190Y-85534190D01*
X125027714Y-86034190D02*
X125027714Y-85534190D01*
X125218190Y-85534190D01*
X125265809Y-85558000D01*
X125289619Y-85581809D01*
X125313428Y-85629428D01*
X125313428Y-85700857D01*
X125289619Y-85748476D01*
X125265809Y-85772285D01*
X125218190Y-85796095D01*
X125027714Y-85796095D01*
X125408666Y-86081809D02*
X125789619Y-86081809D01*
X125908666Y-85534190D02*
X125908666Y-85938952D01*
X125932476Y-85986571D01*
X125956285Y-86010380D01*
X126003904Y-86034190D01*
X126099142Y-86034190D01*
X126146761Y-86010380D01*
X126170571Y-85986571D01*
X126194380Y-85938952D01*
X126194380Y-85534190D01*
X126432476Y-85843714D02*
X126813428Y-85843714D01*
X127218190Y-85772285D02*
X127289619Y-85796095D01*
X127313428Y-85819904D01*
X127337238Y-85867523D01*
X127337238Y-85938952D01*
X127313428Y-85986571D01*
X127289619Y-86010380D01*
X127242000Y-86034190D01*
X127051523Y-86034190D01*
X127051523Y-85534190D01*
X127218190Y-85534190D01*
X127265809Y-85558000D01*
X127289619Y-85581809D01*
X127313428Y-85629428D01*
X127313428Y-85677047D01*
X127289619Y-85724666D01*
X127265809Y-85748476D01*
X127218190Y-85772285D01*
X127051523Y-85772285D01*
X127765809Y-86034190D02*
X127765809Y-85772285D01*
X127742000Y-85724666D01*
X127694380Y-85700857D01*
X127599142Y-85700857D01*
X127551523Y-85724666D01*
X127765809Y-86010380D02*
X127718190Y-86034190D01*
X127599142Y-86034190D01*
X127551523Y-86010380D01*
X127527714Y-85962761D01*
X127527714Y-85915142D01*
X127551523Y-85867523D01*
X127599142Y-85843714D01*
X127718190Y-85843714D01*
X127765809Y-85819904D01*
X127932476Y-85700857D02*
X128122952Y-85700857D01*
X128003904Y-85534190D02*
X128003904Y-85962761D01*
X128027714Y-86010380D01*
X128075333Y-86034190D01*
X128122952Y-86034190D01*
X128218190Y-85700857D02*
X128408666Y-85700857D01*
X128289619Y-85534190D02*
X128289619Y-85962761D01*
X128313428Y-86010380D01*
X128361047Y-86034190D01*
X128408666Y-86034190D01*
X124777714Y-93706190D02*
X125063428Y-93706190D01*
X124920571Y-94206190D02*
X124920571Y-93706190D01*
X125230095Y-94206190D02*
X125230095Y-93706190D01*
X125420571Y-93706190D01*
X125468190Y-93730000D01*
X125492000Y-93753809D01*
X125515809Y-93801428D01*
X125515809Y-93872857D01*
X125492000Y-93920476D01*
X125468190Y-93944285D01*
X125420571Y-93968095D01*
X125230095Y-93968095D01*
X125611047Y-94253809D02*
X125992000Y-94253809D01*
X126111047Y-93706190D02*
X126111047Y-94110952D01*
X126134857Y-94158571D01*
X126158666Y-94182380D01*
X126206285Y-94206190D01*
X126301523Y-94206190D01*
X126349142Y-94182380D01*
X126372952Y-94158571D01*
X126396761Y-94110952D01*
X126396761Y-93706190D01*
X126634857Y-94015714D02*
X127015809Y-94015714D01*
X127444380Y-94182380D02*
X127396761Y-94206190D01*
X127301523Y-94206190D01*
X127253904Y-94182380D01*
X127230095Y-94134761D01*
X127230095Y-93944285D01*
X127253904Y-93896666D01*
X127301523Y-93872857D01*
X127396761Y-93872857D01*
X127444380Y-93896666D01*
X127468190Y-93944285D01*
X127468190Y-93991904D01*
X127230095Y-94039523D01*
X127634857Y-94206190D02*
X127896761Y-93872857D01*
X127634857Y-93872857D02*
X127896761Y-94206190D01*
X128015809Y-93872857D02*
X128206285Y-93872857D01*
X128087238Y-93706190D02*
X128087238Y-94134761D01*
X128111047Y-94182380D01*
X128158666Y-94206190D01*
X128206285Y-94206190D01*
X165274761Y-83375190D02*
X165441428Y-83875190D01*
X165608095Y-83375190D01*
X166060476Y-83827571D02*
X166036666Y-83851380D01*
X165965238Y-83875190D01*
X165917619Y-83875190D01*
X165846190Y-83851380D01*
X165798571Y-83803761D01*
X165774761Y-83756142D01*
X165750952Y-83660904D01*
X165750952Y-83589476D01*
X165774761Y-83494238D01*
X165798571Y-83446619D01*
X165846190Y-83399000D01*
X165917619Y-83375190D01*
X165965238Y-83375190D01*
X166036666Y-83399000D01*
X166060476Y-83422809D01*
X166560476Y-83827571D02*
X166536666Y-83851380D01*
X166465238Y-83875190D01*
X166417619Y-83875190D01*
X166346190Y-83851380D01*
X166298571Y-83803761D01*
X166274761Y-83756142D01*
X166250952Y-83660904D01*
X166250952Y-83589476D01*
X166274761Y-83494238D01*
X166298571Y-83446619D01*
X166346190Y-83399000D01*
X166417619Y-83375190D01*
X166465238Y-83375190D01*
X166536666Y-83399000D01*
X166560476Y-83422809D01*
X166655714Y-83922809D02*
X167036666Y-83922809D01*
X167131904Y-83422809D02*
X167155714Y-83399000D01*
X167203333Y-83375190D01*
X167322380Y-83375190D01*
X167370000Y-83399000D01*
X167393809Y-83422809D01*
X167417619Y-83470428D01*
X167417619Y-83518047D01*
X167393809Y-83589476D01*
X167108095Y-83875190D01*
X167417619Y-83875190D01*
D16*
X127682666Y-80732380D02*
X127682666Y-81446666D01*
X127635047Y-81589523D01*
X127539809Y-81684761D01*
X127396952Y-81732380D01*
X127301714Y-81732380D01*
X128063619Y-80732380D02*
X128682666Y-80732380D01*
X128349333Y-81113333D01*
X128492190Y-81113333D01*
X128587428Y-81160952D01*
X128635047Y-81208571D01*
X128682666Y-81303809D01*
X128682666Y-81541904D01*
X128635047Y-81637142D01*
X128587428Y-81684761D01*
X128492190Y-81732380D01*
X128206476Y-81732380D01*
X128111238Y-81684761D01*
X128063619Y-81637142D01*
X173402666Y-77640380D02*
X173402666Y-78354666D01*
X173355047Y-78497523D01*
X173259809Y-78592761D01*
X173116952Y-78640380D01*
X173021714Y-78640380D01*
X174021714Y-78068952D02*
X173926476Y-78021333D01*
X173878857Y-77973714D01*
X173831238Y-77878476D01*
X173831238Y-77830857D01*
X173878857Y-77735619D01*
X173926476Y-77688000D01*
X174021714Y-77640380D01*
X174212190Y-77640380D01*
X174307428Y-77688000D01*
X174355047Y-77735619D01*
X174402666Y-77830857D01*
X174402666Y-77878476D01*
X174355047Y-77973714D01*
X174307428Y-78021333D01*
X174212190Y-78068952D01*
X174021714Y-78068952D01*
X173926476Y-78116571D01*
X173878857Y-78164190D01*
X173831238Y-78259428D01*
X173831238Y-78449904D01*
X173878857Y-78545142D01*
X173926476Y-78592761D01*
X174021714Y-78640380D01*
X174212190Y-78640380D01*
X174307428Y-78592761D01*
X174355047Y-78545142D01*
X174402666Y-78449904D01*
X174402666Y-78259428D01*
X174355047Y-78164190D01*
X174307428Y-78116571D01*
X174212190Y-78068952D01*
X103148571Y-73175714D02*
X103196190Y-73032857D01*
X103243809Y-72985238D01*
X103339047Y-72937619D01*
X103481904Y-72937619D01*
X103577142Y-72985238D01*
X103624761Y-73032857D01*
X103672380Y-73128095D01*
X103672380Y-73509047D01*
X102672380Y-73509047D01*
X102672380Y-73175714D01*
X102720000Y-73080476D01*
X102767619Y-73032857D01*
X102862857Y-72985238D01*
X102958095Y-72985238D01*
X103053333Y-73032857D01*
X103100952Y-73080476D01*
X103148571Y-73175714D01*
X103148571Y-73509047D01*
X102672380Y-72651904D02*
X102672380Y-72080476D01*
X103672380Y-72366190D02*
X102672380Y-72366190D01*
X103672380Y-71223333D02*
X103672380Y-71794761D01*
X103672380Y-71509047D02*
X102672380Y-71509047D01*
X102815238Y-71604285D01*
X102910476Y-71699523D01*
X102958095Y-71794761D01*
X127595333Y-110847142D02*
X127547714Y-110894761D01*
X127404857Y-110942380D01*
X127309619Y-110942380D01*
X127166761Y-110894761D01*
X127071523Y-110799523D01*
X127023904Y-110704285D01*
X126976285Y-110513809D01*
X126976285Y-110370952D01*
X127023904Y-110180476D01*
X127071523Y-110085238D01*
X127166761Y-109990000D01*
X127309619Y-109942380D01*
X127404857Y-109942380D01*
X127547714Y-109990000D01*
X127595333Y-110037619D01*
X128071523Y-110942380D02*
X128262000Y-110942380D01*
X128357238Y-110894761D01*
X128404857Y-110847142D01*
X128500095Y-110704285D01*
X128547714Y-110513809D01*
X128547714Y-110132857D01*
X128500095Y-110037619D01*
X128452476Y-109990000D01*
X128357238Y-109942380D01*
X128166761Y-109942380D01*
X128071523Y-109990000D01*
X128023904Y-110037619D01*
X127976285Y-110132857D01*
X127976285Y-110370952D01*
X128023904Y-110466190D01*
X128071523Y-110513809D01*
X128166761Y-110561428D01*
X128357238Y-110561428D01*
X128452476Y-110513809D01*
X128500095Y-110466190D01*
X128547714Y-110370952D01*
X126611142Y-113387142D02*
X126563523Y-113434761D01*
X126420666Y-113482380D01*
X126325428Y-113482380D01*
X126182571Y-113434761D01*
X126087333Y-113339523D01*
X126039714Y-113244285D01*
X125992095Y-113053809D01*
X125992095Y-112910952D01*
X126039714Y-112720476D01*
X126087333Y-112625238D01*
X126182571Y-112530000D01*
X126325428Y-112482380D01*
X126420666Y-112482380D01*
X126563523Y-112530000D01*
X126611142Y-112577619D01*
X127563523Y-113482380D02*
X126992095Y-113482380D01*
X127277809Y-113482380D02*
X127277809Y-112482380D01*
X127182571Y-112625238D01*
X127087333Y-112720476D01*
X126992095Y-112768095D01*
X128182571Y-112482380D02*
X128277809Y-112482380D01*
X128373047Y-112530000D01*
X128420666Y-112577619D01*
X128468285Y-112672857D01*
X128515904Y-112863333D01*
X128515904Y-113101428D01*
X128468285Y-113291904D01*
X128420666Y-113387142D01*
X128373047Y-113434761D01*
X128277809Y-113482380D01*
X128182571Y-113482380D01*
X128087333Y-113434761D01*
X128039714Y-113387142D01*
X127992095Y-113291904D01*
X127944476Y-113101428D01*
X127944476Y-112863333D01*
X127992095Y-112672857D01*
X128039714Y-112577619D01*
X128087333Y-112530000D01*
X128182571Y-112482380D01*
X126611142Y-108402380D02*
X126277809Y-107926190D01*
X126039714Y-108402380D02*
X126039714Y-107402380D01*
X126420666Y-107402380D01*
X126515904Y-107450000D01*
X126563523Y-107497619D01*
X126611142Y-107592857D01*
X126611142Y-107735714D01*
X126563523Y-107830952D01*
X126515904Y-107878571D01*
X126420666Y-107926190D01*
X126039714Y-107926190D01*
X127563523Y-108402380D02*
X126992095Y-108402380D01*
X127277809Y-108402380D02*
X127277809Y-107402380D01*
X127182571Y-107545238D01*
X127087333Y-107640476D01*
X126992095Y-107688095D01*
X128420666Y-107735714D02*
X128420666Y-108402380D01*
X128182571Y-107354761D02*
X127944476Y-108069047D01*
X128563523Y-108069047D01*
X126611142Y-116022380D02*
X126277809Y-115546190D01*
X126039714Y-116022380D02*
X126039714Y-115022380D01*
X126420666Y-115022380D01*
X126515904Y-115070000D01*
X126563523Y-115117619D01*
X126611142Y-115212857D01*
X126611142Y-115355714D01*
X126563523Y-115450952D01*
X126515904Y-115498571D01*
X126420666Y-115546190D01*
X126039714Y-115546190D01*
X127563523Y-116022380D02*
X126992095Y-116022380D01*
X127277809Y-116022380D02*
X127277809Y-115022380D01*
X127182571Y-115165238D01*
X127087333Y-115260476D01*
X126992095Y-115308095D01*
X128468285Y-115022380D02*
X127992095Y-115022380D01*
X127944476Y-115498571D01*
X127992095Y-115450952D01*
X128087333Y-115403333D01*
X128325428Y-115403333D01*
X128420666Y-115450952D01*
X128468285Y-115498571D01*
X128515904Y-115593809D01*
X128515904Y-115831904D01*
X128468285Y-115927142D01*
X128420666Y-115974761D01*
X128325428Y-116022380D01*
X128087333Y-116022380D01*
X127992095Y-115974761D01*
X127944476Y-115927142D01*
X137356666Y-106448761D02*
X137499523Y-106496380D01*
X137737619Y-106496380D01*
X137832857Y-106448761D01*
X137880476Y-106401142D01*
X137928095Y-106305904D01*
X137928095Y-106210666D01*
X137880476Y-106115428D01*
X137832857Y-106067809D01*
X137737619Y-106020190D01*
X137547142Y-105972571D01*
X137451904Y-105924952D01*
X137404285Y-105877333D01*
X137356666Y-105782095D01*
X137356666Y-105686857D01*
X137404285Y-105591619D01*
X137451904Y-105544000D01*
X137547142Y-105496380D01*
X137785238Y-105496380D01*
X137928095Y-105544000D01*
X138261428Y-105496380D02*
X138499523Y-106496380D01*
X138690000Y-105782095D01*
X138880476Y-106496380D01*
X139118571Y-105496380D01*
X140023333Y-106496380D02*
X139451904Y-106496380D01*
X139737619Y-106496380D02*
X139737619Y-105496380D01*
X139642380Y-105639238D01*
X139547142Y-105734476D01*
X139451904Y-105782095D01*
M02*
