M48
; DRILL file {KiCad 5.1.5+dfsg1-2build2} date Sa 17 Okt 2020 13:38:46 CEST
; FORMAT={-:-/ absolute / inch / decimal}
; #@! TF.CreationDate,2020-10-17T13:38:46+02:00
; #@! TF.GenerationSoftware,Kicad,Pcbnew,5.1.5+dfsg1-2build2
; #@! TF.FileFunction,Plated,1,2,PTH
FMAT,2
INCH
T1C0.0157
T2C0.0177
T3C0.0256
T4C0.0394
T5C0.0551
T6C0.0591
%
G90
G05
T1
X4.4543Y-3.1357
X4.47Y-2.98
X4.5Y-2.55
X4.5Y-3.18
X4.5Y-3.7425
X4.5Y-4.2175
X4.7Y-3.36
X4.85Y-2.52
X4.89Y-3.86
X4.9Y-3.03
X5.02Y-2.33
X5.02Y-2.82
X5.02Y-2.98
X5.0338Y-3.2863
X5.05Y-4.25
X5.05Y-4.55
X5.07Y-3.24
X5.07Y-3.83
X5.1Y-3.88
X5.1Y-4.635
X5.13Y-2.465
X5.14Y-4.16
X5.15Y-2.8
X5.17Y-2.93
X5.18Y-4.44
X5.2Y-2.97
X5.23Y-4.03
X5.235Y-3.075
X5.24Y-3.125
X5.24Y-3.955
X5.28Y-2.81
X5.28Y-3.22
X5.28Y-3.92
X5.2875Y-2.6875
X5.29Y-2.87
X5.3085Y-3.28
X5.32Y-4.76
X5.3203Y-2.73
X5.3371Y-3.33
X5.45Y-3.43
X5.5Y-3.5
X5.5373Y-3.5124
X5.55Y-3.55
X5.9909Y-3.6825
X6.0067Y-3.4333
X6.0067Y-3.4333
X6.09Y-2.62
X6.12Y-3.37
X6.1237Y-2.8501
X6.13Y-2.69
X6.15Y-2.99
X6.15Y-3.075
X6.15Y-4.755
X6.1523Y-2.8177
X6.1808Y-2.85
X6.2Y-2.66
X6.2Y-2.92
X6.2Y-3.24
X6.25Y-3.21
X6.25Y-4.55
X6.26Y-2.6615
X6.26Y-2.85
X6.3Y-3.175
X6.3Y-4.755
X6.31Y-2.73
X6.325Y-2.4625
X6.33Y-2.87
X6.33Y-2.96
X6.34Y-3.31
X6.36Y-3.63
X6.4Y-3.125
X6.4Y-4.755
X6.45Y-3.09
X6.45Y-3.49
X6.46Y-2.46
X6.475Y-4.755
X6.56Y-2.8
X6.59Y-3.83
X6.6Y-3.3
X6.6Y-3.0825
X6.62Y-2.79
X6.6475Y-2.9625
X6.67Y-3.87
X6.6822Y-3.221
X6.71Y-2.735
X6.71Y-3.63
X6.7112Y-3.9438
X6.7112Y-3.9438
X6.7125Y-2.9375
X6.73Y-4.27
X6.7504Y-3.1111
X6.7725Y-3.0375
X6.78Y-3.18
X6.83Y-2.69
X6.83Y-2.78
X6.83Y-2.94
X6.88Y-2.78
X6.88Y-2.92
X6.88Y-3.0775
T3
X5.4Y-3.6
X5.4Y-3.65
X5.45Y-3.6
X5.45Y-3.65
X5.5Y-3.6
X5.5Y-3.65
X5.55Y-3.6
X5.55Y-3.65
X5.6Y-3.6
X5.6Y-3.65
T4
X4.9825Y-3.645
X4.8375Y-4.05
X5.35Y-4.36
X5.35Y-4.4584
X5.35Y-4.5569
X5.9209Y-4.36
X5.9209Y-4.5569
X4.98Y-3.8225
X4.9575Y-4.715
X4.6475Y-4.32
X4.7475Y-4.32
X6.82Y-3.68
X4.44Y-2.4
X4.54Y-2.4
X4.64Y-2.4
X4.54Y-3.24
X4.64Y-3.24
X4.74Y-3.24
X4.84Y-3.24
X4.94Y-3.24
X4.98Y-3.47
X6.84Y-3.17
X6.84Y-3.27
X6.84Y-3.37
X6.84Y-3.47
X6.57Y-3.385
X6.375Y-2.6
X6.475Y-2.6
X6.575Y-2.6
X6.675Y-2.6
X6.775Y-2.6
X4.56Y-4.7
X4.66Y-4.7
X4.76Y-4.7
T5
X4.3Y-2.75
X4.3Y-2.95
X4.28Y-3.72
X4.28Y-3.92
X4.28Y-4.12
X4.28Y-4.32
T2
G00X4.217Y-3.2043
M15
G01X4.2485Y-3.2043
M16
G05
G00X4.2485Y-3.4857
M15
G01X4.217Y-3.4857
M16
G05
T6
G00X5.6197Y-4.238
M15
G01X5.6709Y-4.238
M16
G05
G00X5.6197Y-4.6789
M15
G01X5.6709Y-4.6789
M16
G05
T0
M30
