G04 #@! TF.GenerationSoftware,KiCad,Pcbnew,5.1.5+dfsg1-2build2*
G04 #@! TF.CreationDate,2020-10-17T13:38:53+02:00*
G04 #@! TF.ProjectId,Esp32LoraBoard,45737033-324c-46f7-9261-426f6172642e,1.1*
G04 #@! TF.SameCoordinates,Original*
G04 #@! TF.FileFunction,Soldermask,Bot*
G04 #@! TF.FilePolarity,Negative*
%FSLAX46Y46*%
G04 Gerber Fmt 4.6, Leading zero omitted, Abs format (unit mm)*
G04 Created by KiCad (PCBNEW 5.1.5+dfsg1-2build2) date 2020-10-17 13:38:53*
%MOMM*%
%LPD*%
G04 APERTURE LIST*
%ADD10C,0.100000*%
G04 APERTURE END LIST*
D10*
G36*
X126821500Y-120662000D02*
G01*
X125019500Y-120662000D01*
X125019500Y-118860000D01*
X126821500Y-118860000D01*
X126821500Y-120662000D01*
G37*
G36*
X121017512Y-118483927D02*
G01*
X121166812Y-118513624D01*
X121330784Y-118581544D01*
X121478354Y-118680147D01*
X121603853Y-118805646D01*
X121702456Y-118953216D01*
X121770376Y-119117188D01*
X121805000Y-119291259D01*
X121805000Y-119468741D01*
X121770376Y-119642812D01*
X121702456Y-119806784D01*
X121603853Y-119954354D01*
X121478354Y-120079853D01*
X121330784Y-120178456D01*
X121166812Y-120246376D01*
X121017512Y-120276073D01*
X120992742Y-120281000D01*
X120815258Y-120281000D01*
X120790488Y-120276073D01*
X120641188Y-120246376D01*
X120477216Y-120178456D01*
X120329646Y-120079853D01*
X120204147Y-119954354D01*
X120105544Y-119806784D01*
X120037624Y-119642812D01*
X120003000Y-119468741D01*
X120003000Y-119291259D01*
X120037624Y-119117188D01*
X120105544Y-118953216D01*
X120204147Y-118805646D01*
X120329646Y-118680147D01*
X120477216Y-118581544D01*
X120641188Y-118513624D01*
X120790488Y-118483927D01*
X120815258Y-118479000D01*
X120992742Y-118479000D01*
X121017512Y-118483927D01*
G37*
G36*
X116725000Y-120281000D02*
G01*
X114923000Y-120281000D01*
X114923000Y-118479000D01*
X116725000Y-118479000D01*
X116725000Y-120281000D01*
G37*
G36*
X118477512Y-118483927D02*
G01*
X118626812Y-118513624D01*
X118790784Y-118581544D01*
X118938354Y-118680147D01*
X119063853Y-118805646D01*
X119162456Y-118953216D01*
X119230376Y-119117188D01*
X119265000Y-119291259D01*
X119265000Y-119468741D01*
X119230376Y-119642812D01*
X119162456Y-119806784D01*
X119063853Y-119954354D01*
X118938354Y-120079853D01*
X118790784Y-120178456D01*
X118626812Y-120246376D01*
X118477512Y-120276073D01*
X118452742Y-120281000D01*
X118275258Y-120281000D01*
X118250488Y-120276073D01*
X118101188Y-120246376D01*
X117937216Y-120178456D01*
X117789646Y-120079853D01*
X117664147Y-119954354D01*
X117565544Y-119806784D01*
X117497624Y-119642812D01*
X117463000Y-119468741D01*
X117463000Y-119291259D01*
X117497624Y-119117188D01*
X117565544Y-118953216D01*
X117664147Y-118805646D01*
X117789646Y-118680147D01*
X117937216Y-118581544D01*
X118101188Y-118513624D01*
X118250488Y-118483927D01*
X118275258Y-118479000D01*
X118452742Y-118479000D01*
X118477512Y-118483927D01*
G37*
G36*
X145041000Y-119895000D02*
G01*
X141739000Y-119895000D01*
X141739000Y-117793000D01*
X145041000Y-117793000D01*
X145041000Y-119895000D01*
G37*
G36*
X136196564Y-114733389D02*
G01*
X136387833Y-114812615D01*
X136387835Y-114812616D01*
X136559973Y-114927635D01*
X136706365Y-115074027D01*
X136821385Y-115246167D01*
X136900611Y-115437436D01*
X136941000Y-115640484D01*
X136941000Y-115847516D01*
X136900611Y-116050564D01*
X136821385Y-116241833D01*
X136821384Y-116241835D01*
X136706365Y-116413973D01*
X136559973Y-116560365D01*
X136387835Y-116675384D01*
X136387834Y-116675385D01*
X136387833Y-116675385D01*
X136196564Y-116754611D01*
X135993516Y-116795000D01*
X135786484Y-116795000D01*
X135583436Y-116754611D01*
X135392167Y-116675385D01*
X135392166Y-116675385D01*
X135392165Y-116675384D01*
X135220027Y-116560365D01*
X135073635Y-116413973D01*
X134958616Y-116241835D01*
X134958615Y-116241833D01*
X134879389Y-116050564D01*
X134839000Y-115847516D01*
X134839000Y-115640484D01*
X134879389Y-115437436D01*
X134958615Y-115246167D01*
X135073635Y-115074027D01*
X135220027Y-114927635D01*
X135392165Y-114812616D01*
X135392167Y-114812615D01*
X135583436Y-114733389D01*
X135786484Y-114693000D01*
X135993516Y-114693000D01*
X136196564Y-114733389D01*
G37*
G36*
X150696564Y-114733389D02*
G01*
X150887833Y-114812615D01*
X150887835Y-114812616D01*
X151059973Y-114927635D01*
X151206365Y-115074027D01*
X151321385Y-115246167D01*
X151400611Y-115437436D01*
X151441000Y-115640484D01*
X151441000Y-115847516D01*
X151400611Y-116050564D01*
X151321385Y-116241833D01*
X151321384Y-116241835D01*
X151206365Y-116413973D01*
X151059973Y-116560365D01*
X150887835Y-116675384D01*
X150887834Y-116675385D01*
X150887833Y-116675385D01*
X150696564Y-116754611D01*
X150493516Y-116795000D01*
X150286484Y-116795000D01*
X150083436Y-116754611D01*
X149892167Y-116675385D01*
X149892166Y-116675385D01*
X149892165Y-116675384D01*
X149720027Y-116560365D01*
X149573635Y-116413973D01*
X149458616Y-116241835D01*
X149458615Y-116241833D01*
X149379389Y-116050564D01*
X149339000Y-115847516D01*
X149339000Y-115640484D01*
X149379389Y-115437436D01*
X149458615Y-115246167D01*
X149573635Y-115074027D01*
X149720027Y-114927635D01*
X149892165Y-114812616D01*
X149892167Y-114812615D01*
X150083436Y-114733389D01*
X150286484Y-114693000D01*
X150493516Y-114693000D01*
X150696564Y-114733389D01*
G37*
G36*
X136196564Y-112233389D02*
G01*
X136387833Y-112312615D01*
X136387835Y-112312616D01*
X136559973Y-112427635D01*
X136706365Y-112574027D01*
X136821385Y-112746167D01*
X136900611Y-112937436D01*
X136941000Y-113140484D01*
X136941000Y-113347516D01*
X136900611Y-113550564D01*
X136821385Y-113741833D01*
X136821384Y-113741835D01*
X136706365Y-113913973D01*
X136559973Y-114060365D01*
X136387835Y-114175384D01*
X136387834Y-114175385D01*
X136387833Y-114175385D01*
X136196564Y-114254611D01*
X135993516Y-114295000D01*
X135786484Y-114295000D01*
X135583436Y-114254611D01*
X135392167Y-114175385D01*
X135392166Y-114175385D01*
X135392165Y-114175384D01*
X135220027Y-114060365D01*
X135073635Y-113913973D01*
X134958616Y-113741835D01*
X134958615Y-113741833D01*
X134879389Y-113550564D01*
X134839000Y-113347516D01*
X134839000Y-113140484D01*
X134879389Y-112937436D01*
X134958615Y-112746167D01*
X135073635Y-112574027D01*
X135220027Y-112427635D01*
X135392165Y-112312616D01*
X135392167Y-112312615D01*
X135583436Y-112233389D01*
X135786484Y-112193000D01*
X135993516Y-112193000D01*
X136196564Y-112233389D01*
G37*
G36*
X150696564Y-109733389D02*
G01*
X150887833Y-109812615D01*
X150887835Y-109812616D01*
X150894008Y-109816741D01*
X151059973Y-109927635D01*
X151206365Y-110074027D01*
X151321385Y-110246167D01*
X151400611Y-110437436D01*
X151441000Y-110640484D01*
X151441000Y-110847516D01*
X151400611Y-111050564D01*
X151321385Y-111241833D01*
X151321384Y-111241835D01*
X151206365Y-111413973D01*
X151059973Y-111560365D01*
X150887835Y-111675384D01*
X150887834Y-111675385D01*
X150887833Y-111675385D01*
X150696564Y-111754611D01*
X150493516Y-111795000D01*
X150286484Y-111795000D01*
X150083436Y-111754611D01*
X149892167Y-111675385D01*
X149892166Y-111675385D01*
X149892165Y-111675384D01*
X149720027Y-111560365D01*
X149573635Y-111413973D01*
X149458616Y-111241835D01*
X149458615Y-111241833D01*
X149379389Y-111050564D01*
X149339000Y-110847516D01*
X149339000Y-110640484D01*
X149379389Y-110437436D01*
X149458615Y-110246167D01*
X149573635Y-110074027D01*
X149720027Y-109927635D01*
X149885992Y-109816741D01*
X149892165Y-109812616D01*
X149892167Y-109812615D01*
X150083436Y-109733389D01*
X150286484Y-109693000D01*
X150493516Y-109693000D01*
X150696564Y-109733389D01*
G37*
G36*
X136941000Y-111795000D02*
G01*
X134839000Y-111795000D01*
X134839000Y-109693000D01*
X136941000Y-109693000D01*
X136941000Y-111795000D01*
G37*
G36*
X109685871Y-108652786D02*
G01*
X109891530Y-108715172D01*
X110081055Y-108816475D01*
X110081058Y-108816477D01*
X110081059Y-108816478D01*
X110247186Y-108952814D01*
X110383522Y-109118941D01*
X110383525Y-109118945D01*
X110484828Y-109308470D01*
X110547214Y-109514129D01*
X110568278Y-109728000D01*
X110547214Y-109941871D01*
X110484828Y-110147530D01*
X110383525Y-110337055D01*
X110383523Y-110337058D01*
X110383522Y-110337059D01*
X110247186Y-110503186D01*
X110093880Y-110629000D01*
X110081055Y-110639525D01*
X109891530Y-110740828D01*
X109685871Y-110803214D01*
X109525591Y-110819000D01*
X107898409Y-110819000D01*
X107738129Y-110803214D01*
X107532470Y-110740828D01*
X107342945Y-110639525D01*
X107330120Y-110629000D01*
X107176814Y-110503186D01*
X107040478Y-110337059D01*
X107040477Y-110337058D01*
X107040475Y-110337055D01*
X106939172Y-110147530D01*
X106876786Y-109941871D01*
X106855722Y-109728000D01*
X106876786Y-109514129D01*
X106939172Y-109308470D01*
X107040475Y-109118945D01*
X107040478Y-109118941D01*
X107176814Y-108952814D01*
X107342941Y-108816478D01*
X107342942Y-108816477D01*
X107342945Y-108816475D01*
X107532470Y-108715172D01*
X107738129Y-108652786D01*
X107898409Y-108637000D01*
X109525591Y-108637000D01*
X109685871Y-108652786D01*
G37*
G36*
X118160012Y-108831927D02*
G01*
X118309312Y-108861624D01*
X118473284Y-108929544D01*
X118620854Y-109028147D01*
X118746353Y-109153646D01*
X118844956Y-109301216D01*
X118912876Y-109465188D01*
X118947500Y-109639259D01*
X118947500Y-109816741D01*
X118912876Y-109990812D01*
X118844956Y-110154784D01*
X118746353Y-110302354D01*
X118620854Y-110427853D01*
X118473284Y-110526456D01*
X118309312Y-110594376D01*
X118160012Y-110624073D01*
X118135242Y-110629000D01*
X117957758Y-110629000D01*
X117932988Y-110624073D01*
X117783688Y-110594376D01*
X117619716Y-110526456D01*
X117472146Y-110427853D01*
X117346647Y-110302354D01*
X117248044Y-110154784D01*
X117180124Y-109990812D01*
X117145500Y-109816741D01*
X117145500Y-109639259D01*
X117180124Y-109465188D01*
X117248044Y-109301216D01*
X117346647Y-109153646D01*
X117472146Y-109028147D01*
X117619716Y-108929544D01*
X117783688Y-108861624D01*
X117932988Y-108831927D01*
X117957758Y-108827000D01*
X118135242Y-108827000D01*
X118160012Y-108831927D01*
G37*
G36*
X121487500Y-110629000D02*
G01*
X119685500Y-110629000D01*
X119685500Y-108827000D01*
X121487500Y-108827000D01*
X121487500Y-110629000D01*
G37*
G36*
X145041000Y-108695000D02*
G01*
X141739000Y-108695000D01*
X141739000Y-106593000D01*
X145041000Y-106593000D01*
X145041000Y-108695000D01*
G37*
G36*
X175887000Y-106548000D02*
G01*
X171585000Y-106548000D01*
X171585000Y-105096000D01*
X175887000Y-105096000D01*
X175887000Y-106548000D01*
G37*
G36*
X109685871Y-103572786D02*
G01*
X109891530Y-103635172D01*
X110081055Y-103736475D01*
X110081058Y-103736477D01*
X110081059Y-103736478D01*
X110247186Y-103872814D01*
X110383522Y-104038941D01*
X110383525Y-104038945D01*
X110484828Y-104228470D01*
X110547214Y-104434129D01*
X110568278Y-104648000D01*
X110547214Y-104861871D01*
X110484828Y-105067530D01*
X110383525Y-105257055D01*
X110383523Y-105257058D01*
X110383522Y-105257059D01*
X110247186Y-105423186D01*
X110081059Y-105559522D01*
X110081055Y-105559525D01*
X109891530Y-105660828D01*
X109685871Y-105723214D01*
X109525591Y-105739000D01*
X107898409Y-105739000D01*
X107738129Y-105723214D01*
X107532470Y-105660828D01*
X107342945Y-105559525D01*
X107342941Y-105559522D01*
X107176814Y-105423186D01*
X107040478Y-105257059D01*
X107040477Y-105257058D01*
X107040475Y-105257055D01*
X106939172Y-105067530D01*
X106876786Y-104861871D01*
X106855722Y-104648000D01*
X106876786Y-104434129D01*
X106939172Y-104228470D01*
X107040475Y-104038945D01*
X107040478Y-104038941D01*
X107176814Y-103872814D01*
X107342941Y-103736478D01*
X107342942Y-103736477D01*
X107342945Y-103736475D01*
X107532470Y-103635172D01*
X107738129Y-103572786D01*
X107898409Y-103557000D01*
X109525591Y-103557000D01*
X109685871Y-103572786D01*
G37*
G36*
X123773500Y-103771000D02*
G01*
X121971500Y-103771000D01*
X121971500Y-101969000D01*
X123773500Y-101969000D01*
X123773500Y-103771000D01*
G37*
G36*
X175887000Y-100898000D02*
G01*
X171585000Y-100898000D01*
X171585000Y-99446000D01*
X175887000Y-99446000D01*
X175887000Y-100898000D01*
G37*
G36*
X109685871Y-98492786D02*
G01*
X109891530Y-98555172D01*
X110081055Y-98656475D01*
X110081058Y-98656477D01*
X110081059Y-98656478D01*
X110247186Y-98792814D01*
X110383522Y-98958941D01*
X110383525Y-98958945D01*
X110484828Y-99148470D01*
X110547214Y-99354129D01*
X110568278Y-99568000D01*
X110547214Y-99781871D01*
X110484828Y-99987530D01*
X110383525Y-100177055D01*
X110383523Y-100177058D01*
X110383522Y-100177059D01*
X110247186Y-100343186D01*
X110081059Y-100479522D01*
X110081055Y-100479525D01*
X109891530Y-100580828D01*
X109685871Y-100643214D01*
X109525591Y-100659000D01*
X107898409Y-100659000D01*
X107738129Y-100643214D01*
X107532470Y-100580828D01*
X107342945Y-100479525D01*
X107342941Y-100479522D01*
X107176814Y-100343186D01*
X107040478Y-100177059D01*
X107040477Y-100177058D01*
X107040475Y-100177055D01*
X106939172Y-99987530D01*
X106876786Y-99781871D01*
X106855722Y-99568000D01*
X106876786Y-99354129D01*
X106939172Y-99148470D01*
X107040475Y-98958945D01*
X107040478Y-98958941D01*
X107176814Y-98792814D01*
X107342941Y-98656478D01*
X107342942Y-98656477D01*
X107342945Y-98656475D01*
X107532470Y-98555172D01*
X107738129Y-98492786D01*
X107898409Y-98477000D01*
X109525591Y-98477000D01*
X109685871Y-98492786D01*
G37*
G36*
X127393000Y-97992500D02*
G01*
X125591000Y-97992500D01*
X125591000Y-96190500D01*
X127393000Y-96190500D01*
X127393000Y-97992500D01*
G37*
G36*
X110428217Y-93400808D02*
G01*
X110459489Y-93410294D01*
X110488308Y-93425698D01*
X110513570Y-93446430D01*
X110534302Y-93471692D01*
X110549706Y-93500511D01*
X110559192Y-93531783D01*
X110563000Y-93570448D01*
X110563000Y-95405552D01*
X110559192Y-95444217D01*
X110549706Y-95475489D01*
X110534302Y-95504308D01*
X110513570Y-95529570D01*
X110488308Y-95550302D01*
X110459489Y-95565706D01*
X110428217Y-95575192D01*
X110389552Y-95579000D01*
X107034448Y-95579000D01*
X106995783Y-95575192D01*
X106964511Y-95565706D01*
X106935692Y-95550302D01*
X106910430Y-95529570D01*
X106889698Y-95504308D01*
X106874294Y-95475489D01*
X106864808Y-95444217D01*
X106861000Y-95405552D01*
X106861000Y-93570448D01*
X106864808Y-93531783D01*
X106874294Y-93500511D01*
X106889698Y-93471692D01*
X106910430Y-93446430D01*
X106935692Y-93425698D01*
X106964511Y-93410294D01*
X106995783Y-93400808D01*
X107034448Y-93397000D01*
X110389552Y-93397000D01*
X110428217Y-93400808D01*
G37*
G36*
X174129000Y-94373000D02*
G01*
X172327000Y-94373000D01*
X172327000Y-92571000D01*
X174129000Y-92571000D01*
X174129000Y-94373000D01*
G37*
G36*
X127456500Y-93484000D02*
G01*
X125654500Y-93484000D01*
X125654500Y-91682000D01*
X127456500Y-91682000D01*
X127456500Y-93484000D01*
G37*
G36*
X137320721Y-90910174D02*
G01*
X137420995Y-90951709D01*
X137420996Y-90951710D01*
X137511242Y-91012010D01*
X137587990Y-91088758D01*
X137587991Y-91088760D01*
X137648291Y-91179005D01*
X137679516Y-91254389D01*
X137691067Y-91276000D01*
X137706612Y-91294941D01*
X137725554Y-91310487D01*
X137747165Y-91322038D01*
X137770614Y-91329151D01*
X137795000Y-91331553D01*
X137819386Y-91329151D01*
X137842835Y-91322038D01*
X137864446Y-91310487D01*
X137883387Y-91294942D01*
X137898933Y-91276000D01*
X137910484Y-91254389D01*
X137941709Y-91179005D01*
X138002009Y-91088760D01*
X138002010Y-91088758D01*
X138078758Y-91012010D01*
X138169004Y-90951710D01*
X138169005Y-90951709D01*
X138269279Y-90910174D01*
X138375730Y-90889000D01*
X138484270Y-90889000D01*
X138590721Y-90910174D01*
X138690995Y-90951709D01*
X138690996Y-90951710D01*
X138781242Y-91012010D01*
X138857990Y-91088758D01*
X138857991Y-91088760D01*
X138918291Y-91179005D01*
X138949516Y-91254389D01*
X138961067Y-91276000D01*
X138976612Y-91294941D01*
X138995554Y-91310487D01*
X139017165Y-91322038D01*
X139040614Y-91329151D01*
X139065000Y-91331553D01*
X139089386Y-91329151D01*
X139112835Y-91322038D01*
X139134446Y-91310487D01*
X139153387Y-91294942D01*
X139168933Y-91276000D01*
X139180484Y-91254389D01*
X139211709Y-91179005D01*
X139272009Y-91088760D01*
X139272010Y-91088758D01*
X139348758Y-91012010D01*
X139439004Y-90951710D01*
X139439005Y-90951709D01*
X139539279Y-90910174D01*
X139645730Y-90889000D01*
X139754270Y-90889000D01*
X139860721Y-90910174D01*
X139960995Y-90951709D01*
X139960996Y-90951710D01*
X140051242Y-91012010D01*
X140127990Y-91088758D01*
X140127991Y-91088760D01*
X140188291Y-91179005D01*
X140219516Y-91254389D01*
X140231067Y-91276000D01*
X140246612Y-91294941D01*
X140265554Y-91310487D01*
X140287165Y-91322038D01*
X140310614Y-91329151D01*
X140335000Y-91331553D01*
X140359386Y-91329151D01*
X140382835Y-91322038D01*
X140404446Y-91310487D01*
X140423387Y-91294942D01*
X140438933Y-91276000D01*
X140450484Y-91254389D01*
X140481709Y-91179005D01*
X140542009Y-91088760D01*
X140542010Y-91088758D01*
X140618758Y-91012010D01*
X140709004Y-90951710D01*
X140709005Y-90951709D01*
X140809279Y-90910174D01*
X140915730Y-90889000D01*
X141024270Y-90889000D01*
X141130721Y-90910174D01*
X141230995Y-90951709D01*
X141230996Y-90951710D01*
X141321242Y-91012010D01*
X141397990Y-91088758D01*
X141397991Y-91088760D01*
X141458291Y-91179005D01*
X141489516Y-91254389D01*
X141501067Y-91276000D01*
X141516612Y-91294941D01*
X141535554Y-91310487D01*
X141557165Y-91322038D01*
X141580614Y-91329151D01*
X141605000Y-91331553D01*
X141629386Y-91329151D01*
X141652835Y-91322038D01*
X141674446Y-91310487D01*
X141693387Y-91294942D01*
X141708933Y-91276000D01*
X141720484Y-91254389D01*
X141751709Y-91179005D01*
X141812009Y-91088760D01*
X141812010Y-91088758D01*
X141888758Y-91012010D01*
X141979004Y-90951710D01*
X141979005Y-90951709D01*
X142079279Y-90910174D01*
X142185730Y-90889000D01*
X142294270Y-90889000D01*
X142400721Y-90910174D01*
X142500995Y-90951709D01*
X142500996Y-90951710D01*
X142591242Y-91012010D01*
X142667990Y-91088758D01*
X142667991Y-91088760D01*
X142728291Y-91179005D01*
X142769826Y-91279279D01*
X142791000Y-91385730D01*
X142791000Y-91494270D01*
X142769826Y-91600721D01*
X142728291Y-91700995D01*
X142728290Y-91700996D01*
X142667990Y-91791242D01*
X142591242Y-91867990D01*
X142545812Y-91898345D01*
X142500995Y-91928291D01*
X142425611Y-91959516D01*
X142404000Y-91971067D01*
X142385059Y-91986612D01*
X142369513Y-92005554D01*
X142357962Y-92027165D01*
X142350849Y-92050614D01*
X142348447Y-92075000D01*
X142350849Y-92099386D01*
X142357962Y-92122835D01*
X142369513Y-92144446D01*
X142385058Y-92163387D01*
X142404000Y-92178933D01*
X142425611Y-92190484D01*
X142500995Y-92221709D01*
X142500996Y-92221710D01*
X142591242Y-92282010D01*
X142667990Y-92358758D01*
X142667991Y-92358760D01*
X142728291Y-92449005D01*
X142769826Y-92549279D01*
X142791000Y-92655730D01*
X142791000Y-92764270D01*
X142769826Y-92870721D01*
X142728291Y-92970995D01*
X142728290Y-92970996D01*
X142667990Y-93061242D01*
X142591242Y-93137990D01*
X142545812Y-93168345D01*
X142500995Y-93198291D01*
X142400721Y-93239826D01*
X142294270Y-93261000D01*
X142185730Y-93261000D01*
X142079279Y-93239826D01*
X141979005Y-93198291D01*
X141934188Y-93168345D01*
X141888758Y-93137990D01*
X141812010Y-93061242D01*
X141751710Y-92970996D01*
X141751709Y-92970995D01*
X141720484Y-92895611D01*
X141708933Y-92874000D01*
X141693388Y-92855059D01*
X141674446Y-92839513D01*
X141652835Y-92827962D01*
X141629386Y-92820849D01*
X141605000Y-92818447D01*
X141580614Y-92820849D01*
X141557165Y-92827962D01*
X141535554Y-92839513D01*
X141516613Y-92855058D01*
X141501067Y-92874000D01*
X141489516Y-92895611D01*
X141458291Y-92970995D01*
X141458290Y-92970996D01*
X141397990Y-93061242D01*
X141321242Y-93137990D01*
X141275812Y-93168345D01*
X141230995Y-93198291D01*
X141130721Y-93239826D01*
X141024270Y-93261000D01*
X140915730Y-93261000D01*
X140809279Y-93239826D01*
X140709005Y-93198291D01*
X140664188Y-93168345D01*
X140618758Y-93137990D01*
X140542010Y-93061242D01*
X140481710Y-92970996D01*
X140481709Y-92970995D01*
X140450484Y-92895611D01*
X140438933Y-92874000D01*
X140423388Y-92855059D01*
X140404446Y-92839513D01*
X140382835Y-92827962D01*
X140359386Y-92820849D01*
X140335000Y-92818447D01*
X140310614Y-92820849D01*
X140287165Y-92827962D01*
X140265554Y-92839513D01*
X140246613Y-92855058D01*
X140231067Y-92874000D01*
X140219516Y-92895611D01*
X140188291Y-92970995D01*
X140188290Y-92970996D01*
X140127990Y-93061242D01*
X140051242Y-93137990D01*
X140005812Y-93168345D01*
X139960995Y-93198291D01*
X139860721Y-93239826D01*
X139754270Y-93261000D01*
X139645730Y-93261000D01*
X139539279Y-93239826D01*
X139439005Y-93198291D01*
X139394188Y-93168345D01*
X139348758Y-93137990D01*
X139272010Y-93061242D01*
X139211710Y-92970996D01*
X139211709Y-92970995D01*
X139180484Y-92895611D01*
X139168933Y-92874000D01*
X139153388Y-92855059D01*
X139134446Y-92839513D01*
X139112835Y-92827962D01*
X139089386Y-92820849D01*
X139065000Y-92818447D01*
X139040614Y-92820849D01*
X139017165Y-92827962D01*
X138995554Y-92839513D01*
X138976613Y-92855058D01*
X138961067Y-92874000D01*
X138949516Y-92895611D01*
X138918291Y-92970995D01*
X138918290Y-92970996D01*
X138857990Y-93061242D01*
X138781242Y-93137990D01*
X138735812Y-93168345D01*
X138690995Y-93198291D01*
X138590721Y-93239826D01*
X138484270Y-93261000D01*
X138375730Y-93261000D01*
X138269279Y-93239826D01*
X138169005Y-93198291D01*
X138124188Y-93168345D01*
X138078758Y-93137990D01*
X138002010Y-93061242D01*
X137981012Y-93029816D01*
X137939932Y-92968336D01*
X137924386Y-92949394D01*
X137905444Y-92933849D01*
X137883833Y-92922298D01*
X137860385Y-92915185D01*
X137835998Y-92912783D01*
X137811612Y-92915185D01*
X137788163Y-92922298D01*
X137766553Y-92933849D01*
X137747611Y-92949395D01*
X137732066Y-92968337D01*
X137720515Y-92989948D01*
X137713402Y-93013396D01*
X137711000Y-93037782D01*
X137711000Y-93261000D01*
X136609000Y-93261000D01*
X136609000Y-92159000D01*
X136832218Y-92159000D01*
X136856604Y-92156598D01*
X136880053Y-92149485D01*
X136901664Y-92137934D01*
X136920606Y-92122389D01*
X136936151Y-92103447D01*
X136947702Y-92081836D01*
X136954815Y-92058387D01*
X136957216Y-92034002D01*
X137362783Y-92034002D01*
X137365185Y-92058388D01*
X137372298Y-92081837D01*
X137383849Y-92103447D01*
X137399395Y-92122389D01*
X137418337Y-92137934D01*
X137439948Y-92149485D01*
X137463396Y-92156598D01*
X137487782Y-92159000D01*
X137711000Y-92159000D01*
X137711000Y-92382218D01*
X137713402Y-92406604D01*
X137720515Y-92430053D01*
X137732066Y-92451664D01*
X137747611Y-92470606D01*
X137766553Y-92486151D01*
X137788164Y-92497702D01*
X137811613Y-92504815D01*
X137835999Y-92507217D01*
X137860385Y-92504815D01*
X137883834Y-92497702D01*
X137905445Y-92486151D01*
X137924387Y-92470606D01*
X137939932Y-92451664D01*
X138002009Y-92358760D01*
X138002010Y-92358758D01*
X138078758Y-92282010D01*
X138169004Y-92221710D01*
X138169005Y-92221709D01*
X138244389Y-92190484D01*
X138266000Y-92178933D01*
X138284941Y-92163388D01*
X138300487Y-92144446D01*
X138312038Y-92122835D01*
X138319151Y-92099386D01*
X138321553Y-92075000D01*
X138538447Y-92075000D01*
X138540849Y-92099386D01*
X138547962Y-92122835D01*
X138559513Y-92144446D01*
X138575058Y-92163387D01*
X138594000Y-92178933D01*
X138615611Y-92190484D01*
X138690995Y-92221709D01*
X138690996Y-92221710D01*
X138781242Y-92282010D01*
X138857990Y-92358758D01*
X138857991Y-92358760D01*
X138918291Y-92449005D01*
X138949516Y-92524389D01*
X138961067Y-92546000D01*
X138976612Y-92564941D01*
X138995554Y-92580487D01*
X139017165Y-92592038D01*
X139040614Y-92599151D01*
X139065000Y-92601553D01*
X139089386Y-92599151D01*
X139112835Y-92592038D01*
X139134446Y-92580487D01*
X139153387Y-92564942D01*
X139168933Y-92546000D01*
X139180484Y-92524389D01*
X139211709Y-92449005D01*
X139272009Y-92358760D01*
X139272010Y-92358758D01*
X139348758Y-92282010D01*
X139439004Y-92221710D01*
X139439005Y-92221709D01*
X139514389Y-92190484D01*
X139536000Y-92178933D01*
X139554941Y-92163388D01*
X139570487Y-92144446D01*
X139582038Y-92122835D01*
X139589151Y-92099386D01*
X139591553Y-92075000D01*
X139808447Y-92075000D01*
X139810849Y-92099386D01*
X139817962Y-92122835D01*
X139829513Y-92144446D01*
X139845058Y-92163387D01*
X139864000Y-92178933D01*
X139885611Y-92190484D01*
X139960995Y-92221709D01*
X139960996Y-92221710D01*
X140051242Y-92282010D01*
X140127990Y-92358758D01*
X140127991Y-92358760D01*
X140188291Y-92449005D01*
X140219516Y-92524389D01*
X140231067Y-92546000D01*
X140246612Y-92564941D01*
X140265554Y-92580487D01*
X140287165Y-92592038D01*
X140310614Y-92599151D01*
X140335000Y-92601553D01*
X140359386Y-92599151D01*
X140382835Y-92592038D01*
X140404446Y-92580487D01*
X140423387Y-92564942D01*
X140438933Y-92546000D01*
X140450484Y-92524389D01*
X140481709Y-92449005D01*
X140542009Y-92358760D01*
X140542010Y-92358758D01*
X140618758Y-92282010D01*
X140709004Y-92221710D01*
X140709005Y-92221709D01*
X140784389Y-92190484D01*
X140806000Y-92178933D01*
X140824941Y-92163388D01*
X140840487Y-92144446D01*
X140852038Y-92122835D01*
X140859151Y-92099386D01*
X140861553Y-92075000D01*
X141078447Y-92075000D01*
X141080849Y-92099386D01*
X141087962Y-92122835D01*
X141099513Y-92144446D01*
X141115058Y-92163387D01*
X141134000Y-92178933D01*
X141155611Y-92190484D01*
X141230995Y-92221709D01*
X141230996Y-92221710D01*
X141321242Y-92282010D01*
X141397990Y-92358758D01*
X141397991Y-92358760D01*
X141458291Y-92449005D01*
X141489516Y-92524389D01*
X141501067Y-92546000D01*
X141516612Y-92564941D01*
X141535554Y-92580487D01*
X141557165Y-92592038D01*
X141580614Y-92599151D01*
X141605000Y-92601553D01*
X141629386Y-92599151D01*
X141652835Y-92592038D01*
X141674446Y-92580487D01*
X141693387Y-92564942D01*
X141708933Y-92546000D01*
X141720484Y-92524389D01*
X141751709Y-92449005D01*
X141812009Y-92358760D01*
X141812010Y-92358758D01*
X141888758Y-92282010D01*
X141979004Y-92221710D01*
X141979005Y-92221709D01*
X142054389Y-92190484D01*
X142076000Y-92178933D01*
X142094941Y-92163388D01*
X142110487Y-92144446D01*
X142122038Y-92122835D01*
X142129151Y-92099386D01*
X142131553Y-92075000D01*
X142129151Y-92050614D01*
X142122038Y-92027165D01*
X142110487Y-92005554D01*
X142094942Y-91986613D01*
X142076000Y-91971067D01*
X142054389Y-91959516D01*
X141979005Y-91928291D01*
X141934188Y-91898345D01*
X141888758Y-91867990D01*
X141812010Y-91791242D01*
X141751710Y-91700996D01*
X141751709Y-91700995D01*
X141720484Y-91625611D01*
X141708933Y-91604000D01*
X141693388Y-91585059D01*
X141674446Y-91569513D01*
X141652835Y-91557962D01*
X141629386Y-91550849D01*
X141605000Y-91548447D01*
X141580614Y-91550849D01*
X141557165Y-91557962D01*
X141535554Y-91569513D01*
X141516613Y-91585058D01*
X141501067Y-91604000D01*
X141489516Y-91625611D01*
X141458291Y-91700995D01*
X141458290Y-91700996D01*
X141397990Y-91791242D01*
X141321242Y-91867990D01*
X141275812Y-91898345D01*
X141230995Y-91928291D01*
X141155611Y-91959516D01*
X141134000Y-91971067D01*
X141115059Y-91986612D01*
X141099513Y-92005554D01*
X141087962Y-92027165D01*
X141080849Y-92050614D01*
X141078447Y-92075000D01*
X140861553Y-92075000D01*
X140859151Y-92050614D01*
X140852038Y-92027165D01*
X140840487Y-92005554D01*
X140824942Y-91986613D01*
X140806000Y-91971067D01*
X140784389Y-91959516D01*
X140709005Y-91928291D01*
X140664188Y-91898345D01*
X140618758Y-91867990D01*
X140542010Y-91791242D01*
X140481710Y-91700996D01*
X140481709Y-91700995D01*
X140450484Y-91625611D01*
X140438933Y-91604000D01*
X140423388Y-91585059D01*
X140404446Y-91569513D01*
X140382835Y-91557962D01*
X140359386Y-91550849D01*
X140335000Y-91548447D01*
X140310614Y-91550849D01*
X140287165Y-91557962D01*
X140265554Y-91569513D01*
X140246613Y-91585058D01*
X140231067Y-91604000D01*
X140219516Y-91625611D01*
X140188291Y-91700995D01*
X140188290Y-91700996D01*
X140127990Y-91791242D01*
X140051242Y-91867990D01*
X140005812Y-91898345D01*
X139960995Y-91928291D01*
X139885611Y-91959516D01*
X139864000Y-91971067D01*
X139845059Y-91986612D01*
X139829513Y-92005554D01*
X139817962Y-92027165D01*
X139810849Y-92050614D01*
X139808447Y-92075000D01*
X139591553Y-92075000D01*
X139589151Y-92050614D01*
X139582038Y-92027165D01*
X139570487Y-92005554D01*
X139554942Y-91986613D01*
X139536000Y-91971067D01*
X139514389Y-91959516D01*
X139439005Y-91928291D01*
X139394188Y-91898345D01*
X139348758Y-91867990D01*
X139272010Y-91791242D01*
X139211710Y-91700996D01*
X139211709Y-91700995D01*
X139180484Y-91625611D01*
X139168933Y-91604000D01*
X139153388Y-91585059D01*
X139134446Y-91569513D01*
X139112835Y-91557962D01*
X139089386Y-91550849D01*
X139065000Y-91548447D01*
X139040614Y-91550849D01*
X139017165Y-91557962D01*
X138995554Y-91569513D01*
X138976613Y-91585058D01*
X138961067Y-91604000D01*
X138949516Y-91625611D01*
X138918291Y-91700995D01*
X138918290Y-91700996D01*
X138857990Y-91791242D01*
X138781242Y-91867990D01*
X138735812Y-91898345D01*
X138690995Y-91928291D01*
X138615611Y-91959516D01*
X138594000Y-91971067D01*
X138575059Y-91986612D01*
X138559513Y-92005554D01*
X138547962Y-92027165D01*
X138540849Y-92050614D01*
X138538447Y-92075000D01*
X138321553Y-92075000D01*
X138319151Y-92050614D01*
X138312038Y-92027165D01*
X138300487Y-92005554D01*
X138284942Y-91986613D01*
X138266000Y-91971067D01*
X138244389Y-91959516D01*
X138169005Y-91928291D01*
X138124188Y-91898345D01*
X138078758Y-91867990D01*
X138002010Y-91791242D01*
X137941710Y-91700996D01*
X137941709Y-91700995D01*
X137910484Y-91625611D01*
X137898933Y-91604000D01*
X137883388Y-91585059D01*
X137864446Y-91569513D01*
X137842835Y-91557962D01*
X137819386Y-91550849D01*
X137795000Y-91548447D01*
X137770614Y-91550849D01*
X137747165Y-91557962D01*
X137725554Y-91569513D01*
X137706613Y-91585058D01*
X137691067Y-91604000D01*
X137679516Y-91625611D01*
X137648291Y-91700995D01*
X137648290Y-91700996D01*
X137587990Y-91791242D01*
X137511242Y-91867990D01*
X137479816Y-91888988D01*
X137418336Y-91930068D01*
X137399394Y-91945614D01*
X137383849Y-91964556D01*
X137372298Y-91986167D01*
X137365185Y-92009615D01*
X137362783Y-92034002D01*
X136957216Y-92034002D01*
X136957217Y-92034001D01*
X136954815Y-92009615D01*
X136947702Y-91986166D01*
X136936151Y-91964555D01*
X136920606Y-91945613D01*
X136901664Y-91930068D01*
X136840184Y-91888988D01*
X136808758Y-91867990D01*
X136732010Y-91791242D01*
X136671710Y-91700996D01*
X136671709Y-91700995D01*
X136630174Y-91600721D01*
X136609000Y-91494270D01*
X136609000Y-91385730D01*
X136630174Y-91279279D01*
X136671709Y-91179005D01*
X136732009Y-91088760D01*
X136732010Y-91088758D01*
X136808758Y-91012010D01*
X136899004Y-90951710D01*
X136899005Y-90951709D01*
X136999279Y-90910174D01*
X137105730Y-90889000D01*
X137214270Y-90889000D01*
X137320721Y-90910174D01*
G37*
G36*
X108049916Y-87970334D02*
G01*
X108158492Y-88003271D01*
X108158495Y-88003272D01*
X108194601Y-88022571D01*
X108258557Y-88056756D01*
X108346264Y-88128736D01*
X108418244Y-88216443D01*
X108452429Y-88280399D01*
X108471728Y-88316505D01*
X108471729Y-88316508D01*
X108504666Y-88425084D01*
X108515787Y-88538000D01*
X108504666Y-88650916D01*
X108471729Y-88759492D01*
X108471728Y-88759495D01*
X108452429Y-88795601D01*
X108418244Y-88859557D01*
X108346264Y-88947264D01*
X108258557Y-89019244D01*
X108194601Y-89053429D01*
X108158495Y-89072728D01*
X108158492Y-89072729D01*
X108049916Y-89105666D01*
X107965298Y-89114000D01*
X107058702Y-89114000D01*
X106974084Y-89105666D01*
X106865508Y-89072729D01*
X106865505Y-89072728D01*
X106829399Y-89053429D01*
X106765443Y-89019244D01*
X106677736Y-88947264D01*
X106605756Y-88859557D01*
X106571571Y-88795601D01*
X106552272Y-88759495D01*
X106552271Y-88759492D01*
X106519334Y-88650916D01*
X106508213Y-88538000D01*
X106519334Y-88425084D01*
X106552271Y-88316508D01*
X106552272Y-88316505D01*
X106571571Y-88280399D01*
X106605756Y-88216443D01*
X106677736Y-88128736D01*
X106765443Y-88056756D01*
X106829399Y-88022571D01*
X106865505Y-88003272D01*
X106865508Y-88003271D01*
X106974084Y-87970334D01*
X107058702Y-87962000D01*
X107965298Y-87962000D01*
X108049916Y-87970334D01*
G37*
G36*
X127393000Y-89039000D02*
G01*
X125591000Y-89039000D01*
X125591000Y-87237000D01*
X127393000Y-87237000D01*
X127393000Y-89039000D01*
G37*
G36*
X173849512Y-87241927D02*
G01*
X173998812Y-87271624D01*
X174162784Y-87339544D01*
X174310354Y-87438147D01*
X174435853Y-87563646D01*
X174534456Y-87711216D01*
X174602376Y-87875188D01*
X174637000Y-88049259D01*
X174637000Y-88226741D01*
X174602376Y-88400812D01*
X174534456Y-88564784D01*
X174435853Y-88712354D01*
X174310354Y-88837853D01*
X174162784Y-88936456D01*
X173998812Y-89004376D01*
X173849512Y-89034073D01*
X173824742Y-89039000D01*
X173647258Y-89039000D01*
X173622488Y-89034073D01*
X173473188Y-89004376D01*
X173309216Y-88936456D01*
X173161646Y-88837853D01*
X173036147Y-88712354D01*
X172937544Y-88564784D01*
X172869624Y-88400812D01*
X172835000Y-88226741D01*
X172835000Y-88049259D01*
X172869624Y-87875188D01*
X172937544Y-87711216D01*
X173036147Y-87563646D01*
X173161646Y-87438147D01*
X173309216Y-87339544D01*
X173473188Y-87271624D01*
X173622488Y-87241927D01*
X173647258Y-87237000D01*
X173824742Y-87237000D01*
X173849512Y-87241927D01*
G37*
G36*
X167779000Y-86880000D02*
G01*
X165977000Y-86880000D01*
X165977000Y-85078000D01*
X167779000Y-85078000D01*
X167779000Y-86880000D01*
G37*
G36*
X173849512Y-84701927D02*
G01*
X173998812Y-84731624D01*
X174162784Y-84799544D01*
X174310354Y-84898147D01*
X174435853Y-85023646D01*
X174534456Y-85171216D01*
X174602376Y-85335188D01*
X174637000Y-85509259D01*
X174637000Y-85686741D01*
X174602376Y-85860812D01*
X174534456Y-86024784D01*
X174435853Y-86172354D01*
X174310354Y-86297853D01*
X174162784Y-86396456D01*
X173998812Y-86464376D01*
X173849512Y-86494073D01*
X173824742Y-86499000D01*
X173647258Y-86499000D01*
X173622488Y-86494073D01*
X173473188Y-86464376D01*
X173309216Y-86396456D01*
X173161646Y-86297853D01*
X173036147Y-86172354D01*
X172937544Y-86024784D01*
X172869624Y-85860812D01*
X172835000Y-85686741D01*
X172835000Y-85509259D01*
X172869624Y-85335188D01*
X172937544Y-85171216D01*
X173036147Y-85023646D01*
X173161646Y-84898147D01*
X173309216Y-84799544D01*
X173473188Y-84731624D01*
X173622488Y-84701927D01*
X173647258Y-84697000D01*
X173824742Y-84697000D01*
X173849512Y-84701927D01*
G37*
G36*
X173849512Y-82161927D02*
G01*
X173998812Y-82191624D01*
X174162784Y-82259544D01*
X174310354Y-82358147D01*
X174435853Y-82483646D01*
X174534456Y-82631216D01*
X174602376Y-82795188D01*
X174637000Y-82969259D01*
X174637000Y-83146741D01*
X174602376Y-83320812D01*
X174534456Y-83484784D01*
X174435853Y-83632354D01*
X174310354Y-83757853D01*
X174162784Y-83856456D01*
X173998812Y-83924376D01*
X173849512Y-83954073D01*
X173824742Y-83959000D01*
X173647258Y-83959000D01*
X173622488Y-83954073D01*
X173473188Y-83924376D01*
X173309216Y-83856456D01*
X173161646Y-83757853D01*
X173036147Y-83632354D01*
X172937544Y-83484784D01*
X172869624Y-83320812D01*
X172835000Y-83146741D01*
X172835000Y-82969259D01*
X172869624Y-82795188D01*
X172937544Y-82631216D01*
X173036147Y-82483646D01*
X173161646Y-82358147D01*
X173309216Y-82259544D01*
X173473188Y-82191624D01*
X173622488Y-82161927D01*
X173647258Y-82157000D01*
X173824742Y-82157000D01*
X173849512Y-82161927D01*
G37*
G36*
X123049512Y-81399927D02*
G01*
X123198812Y-81429624D01*
X123362784Y-81497544D01*
X123510354Y-81596147D01*
X123635853Y-81721646D01*
X123734456Y-81869216D01*
X123802376Y-82033188D01*
X123837000Y-82207259D01*
X123837000Y-82384741D01*
X123802376Y-82558812D01*
X123734456Y-82722784D01*
X123635853Y-82870354D01*
X123510354Y-82995853D01*
X123362784Y-83094456D01*
X123198812Y-83162376D01*
X123049512Y-83192073D01*
X123024742Y-83197000D01*
X122847258Y-83197000D01*
X122822488Y-83192073D01*
X122673188Y-83162376D01*
X122509216Y-83094456D01*
X122361646Y-82995853D01*
X122236147Y-82870354D01*
X122137544Y-82722784D01*
X122069624Y-82558812D01*
X122035000Y-82384741D01*
X122035000Y-82207259D01*
X122069624Y-82033188D01*
X122137544Y-81869216D01*
X122236147Y-81721646D01*
X122361646Y-81596147D01*
X122509216Y-81497544D01*
X122673188Y-81429624D01*
X122822488Y-81399927D01*
X122847258Y-81395000D01*
X123024742Y-81395000D01*
X123049512Y-81399927D01*
G37*
G36*
X117969512Y-81399927D02*
G01*
X118118812Y-81429624D01*
X118282784Y-81497544D01*
X118430354Y-81596147D01*
X118555853Y-81721646D01*
X118654456Y-81869216D01*
X118722376Y-82033188D01*
X118757000Y-82207259D01*
X118757000Y-82384741D01*
X118722376Y-82558812D01*
X118654456Y-82722784D01*
X118555853Y-82870354D01*
X118430354Y-82995853D01*
X118282784Y-83094456D01*
X118118812Y-83162376D01*
X117969512Y-83192073D01*
X117944742Y-83197000D01*
X117767258Y-83197000D01*
X117742488Y-83192073D01*
X117593188Y-83162376D01*
X117429216Y-83094456D01*
X117281646Y-82995853D01*
X117156147Y-82870354D01*
X117057544Y-82722784D01*
X116989624Y-82558812D01*
X116955000Y-82384741D01*
X116955000Y-82207259D01*
X116989624Y-82033188D01*
X117057544Y-81869216D01*
X117156147Y-81721646D01*
X117281646Y-81596147D01*
X117429216Y-81497544D01*
X117593188Y-81429624D01*
X117742488Y-81399927D01*
X117767258Y-81395000D01*
X117944742Y-81395000D01*
X117969512Y-81399927D01*
G37*
G36*
X116217000Y-83197000D02*
G01*
X114415000Y-83197000D01*
X114415000Y-81395000D01*
X116217000Y-81395000D01*
X116217000Y-83197000D01*
G37*
G36*
X120509512Y-81399927D02*
G01*
X120658812Y-81429624D01*
X120822784Y-81497544D01*
X120970354Y-81596147D01*
X121095853Y-81721646D01*
X121194456Y-81869216D01*
X121262376Y-82033188D01*
X121297000Y-82207259D01*
X121297000Y-82384741D01*
X121262376Y-82558812D01*
X121194456Y-82722784D01*
X121095853Y-82870354D01*
X120970354Y-82995853D01*
X120822784Y-83094456D01*
X120658812Y-83162376D01*
X120509512Y-83192073D01*
X120484742Y-83197000D01*
X120307258Y-83197000D01*
X120282488Y-83192073D01*
X120133188Y-83162376D01*
X119969216Y-83094456D01*
X119821646Y-82995853D01*
X119696147Y-82870354D01*
X119597544Y-82722784D01*
X119529624Y-82558812D01*
X119495000Y-82384741D01*
X119495000Y-82207259D01*
X119529624Y-82033188D01*
X119597544Y-81869216D01*
X119696147Y-81721646D01*
X119821646Y-81596147D01*
X119969216Y-81497544D01*
X120133188Y-81429624D01*
X120282488Y-81399927D01*
X120307258Y-81395000D01*
X120484742Y-81395000D01*
X120509512Y-81399927D01*
G37*
G36*
X125589512Y-81399927D02*
G01*
X125738812Y-81429624D01*
X125902784Y-81497544D01*
X126050354Y-81596147D01*
X126175853Y-81721646D01*
X126274456Y-81869216D01*
X126342376Y-82033188D01*
X126377000Y-82207259D01*
X126377000Y-82384741D01*
X126342376Y-82558812D01*
X126274456Y-82722784D01*
X126175853Y-82870354D01*
X126050354Y-82995853D01*
X125902784Y-83094456D01*
X125738812Y-83162376D01*
X125589512Y-83192073D01*
X125564742Y-83197000D01*
X125387258Y-83197000D01*
X125362488Y-83192073D01*
X125213188Y-83162376D01*
X125049216Y-83094456D01*
X124901646Y-82995853D01*
X124776147Y-82870354D01*
X124677544Y-82722784D01*
X124609624Y-82558812D01*
X124575000Y-82384741D01*
X124575000Y-82207259D01*
X124609624Y-82033188D01*
X124677544Y-81869216D01*
X124776147Y-81721646D01*
X124901646Y-81596147D01*
X125049216Y-81497544D01*
X125213188Y-81429624D01*
X125362488Y-81399927D01*
X125387258Y-81395000D01*
X125564742Y-81395000D01*
X125589512Y-81399927D01*
G37*
G36*
X108049916Y-80820334D02*
G01*
X108158492Y-80853271D01*
X108158495Y-80853272D01*
X108194601Y-80872571D01*
X108258557Y-80906756D01*
X108346264Y-80978736D01*
X108418244Y-81066443D01*
X108452429Y-81130399D01*
X108471728Y-81166505D01*
X108471729Y-81166508D01*
X108504666Y-81275084D01*
X108515787Y-81388000D01*
X108504666Y-81500916D01*
X108475777Y-81596147D01*
X108471728Y-81609495D01*
X108452429Y-81645601D01*
X108418244Y-81709557D01*
X108346264Y-81797264D01*
X108258557Y-81869244D01*
X108194601Y-81903429D01*
X108158495Y-81922728D01*
X108158492Y-81922729D01*
X108049916Y-81955666D01*
X107965298Y-81964000D01*
X107058702Y-81964000D01*
X106974084Y-81955666D01*
X106865508Y-81922729D01*
X106865505Y-81922728D01*
X106829399Y-81903429D01*
X106765443Y-81869244D01*
X106677736Y-81797264D01*
X106605756Y-81709557D01*
X106571571Y-81645601D01*
X106552272Y-81609495D01*
X106548223Y-81596147D01*
X106519334Y-81500916D01*
X106508213Y-81388000D01*
X106519334Y-81275084D01*
X106552271Y-81166508D01*
X106552272Y-81166505D01*
X106571571Y-81130399D01*
X106605756Y-81066443D01*
X106677736Y-80978736D01*
X106765443Y-80906756D01*
X106829399Y-80872571D01*
X106865505Y-80853272D01*
X106865508Y-80853271D01*
X106974084Y-80820334D01*
X107058702Y-80812000D01*
X107965298Y-80812000D01*
X108049916Y-80820334D01*
G37*
G36*
X174637000Y-81419000D02*
G01*
X172835000Y-81419000D01*
X172835000Y-79617000D01*
X174637000Y-79617000D01*
X174637000Y-81419000D01*
G37*
G36*
X110936217Y-73842808D02*
G01*
X110967489Y-73852294D01*
X110996308Y-73867698D01*
X111021570Y-73888430D01*
X111042302Y-73913692D01*
X111057706Y-73942511D01*
X111067192Y-73973783D01*
X111071000Y-74012448D01*
X111071000Y-75847552D01*
X111067192Y-75886217D01*
X111057706Y-75917489D01*
X111042302Y-75946308D01*
X111021570Y-75971570D01*
X110996308Y-75992302D01*
X110967489Y-76007706D01*
X110936217Y-76017192D01*
X110897552Y-76021000D01*
X107542448Y-76021000D01*
X107503783Y-76017192D01*
X107472511Y-76007706D01*
X107443692Y-75992302D01*
X107418430Y-75971570D01*
X107397698Y-75946308D01*
X107382294Y-75917489D01*
X107372808Y-75886217D01*
X107369000Y-75847552D01*
X107369000Y-74012448D01*
X107372808Y-73973783D01*
X107382294Y-73942511D01*
X107397698Y-73913692D01*
X107418430Y-73888430D01*
X107443692Y-73867698D01*
X107472511Y-73852294D01*
X107503783Y-73842808D01*
X107542448Y-73839000D01*
X110897552Y-73839000D01*
X110936217Y-73842808D01*
G37*
G36*
X110193871Y-68774786D02*
G01*
X110399530Y-68837172D01*
X110589055Y-68938475D01*
X110589058Y-68938477D01*
X110589059Y-68938478D01*
X110755186Y-69074814D01*
X110891522Y-69240941D01*
X110891525Y-69240945D01*
X110992828Y-69430470D01*
X111055214Y-69636129D01*
X111076278Y-69850000D01*
X111055214Y-70063871D01*
X110992828Y-70269530D01*
X110891525Y-70459055D01*
X110891523Y-70459058D01*
X110891522Y-70459059D01*
X110755186Y-70625186D01*
X110589059Y-70761522D01*
X110589055Y-70761525D01*
X110399530Y-70862828D01*
X110193871Y-70925214D01*
X110033591Y-70941000D01*
X108406409Y-70941000D01*
X108246129Y-70925214D01*
X108040470Y-70862828D01*
X107850945Y-70761525D01*
X107850941Y-70761522D01*
X107684814Y-70625186D01*
X107548478Y-70459059D01*
X107548477Y-70459058D01*
X107548475Y-70459055D01*
X107447172Y-70269530D01*
X107384786Y-70063871D01*
X107363722Y-69850000D01*
X107384786Y-69636129D01*
X107447172Y-69430470D01*
X107548475Y-69240945D01*
X107548478Y-69240941D01*
X107684814Y-69074814D01*
X107850941Y-68938478D01*
X107850942Y-68938477D01*
X107850945Y-68938475D01*
X108040470Y-68837172D01*
X108246129Y-68774786D01*
X108406409Y-68759000D01*
X110033591Y-68759000D01*
X110193871Y-68774786D01*
G37*
G36*
X172198512Y-65143927D02*
G01*
X172347812Y-65173624D01*
X172511784Y-65241544D01*
X172659354Y-65340147D01*
X172784853Y-65465646D01*
X172883456Y-65613216D01*
X172951376Y-65777188D01*
X172986000Y-65951259D01*
X172986000Y-66128741D01*
X172951376Y-66302812D01*
X172883456Y-66466784D01*
X172784853Y-66614354D01*
X172659354Y-66739853D01*
X172511784Y-66838456D01*
X172347812Y-66906376D01*
X172198512Y-66936073D01*
X172173742Y-66941000D01*
X171996258Y-66941000D01*
X171971488Y-66936073D01*
X171822188Y-66906376D01*
X171658216Y-66838456D01*
X171510646Y-66739853D01*
X171385147Y-66614354D01*
X171286544Y-66466784D01*
X171218624Y-66302812D01*
X171184000Y-66128741D01*
X171184000Y-65951259D01*
X171218624Y-65777188D01*
X171286544Y-65613216D01*
X171385147Y-65465646D01*
X171510646Y-65340147D01*
X171658216Y-65241544D01*
X171822188Y-65173624D01*
X171971488Y-65143927D01*
X171996258Y-65139000D01*
X172173742Y-65139000D01*
X172198512Y-65143927D01*
G37*
G36*
X162826000Y-66941000D02*
G01*
X161024000Y-66941000D01*
X161024000Y-65139000D01*
X162826000Y-65139000D01*
X162826000Y-66941000D01*
G37*
G36*
X164578512Y-65143927D02*
G01*
X164727812Y-65173624D01*
X164891784Y-65241544D01*
X165039354Y-65340147D01*
X165164853Y-65465646D01*
X165263456Y-65613216D01*
X165331376Y-65777188D01*
X165366000Y-65951259D01*
X165366000Y-66128741D01*
X165331376Y-66302812D01*
X165263456Y-66466784D01*
X165164853Y-66614354D01*
X165039354Y-66739853D01*
X164891784Y-66838456D01*
X164727812Y-66906376D01*
X164578512Y-66936073D01*
X164553742Y-66941000D01*
X164376258Y-66941000D01*
X164351488Y-66936073D01*
X164202188Y-66906376D01*
X164038216Y-66838456D01*
X163890646Y-66739853D01*
X163765147Y-66614354D01*
X163666544Y-66466784D01*
X163598624Y-66302812D01*
X163564000Y-66128741D01*
X163564000Y-65951259D01*
X163598624Y-65777188D01*
X163666544Y-65613216D01*
X163765147Y-65465646D01*
X163890646Y-65340147D01*
X164038216Y-65241544D01*
X164202188Y-65173624D01*
X164351488Y-65143927D01*
X164376258Y-65139000D01*
X164553742Y-65139000D01*
X164578512Y-65143927D01*
G37*
G36*
X167118512Y-65143927D02*
G01*
X167267812Y-65173624D01*
X167431784Y-65241544D01*
X167579354Y-65340147D01*
X167704853Y-65465646D01*
X167803456Y-65613216D01*
X167871376Y-65777188D01*
X167906000Y-65951259D01*
X167906000Y-66128741D01*
X167871376Y-66302812D01*
X167803456Y-66466784D01*
X167704853Y-66614354D01*
X167579354Y-66739853D01*
X167431784Y-66838456D01*
X167267812Y-66906376D01*
X167118512Y-66936073D01*
X167093742Y-66941000D01*
X166916258Y-66941000D01*
X166891488Y-66936073D01*
X166742188Y-66906376D01*
X166578216Y-66838456D01*
X166430646Y-66739853D01*
X166305147Y-66614354D01*
X166206544Y-66466784D01*
X166138624Y-66302812D01*
X166104000Y-66128741D01*
X166104000Y-65951259D01*
X166138624Y-65777188D01*
X166206544Y-65613216D01*
X166305147Y-65465646D01*
X166430646Y-65340147D01*
X166578216Y-65241544D01*
X166742188Y-65173624D01*
X166891488Y-65143927D01*
X166916258Y-65139000D01*
X167093742Y-65139000D01*
X167118512Y-65143927D01*
G37*
G36*
X169658512Y-65143927D02*
G01*
X169807812Y-65173624D01*
X169971784Y-65241544D01*
X170119354Y-65340147D01*
X170244853Y-65465646D01*
X170343456Y-65613216D01*
X170411376Y-65777188D01*
X170446000Y-65951259D01*
X170446000Y-66128741D01*
X170411376Y-66302812D01*
X170343456Y-66466784D01*
X170244853Y-66614354D01*
X170119354Y-66739853D01*
X169971784Y-66838456D01*
X169807812Y-66906376D01*
X169658512Y-66936073D01*
X169633742Y-66941000D01*
X169456258Y-66941000D01*
X169431488Y-66936073D01*
X169282188Y-66906376D01*
X169118216Y-66838456D01*
X168970646Y-66739853D01*
X168845147Y-66614354D01*
X168746544Y-66466784D01*
X168678624Y-66302812D01*
X168644000Y-66128741D01*
X168644000Y-65951259D01*
X168678624Y-65777188D01*
X168746544Y-65613216D01*
X168845147Y-65465646D01*
X168970646Y-65340147D01*
X169118216Y-65241544D01*
X169282188Y-65173624D01*
X169431488Y-65143927D01*
X169456258Y-65139000D01*
X169633742Y-65139000D01*
X169658512Y-65143927D01*
G37*
G36*
X115429512Y-60063927D02*
G01*
X115578812Y-60093624D01*
X115742784Y-60161544D01*
X115890354Y-60260147D01*
X116015853Y-60385646D01*
X116114456Y-60533216D01*
X116182376Y-60697188D01*
X116217000Y-60871259D01*
X116217000Y-61048741D01*
X116182376Y-61222812D01*
X116114456Y-61386784D01*
X116015853Y-61534354D01*
X115890354Y-61659853D01*
X115742784Y-61758456D01*
X115578812Y-61826376D01*
X115429512Y-61856073D01*
X115404742Y-61861000D01*
X115227258Y-61861000D01*
X115202488Y-61856073D01*
X115053188Y-61826376D01*
X114889216Y-61758456D01*
X114741646Y-61659853D01*
X114616147Y-61534354D01*
X114517544Y-61386784D01*
X114449624Y-61222812D01*
X114415000Y-61048741D01*
X114415000Y-60871259D01*
X114449624Y-60697188D01*
X114517544Y-60533216D01*
X114616147Y-60385646D01*
X114741646Y-60260147D01*
X114889216Y-60161544D01*
X115053188Y-60093624D01*
X115202488Y-60063927D01*
X115227258Y-60059000D01*
X115404742Y-60059000D01*
X115429512Y-60063927D01*
G37*
G36*
X113677000Y-61861000D02*
G01*
X111875000Y-61861000D01*
X111875000Y-60059000D01*
X113677000Y-60059000D01*
X113677000Y-61861000D01*
G37*
G36*
X117969512Y-60063927D02*
G01*
X118118812Y-60093624D01*
X118282784Y-60161544D01*
X118430354Y-60260147D01*
X118555853Y-60385646D01*
X118654456Y-60533216D01*
X118722376Y-60697188D01*
X118757000Y-60871259D01*
X118757000Y-61048741D01*
X118722376Y-61222812D01*
X118654456Y-61386784D01*
X118555853Y-61534354D01*
X118430354Y-61659853D01*
X118282784Y-61758456D01*
X118118812Y-61826376D01*
X117969512Y-61856073D01*
X117944742Y-61861000D01*
X117767258Y-61861000D01*
X117742488Y-61856073D01*
X117593188Y-61826376D01*
X117429216Y-61758456D01*
X117281646Y-61659853D01*
X117156147Y-61534354D01*
X117057544Y-61386784D01*
X116989624Y-61222812D01*
X116955000Y-61048741D01*
X116955000Y-60871259D01*
X116989624Y-60697188D01*
X117057544Y-60533216D01*
X117156147Y-60385646D01*
X117281646Y-60260147D01*
X117429216Y-60161544D01*
X117593188Y-60093624D01*
X117742488Y-60063927D01*
X117767258Y-60059000D01*
X117944742Y-60059000D01*
X117969512Y-60063927D01*
G37*
M02*
