G04 #@! TF.GenerationSoftware,KiCad,Pcbnew,5.1.5+dfsg1-2build2*
G04 #@! TF.CreationDate,2020-10-17T13:38:53+02:00*
G04 #@! TF.ProjectId,Esp32LoraBoard,45737033-324c-46f7-9261-426f6172642e,1.1*
G04 #@! TF.SameCoordinates,Original*
G04 #@! TF.FileFunction,Soldermask,Top*
G04 #@! TF.FilePolarity,Negative*
%FSLAX46Y46*%
G04 Gerber Fmt 4.6, Leading zero omitted, Abs format (unit mm)*
G04 Created by KiCad (PCBNEW 5.1.5+dfsg1-2build2) date 2020-10-17 13:38:53*
%MOMM*%
%LPD*%
G04 APERTURE LIST*
%ADD10C,0.100000*%
G04 APERTURE END LIST*
D10*
G36*
X112423266Y-120373321D02*
G01*
X112559757Y-120429858D01*
X112682597Y-120511937D01*
X112787063Y-120616403D01*
X112869142Y-120739243D01*
X112925679Y-120875734D01*
X112954500Y-121020630D01*
X112954500Y-121168370D01*
X112925679Y-121313266D01*
X112869142Y-121449757D01*
X112787063Y-121572597D01*
X112682597Y-121677063D01*
X112559757Y-121759142D01*
X112423266Y-121815679D01*
X112278370Y-121844500D01*
X112130630Y-121844500D01*
X111985734Y-121815679D01*
X111849243Y-121759142D01*
X111726403Y-121677063D01*
X111621937Y-121572597D01*
X111539858Y-121449757D01*
X111483321Y-121313266D01*
X111454500Y-121168370D01*
X111454500Y-121020630D01*
X111483321Y-120875734D01*
X111539858Y-120739243D01*
X111621937Y-120616403D01*
X111726403Y-120511937D01*
X111849243Y-120429858D01*
X111985734Y-120373321D01*
X112130630Y-120344500D01*
X112278370Y-120344500D01*
X112423266Y-120373321D01*
G37*
G36*
X126821500Y-120662000D02*
G01*
X125019500Y-120662000D01*
X125019500Y-118860000D01*
X126821500Y-118860000D01*
X126821500Y-120662000D01*
G37*
G36*
X121017512Y-118483927D02*
G01*
X121166812Y-118513624D01*
X121330784Y-118581544D01*
X121478354Y-118680147D01*
X121603853Y-118805646D01*
X121702456Y-118953216D01*
X121770376Y-119117188D01*
X121805000Y-119291259D01*
X121805000Y-119468741D01*
X121770376Y-119642812D01*
X121702456Y-119806784D01*
X121603853Y-119954354D01*
X121478354Y-120079853D01*
X121330784Y-120178456D01*
X121166812Y-120246376D01*
X121017512Y-120276073D01*
X120992742Y-120281000D01*
X120815258Y-120281000D01*
X120790488Y-120276073D01*
X120641188Y-120246376D01*
X120477216Y-120178456D01*
X120329646Y-120079853D01*
X120204147Y-119954354D01*
X120105544Y-119806784D01*
X120037624Y-119642812D01*
X120003000Y-119468741D01*
X120003000Y-119291259D01*
X120037624Y-119117188D01*
X120105544Y-118953216D01*
X120204147Y-118805646D01*
X120329646Y-118680147D01*
X120477216Y-118581544D01*
X120641188Y-118513624D01*
X120790488Y-118483927D01*
X120815258Y-118479000D01*
X120992742Y-118479000D01*
X121017512Y-118483927D01*
G37*
G36*
X116725000Y-120281000D02*
G01*
X114923000Y-120281000D01*
X114923000Y-118479000D01*
X116725000Y-118479000D01*
X116725000Y-120281000D01*
G37*
G36*
X118477512Y-118483927D02*
G01*
X118626812Y-118513624D01*
X118790784Y-118581544D01*
X118938354Y-118680147D01*
X119063853Y-118805646D01*
X119162456Y-118953216D01*
X119230376Y-119117188D01*
X119265000Y-119291259D01*
X119265000Y-119468741D01*
X119230376Y-119642812D01*
X119162456Y-119806784D01*
X119063853Y-119954354D01*
X118938354Y-120079853D01*
X118790784Y-120178456D01*
X118626812Y-120246376D01*
X118477512Y-120276073D01*
X118452742Y-120281000D01*
X118275258Y-120281000D01*
X118250488Y-120276073D01*
X118101188Y-120246376D01*
X117937216Y-120178456D01*
X117789646Y-120079853D01*
X117664147Y-119954354D01*
X117565544Y-119806784D01*
X117497624Y-119642812D01*
X117463000Y-119468741D01*
X117463000Y-119291259D01*
X117497624Y-119117188D01*
X117565544Y-118953216D01*
X117664147Y-118805646D01*
X117789646Y-118680147D01*
X117937216Y-118581544D01*
X118101188Y-118513624D01*
X118250488Y-118483927D01*
X118275258Y-118479000D01*
X118452742Y-118479000D01*
X118477512Y-118483927D01*
G37*
G36*
X145041000Y-119895000D02*
G01*
X141739000Y-119895000D01*
X141739000Y-117793000D01*
X145041000Y-117793000D01*
X145041000Y-119895000D01*
G37*
G36*
X156841000Y-119668000D02*
G01*
X155739000Y-119668000D01*
X155739000Y-117566000D01*
X156841000Y-117566000D01*
X156841000Y-119668000D01*
G37*
G36*
X158841000Y-119668000D02*
G01*
X157739000Y-119668000D01*
X157739000Y-117566000D01*
X158841000Y-117566000D01*
X158841000Y-119668000D01*
G37*
G36*
X160841000Y-119668000D02*
G01*
X159739000Y-119668000D01*
X159739000Y-117566000D01*
X160841000Y-117566000D01*
X160841000Y-119668000D01*
G37*
G36*
X162841000Y-119668000D02*
G01*
X161739000Y-119668000D01*
X161739000Y-117566000D01*
X162841000Y-117566000D01*
X162841000Y-119668000D01*
G37*
G36*
X164841000Y-119668000D02*
G01*
X163739000Y-119668000D01*
X163739000Y-117566000D01*
X164841000Y-117566000D01*
X164841000Y-119668000D01*
G37*
G36*
X166841000Y-119668000D02*
G01*
X165739000Y-119668000D01*
X165739000Y-117566000D01*
X166841000Y-117566000D01*
X166841000Y-119668000D01*
G37*
G36*
X168841000Y-119668000D02*
G01*
X167739000Y-119668000D01*
X167739000Y-117566000D01*
X168841000Y-117566000D01*
X168841000Y-119668000D01*
G37*
G36*
X154841000Y-119668000D02*
G01*
X153739000Y-119668000D01*
X153739000Y-117566000D01*
X154841000Y-117566000D01*
X154841000Y-119668000D01*
G37*
G36*
X150696564Y-114733389D02*
G01*
X150880013Y-114809376D01*
X150887835Y-114812616D01*
X150924171Y-114836895D01*
X151059973Y-114927635D01*
X151206365Y-115074027D01*
X151321385Y-115246167D01*
X151400611Y-115437436D01*
X151441000Y-115640484D01*
X151441000Y-115847516D01*
X151400611Y-116050564D01*
X151353550Y-116164179D01*
X151321384Y-116241835D01*
X151206365Y-116413973D01*
X151059973Y-116560365D01*
X150887835Y-116675384D01*
X150887834Y-116675385D01*
X150887833Y-116675385D01*
X150696564Y-116754611D01*
X150493516Y-116795000D01*
X150286484Y-116795000D01*
X150083436Y-116754611D01*
X149892167Y-116675385D01*
X149892166Y-116675385D01*
X149892165Y-116675384D01*
X149720027Y-116560365D01*
X149573635Y-116413973D01*
X149458616Y-116241835D01*
X149426450Y-116164179D01*
X149379389Y-116050564D01*
X149339000Y-115847516D01*
X149339000Y-115640484D01*
X149379389Y-115437436D01*
X149458615Y-115246167D01*
X149573635Y-115074027D01*
X149720027Y-114927635D01*
X149855829Y-114836895D01*
X149892165Y-114812616D01*
X149899987Y-114809376D01*
X150083436Y-114733389D01*
X150286484Y-114693000D01*
X150493516Y-114693000D01*
X150696564Y-114733389D01*
G37*
G36*
X136196564Y-114733389D02*
G01*
X136380013Y-114809376D01*
X136387835Y-114812616D01*
X136424171Y-114836895D01*
X136559973Y-114927635D01*
X136706365Y-115074027D01*
X136821385Y-115246167D01*
X136900611Y-115437436D01*
X136941000Y-115640484D01*
X136941000Y-115847516D01*
X136900611Y-116050564D01*
X136853550Y-116164179D01*
X136821384Y-116241835D01*
X136706365Y-116413973D01*
X136559973Y-116560365D01*
X136387835Y-116675384D01*
X136387834Y-116675385D01*
X136387833Y-116675385D01*
X136196564Y-116754611D01*
X135993516Y-116795000D01*
X135786484Y-116795000D01*
X135583436Y-116754611D01*
X135392167Y-116675385D01*
X135392166Y-116675385D01*
X135392165Y-116675384D01*
X135220027Y-116560365D01*
X135073635Y-116413973D01*
X134958616Y-116241835D01*
X134926450Y-116164179D01*
X134879389Y-116050564D01*
X134839000Y-115847516D01*
X134839000Y-115640484D01*
X134879389Y-115437436D01*
X134958615Y-115246167D01*
X135073635Y-115074027D01*
X135220027Y-114927635D01*
X135355829Y-114836895D01*
X135392165Y-114812616D01*
X135399987Y-114809376D01*
X135583436Y-114733389D01*
X135786484Y-114693000D01*
X135993516Y-114693000D01*
X136196564Y-114733389D01*
G37*
G36*
X130443562Y-114648181D02*
G01*
X130478481Y-114658774D01*
X130510663Y-114675976D01*
X130538873Y-114699127D01*
X130562024Y-114727337D01*
X130579226Y-114759519D01*
X130589819Y-114794438D01*
X130594000Y-114836895D01*
X130594000Y-116303105D01*
X130589819Y-116345562D01*
X130579226Y-116380481D01*
X130562024Y-116412663D01*
X130538873Y-116440873D01*
X130510663Y-116464024D01*
X130478481Y-116481226D01*
X130443562Y-116491819D01*
X130401105Y-116496000D01*
X129259895Y-116496000D01*
X129217438Y-116491819D01*
X129182519Y-116481226D01*
X129150337Y-116464024D01*
X129122127Y-116440873D01*
X129098976Y-116412663D01*
X129081774Y-116380481D01*
X129071181Y-116345562D01*
X129067000Y-116303105D01*
X129067000Y-114836895D01*
X129071181Y-114794438D01*
X129081774Y-114759519D01*
X129098976Y-114727337D01*
X129122127Y-114699127D01*
X129150337Y-114675976D01*
X129182519Y-114658774D01*
X129217438Y-114648181D01*
X129259895Y-114644000D01*
X130401105Y-114644000D01*
X130443562Y-114648181D01*
G37*
G36*
X133418562Y-114648181D02*
G01*
X133453481Y-114658774D01*
X133485663Y-114675976D01*
X133513873Y-114699127D01*
X133537024Y-114727337D01*
X133554226Y-114759519D01*
X133564819Y-114794438D01*
X133569000Y-114836895D01*
X133569000Y-116303105D01*
X133564819Y-116345562D01*
X133554226Y-116380481D01*
X133537024Y-116412663D01*
X133513873Y-116440873D01*
X133485663Y-116464024D01*
X133453481Y-116481226D01*
X133418562Y-116491819D01*
X133376105Y-116496000D01*
X132234895Y-116496000D01*
X132192438Y-116491819D01*
X132157519Y-116481226D01*
X132125337Y-116464024D01*
X132097127Y-116440873D01*
X132073976Y-116412663D01*
X132056774Y-116380481D01*
X132046181Y-116345562D01*
X132042000Y-116303105D01*
X132042000Y-114836895D01*
X132046181Y-114794438D01*
X132056774Y-114759519D01*
X132073976Y-114727337D01*
X132097127Y-114699127D01*
X132125337Y-114675976D01*
X132157519Y-114658774D01*
X132192438Y-114648181D01*
X132234895Y-114644000D01*
X133376105Y-114644000D01*
X133418562Y-114648181D01*
G37*
G36*
X174272266Y-114721821D02*
G01*
X174408757Y-114778358D01*
X174531597Y-114860437D01*
X174636063Y-114964903D01*
X174718142Y-115087743D01*
X174774679Y-115224234D01*
X174803500Y-115369130D01*
X174803500Y-115516870D01*
X174774679Y-115661766D01*
X174718142Y-115798257D01*
X174636063Y-115921097D01*
X174531597Y-116025563D01*
X174408757Y-116107642D01*
X174272266Y-116164179D01*
X174127370Y-116193000D01*
X173979630Y-116193000D01*
X173834734Y-116164179D01*
X173698243Y-116107642D01*
X173575403Y-116025563D01*
X173470937Y-115921097D01*
X173388858Y-115798257D01*
X173332321Y-115661766D01*
X173303500Y-115516870D01*
X173303500Y-115369130D01*
X173332321Y-115224234D01*
X173388858Y-115087743D01*
X173470937Y-114964903D01*
X173575403Y-114860437D01*
X173698243Y-114778358D01*
X173834734Y-114721821D01*
X173979630Y-114693000D01*
X174127370Y-114693000D01*
X174272266Y-114721821D01*
G37*
G36*
X136196564Y-112233389D02*
G01*
X136349881Y-112296895D01*
X136387835Y-112312616D01*
X136559973Y-112427635D01*
X136706365Y-112574027D01*
X136756712Y-112649376D01*
X136821385Y-112746167D01*
X136900611Y-112937436D01*
X136941000Y-113140484D01*
X136941000Y-113347516D01*
X136900611Y-113550564D01*
X136843640Y-113688105D01*
X136821384Y-113741835D01*
X136706365Y-113913973D01*
X136559973Y-114060365D01*
X136387835Y-114175384D01*
X136387834Y-114175385D01*
X136387833Y-114175385D01*
X136196564Y-114254611D01*
X135993516Y-114295000D01*
X135786484Y-114295000D01*
X135583436Y-114254611D01*
X135392167Y-114175385D01*
X135392166Y-114175385D01*
X135392165Y-114175384D01*
X135220027Y-114060365D01*
X135073635Y-113913973D01*
X134958616Y-113741835D01*
X134936360Y-113688105D01*
X134879389Y-113550564D01*
X134839000Y-113347516D01*
X134839000Y-113140484D01*
X134879389Y-112937436D01*
X134958615Y-112746167D01*
X135023289Y-112649376D01*
X135073635Y-112574027D01*
X135220027Y-112427635D01*
X135392165Y-112312616D01*
X135430119Y-112296895D01*
X135583436Y-112233389D01*
X135786484Y-112193000D01*
X135993516Y-112193000D01*
X136196564Y-112233389D01*
G37*
G36*
X172225562Y-112488181D02*
G01*
X172260481Y-112498774D01*
X172292663Y-112515976D01*
X172320873Y-112539127D01*
X172344024Y-112567337D01*
X172361226Y-112599519D01*
X172371819Y-112634438D01*
X172376000Y-112676895D01*
X172376000Y-113818105D01*
X172371819Y-113860562D01*
X172361226Y-113895481D01*
X172344024Y-113927663D01*
X172320873Y-113955873D01*
X172292663Y-113979024D01*
X172260481Y-113996226D01*
X172225562Y-114006819D01*
X172183105Y-114011000D01*
X170716895Y-114011000D01*
X170674438Y-114006819D01*
X170639519Y-113996226D01*
X170607337Y-113979024D01*
X170579127Y-113955873D01*
X170555976Y-113927663D01*
X170538774Y-113895481D01*
X170528181Y-113860562D01*
X170524000Y-113818105D01*
X170524000Y-112676895D01*
X170528181Y-112634438D01*
X170538774Y-112599519D01*
X170555976Y-112567337D01*
X170579127Y-112539127D01*
X170607337Y-112515976D01*
X170639519Y-112498774D01*
X170674438Y-112488181D01*
X170716895Y-112484000D01*
X172183105Y-112484000D01*
X172225562Y-112488181D01*
G37*
G36*
X133418562Y-112108181D02*
G01*
X133453481Y-112118774D01*
X133485663Y-112135976D01*
X133513873Y-112159127D01*
X133537024Y-112187337D01*
X133554226Y-112219519D01*
X133564819Y-112254438D01*
X133569000Y-112296895D01*
X133569000Y-113763105D01*
X133564819Y-113805562D01*
X133554226Y-113840481D01*
X133537024Y-113872663D01*
X133513873Y-113900873D01*
X133485663Y-113924024D01*
X133453481Y-113941226D01*
X133418562Y-113951819D01*
X133376105Y-113956000D01*
X132234895Y-113956000D01*
X132192438Y-113951819D01*
X132157519Y-113941226D01*
X132125337Y-113924024D01*
X132097127Y-113900873D01*
X132073976Y-113872663D01*
X132056774Y-113840481D01*
X132046181Y-113805562D01*
X132042000Y-113763105D01*
X132042000Y-112296895D01*
X132046181Y-112254438D01*
X132056774Y-112219519D01*
X132073976Y-112187337D01*
X132097127Y-112159127D01*
X132125337Y-112135976D01*
X132157519Y-112118774D01*
X132192438Y-112108181D01*
X132234895Y-112104000D01*
X133376105Y-112104000D01*
X133418562Y-112108181D01*
G37*
G36*
X130443562Y-112108181D02*
G01*
X130478481Y-112118774D01*
X130510663Y-112135976D01*
X130538873Y-112159127D01*
X130562024Y-112187337D01*
X130579226Y-112219519D01*
X130589819Y-112254438D01*
X130594000Y-112296895D01*
X130594000Y-113763105D01*
X130589819Y-113805562D01*
X130579226Y-113840481D01*
X130562024Y-113872663D01*
X130538873Y-113900873D01*
X130510663Y-113924024D01*
X130478481Y-113941226D01*
X130443562Y-113951819D01*
X130401105Y-113956000D01*
X129259895Y-113956000D01*
X129217438Y-113951819D01*
X129182519Y-113941226D01*
X129150337Y-113924024D01*
X129122127Y-113900873D01*
X129098976Y-113872663D01*
X129081774Y-113840481D01*
X129071181Y-113805562D01*
X129067000Y-113763105D01*
X129067000Y-112296895D01*
X129071181Y-112254438D01*
X129081774Y-112219519D01*
X129098976Y-112187337D01*
X129122127Y-112159127D01*
X129150337Y-112135976D01*
X129182519Y-112118774D01*
X129217438Y-112108181D01*
X129259895Y-112104000D01*
X130401105Y-112104000D01*
X130443562Y-112108181D01*
G37*
G36*
X136941000Y-111795000D02*
G01*
X134839000Y-111795000D01*
X134839000Y-109693000D01*
X136941000Y-109693000D01*
X136941000Y-111795000D01*
G37*
G36*
X150696564Y-109733389D02*
G01*
X150808202Y-109779631D01*
X150887835Y-109812616D01*
X150894008Y-109816741D01*
X151059973Y-109927635D01*
X151206365Y-110074027D01*
X151321385Y-110246167D01*
X151400611Y-110437436D01*
X151441000Y-110640484D01*
X151441000Y-110847516D01*
X151400611Y-111050564D01*
X151360208Y-111148105D01*
X151321384Y-111241835D01*
X151206365Y-111413973D01*
X151059973Y-111560365D01*
X150887835Y-111675384D01*
X150887834Y-111675385D01*
X150887833Y-111675385D01*
X150696564Y-111754611D01*
X150493516Y-111795000D01*
X150286484Y-111795000D01*
X150083436Y-111754611D01*
X149892167Y-111675385D01*
X149892166Y-111675385D01*
X149892165Y-111675384D01*
X149720027Y-111560365D01*
X149573635Y-111413973D01*
X149458616Y-111241835D01*
X149419792Y-111148105D01*
X149379389Y-111050564D01*
X149339000Y-110847516D01*
X149339000Y-110640484D01*
X149379389Y-110437436D01*
X149458615Y-110246167D01*
X149573635Y-110074027D01*
X149720027Y-109927635D01*
X149885992Y-109816741D01*
X149892165Y-109812616D01*
X149971798Y-109779631D01*
X150083436Y-109733389D01*
X150286484Y-109693000D01*
X150493516Y-109693000D01*
X150696564Y-109733389D01*
G37*
G36*
X130443562Y-109568181D02*
G01*
X130478481Y-109578774D01*
X130510663Y-109595976D01*
X130538873Y-109619127D01*
X130562024Y-109647337D01*
X130579226Y-109679519D01*
X130589819Y-109714438D01*
X130594000Y-109756895D01*
X130594000Y-111223105D01*
X130589819Y-111265562D01*
X130579226Y-111300481D01*
X130562024Y-111332663D01*
X130538873Y-111360873D01*
X130510663Y-111384024D01*
X130478481Y-111401226D01*
X130443562Y-111411819D01*
X130401105Y-111416000D01*
X129259895Y-111416000D01*
X129217438Y-111411819D01*
X129182519Y-111401226D01*
X129150337Y-111384024D01*
X129122127Y-111360873D01*
X129098976Y-111332663D01*
X129081774Y-111300481D01*
X129071181Y-111265562D01*
X129067000Y-111223105D01*
X129067000Y-109756895D01*
X129071181Y-109714438D01*
X129081774Y-109679519D01*
X129098976Y-109647337D01*
X129122127Y-109619127D01*
X129150337Y-109595976D01*
X129182519Y-109578774D01*
X129217438Y-109568181D01*
X129259895Y-109564000D01*
X130401105Y-109564000D01*
X130443562Y-109568181D01*
G37*
G36*
X133418562Y-109568181D02*
G01*
X133453481Y-109578774D01*
X133485663Y-109595976D01*
X133513873Y-109619127D01*
X133537024Y-109647337D01*
X133554226Y-109679519D01*
X133564819Y-109714438D01*
X133569000Y-109756895D01*
X133569000Y-111223105D01*
X133564819Y-111265562D01*
X133554226Y-111300481D01*
X133537024Y-111332663D01*
X133513873Y-111360873D01*
X133485663Y-111384024D01*
X133453481Y-111401226D01*
X133418562Y-111411819D01*
X133376105Y-111416000D01*
X132234895Y-111416000D01*
X132192438Y-111411819D01*
X132157519Y-111401226D01*
X132125337Y-111384024D01*
X132097127Y-111360873D01*
X132073976Y-111332663D01*
X132056774Y-111300481D01*
X132046181Y-111265562D01*
X132042000Y-111223105D01*
X132042000Y-109756895D01*
X132046181Y-109714438D01*
X132056774Y-109679519D01*
X132073976Y-109647337D01*
X132097127Y-109619127D01*
X132125337Y-109595976D01*
X132157519Y-109578774D01*
X132192438Y-109568181D01*
X132234895Y-109564000D01*
X133376105Y-109564000D01*
X133418562Y-109568181D01*
G37*
G36*
X172225562Y-109513181D02*
G01*
X172260481Y-109523774D01*
X172292663Y-109540976D01*
X172320873Y-109564127D01*
X172344024Y-109592337D01*
X172361226Y-109624519D01*
X172371819Y-109659438D01*
X172376000Y-109701895D01*
X172376000Y-110843105D01*
X172371819Y-110885562D01*
X172361226Y-110920481D01*
X172344024Y-110952663D01*
X172320873Y-110980873D01*
X172292663Y-111004024D01*
X172260481Y-111021226D01*
X172225562Y-111031819D01*
X172183105Y-111036000D01*
X170716895Y-111036000D01*
X170674438Y-111031819D01*
X170639519Y-111021226D01*
X170607337Y-111004024D01*
X170579127Y-110980873D01*
X170555976Y-110952663D01*
X170538774Y-110920481D01*
X170528181Y-110885562D01*
X170524000Y-110843105D01*
X170524000Y-109701895D01*
X170528181Y-109659438D01*
X170538774Y-109624519D01*
X170555976Y-109592337D01*
X170579127Y-109564127D01*
X170607337Y-109540976D01*
X170639519Y-109523774D01*
X170674438Y-109513181D01*
X170716895Y-109509000D01*
X172183105Y-109509000D01*
X172225562Y-109513181D01*
G37*
G36*
X109685871Y-108652786D02*
G01*
X109891530Y-108715172D01*
X110081055Y-108816475D01*
X110081058Y-108816477D01*
X110081059Y-108816478D01*
X110247186Y-108952814D01*
X110383522Y-109118941D01*
X110383525Y-109118945D01*
X110484828Y-109308470D01*
X110547214Y-109514129D01*
X110568278Y-109728000D01*
X110547214Y-109941871D01*
X110484828Y-110147530D01*
X110383525Y-110337055D01*
X110383523Y-110337058D01*
X110383522Y-110337059D01*
X110247186Y-110503186D01*
X110093880Y-110629000D01*
X110081055Y-110639525D01*
X109891530Y-110740828D01*
X109685871Y-110803214D01*
X109525591Y-110819000D01*
X107898409Y-110819000D01*
X107738129Y-110803214D01*
X107532470Y-110740828D01*
X107342945Y-110639525D01*
X107330120Y-110629000D01*
X107176814Y-110503186D01*
X107040478Y-110337059D01*
X107040477Y-110337058D01*
X107040475Y-110337055D01*
X106939172Y-110147530D01*
X106876786Y-109941871D01*
X106855722Y-109728000D01*
X106876786Y-109514129D01*
X106939172Y-109308470D01*
X107040475Y-109118945D01*
X107040478Y-109118941D01*
X107176814Y-108952814D01*
X107342941Y-108816478D01*
X107342942Y-108816477D01*
X107342945Y-108816475D01*
X107532470Y-108715172D01*
X107738129Y-108652786D01*
X107898409Y-108637000D01*
X109525591Y-108637000D01*
X109685871Y-108652786D01*
G37*
G36*
X118154607Y-108830852D02*
G01*
X118309312Y-108861624D01*
X118473284Y-108929544D01*
X118620854Y-109028147D01*
X118746353Y-109153646D01*
X118844956Y-109301216D01*
X118912876Y-109465188D01*
X118947500Y-109639259D01*
X118947500Y-109816741D01*
X118912876Y-109990812D01*
X118844956Y-110154784D01*
X118746353Y-110302354D01*
X118620854Y-110427853D01*
X118473284Y-110526456D01*
X118309312Y-110594376D01*
X118160012Y-110624073D01*
X118135242Y-110629000D01*
X117957758Y-110629000D01*
X117932988Y-110624073D01*
X117783688Y-110594376D01*
X117619716Y-110526456D01*
X117472146Y-110427853D01*
X117346647Y-110302354D01*
X117248044Y-110154784D01*
X117180124Y-109990812D01*
X117145500Y-109816741D01*
X117145500Y-109639259D01*
X117180124Y-109465188D01*
X117248044Y-109301216D01*
X117346647Y-109153646D01*
X117472146Y-109028147D01*
X117619716Y-108929544D01*
X117783688Y-108861624D01*
X117938393Y-108830852D01*
X117957758Y-108827000D01*
X118135242Y-108827000D01*
X118154607Y-108830852D01*
G37*
G36*
X121487500Y-110629000D02*
G01*
X119685500Y-110629000D01*
X119685500Y-108827000D01*
X121487500Y-108827000D01*
X121487500Y-110629000D01*
G37*
G36*
X130443562Y-107028181D02*
G01*
X130478481Y-107038774D01*
X130510663Y-107055976D01*
X130538873Y-107079127D01*
X130562024Y-107107337D01*
X130579226Y-107139519D01*
X130589819Y-107174438D01*
X130594000Y-107216895D01*
X130594000Y-108683105D01*
X130589819Y-108725562D01*
X130579226Y-108760481D01*
X130562024Y-108792663D01*
X130538873Y-108820873D01*
X130510663Y-108844024D01*
X130478481Y-108861226D01*
X130443562Y-108871819D01*
X130401105Y-108876000D01*
X129259895Y-108876000D01*
X129217438Y-108871819D01*
X129182519Y-108861226D01*
X129150337Y-108844024D01*
X129122127Y-108820873D01*
X129098976Y-108792663D01*
X129081774Y-108760481D01*
X129071181Y-108725562D01*
X129067000Y-108683105D01*
X129067000Y-107216895D01*
X129071181Y-107174438D01*
X129081774Y-107139519D01*
X129098976Y-107107337D01*
X129122127Y-107079127D01*
X129150337Y-107055976D01*
X129182519Y-107038774D01*
X129217438Y-107028181D01*
X129259895Y-107024000D01*
X130401105Y-107024000D01*
X130443562Y-107028181D01*
G37*
G36*
X133418562Y-107028181D02*
G01*
X133453481Y-107038774D01*
X133485663Y-107055976D01*
X133513873Y-107079127D01*
X133537024Y-107107337D01*
X133554226Y-107139519D01*
X133564819Y-107174438D01*
X133569000Y-107216895D01*
X133569000Y-108683105D01*
X133564819Y-108725562D01*
X133554226Y-108760481D01*
X133537024Y-108792663D01*
X133513873Y-108820873D01*
X133485663Y-108844024D01*
X133453481Y-108861226D01*
X133418562Y-108871819D01*
X133376105Y-108876000D01*
X132234895Y-108876000D01*
X132192438Y-108871819D01*
X132157519Y-108861226D01*
X132125337Y-108844024D01*
X132097127Y-108820873D01*
X132073976Y-108792663D01*
X132056774Y-108760481D01*
X132046181Y-108725562D01*
X132042000Y-108683105D01*
X132042000Y-107216895D01*
X132046181Y-107174438D01*
X132056774Y-107139519D01*
X132073976Y-107107337D01*
X132097127Y-107079127D01*
X132125337Y-107055976D01*
X132157519Y-107038774D01*
X132192438Y-107028181D01*
X132234895Y-107024000D01*
X133376105Y-107024000D01*
X133418562Y-107028181D01*
G37*
G36*
X145041000Y-108695000D02*
G01*
X141739000Y-108695000D01*
X141739000Y-106593000D01*
X145041000Y-106593000D01*
X145041000Y-108695000D01*
G37*
G36*
X175887000Y-106548000D02*
G01*
X171585000Y-106548000D01*
X171585000Y-105096000D01*
X175887000Y-105096000D01*
X175887000Y-106548000D01*
G37*
G36*
X109685871Y-103572786D02*
G01*
X109891530Y-103635172D01*
X110081055Y-103736475D01*
X110081058Y-103736477D01*
X110081059Y-103736478D01*
X110247186Y-103872814D01*
X110383522Y-104038941D01*
X110383525Y-104038945D01*
X110484828Y-104228470D01*
X110547214Y-104434129D01*
X110568278Y-104648000D01*
X110547214Y-104861871D01*
X110484828Y-105067530D01*
X110383525Y-105257055D01*
X110383523Y-105257058D01*
X110383522Y-105257059D01*
X110247186Y-105423186D01*
X110081059Y-105559522D01*
X110081055Y-105559525D01*
X109891530Y-105660828D01*
X109685871Y-105723214D01*
X109525591Y-105739000D01*
X107898409Y-105739000D01*
X107738129Y-105723214D01*
X107532470Y-105660828D01*
X107342945Y-105559525D01*
X107342941Y-105559522D01*
X107176814Y-105423186D01*
X107040478Y-105257059D01*
X107040477Y-105257058D01*
X107040475Y-105257055D01*
X106939172Y-105067530D01*
X106876786Y-104861871D01*
X106855722Y-104648000D01*
X106876786Y-104434129D01*
X106939172Y-104228470D01*
X107040475Y-104038945D01*
X107040478Y-104038941D01*
X107176814Y-103872814D01*
X107342941Y-103736478D01*
X107342942Y-103736477D01*
X107342945Y-103736475D01*
X107532470Y-103635172D01*
X107738129Y-103572786D01*
X107898409Y-103557000D01*
X109525591Y-103557000D01*
X109685871Y-103572786D01*
G37*
G36*
X116599562Y-102328181D02*
G01*
X116634481Y-102338774D01*
X116666663Y-102355976D01*
X116694873Y-102379127D01*
X116718024Y-102407337D01*
X116735226Y-102439519D01*
X116745819Y-102474438D01*
X116750000Y-102516895D01*
X116750000Y-103658105D01*
X116745819Y-103700562D01*
X116735226Y-103735481D01*
X116718024Y-103767663D01*
X116694873Y-103795873D01*
X116666663Y-103819024D01*
X116634481Y-103836226D01*
X116599562Y-103846819D01*
X116557105Y-103851000D01*
X115090895Y-103851000D01*
X115048438Y-103846819D01*
X115013519Y-103836226D01*
X114981337Y-103819024D01*
X114953127Y-103795873D01*
X114929976Y-103767663D01*
X114912774Y-103735481D01*
X114902181Y-103700562D01*
X114898000Y-103658105D01*
X114898000Y-102516895D01*
X114902181Y-102474438D01*
X114912774Y-102439519D01*
X114929976Y-102407337D01*
X114953127Y-102379127D01*
X114981337Y-102355976D01*
X115013519Y-102338774D01*
X115048438Y-102328181D01*
X115090895Y-102324000D01*
X116557105Y-102324000D01*
X116599562Y-102328181D01*
G37*
G36*
X123773500Y-103771000D02*
G01*
X121971500Y-103771000D01*
X121971500Y-101969000D01*
X123773500Y-101969000D01*
X123773500Y-103771000D01*
G37*
G36*
X175787000Y-103683000D02*
G01*
X172085000Y-103683000D01*
X172085000Y-102311000D01*
X175787000Y-102311000D01*
X175787000Y-103683000D01*
G37*
G36*
X156841000Y-103668000D02*
G01*
X155739000Y-103668000D01*
X155739000Y-101566000D01*
X156841000Y-101566000D01*
X156841000Y-103668000D01*
G37*
G36*
X168841000Y-103668000D02*
G01*
X167739000Y-103668000D01*
X167739000Y-101566000D01*
X168841000Y-101566000D01*
X168841000Y-103668000D01*
G37*
G36*
X154841000Y-103668000D02*
G01*
X153739000Y-103668000D01*
X153739000Y-101566000D01*
X154841000Y-101566000D01*
X154841000Y-103668000D01*
G37*
G36*
X166841000Y-103668000D02*
G01*
X165739000Y-103668000D01*
X165739000Y-101566000D01*
X166841000Y-101566000D01*
X166841000Y-103668000D01*
G37*
G36*
X164841000Y-103668000D02*
G01*
X163739000Y-103668000D01*
X163739000Y-101566000D01*
X164841000Y-101566000D01*
X164841000Y-103668000D01*
G37*
G36*
X162841000Y-103668000D02*
G01*
X161739000Y-103668000D01*
X161739000Y-101566000D01*
X162841000Y-101566000D01*
X162841000Y-103668000D01*
G37*
G36*
X160841000Y-103668000D02*
G01*
X159739000Y-103668000D01*
X159739000Y-101566000D01*
X160841000Y-101566000D01*
X160841000Y-103668000D01*
G37*
G36*
X158841000Y-103668000D02*
G01*
X157739000Y-103668000D01*
X157739000Y-101566000D01*
X158841000Y-101566000D01*
X158841000Y-103668000D01*
G37*
G36*
X175887000Y-100898000D02*
G01*
X171585000Y-100898000D01*
X171585000Y-99446000D01*
X175887000Y-99446000D01*
X175887000Y-100898000D01*
G37*
G36*
X116599562Y-99353181D02*
G01*
X116634481Y-99363774D01*
X116666663Y-99380976D01*
X116694873Y-99404127D01*
X116718024Y-99432337D01*
X116735226Y-99464519D01*
X116745819Y-99499438D01*
X116750000Y-99541895D01*
X116750000Y-100683105D01*
X116745819Y-100725562D01*
X116735226Y-100760481D01*
X116718024Y-100792663D01*
X116694873Y-100820873D01*
X116666663Y-100844024D01*
X116634481Y-100861226D01*
X116599562Y-100871819D01*
X116557105Y-100876000D01*
X115090895Y-100876000D01*
X115048438Y-100871819D01*
X115013519Y-100861226D01*
X114981337Y-100844024D01*
X114953127Y-100820873D01*
X114929976Y-100792663D01*
X114912774Y-100760481D01*
X114902181Y-100725562D01*
X114898000Y-100683105D01*
X114898000Y-99541895D01*
X114902181Y-99499438D01*
X114912774Y-99464519D01*
X114929976Y-99432337D01*
X114953127Y-99404127D01*
X114981337Y-99380976D01*
X115013519Y-99363774D01*
X115048438Y-99353181D01*
X115090895Y-99349000D01*
X116557105Y-99349000D01*
X116599562Y-99353181D01*
G37*
G36*
X109685871Y-98492786D02*
G01*
X109891530Y-98555172D01*
X110081055Y-98656475D01*
X110081058Y-98656477D01*
X110081059Y-98656478D01*
X110247186Y-98792814D01*
X110383522Y-98958941D01*
X110383525Y-98958945D01*
X110484828Y-99148470D01*
X110547214Y-99354129D01*
X110568278Y-99568000D01*
X110547214Y-99781871D01*
X110484828Y-99987530D01*
X110383525Y-100177055D01*
X110383523Y-100177058D01*
X110383522Y-100177059D01*
X110247186Y-100343186D01*
X110081059Y-100479522D01*
X110081055Y-100479525D01*
X109891530Y-100580828D01*
X109685871Y-100643214D01*
X109525591Y-100659000D01*
X107898409Y-100659000D01*
X107738129Y-100643214D01*
X107532470Y-100580828D01*
X107342945Y-100479525D01*
X107342941Y-100479522D01*
X107176814Y-100343186D01*
X107040478Y-100177059D01*
X107040477Y-100177058D01*
X107040475Y-100177055D01*
X106939172Y-99987530D01*
X106876786Y-99781871D01*
X106855722Y-99568000D01*
X106876786Y-99354129D01*
X106939172Y-99148470D01*
X107040475Y-98958945D01*
X107040478Y-98958941D01*
X107176814Y-98792814D01*
X107342941Y-98656478D01*
X107342942Y-98656477D01*
X107342945Y-98656475D01*
X107532470Y-98555172D01*
X107738129Y-98492786D01*
X107898409Y-98477000D01*
X109525591Y-98477000D01*
X109685871Y-98492786D01*
G37*
G36*
X119139562Y-97284681D02*
G01*
X119174481Y-97295274D01*
X119206663Y-97312476D01*
X119234873Y-97335627D01*
X119258024Y-97363837D01*
X119275226Y-97396019D01*
X119285819Y-97430938D01*
X119290000Y-97473395D01*
X119290000Y-98614605D01*
X119285819Y-98657062D01*
X119275226Y-98691981D01*
X119258024Y-98724163D01*
X119234873Y-98752373D01*
X119206663Y-98775524D01*
X119174481Y-98792726D01*
X119139562Y-98803319D01*
X119097105Y-98807500D01*
X117630895Y-98807500D01*
X117588438Y-98803319D01*
X117553519Y-98792726D01*
X117521337Y-98775524D01*
X117493127Y-98752373D01*
X117469976Y-98724163D01*
X117452774Y-98691981D01*
X117442181Y-98657062D01*
X117438000Y-98614605D01*
X117438000Y-97473395D01*
X117442181Y-97430938D01*
X117452774Y-97396019D01*
X117469976Y-97363837D01*
X117493127Y-97335627D01*
X117521337Y-97312476D01*
X117553519Y-97295274D01*
X117588438Y-97284681D01*
X117630895Y-97280500D01*
X119097105Y-97280500D01*
X119139562Y-97284681D01*
G37*
G36*
X116599562Y-97284681D02*
G01*
X116634481Y-97295274D01*
X116666663Y-97312476D01*
X116694873Y-97335627D01*
X116718024Y-97363837D01*
X116735226Y-97396019D01*
X116745819Y-97430938D01*
X116750000Y-97473395D01*
X116750000Y-98614605D01*
X116745819Y-98657062D01*
X116735226Y-98691981D01*
X116718024Y-98724163D01*
X116694873Y-98752373D01*
X116666663Y-98775524D01*
X116634481Y-98792726D01*
X116599562Y-98803319D01*
X116557105Y-98807500D01*
X115090895Y-98807500D01*
X115048438Y-98803319D01*
X115013519Y-98792726D01*
X114981337Y-98775524D01*
X114953127Y-98752373D01*
X114929976Y-98724163D01*
X114912774Y-98691981D01*
X114902181Y-98657062D01*
X114898000Y-98614605D01*
X114898000Y-97473395D01*
X114902181Y-97430938D01*
X114912774Y-97396019D01*
X114929976Y-97363837D01*
X114953127Y-97335627D01*
X114981337Y-97312476D01*
X115013519Y-97295274D01*
X115048438Y-97284681D01*
X115090895Y-97280500D01*
X116557105Y-97280500D01*
X116599562Y-97284681D01*
G37*
G36*
X127393000Y-97992500D02*
G01*
X125591000Y-97992500D01*
X125591000Y-96190500D01*
X127393000Y-96190500D01*
X127393000Y-97992500D01*
G37*
G36*
X116599562Y-94309681D02*
G01*
X116634481Y-94320274D01*
X116666663Y-94337476D01*
X116694873Y-94360627D01*
X116718024Y-94388837D01*
X116735226Y-94421019D01*
X116745819Y-94455938D01*
X116750000Y-94498395D01*
X116750000Y-95639605D01*
X116745819Y-95682062D01*
X116735226Y-95716981D01*
X116718024Y-95749163D01*
X116694873Y-95777373D01*
X116666663Y-95800524D01*
X116634481Y-95817726D01*
X116599562Y-95828319D01*
X116557105Y-95832500D01*
X115090895Y-95832500D01*
X115048438Y-95828319D01*
X115013519Y-95817726D01*
X114981337Y-95800524D01*
X114953127Y-95777373D01*
X114929976Y-95749163D01*
X114912774Y-95716981D01*
X114902181Y-95682062D01*
X114898000Y-95639605D01*
X114898000Y-94498395D01*
X114902181Y-94455938D01*
X114912774Y-94421019D01*
X114929976Y-94388837D01*
X114953127Y-94360627D01*
X114981337Y-94337476D01*
X115013519Y-94320274D01*
X115048438Y-94309681D01*
X115090895Y-94305500D01*
X116557105Y-94305500D01*
X116599562Y-94309681D01*
G37*
G36*
X119139562Y-94309681D02*
G01*
X119174481Y-94320274D01*
X119206663Y-94337476D01*
X119234873Y-94360627D01*
X119258024Y-94388837D01*
X119275226Y-94421019D01*
X119285819Y-94455938D01*
X119290000Y-94498395D01*
X119290000Y-95639605D01*
X119285819Y-95682062D01*
X119275226Y-95716981D01*
X119258024Y-95749163D01*
X119234873Y-95777373D01*
X119206663Y-95800524D01*
X119174481Y-95817726D01*
X119139562Y-95828319D01*
X119097105Y-95832500D01*
X117630895Y-95832500D01*
X117588438Y-95828319D01*
X117553519Y-95817726D01*
X117521337Y-95800524D01*
X117493127Y-95777373D01*
X117469976Y-95749163D01*
X117452774Y-95716981D01*
X117442181Y-95682062D01*
X117438000Y-95639605D01*
X117438000Y-94498395D01*
X117442181Y-94455938D01*
X117452774Y-94421019D01*
X117469976Y-94388837D01*
X117493127Y-94360627D01*
X117521337Y-94337476D01*
X117553519Y-94320274D01*
X117588438Y-94309681D01*
X117630895Y-94305500D01*
X119097105Y-94305500D01*
X119139562Y-94309681D01*
G37*
G36*
X110428217Y-93400808D02*
G01*
X110459489Y-93410294D01*
X110488308Y-93425698D01*
X110513570Y-93446430D01*
X110534302Y-93471692D01*
X110549706Y-93500511D01*
X110559192Y-93531783D01*
X110563000Y-93570448D01*
X110563000Y-95405552D01*
X110559192Y-95444217D01*
X110549706Y-95475489D01*
X110534302Y-95504308D01*
X110513570Y-95529570D01*
X110488308Y-95550302D01*
X110459489Y-95565706D01*
X110428217Y-95575192D01*
X110389552Y-95579000D01*
X107034448Y-95579000D01*
X106995783Y-95575192D01*
X106964511Y-95565706D01*
X106935692Y-95550302D01*
X106910430Y-95529570D01*
X106889698Y-95504308D01*
X106874294Y-95475489D01*
X106864808Y-95444217D01*
X106861000Y-95405552D01*
X106861000Y-93570448D01*
X106864808Y-93531783D01*
X106874294Y-93500511D01*
X106889698Y-93471692D01*
X106910430Y-93446430D01*
X106935692Y-93425698D01*
X106964511Y-93410294D01*
X106995783Y-93400808D01*
X107034448Y-93397000D01*
X110389552Y-93397000D01*
X110428217Y-93400808D01*
G37*
G36*
X122695562Y-93184181D02*
G01*
X122730481Y-93194774D01*
X122762663Y-93211976D01*
X122790873Y-93235127D01*
X122814024Y-93263337D01*
X122831226Y-93295519D01*
X122841819Y-93330438D01*
X122846000Y-93372895D01*
X122846000Y-94514105D01*
X122841819Y-94556562D01*
X122831226Y-94591481D01*
X122814024Y-94623663D01*
X122790873Y-94651873D01*
X122762663Y-94675024D01*
X122730481Y-94692226D01*
X122695562Y-94702819D01*
X122653105Y-94707000D01*
X121186895Y-94707000D01*
X121144438Y-94702819D01*
X121109519Y-94692226D01*
X121077337Y-94675024D01*
X121049127Y-94651873D01*
X121025976Y-94623663D01*
X121008774Y-94591481D01*
X120998181Y-94556562D01*
X120994000Y-94514105D01*
X120994000Y-93372895D01*
X120998181Y-93330438D01*
X121008774Y-93295519D01*
X121025976Y-93263337D01*
X121049127Y-93235127D01*
X121077337Y-93211976D01*
X121109519Y-93194774D01*
X121144438Y-93184181D01*
X121186895Y-93180000D01*
X122653105Y-93180000D01*
X122695562Y-93184181D01*
G37*
G36*
X174129000Y-94373000D02*
G01*
X172327000Y-94373000D01*
X172327000Y-92571000D01*
X174129000Y-92571000D01*
X174129000Y-94373000D01*
G37*
G36*
X127456500Y-93484000D02*
G01*
X125654500Y-93484000D01*
X125654500Y-91682000D01*
X127456500Y-91682000D01*
X127456500Y-93484000D01*
G37*
G36*
X120109000Y-93274000D02*
G01*
X118007000Y-93274000D01*
X118007000Y-92522000D01*
X120109000Y-92522000D01*
X120109000Y-93274000D01*
G37*
G36*
X137320721Y-90910174D02*
G01*
X137420995Y-90951709D01*
X137420996Y-90951710D01*
X137511242Y-91012010D01*
X137587990Y-91088758D01*
X137587991Y-91088760D01*
X137648291Y-91179005D01*
X137679516Y-91254389D01*
X137691067Y-91276000D01*
X137706612Y-91294941D01*
X137725554Y-91310487D01*
X137747165Y-91322038D01*
X137770614Y-91329151D01*
X137795000Y-91331553D01*
X137819386Y-91329151D01*
X137842835Y-91322038D01*
X137864446Y-91310487D01*
X137883387Y-91294942D01*
X137898933Y-91276000D01*
X137910484Y-91254389D01*
X137941709Y-91179005D01*
X138002009Y-91088760D01*
X138002010Y-91088758D01*
X138078758Y-91012010D01*
X138169004Y-90951710D01*
X138169005Y-90951709D01*
X138269279Y-90910174D01*
X138375730Y-90889000D01*
X138484270Y-90889000D01*
X138590721Y-90910174D01*
X138690995Y-90951709D01*
X138690996Y-90951710D01*
X138781242Y-91012010D01*
X138857990Y-91088758D01*
X138857991Y-91088760D01*
X138918291Y-91179005D01*
X138949516Y-91254389D01*
X138961067Y-91276000D01*
X138976612Y-91294941D01*
X138995554Y-91310487D01*
X139017165Y-91322038D01*
X139040614Y-91329151D01*
X139065000Y-91331553D01*
X139089386Y-91329151D01*
X139112835Y-91322038D01*
X139134446Y-91310487D01*
X139153387Y-91294942D01*
X139168933Y-91276000D01*
X139180484Y-91254389D01*
X139211709Y-91179005D01*
X139272009Y-91088760D01*
X139272010Y-91088758D01*
X139348758Y-91012010D01*
X139439004Y-90951710D01*
X139439005Y-90951709D01*
X139539279Y-90910174D01*
X139645730Y-90889000D01*
X139754270Y-90889000D01*
X139860721Y-90910174D01*
X139960995Y-90951709D01*
X139960996Y-90951710D01*
X140051242Y-91012010D01*
X140127990Y-91088758D01*
X140127991Y-91088760D01*
X140188291Y-91179005D01*
X140219516Y-91254389D01*
X140231067Y-91276000D01*
X140246612Y-91294941D01*
X140265554Y-91310487D01*
X140287165Y-91322038D01*
X140310614Y-91329151D01*
X140335000Y-91331553D01*
X140359386Y-91329151D01*
X140382835Y-91322038D01*
X140404446Y-91310487D01*
X140423387Y-91294942D01*
X140438933Y-91276000D01*
X140450484Y-91254389D01*
X140481709Y-91179005D01*
X140542009Y-91088760D01*
X140542010Y-91088758D01*
X140618758Y-91012010D01*
X140709004Y-90951710D01*
X140709005Y-90951709D01*
X140809279Y-90910174D01*
X140915730Y-90889000D01*
X141024270Y-90889000D01*
X141130721Y-90910174D01*
X141230995Y-90951709D01*
X141230996Y-90951710D01*
X141321242Y-91012010D01*
X141397990Y-91088758D01*
X141397991Y-91088760D01*
X141458291Y-91179005D01*
X141489516Y-91254389D01*
X141501067Y-91276000D01*
X141516612Y-91294941D01*
X141535554Y-91310487D01*
X141557165Y-91322038D01*
X141580614Y-91329151D01*
X141605000Y-91331553D01*
X141629386Y-91329151D01*
X141652835Y-91322038D01*
X141674446Y-91310487D01*
X141693387Y-91294942D01*
X141708933Y-91276000D01*
X141720484Y-91254389D01*
X141751709Y-91179005D01*
X141812009Y-91088760D01*
X141812010Y-91088758D01*
X141888758Y-91012010D01*
X141979004Y-90951710D01*
X141979005Y-90951709D01*
X142079279Y-90910174D01*
X142185730Y-90889000D01*
X142294270Y-90889000D01*
X142400721Y-90910174D01*
X142500995Y-90951709D01*
X142500996Y-90951710D01*
X142591242Y-91012010D01*
X142667990Y-91088758D01*
X142667991Y-91088760D01*
X142728291Y-91179005D01*
X142769826Y-91279279D01*
X142791000Y-91385730D01*
X142791000Y-91494270D01*
X142769826Y-91600721D01*
X142728291Y-91700995D01*
X142717446Y-91717226D01*
X142667990Y-91791242D01*
X142591242Y-91867990D01*
X142545812Y-91898345D01*
X142500995Y-91928291D01*
X142425611Y-91959516D01*
X142404000Y-91971067D01*
X142385059Y-91986612D01*
X142369513Y-92005554D01*
X142357962Y-92027165D01*
X142350849Y-92050614D01*
X142348447Y-92075000D01*
X142350849Y-92099386D01*
X142357962Y-92122835D01*
X142369513Y-92144446D01*
X142385058Y-92163387D01*
X142404000Y-92178933D01*
X142425611Y-92190484D01*
X142500995Y-92221709D01*
X142500996Y-92221710D01*
X142591242Y-92282010D01*
X142667990Y-92358758D01*
X142667991Y-92358760D01*
X142728291Y-92449005D01*
X142769826Y-92549279D01*
X142791000Y-92655730D01*
X142791000Y-92764270D01*
X142769826Y-92870721D01*
X142728291Y-92970995D01*
X142728290Y-92970996D01*
X142667990Y-93061242D01*
X142591242Y-93137990D01*
X142545812Y-93168345D01*
X142500995Y-93198291D01*
X142400721Y-93239826D01*
X142294270Y-93261000D01*
X142185730Y-93261000D01*
X142079279Y-93239826D01*
X141979005Y-93198291D01*
X141934188Y-93168345D01*
X141888758Y-93137990D01*
X141812010Y-93061242D01*
X141751710Y-92970996D01*
X141751709Y-92970995D01*
X141720484Y-92895611D01*
X141708933Y-92874000D01*
X141693388Y-92855059D01*
X141674446Y-92839513D01*
X141652835Y-92827962D01*
X141629386Y-92820849D01*
X141605000Y-92818447D01*
X141580614Y-92820849D01*
X141557165Y-92827962D01*
X141535554Y-92839513D01*
X141516613Y-92855058D01*
X141501067Y-92874000D01*
X141489516Y-92895611D01*
X141458291Y-92970995D01*
X141458290Y-92970996D01*
X141397990Y-93061242D01*
X141321242Y-93137990D01*
X141275812Y-93168345D01*
X141230995Y-93198291D01*
X141130721Y-93239826D01*
X141024270Y-93261000D01*
X140915730Y-93261000D01*
X140809279Y-93239826D01*
X140709005Y-93198291D01*
X140664188Y-93168345D01*
X140618758Y-93137990D01*
X140542010Y-93061242D01*
X140481710Y-92970996D01*
X140481709Y-92970995D01*
X140450484Y-92895611D01*
X140438933Y-92874000D01*
X140423388Y-92855059D01*
X140404446Y-92839513D01*
X140382835Y-92827962D01*
X140359386Y-92820849D01*
X140335000Y-92818447D01*
X140310614Y-92820849D01*
X140287165Y-92827962D01*
X140265554Y-92839513D01*
X140246613Y-92855058D01*
X140231067Y-92874000D01*
X140219516Y-92895611D01*
X140188291Y-92970995D01*
X140188290Y-92970996D01*
X140127990Y-93061242D01*
X140051242Y-93137990D01*
X140005812Y-93168345D01*
X139960995Y-93198291D01*
X139860721Y-93239826D01*
X139754270Y-93261000D01*
X139645730Y-93261000D01*
X139539279Y-93239826D01*
X139439005Y-93198291D01*
X139394188Y-93168345D01*
X139348758Y-93137990D01*
X139272010Y-93061242D01*
X139211710Y-92970996D01*
X139211709Y-92970995D01*
X139180484Y-92895611D01*
X139168933Y-92874000D01*
X139153388Y-92855059D01*
X139134446Y-92839513D01*
X139112835Y-92827962D01*
X139089386Y-92820849D01*
X139065000Y-92818447D01*
X139040614Y-92820849D01*
X139017165Y-92827962D01*
X138995554Y-92839513D01*
X138976613Y-92855058D01*
X138961067Y-92874000D01*
X138949516Y-92895611D01*
X138918291Y-92970995D01*
X138918290Y-92970996D01*
X138857990Y-93061242D01*
X138781242Y-93137990D01*
X138735812Y-93168345D01*
X138690995Y-93198291D01*
X138590721Y-93239826D01*
X138484270Y-93261000D01*
X138375730Y-93261000D01*
X138269279Y-93239826D01*
X138169005Y-93198291D01*
X138124188Y-93168345D01*
X138078758Y-93137990D01*
X138002010Y-93061242D01*
X137981012Y-93029816D01*
X137939932Y-92968336D01*
X137924386Y-92949394D01*
X137905444Y-92933849D01*
X137883833Y-92922298D01*
X137860385Y-92915185D01*
X137835998Y-92912783D01*
X137811612Y-92915185D01*
X137788163Y-92922298D01*
X137766553Y-92933849D01*
X137747611Y-92949395D01*
X137732066Y-92968337D01*
X137720515Y-92989948D01*
X137713402Y-93013396D01*
X137711000Y-93037782D01*
X137711000Y-93261000D01*
X136609000Y-93261000D01*
X136609000Y-92159000D01*
X136832218Y-92159000D01*
X136856604Y-92156598D01*
X136880053Y-92149485D01*
X136901664Y-92137934D01*
X136920606Y-92122389D01*
X136936151Y-92103447D01*
X136947702Y-92081836D01*
X136954815Y-92058387D01*
X136957216Y-92034002D01*
X137362783Y-92034002D01*
X137365185Y-92058388D01*
X137372298Y-92081837D01*
X137383849Y-92103447D01*
X137399395Y-92122389D01*
X137418337Y-92137934D01*
X137439948Y-92149485D01*
X137463396Y-92156598D01*
X137487782Y-92159000D01*
X137711000Y-92159000D01*
X137711000Y-92382218D01*
X137713402Y-92406604D01*
X137720515Y-92430053D01*
X137732066Y-92451664D01*
X137747611Y-92470606D01*
X137766553Y-92486151D01*
X137788164Y-92497702D01*
X137811613Y-92504815D01*
X137835999Y-92507217D01*
X137860385Y-92504815D01*
X137883834Y-92497702D01*
X137905445Y-92486151D01*
X137924387Y-92470606D01*
X137939932Y-92451664D01*
X138002009Y-92358760D01*
X138002010Y-92358758D01*
X138078758Y-92282010D01*
X138169004Y-92221710D01*
X138169005Y-92221709D01*
X138244389Y-92190484D01*
X138266000Y-92178933D01*
X138284941Y-92163388D01*
X138300487Y-92144446D01*
X138312038Y-92122835D01*
X138319151Y-92099386D01*
X138321553Y-92075000D01*
X138538447Y-92075000D01*
X138540849Y-92099386D01*
X138547962Y-92122835D01*
X138559513Y-92144446D01*
X138575058Y-92163387D01*
X138594000Y-92178933D01*
X138615611Y-92190484D01*
X138690995Y-92221709D01*
X138690996Y-92221710D01*
X138781242Y-92282010D01*
X138857990Y-92358758D01*
X138857991Y-92358760D01*
X138918291Y-92449005D01*
X138949516Y-92524389D01*
X138961067Y-92546000D01*
X138976612Y-92564941D01*
X138995554Y-92580487D01*
X139017165Y-92592038D01*
X139040614Y-92599151D01*
X139065000Y-92601553D01*
X139089386Y-92599151D01*
X139112835Y-92592038D01*
X139134446Y-92580487D01*
X139153387Y-92564942D01*
X139168933Y-92546000D01*
X139180484Y-92524389D01*
X139211709Y-92449005D01*
X139272009Y-92358760D01*
X139272010Y-92358758D01*
X139348758Y-92282010D01*
X139439004Y-92221710D01*
X139439005Y-92221709D01*
X139514389Y-92190484D01*
X139536000Y-92178933D01*
X139554941Y-92163388D01*
X139570487Y-92144446D01*
X139582038Y-92122835D01*
X139589151Y-92099386D01*
X139591553Y-92075000D01*
X139808447Y-92075000D01*
X139810849Y-92099386D01*
X139817962Y-92122835D01*
X139829513Y-92144446D01*
X139845058Y-92163387D01*
X139864000Y-92178933D01*
X139885611Y-92190484D01*
X139960995Y-92221709D01*
X139960996Y-92221710D01*
X140051242Y-92282010D01*
X140127990Y-92358758D01*
X140127991Y-92358760D01*
X140188291Y-92449005D01*
X140219516Y-92524389D01*
X140231067Y-92546000D01*
X140246612Y-92564941D01*
X140265554Y-92580487D01*
X140287165Y-92592038D01*
X140310614Y-92599151D01*
X140335000Y-92601553D01*
X140359386Y-92599151D01*
X140382835Y-92592038D01*
X140404446Y-92580487D01*
X140423387Y-92564942D01*
X140438933Y-92546000D01*
X140450484Y-92524389D01*
X140481709Y-92449005D01*
X140542009Y-92358760D01*
X140542010Y-92358758D01*
X140618758Y-92282010D01*
X140709004Y-92221710D01*
X140709005Y-92221709D01*
X140784389Y-92190484D01*
X140806000Y-92178933D01*
X140824941Y-92163388D01*
X140840487Y-92144446D01*
X140852038Y-92122835D01*
X140859151Y-92099386D01*
X140861553Y-92075000D01*
X141078447Y-92075000D01*
X141080849Y-92099386D01*
X141087962Y-92122835D01*
X141099513Y-92144446D01*
X141115058Y-92163387D01*
X141134000Y-92178933D01*
X141155611Y-92190484D01*
X141230995Y-92221709D01*
X141230996Y-92221710D01*
X141321242Y-92282010D01*
X141397990Y-92358758D01*
X141397991Y-92358760D01*
X141458291Y-92449005D01*
X141489516Y-92524389D01*
X141501067Y-92546000D01*
X141516612Y-92564941D01*
X141535554Y-92580487D01*
X141557165Y-92592038D01*
X141580614Y-92599151D01*
X141605000Y-92601553D01*
X141629386Y-92599151D01*
X141652835Y-92592038D01*
X141674446Y-92580487D01*
X141693387Y-92564942D01*
X141708933Y-92546000D01*
X141720484Y-92524389D01*
X141751709Y-92449005D01*
X141812009Y-92358760D01*
X141812010Y-92358758D01*
X141888758Y-92282010D01*
X141979004Y-92221710D01*
X141979005Y-92221709D01*
X142054389Y-92190484D01*
X142076000Y-92178933D01*
X142094941Y-92163388D01*
X142110487Y-92144446D01*
X142122038Y-92122835D01*
X142129151Y-92099386D01*
X142131553Y-92075000D01*
X142129151Y-92050614D01*
X142122038Y-92027165D01*
X142110487Y-92005554D01*
X142094942Y-91986613D01*
X142076000Y-91971067D01*
X142054389Y-91959516D01*
X141979005Y-91928291D01*
X141934188Y-91898345D01*
X141888758Y-91867990D01*
X141812010Y-91791242D01*
X141762554Y-91717226D01*
X141751709Y-91700995D01*
X141720484Y-91625611D01*
X141708933Y-91604000D01*
X141693388Y-91585059D01*
X141674446Y-91569513D01*
X141652835Y-91557962D01*
X141629386Y-91550849D01*
X141605000Y-91548447D01*
X141580614Y-91550849D01*
X141557165Y-91557962D01*
X141535554Y-91569513D01*
X141516613Y-91585058D01*
X141501067Y-91604000D01*
X141489516Y-91625611D01*
X141458291Y-91700995D01*
X141447446Y-91717226D01*
X141397990Y-91791242D01*
X141321242Y-91867990D01*
X141275812Y-91898345D01*
X141230995Y-91928291D01*
X141155611Y-91959516D01*
X141134000Y-91971067D01*
X141115059Y-91986612D01*
X141099513Y-92005554D01*
X141087962Y-92027165D01*
X141080849Y-92050614D01*
X141078447Y-92075000D01*
X140861553Y-92075000D01*
X140859151Y-92050614D01*
X140852038Y-92027165D01*
X140840487Y-92005554D01*
X140824942Y-91986613D01*
X140806000Y-91971067D01*
X140784389Y-91959516D01*
X140709005Y-91928291D01*
X140664188Y-91898345D01*
X140618758Y-91867990D01*
X140542010Y-91791242D01*
X140492554Y-91717226D01*
X140481709Y-91700995D01*
X140450484Y-91625611D01*
X140438933Y-91604000D01*
X140423388Y-91585059D01*
X140404446Y-91569513D01*
X140382835Y-91557962D01*
X140359386Y-91550849D01*
X140335000Y-91548447D01*
X140310614Y-91550849D01*
X140287165Y-91557962D01*
X140265554Y-91569513D01*
X140246613Y-91585058D01*
X140231067Y-91604000D01*
X140219516Y-91625611D01*
X140188291Y-91700995D01*
X140177446Y-91717226D01*
X140127990Y-91791242D01*
X140051242Y-91867990D01*
X140005812Y-91898345D01*
X139960995Y-91928291D01*
X139885611Y-91959516D01*
X139864000Y-91971067D01*
X139845059Y-91986612D01*
X139829513Y-92005554D01*
X139817962Y-92027165D01*
X139810849Y-92050614D01*
X139808447Y-92075000D01*
X139591553Y-92075000D01*
X139589151Y-92050614D01*
X139582038Y-92027165D01*
X139570487Y-92005554D01*
X139554942Y-91986613D01*
X139536000Y-91971067D01*
X139514389Y-91959516D01*
X139439005Y-91928291D01*
X139394188Y-91898345D01*
X139348758Y-91867990D01*
X139272010Y-91791242D01*
X139222554Y-91717226D01*
X139211709Y-91700995D01*
X139180484Y-91625611D01*
X139168933Y-91604000D01*
X139153388Y-91585059D01*
X139134446Y-91569513D01*
X139112835Y-91557962D01*
X139089386Y-91550849D01*
X139065000Y-91548447D01*
X139040614Y-91550849D01*
X139017165Y-91557962D01*
X138995554Y-91569513D01*
X138976613Y-91585058D01*
X138961067Y-91604000D01*
X138949516Y-91625611D01*
X138918291Y-91700995D01*
X138907446Y-91717226D01*
X138857990Y-91791242D01*
X138781242Y-91867990D01*
X138735812Y-91898345D01*
X138690995Y-91928291D01*
X138615611Y-91959516D01*
X138594000Y-91971067D01*
X138575059Y-91986612D01*
X138559513Y-92005554D01*
X138547962Y-92027165D01*
X138540849Y-92050614D01*
X138538447Y-92075000D01*
X138321553Y-92075000D01*
X138319151Y-92050614D01*
X138312038Y-92027165D01*
X138300487Y-92005554D01*
X138284942Y-91986613D01*
X138266000Y-91971067D01*
X138244389Y-91959516D01*
X138169005Y-91928291D01*
X138124188Y-91898345D01*
X138078758Y-91867990D01*
X138002010Y-91791242D01*
X137952554Y-91717226D01*
X137941709Y-91700995D01*
X137910484Y-91625611D01*
X137898933Y-91604000D01*
X137883388Y-91585059D01*
X137864446Y-91569513D01*
X137842835Y-91557962D01*
X137819386Y-91550849D01*
X137795000Y-91548447D01*
X137770614Y-91550849D01*
X137747165Y-91557962D01*
X137725554Y-91569513D01*
X137706613Y-91585058D01*
X137691067Y-91604000D01*
X137679516Y-91625611D01*
X137648291Y-91700995D01*
X137637446Y-91717226D01*
X137587990Y-91791242D01*
X137511242Y-91867990D01*
X137479816Y-91888988D01*
X137418336Y-91930068D01*
X137399394Y-91945614D01*
X137383849Y-91964556D01*
X137372298Y-91986167D01*
X137365185Y-92009615D01*
X137362783Y-92034002D01*
X136957216Y-92034002D01*
X136957217Y-92034001D01*
X136954815Y-92009615D01*
X136947702Y-91986166D01*
X136936151Y-91964555D01*
X136920606Y-91945613D01*
X136901664Y-91930068D01*
X136840184Y-91888988D01*
X136808758Y-91867990D01*
X136732010Y-91791242D01*
X136682554Y-91717226D01*
X136671709Y-91700995D01*
X136630174Y-91600721D01*
X136609000Y-91494270D01*
X136609000Y-91385730D01*
X136630174Y-91279279D01*
X136671709Y-91179005D01*
X136732009Y-91088760D01*
X136732010Y-91088758D01*
X136808758Y-91012010D01*
X136899004Y-90951710D01*
X136899005Y-90951709D01*
X136999279Y-90910174D01*
X137105730Y-90889000D01*
X137214270Y-90889000D01*
X137320721Y-90910174D01*
G37*
G36*
X116689000Y-92324000D02*
G01*
X114587000Y-92324000D01*
X114587000Y-91572000D01*
X116689000Y-91572000D01*
X116689000Y-92324000D01*
G37*
G36*
X122695562Y-90209181D02*
G01*
X122730481Y-90219774D01*
X122762663Y-90236976D01*
X122790873Y-90260127D01*
X122814024Y-90288337D01*
X122831226Y-90320519D01*
X122841819Y-90355438D01*
X122846000Y-90397895D01*
X122846000Y-91539105D01*
X122841819Y-91581562D01*
X122831226Y-91616481D01*
X122814024Y-91648663D01*
X122790873Y-91676873D01*
X122762663Y-91700024D01*
X122730481Y-91717226D01*
X122695562Y-91727819D01*
X122653105Y-91732000D01*
X121186895Y-91732000D01*
X121144438Y-91727819D01*
X121109519Y-91717226D01*
X121077337Y-91700024D01*
X121049127Y-91676873D01*
X121025976Y-91648663D01*
X121008774Y-91616481D01*
X120998181Y-91581562D01*
X120994000Y-91539105D01*
X120994000Y-90397895D01*
X120998181Y-90355438D01*
X121008774Y-90320519D01*
X121025976Y-90288337D01*
X121049127Y-90260127D01*
X121077337Y-90236976D01*
X121109519Y-90219774D01*
X121144438Y-90209181D01*
X121186895Y-90205000D01*
X122653105Y-90205000D01*
X122695562Y-90209181D01*
G37*
G36*
X120109000Y-91374000D02*
G01*
X118007000Y-91374000D01*
X118007000Y-90622000D01*
X120109000Y-90622000D01*
X120109000Y-91374000D01*
G37*
G36*
X154754562Y-88740181D02*
G01*
X154789481Y-88750774D01*
X154821663Y-88767976D01*
X154849873Y-88791127D01*
X154873024Y-88819337D01*
X154890226Y-88851519D01*
X154900819Y-88886438D01*
X154905000Y-88928895D01*
X154905000Y-90395105D01*
X154900819Y-90437562D01*
X154890226Y-90472481D01*
X154873024Y-90504663D01*
X154849873Y-90532873D01*
X154821663Y-90556024D01*
X154789481Y-90573226D01*
X154754562Y-90583819D01*
X154712105Y-90588000D01*
X153570895Y-90588000D01*
X153528438Y-90583819D01*
X153493519Y-90573226D01*
X153461337Y-90556024D01*
X153433127Y-90532873D01*
X153409976Y-90504663D01*
X153392774Y-90472481D01*
X153382181Y-90437562D01*
X153378000Y-90395105D01*
X153378000Y-88928895D01*
X153382181Y-88886438D01*
X153392774Y-88851519D01*
X153409976Y-88819337D01*
X153433127Y-88791127D01*
X153461337Y-88767976D01*
X153493519Y-88750774D01*
X153528438Y-88740181D01*
X153570895Y-88736000D01*
X154712105Y-88736000D01*
X154754562Y-88740181D01*
G37*
G36*
X151779562Y-88740181D02*
G01*
X151814481Y-88750774D01*
X151846663Y-88767976D01*
X151874873Y-88791127D01*
X151898024Y-88819337D01*
X151915226Y-88851519D01*
X151925819Y-88886438D01*
X151930000Y-88928895D01*
X151930000Y-90395105D01*
X151925819Y-90437562D01*
X151915226Y-90472481D01*
X151898024Y-90504663D01*
X151874873Y-90532873D01*
X151846663Y-90556024D01*
X151814481Y-90573226D01*
X151779562Y-90583819D01*
X151737105Y-90588000D01*
X150595895Y-90588000D01*
X150553438Y-90583819D01*
X150518519Y-90573226D01*
X150486337Y-90556024D01*
X150458127Y-90532873D01*
X150434976Y-90504663D01*
X150417774Y-90472481D01*
X150407181Y-90437562D01*
X150403000Y-90395105D01*
X150403000Y-88928895D01*
X150407181Y-88886438D01*
X150417774Y-88851519D01*
X150434976Y-88819337D01*
X150458127Y-88791127D01*
X150486337Y-88767976D01*
X150518519Y-88750774D01*
X150553438Y-88740181D01*
X150595895Y-88736000D01*
X151737105Y-88736000D01*
X151779562Y-88740181D01*
G37*
G36*
X122695562Y-88104181D02*
G01*
X122730481Y-88114774D01*
X122762663Y-88131976D01*
X122790873Y-88155127D01*
X122814024Y-88183337D01*
X122831226Y-88215519D01*
X122841819Y-88250438D01*
X122846000Y-88292895D01*
X122846000Y-89434105D01*
X122841819Y-89476562D01*
X122831226Y-89511481D01*
X122814024Y-89543663D01*
X122790873Y-89571873D01*
X122762663Y-89595024D01*
X122730481Y-89612226D01*
X122695562Y-89622819D01*
X122653105Y-89627000D01*
X121186895Y-89627000D01*
X121144438Y-89622819D01*
X121109519Y-89612226D01*
X121077337Y-89595024D01*
X121049127Y-89571873D01*
X121025976Y-89543663D01*
X121008774Y-89511481D01*
X120998181Y-89476562D01*
X120994000Y-89434105D01*
X120994000Y-88292895D01*
X120998181Y-88250438D01*
X121008774Y-88215519D01*
X121025976Y-88183337D01*
X121049127Y-88155127D01*
X121077337Y-88131976D01*
X121109519Y-88114774D01*
X121144438Y-88104181D01*
X121186895Y-88100000D01*
X122653105Y-88100000D01*
X122695562Y-88104181D01*
G37*
G36*
X170701562Y-87723181D02*
G01*
X170736481Y-87733774D01*
X170768663Y-87750976D01*
X170796873Y-87774127D01*
X170820024Y-87802337D01*
X170837226Y-87834519D01*
X170847819Y-87869438D01*
X170852000Y-87911895D01*
X170852000Y-89053105D01*
X170847819Y-89095562D01*
X170837226Y-89130481D01*
X170820024Y-89162663D01*
X170796873Y-89190873D01*
X170768663Y-89214024D01*
X170736481Y-89231226D01*
X170701562Y-89241819D01*
X170659105Y-89246000D01*
X169192895Y-89246000D01*
X169150438Y-89241819D01*
X169115519Y-89231226D01*
X169083337Y-89214024D01*
X169055127Y-89190873D01*
X169031976Y-89162663D01*
X169014774Y-89130481D01*
X169004181Y-89095562D01*
X169000000Y-89053105D01*
X169000000Y-87911895D01*
X169004181Y-87869438D01*
X169014774Y-87834519D01*
X169031976Y-87802337D01*
X169055127Y-87774127D01*
X169083337Y-87750976D01*
X169115519Y-87733774D01*
X169150438Y-87723181D01*
X169192895Y-87719000D01*
X170659105Y-87719000D01*
X170701562Y-87723181D01*
G37*
G36*
X108049916Y-87970334D02*
G01*
X108158492Y-88003271D01*
X108158495Y-88003272D01*
X108194601Y-88022571D01*
X108258557Y-88056756D01*
X108346264Y-88128736D01*
X108418244Y-88216443D01*
X108436414Y-88250438D01*
X108471728Y-88316505D01*
X108471729Y-88316508D01*
X108504666Y-88425084D01*
X108515787Y-88538000D01*
X108504666Y-88650916D01*
X108472669Y-88756392D01*
X108471728Y-88759495D01*
X108464310Y-88773373D01*
X108418244Y-88859557D01*
X108346264Y-88947264D01*
X108258557Y-89019244D01*
X108194601Y-89053429D01*
X108158495Y-89072728D01*
X108158492Y-89072729D01*
X108049916Y-89105666D01*
X107965298Y-89114000D01*
X107058702Y-89114000D01*
X106974084Y-89105666D01*
X106865508Y-89072729D01*
X106865505Y-89072728D01*
X106829399Y-89053429D01*
X106765443Y-89019244D01*
X106677736Y-88947264D01*
X106605756Y-88859557D01*
X106559690Y-88773373D01*
X106552272Y-88759495D01*
X106551331Y-88756392D01*
X106519334Y-88650916D01*
X106508213Y-88538000D01*
X106519334Y-88425084D01*
X106552271Y-88316508D01*
X106552272Y-88316505D01*
X106587586Y-88250438D01*
X106605756Y-88216443D01*
X106677736Y-88128736D01*
X106765443Y-88056756D01*
X106829399Y-88022571D01*
X106865505Y-88003272D01*
X106865508Y-88003271D01*
X106974084Y-87970334D01*
X107058702Y-87962000D01*
X107965298Y-87962000D01*
X108049916Y-87970334D01*
G37*
G36*
X127393000Y-89039000D02*
G01*
X125591000Y-89039000D01*
X125591000Y-87237000D01*
X127393000Y-87237000D01*
X127393000Y-89039000D01*
G37*
G36*
X173849512Y-87241927D02*
G01*
X173998812Y-87271624D01*
X174162784Y-87339544D01*
X174310354Y-87438147D01*
X174435853Y-87563646D01*
X174534456Y-87711216D01*
X174602376Y-87875188D01*
X174627853Y-88003272D01*
X174637000Y-88049258D01*
X174637000Y-88226742D01*
X174632073Y-88251512D01*
X174602376Y-88400812D01*
X174534456Y-88564784D01*
X174435853Y-88712354D01*
X174310354Y-88837853D01*
X174162784Y-88936456D01*
X173998812Y-89004376D01*
X173849512Y-89034073D01*
X173824742Y-89039000D01*
X173647258Y-89039000D01*
X173622488Y-89034073D01*
X173473188Y-89004376D01*
X173309216Y-88936456D01*
X173161646Y-88837853D01*
X173036147Y-88712354D01*
X172937544Y-88564784D01*
X172869624Y-88400812D01*
X172839927Y-88251512D01*
X172835000Y-88226742D01*
X172835000Y-88049258D01*
X172844147Y-88003272D01*
X172869624Y-87875188D01*
X172937544Y-87711216D01*
X173036147Y-87563646D01*
X173161646Y-87438147D01*
X173309216Y-87339544D01*
X173473188Y-87271624D01*
X173622488Y-87241927D01*
X173647258Y-87237000D01*
X173824742Y-87237000D01*
X173849512Y-87241927D01*
G37*
G36*
X113551562Y-87305681D02*
G01*
X113586481Y-87316274D01*
X113618663Y-87333476D01*
X113646873Y-87356627D01*
X113670024Y-87384837D01*
X113687226Y-87417019D01*
X113697819Y-87451938D01*
X113702000Y-87494395D01*
X113702000Y-88635605D01*
X113697819Y-88678062D01*
X113687226Y-88712981D01*
X113670024Y-88745163D01*
X113646873Y-88773373D01*
X113618663Y-88796524D01*
X113586481Y-88813726D01*
X113551562Y-88824319D01*
X113509105Y-88828500D01*
X112042895Y-88828500D01*
X112000438Y-88824319D01*
X111965519Y-88813726D01*
X111933337Y-88796524D01*
X111905127Y-88773373D01*
X111881976Y-88745163D01*
X111864774Y-88712981D01*
X111854181Y-88678062D01*
X111850000Y-88635605D01*
X111850000Y-87494395D01*
X111854181Y-87451938D01*
X111864774Y-87417019D01*
X111881976Y-87384837D01*
X111905127Y-87356627D01*
X111933337Y-87333476D01*
X111965519Y-87316274D01*
X112000438Y-87305681D01*
X112042895Y-87301500D01*
X113509105Y-87301500D01*
X113551562Y-87305681D01*
G37*
G36*
X116943000Y-87940000D02*
G01*
X114841000Y-87940000D01*
X114841000Y-87188000D01*
X116943000Y-87188000D01*
X116943000Y-87940000D01*
G37*
G36*
X110518000Y-83287001D02*
G01*
X110520402Y-83311387D01*
X110527515Y-83334836D01*
X110539066Y-83356447D01*
X110554611Y-83375389D01*
X110573553Y-83390934D01*
X110595164Y-83402485D01*
X110618613Y-83409598D01*
X110642999Y-83412000D01*
X110913000Y-83412000D01*
X110913000Y-86514000D01*
X110642999Y-86514000D01*
X110618613Y-86516402D01*
X110595164Y-86523515D01*
X110573553Y-86535066D01*
X110554611Y-86550611D01*
X110539066Y-86569553D01*
X110527515Y-86591164D01*
X110520402Y-86614613D01*
X110518000Y-86638999D01*
X110518000Y-87909000D01*
X108966000Y-87909000D01*
X108966000Y-86657000D01*
X109286001Y-86657000D01*
X109310387Y-86654598D01*
X109333836Y-86647485D01*
X109355447Y-86635934D01*
X109374389Y-86620389D01*
X109389934Y-86601447D01*
X109401485Y-86579836D01*
X109408598Y-86556387D01*
X109411000Y-86532001D01*
X109411000Y-83393999D01*
X109408598Y-83369613D01*
X109401485Y-83346164D01*
X109389934Y-83324553D01*
X109374389Y-83305611D01*
X109355447Y-83290066D01*
X109333836Y-83278515D01*
X109310387Y-83271402D01*
X109286001Y-83269000D01*
X108966000Y-83269000D01*
X108966000Y-82017000D01*
X110518000Y-82017000D01*
X110518000Y-83287001D01*
G37*
G36*
X157747562Y-86326181D02*
G01*
X157782481Y-86336774D01*
X157814663Y-86353976D01*
X157842873Y-86377127D01*
X157866024Y-86405337D01*
X157883226Y-86437519D01*
X157893819Y-86472438D01*
X157898000Y-86514895D01*
X157898000Y-87656105D01*
X157893819Y-87698562D01*
X157883226Y-87733481D01*
X157866024Y-87765663D01*
X157842873Y-87793873D01*
X157814663Y-87817024D01*
X157782481Y-87834226D01*
X157747562Y-87844819D01*
X157705105Y-87849000D01*
X156238895Y-87849000D01*
X156196438Y-87844819D01*
X156161519Y-87834226D01*
X156129337Y-87817024D01*
X156101127Y-87793873D01*
X156077976Y-87765663D01*
X156060774Y-87733481D01*
X156050181Y-87698562D01*
X156046000Y-87656105D01*
X156046000Y-86514895D01*
X156050181Y-86472438D01*
X156060774Y-86437519D01*
X156077976Y-86405337D01*
X156101127Y-86377127D01*
X156129337Y-86353976D01*
X156161519Y-86336774D01*
X156196438Y-86326181D01*
X156238895Y-86322000D01*
X157705105Y-86322000D01*
X157747562Y-86326181D01*
G37*
G36*
X146551000Y-87776000D02*
G01*
X145549000Y-87776000D01*
X145549000Y-85674000D01*
X146551000Y-85674000D01*
X146551000Y-87776000D01*
G37*
G36*
X140201000Y-87776000D02*
G01*
X139199000Y-87776000D01*
X139199000Y-85674000D01*
X140201000Y-85674000D01*
X140201000Y-87776000D01*
G37*
G36*
X141471000Y-87776000D02*
G01*
X140469000Y-87776000D01*
X140469000Y-85674000D01*
X141471000Y-85674000D01*
X141471000Y-87776000D01*
G37*
G36*
X142741000Y-87776000D02*
G01*
X141739000Y-87776000D01*
X141739000Y-85674000D01*
X142741000Y-85674000D01*
X142741000Y-87776000D01*
G37*
G36*
X144011000Y-87776000D02*
G01*
X143009000Y-87776000D01*
X143009000Y-85674000D01*
X144011000Y-85674000D01*
X144011000Y-87776000D01*
G37*
G36*
X145281000Y-87776000D02*
G01*
X144279000Y-87776000D01*
X144279000Y-85674000D01*
X145281000Y-85674000D01*
X145281000Y-87776000D01*
G37*
G36*
X147821000Y-87776000D02*
G01*
X146819000Y-87776000D01*
X146819000Y-85674000D01*
X147821000Y-85674000D01*
X147821000Y-87776000D01*
G37*
G36*
X151631000Y-87776000D02*
G01*
X150629000Y-87776000D01*
X150629000Y-85674000D01*
X151631000Y-85674000D01*
X151631000Y-87776000D01*
G37*
G36*
X149091000Y-87776000D02*
G01*
X148089000Y-87776000D01*
X148089000Y-85674000D01*
X149091000Y-85674000D01*
X149091000Y-87776000D01*
G37*
G36*
X150361000Y-87776000D02*
G01*
X149359000Y-87776000D01*
X149359000Y-85674000D01*
X150361000Y-85674000D01*
X150361000Y-87776000D01*
G37*
G36*
X108513000Y-87014000D02*
G01*
X106511000Y-87014000D01*
X106511000Y-85162000D01*
X108513000Y-85162000D01*
X108513000Y-87014000D01*
G37*
G36*
X120363000Y-86990000D02*
G01*
X118261000Y-86990000D01*
X118261000Y-86238000D01*
X120363000Y-86238000D01*
X120363000Y-86990000D01*
G37*
G36*
X167779000Y-86880000D02*
G01*
X165977000Y-86880000D01*
X165977000Y-85078000D01*
X167779000Y-85078000D01*
X167779000Y-86880000D01*
G37*
G36*
X122695562Y-85129181D02*
G01*
X122730481Y-85139774D01*
X122762663Y-85156976D01*
X122790873Y-85180127D01*
X122814024Y-85208337D01*
X122831226Y-85240519D01*
X122841819Y-85275438D01*
X122846000Y-85317895D01*
X122846000Y-86459105D01*
X122841819Y-86501562D01*
X122831226Y-86536481D01*
X122814024Y-86568663D01*
X122790873Y-86596873D01*
X122762663Y-86620024D01*
X122730481Y-86637226D01*
X122695562Y-86647819D01*
X122653105Y-86652000D01*
X121186895Y-86652000D01*
X121144438Y-86647819D01*
X121109519Y-86637226D01*
X121077337Y-86620024D01*
X121049127Y-86596873D01*
X121025976Y-86568663D01*
X121008774Y-86536481D01*
X120998181Y-86501562D01*
X120994000Y-86459105D01*
X120994000Y-85317895D01*
X120998181Y-85275438D01*
X121008774Y-85240519D01*
X121025976Y-85208337D01*
X121049127Y-85180127D01*
X121077337Y-85156976D01*
X121109519Y-85139774D01*
X121144438Y-85129181D01*
X121186895Y-85125000D01*
X122653105Y-85125000D01*
X122695562Y-85129181D01*
G37*
G36*
X173849512Y-84701927D02*
G01*
X173998812Y-84731624D01*
X174162784Y-84799544D01*
X174310354Y-84898147D01*
X174435853Y-85023646D01*
X174534456Y-85171216D01*
X174602376Y-85335188D01*
X174637000Y-85509259D01*
X174637000Y-85686741D01*
X174602376Y-85860812D01*
X174534456Y-86024784D01*
X174435853Y-86172354D01*
X174310354Y-86297853D01*
X174162784Y-86396456D01*
X173998812Y-86464376D01*
X173849512Y-86494073D01*
X173824742Y-86499000D01*
X173647258Y-86499000D01*
X173622488Y-86494073D01*
X173473188Y-86464376D01*
X173309216Y-86396456D01*
X173161646Y-86297853D01*
X173036147Y-86172354D01*
X172937544Y-86024784D01*
X172869624Y-85860812D01*
X172835000Y-85686741D01*
X172835000Y-85509259D01*
X172869624Y-85335188D01*
X172937544Y-85171216D01*
X173036147Y-85023646D01*
X173161646Y-84898147D01*
X173309216Y-84799544D01*
X173473188Y-84731624D01*
X173622488Y-84701927D01*
X173647258Y-84697000D01*
X173824742Y-84697000D01*
X173849512Y-84701927D01*
G37*
G36*
X170701562Y-84748181D02*
G01*
X170736481Y-84758774D01*
X170768663Y-84775976D01*
X170796873Y-84799127D01*
X170820024Y-84827337D01*
X170837226Y-84859519D01*
X170847819Y-84894438D01*
X170852000Y-84936895D01*
X170852000Y-86078105D01*
X170847819Y-86120562D01*
X170837226Y-86155481D01*
X170820024Y-86187663D01*
X170796873Y-86215873D01*
X170768663Y-86239024D01*
X170736481Y-86256226D01*
X170701562Y-86266819D01*
X170659105Y-86271000D01*
X169192895Y-86271000D01*
X169150438Y-86266819D01*
X169115519Y-86256226D01*
X169083337Y-86239024D01*
X169055127Y-86215873D01*
X169031976Y-86187663D01*
X169014774Y-86155481D01*
X169004181Y-86120562D01*
X169000000Y-86078105D01*
X169000000Y-84936895D01*
X169004181Y-84894438D01*
X169014774Y-84859519D01*
X169031976Y-84827337D01*
X169055127Y-84799127D01*
X169083337Y-84775976D01*
X169115519Y-84758774D01*
X169150438Y-84748181D01*
X169192895Y-84744000D01*
X170659105Y-84744000D01*
X170701562Y-84748181D01*
G37*
G36*
X154966000Y-86226000D02*
G01*
X152864000Y-86226000D01*
X152864000Y-85224000D01*
X154966000Y-85224000D01*
X154966000Y-86226000D01*
G37*
G36*
X137966000Y-86226000D02*
G01*
X135864000Y-86226000D01*
X135864000Y-85224000D01*
X137966000Y-85224000D01*
X137966000Y-86226000D01*
G37*
G36*
X116943000Y-86040000D02*
G01*
X114841000Y-86040000D01*
X114841000Y-85288000D01*
X116943000Y-85288000D01*
X116943000Y-86040000D01*
G37*
G36*
X113551562Y-84330681D02*
G01*
X113586481Y-84341274D01*
X113618663Y-84358476D01*
X113646873Y-84381627D01*
X113670024Y-84409837D01*
X113687226Y-84442019D01*
X113697819Y-84476938D01*
X113702000Y-84519395D01*
X113702000Y-85660605D01*
X113697819Y-85703062D01*
X113687226Y-85737981D01*
X113670024Y-85770163D01*
X113646873Y-85798373D01*
X113618663Y-85821524D01*
X113586481Y-85838726D01*
X113551562Y-85849319D01*
X113509105Y-85853500D01*
X112042895Y-85853500D01*
X112000438Y-85849319D01*
X111965519Y-85838726D01*
X111933337Y-85821524D01*
X111905127Y-85798373D01*
X111881976Y-85770163D01*
X111864774Y-85737981D01*
X111854181Y-85703062D01*
X111850000Y-85660605D01*
X111850000Y-84519395D01*
X111854181Y-84476938D01*
X111864774Y-84442019D01*
X111881976Y-84409837D01*
X111905127Y-84381627D01*
X111933337Y-84358476D01*
X111965519Y-84341274D01*
X112000438Y-84330681D01*
X112042895Y-84326500D01*
X113509105Y-84326500D01*
X113551562Y-84330681D01*
G37*
G36*
X137966000Y-84956000D02*
G01*
X135864000Y-84956000D01*
X135864000Y-83954000D01*
X137966000Y-83954000D01*
X137966000Y-84956000D01*
G37*
G36*
X154966000Y-84956000D02*
G01*
X152864000Y-84956000D01*
X152864000Y-83954000D01*
X154966000Y-83954000D01*
X154966000Y-84956000D01*
G37*
G36*
X157747562Y-83351181D02*
G01*
X157782481Y-83361774D01*
X157814663Y-83378976D01*
X157842873Y-83402127D01*
X157866024Y-83430337D01*
X157883226Y-83462519D01*
X157893819Y-83497438D01*
X157898000Y-83539895D01*
X157898000Y-84681105D01*
X157893819Y-84723562D01*
X157883226Y-84758481D01*
X157866024Y-84790663D01*
X157842873Y-84818873D01*
X157814663Y-84842024D01*
X157782481Y-84859226D01*
X157747562Y-84869819D01*
X157705105Y-84874000D01*
X156238895Y-84874000D01*
X156196438Y-84869819D01*
X156161519Y-84859226D01*
X156129337Y-84842024D01*
X156101127Y-84818873D01*
X156077976Y-84790663D01*
X156060774Y-84758481D01*
X156050181Y-84723562D01*
X156046000Y-84681105D01*
X156046000Y-83539895D01*
X156050181Y-83497438D01*
X156060774Y-83462519D01*
X156077976Y-83430337D01*
X156101127Y-83402127D01*
X156129337Y-83378976D01*
X156161519Y-83361774D01*
X156196438Y-83351181D01*
X156238895Y-83347000D01*
X157705105Y-83347000D01*
X157747562Y-83351181D01*
G37*
G36*
X108513000Y-84764000D02*
G01*
X106511000Y-84764000D01*
X106511000Y-82912000D01*
X108513000Y-82912000D01*
X108513000Y-84764000D01*
G37*
G36*
X170701562Y-82516181D02*
G01*
X170736481Y-82526774D01*
X170768663Y-82543976D01*
X170796873Y-82567127D01*
X170820024Y-82595337D01*
X170837226Y-82627519D01*
X170847819Y-82662438D01*
X170852000Y-82704895D01*
X170852000Y-83846105D01*
X170847819Y-83888562D01*
X170837226Y-83923481D01*
X170820024Y-83955663D01*
X170796873Y-83983873D01*
X170768663Y-84007024D01*
X170736481Y-84024226D01*
X170701562Y-84034819D01*
X170659105Y-84039000D01*
X169192895Y-84039000D01*
X169150438Y-84034819D01*
X169115519Y-84024226D01*
X169083337Y-84007024D01*
X169055127Y-83983873D01*
X169031976Y-83955663D01*
X169014774Y-83923481D01*
X169004181Y-83888562D01*
X169000000Y-83846105D01*
X169000000Y-82704895D01*
X169004181Y-82662438D01*
X169014774Y-82627519D01*
X169031976Y-82595337D01*
X169055127Y-82567127D01*
X169083337Y-82543976D01*
X169115519Y-82526774D01*
X169150438Y-82516181D01*
X169192895Y-82512000D01*
X170659105Y-82512000D01*
X170701562Y-82516181D01*
G37*
G36*
X173849512Y-82161927D02*
G01*
X173998812Y-82191624D01*
X174162784Y-82259544D01*
X174310354Y-82358147D01*
X174435853Y-82483646D01*
X174534456Y-82631216D01*
X174602376Y-82795188D01*
X174637000Y-82969259D01*
X174637000Y-83146741D01*
X174602376Y-83320812D01*
X174534456Y-83484784D01*
X174435853Y-83632354D01*
X174310354Y-83757853D01*
X174162784Y-83856456D01*
X173998812Y-83924376D01*
X173849878Y-83954000D01*
X173824742Y-83959000D01*
X173647258Y-83959000D01*
X173622122Y-83954000D01*
X173473188Y-83924376D01*
X173309216Y-83856456D01*
X173161646Y-83757853D01*
X173036147Y-83632354D01*
X172937544Y-83484784D01*
X172869624Y-83320812D01*
X172835000Y-83146741D01*
X172835000Y-82969259D01*
X172869624Y-82795188D01*
X172937544Y-82631216D01*
X173036147Y-82483646D01*
X173161646Y-82358147D01*
X173309216Y-82259544D01*
X173473188Y-82191624D01*
X173622488Y-82161927D01*
X173647258Y-82157000D01*
X173824742Y-82157000D01*
X173849512Y-82161927D01*
G37*
G36*
X154966000Y-83686000D02*
G01*
X152864000Y-83686000D01*
X152864000Y-82684000D01*
X154966000Y-82684000D01*
X154966000Y-83686000D01*
G37*
G36*
X137966000Y-83686000D02*
G01*
X135864000Y-83686000D01*
X135864000Y-82684000D01*
X137966000Y-82684000D01*
X137966000Y-83686000D01*
G37*
G36*
X117969512Y-81399927D02*
G01*
X118118812Y-81429624D01*
X118282784Y-81497544D01*
X118430354Y-81596147D01*
X118555853Y-81721646D01*
X118654456Y-81869216D01*
X118722376Y-82033188D01*
X118757000Y-82207259D01*
X118757000Y-82384741D01*
X118722376Y-82558812D01*
X118654456Y-82722784D01*
X118555853Y-82870354D01*
X118430354Y-82995853D01*
X118282784Y-83094456D01*
X118118812Y-83162376D01*
X117969512Y-83192073D01*
X117944742Y-83197000D01*
X117767258Y-83197000D01*
X117742488Y-83192073D01*
X117593188Y-83162376D01*
X117429216Y-83094456D01*
X117281646Y-82995853D01*
X117156147Y-82870354D01*
X117057544Y-82722784D01*
X116989624Y-82558812D01*
X116955000Y-82384741D01*
X116955000Y-82207259D01*
X116989624Y-82033188D01*
X117057544Y-81869216D01*
X117156147Y-81721646D01*
X117281646Y-81596147D01*
X117429216Y-81497544D01*
X117593188Y-81429624D01*
X117742488Y-81399927D01*
X117767258Y-81395000D01*
X117944742Y-81395000D01*
X117969512Y-81399927D01*
G37*
G36*
X125589512Y-81399927D02*
G01*
X125738812Y-81429624D01*
X125902784Y-81497544D01*
X126050354Y-81596147D01*
X126175853Y-81721646D01*
X126274456Y-81869216D01*
X126342376Y-82033188D01*
X126377000Y-82207259D01*
X126377000Y-82384741D01*
X126342376Y-82558812D01*
X126274456Y-82722784D01*
X126175853Y-82870354D01*
X126050354Y-82995853D01*
X125902784Y-83094456D01*
X125738812Y-83162376D01*
X125589512Y-83192073D01*
X125564742Y-83197000D01*
X125387258Y-83197000D01*
X125362488Y-83192073D01*
X125213188Y-83162376D01*
X125049216Y-83094456D01*
X124901646Y-82995853D01*
X124776147Y-82870354D01*
X124677544Y-82722784D01*
X124609624Y-82558812D01*
X124575000Y-82384741D01*
X124575000Y-82207259D01*
X124609624Y-82033188D01*
X124677544Y-81869216D01*
X124776147Y-81721646D01*
X124901646Y-81596147D01*
X125049216Y-81497544D01*
X125213188Y-81429624D01*
X125362488Y-81399927D01*
X125387258Y-81395000D01*
X125564742Y-81395000D01*
X125589512Y-81399927D01*
G37*
G36*
X123049512Y-81399927D02*
G01*
X123198812Y-81429624D01*
X123362784Y-81497544D01*
X123510354Y-81596147D01*
X123635853Y-81721646D01*
X123734456Y-81869216D01*
X123802376Y-82033188D01*
X123837000Y-82207259D01*
X123837000Y-82384741D01*
X123802376Y-82558812D01*
X123734456Y-82722784D01*
X123635853Y-82870354D01*
X123510354Y-82995853D01*
X123362784Y-83094456D01*
X123198812Y-83162376D01*
X123049512Y-83192073D01*
X123024742Y-83197000D01*
X122847258Y-83197000D01*
X122822488Y-83192073D01*
X122673188Y-83162376D01*
X122509216Y-83094456D01*
X122361646Y-82995853D01*
X122236147Y-82870354D01*
X122137544Y-82722784D01*
X122069624Y-82558812D01*
X122035000Y-82384741D01*
X122035000Y-82207259D01*
X122069624Y-82033188D01*
X122137544Y-81869216D01*
X122236147Y-81721646D01*
X122361646Y-81596147D01*
X122509216Y-81497544D01*
X122673188Y-81429624D01*
X122822488Y-81399927D01*
X122847258Y-81395000D01*
X123024742Y-81395000D01*
X123049512Y-81399927D01*
G37*
G36*
X120509512Y-81399927D02*
G01*
X120658812Y-81429624D01*
X120822784Y-81497544D01*
X120970354Y-81596147D01*
X121095853Y-81721646D01*
X121194456Y-81869216D01*
X121262376Y-82033188D01*
X121297000Y-82207259D01*
X121297000Y-82384741D01*
X121262376Y-82558812D01*
X121194456Y-82722784D01*
X121095853Y-82870354D01*
X120970354Y-82995853D01*
X120822784Y-83094456D01*
X120658812Y-83162376D01*
X120509512Y-83192073D01*
X120484742Y-83197000D01*
X120307258Y-83197000D01*
X120282488Y-83192073D01*
X120133188Y-83162376D01*
X119969216Y-83094456D01*
X119821646Y-82995853D01*
X119696147Y-82870354D01*
X119597544Y-82722784D01*
X119529624Y-82558812D01*
X119495000Y-82384741D01*
X119495000Y-82207259D01*
X119529624Y-82033188D01*
X119597544Y-81869216D01*
X119696147Y-81721646D01*
X119821646Y-81596147D01*
X119969216Y-81497544D01*
X120133188Y-81429624D01*
X120282488Y-81399927D01*
X120307258Y-81395000D01*
X120484742Y-81395000D01*
X120509512Y-81399927D01*
G37*
G36*
X116217000Y-83197000D02*
G01*
X114415000Y-83197000D01*
X114415000Y-81395000D01*
X116217000Y-81395000D01*
X116217000Y-83197000D01*
G37*
G36*
X154966000Y-82416000D02*
G01*
X152864000Y-82416000D01*
X152864000Y-81414000D01*
X154966000Y-81414000D01*
X154966000Y-82416000D01*
G37*
G36*
X137966000Y-82416000D02*
G01*
X135864000Y-82416000D01*
X135864000Y-81414000D01*
X137966000Y-81414000D01*
X137966000Y-82416000D01*
G37*
G36*
X108049916Y-80820334D02*
G01*
X108158492Y-80853271D01*
X108158495Y-80853272D01*
X108191858Y-80871105D01*
X108258557Y-80906756D01*
X108346264Y-80978736D01*
X108418244Y-81066443D01*
X108452429Y-81130399D01*
X108471728Y-81166505D01*
X108471729Y-81166508D01*
X108504666Y-81275084D01*
X108515787Y-81388000D01*
X108504666Y-81500916D01*
X108475777Y-81596147D01*
X108471728Y-81609495D01*
X108452429Y-81645601D01*
X108418244Y-81709557D01*
X108346264Y-81797264D01*
X108258557Y-81869244D01*
X108194601Y-81903429D01*
X108158495Y-81922728D01*
X108158492Y-81922729D01*
X108049916Y-81955666D01*
X107965298Y-81964000D01*
X107058702Y-81964000D01*
X106974084Y-81955666D01*
X106865508Y-81922729D01*
X106865505Y-81922728D01*
X106829399Y-81903429D01*
X106765443Y-81869244D01*
X106677736Y-81797264D01*
X106605756Y-81709557D01*
X106571571Y-81645601D01*
X106552272Y-81609495D01*
X106548223Y-81596147D01*
X106519334Y-81500916D01*
X106508213Y-81388000D01*
X106519334Y-81275084D01*
X106552271Y-81166508D01*
X106552272Y-81166505D01*
X106571571Y-81130399D01*
X106605756Y-81066443D01*
X106677736Y-80978736D01*
X106765443Y-80906756D01*
X106832142Y-80871105D01*
X106865505Y-80853272D01*
X106865508Y-80853271D01*
X106974084Y-80820334D01*
X107058702Y-80812000D01*
X107965298Y-80812000D01*
X108049916Y-80820334D01*
G37*
G36*
X174637000Y-81419000D02*
G01*
X172835000Y-81419000D01*
X172835000Y-79617000D01*
X174637000Y-79617000D01*
X174637000Y-81419000D01*
G37*
G36*
X154966000Y-81146000D02*
G01*
X152864000Y-81146000D01*
X152864000Y-80144000D01*
X154966000Y-80144000D01*
X154966000Y-81146000D01*
G37*
G36*
X137966000Y-81146000D02*
G01*
X135864000Y-81146000D01*
X135864000Y-80144000D01*
X137966000Y-80144000D01*
X137966000Y-81146000D01*
G37*
G36*
X170701562Y-79541181D02*
G01*
X170736481Y-79551774D01*
X170768663Y-79568976D01*
X170796873Y-79592127D01*
X170820024Y-79620337D01*
X170837226Y-79652519D01*
X170847819Y-79687438D01*
X170852000Y-79729895D01*
X170852000Y-80871105D01*
X170847819Y-80913562D01*
X170837226Y-80948481D01*
X170820024Y-80980663D01*
X170796873Y-81008873D01*
X170768663Y-81032024D01*
X170736481Y-81049226D01*
X170701562Y-81059819D01*
X170659105Y-81064000D01*
X169192895Y-81064000D01*
X169150438Y-81059819D01*
X169115519Y-81049226D01*
X169083337Y-81032024D01*
X169055127Y-81008873D01*
X169031976Y-80980663D01*
X169014774Y-80948481D01*
X169004181Y-80913562D01*
X169000000Y-80871105D01*
X169000000Y-79729895D01*
X169004181Y-79687438D01*
X169014774Y-79652519D01*
X169031976Y-79620337D01*
X169055127Y-79592127D01*
X169083337Y-79568976D01*
X169115519Y-79551774D01*
X169150438Y-79541181D01*
X169192895Y-79537000D01*
X170659105Y-79537000D01*
X170701562Y-79541181D01*
G37*
G36*
X154966000Y-79876000D02*
G01*
X152864000Y-79876000D01*
X152864000Y-78874000D01*
X154966000Y-78874000D01*
X154966000Y-79876000D01*
G37*
G36*
X137966000Y-79876000D02*
G01*
X135864000Y-79876000D01*
X135864000Y-78874000D01*
X137966000Y-78874000D01*
X137966000Y-79876000D01*
G37*
G36*
X146966000Y-79266000D02*
G01*
X141864000Y-79266000D01*
X141864000Y-74164000D01*
X146966000Y-74164000D01*
X146966000Y-79266000D01*
G37*
G36*
X137966000Y-78606000D02*
G01*
X135864000Y-78606000D01*
X135864000Y-77604000D01*
X137966000Y-77604000D01*
X137966000Y-78606000D01*
G37*
G36*
X154966000Y-78606000D02*
G01*
X152864000Y-78606000D01*
X152864000Y-77604000D01*
X154966000Y-77604000D01*
X154966000Y-78606000D01*
G37*
G36*
X171553000Y-77526000D02*
G01*
X169451000Y-77526000D01*
X169451000Y-76774000D01*
X171553000Y-76774000D01*
X171553000Y-77526000D01*
G37*
G36*
X164949000Y-77526000D02*
G01*
X162847000Y-77526000D01*
X162847000Y-76774000D01*
X164949000Y-76774000D01*
X164949000Y-77526000D01*
G37*
G36*
X154966000Y-77336000D02*
G01*
X152864000Y-77336000D01*
X152864000Y-76334000D01*
X154966000Y-76334000D01*
X154966000Y-77336000D01*
G37*
G36*
X137966000Y-77336000D02*
G01*
X135864000Y-77336000D01*
X135864000Y-76334000D01*
X137966000Y-76334000D01*
X137966000Y-77336000D01*
G37*
G36*
X174973000Y-76576000D02*
G01*
X172871000Y-76576000D01*
X172871000Y-75824000D01*
X174973000Y-75824000D01*
X174973000Y-76576000D01*
G37*
G36*
X168369000Y-76576000D02*
G01*
X166267000Y-76576000D01*
X166267000Y-75824000D01*
X168369000Y-75824000D01*
X168369000Y-76576000D01*
G37*
G36*
X137966000Y-76066000D02*
G01*
X135864000Y-76066000D01*
X135864000Y-75064000D01*
X137966000Y-75064000D01*
X137966000Y-76066000D01*
G37*
G36*
X154966000Y-76066000D02*
G01*
X152864000Y-76066000D01*
X152864000Y-75064000D01*
X154966000Y-75064000D01*
X154966000Y-76066000D01*
G37*
G36*
X110936217Y-73842808D02*
G01*
X110967489Y-73852294D01*
X110996308Y-73867698D01*
X111021570Y-73888430D01*
X111042302Y-73913692D01*
X111057706Y-73942511D01*
X111067192Y-73973783D01*
X111071000Y-74012448D01*
X111071000Y-75847552D01*
X111067192Y-75886217D01*
X111057706Y-75917489D01*
X111042302Y-75946308D01*
X111021570Y-75971570D01*
X110996308Y-75992302D01*
X110967489Y-76007706D01*
X110936217Y-76017192D01*
X110897552Y-76021000D01*
X107542448Y-76021000D01*
X107503783Y-76017192D01*
X107472511Y-76007706D01*
X107443692Y-75992302D01*
X107418430Y-75971570D01*
X107397698Y-75946308D01*
X107382294Y-75917489D01*
X107372808Y-75886217D01*
X107369000Y-75847552D01*
X107369000Y-74012448D01*
X107372808Y-73973783D01*
X107382294Y-73942511D01*
X107397698Y-73913692D01*
X107418430Y-73888430D01*
X107443692Y-73867698D01*
X107472511Y-73852294D01*
X107503783Y-73842808D01*
X107542448Y-73839000D01*
X110897552Y-73839000D01*
X110936217Y-73842808D01*
G37*
G36*
X171553000Y-75626000D02*
G01*
X169451000Y-75626000D01*
X169451000Y-74874000D01*
X171553000Y-74874000D01*
X171553000Y-75626000D01*
G37*
G36*
X164949000Y-75626000D02*
G01*
X162847000Y-75626000D01*
X162847000Y-74874000D01*
X164949000Y-74874000D01*
X164949000Y-75626000D01*
G37*
G36*
X125073062Y-73627181D02*
G01*
X125107981Y-73637774D01*
X125140163Y-73654976D01*
X125168373Y-73678127D01*
X125191524Y-73706337D01*
X125208726Y-73738519D01*
X125219319Y-73773438D01*
X125223500Y-73815895D01*
X125223500Y-75282105D01*
X125219319Y-75324562D01*
X125208726Y-75359481D01*
X125191524Y-75391663D01*
X125168373Y-75419873D01*
X125140163Y-75443024D01*
X125107981Y-75460226D01*
X125073062Y-75470819D01*
X125030605Y-75475000D01*
X123889395Y-75475000D01*
X123846938Y-75470819D01*
X123812019Y-75460226D01*
X123779837Y-75443024D01*
X123751627Y-75419873D01*
X123728476Y-75391663D01*
X123711274Y-75359481D01*
X123700681Y-75324562D01*
X123696500Y-75282105D01*
X123696500Y-73815895D01*
X123700681Y-73773438D01*
X123711274Y-73738519D01*
X123728476Y-73706337D01*
X123751627Y-73678127D01*
X123779837Y-73654976D01*
X123812019Y-73637774D01*
X123846938Y-73627181D01*
X123889395Y-73623000D01*
X125030605Y-73623000D01*
X125073062Y-73627181D01*
G37*
G36*
X122098062Y-73627181D02*
G01*
X122132981Y-73637774D01*
X122165163Y-73654976D01*
X122193373Y-73678127D01*
X122216524Y-73706337D01*
X122233726Y-73738519D01*
X122244319Y-73773438D01*
X122248500Y-73815895D01*
X122248500Y-75282105D01*
X122244319Y-75324562D01*
X122233726Y-75359481D01*
X122216524Y-75391663D01*
X122193373Y-75419873D01*
X122165163Y-75443024D01*
X122132981Y-75460226D01*
X122098062Y-75470819D01*
X122055605Y-75475000D01*
X120914395Y-75475000D01*
X120871938Y-75470819D01*
X120837019Y-75460226D01*
X120804837Y-75443024D01*
X120776627Y-75419873D01*
X120753476Y-75391663D01*
X120736274Y-75359481D01*
X120725681Y-75324562D01*
X120721500Y-75282105D01*
X120721500Y-73815895D01*
X120725681Y-73773438D01*
X120736274Y-73738519D01*
X120753476Y-73706337D01*
X120776627Y-73678127D01*
X120804837Y-73654976D01*
X120837019Y-73637774D01*
X120871938Y-73627181D01*
X120914395Y-73623000D01*
X122055605Y-73623000D01*
X122098062Y-73627181D01*
G37*
G36*
X119158062Y-73627181D02*
G01*
X119192981Y-73637774D01*
X119225163Y-73654976D01*
X119253373Y-73678127D01*
X119276524Y-73706337D01*
X119293726Y-73738519D01*
X119304319Y-73773438D01*
X119308500Y-73815895D01*
X119308500Y-75282105D01*
X119304319Y-75324562D01*
X119293726Y-75359481D01*
X119276524Y-75391663D01*
X119253373Y-75419873D01*
X119225163Y-75443024D01*
X119192981Y-75460226D01*
X119158062Y-75470819D01*
X119115605Y-75475000D01*
X117974395Y-75475000D01*
X117931938Y-75470819D01*
X117897019Y-75460226D01*
X117864837Y-75443024D01*
X117836627Y-75419873D01*
X117813476Y-75391663D01*
X117796274Y-75359481D01*
X117785681Y-75324562D01*
X117781500Y-75282105D01*
X117781500Y-73815895D01*
X117785681Y-73773438D01*
X117796274Y-73738519D01*
X117813476Y-73706337D01*
X117836627Y-73678127D01*
X117864837Y-73654976D01*
X117897019Y-73637774D01*
X117931938Y-73627181D01*
X117974395Y-73623000D01*
X119115605Y-73623000D01*
X119158062Y-73627181D01*
G37*
G36*
X116183062Y-73627181D02*
G01*
X116217981Y-73637774D01*
X116250163Y-73654976D01*
X116278373Y-73678127D01*
X116301524Y-73706337D01*
X116318726Y-73738519D01*
X116329319Y-73773438D01*
X116333500Y-73815895D01*
X116333500Y-75282105D01*
X116329319Y-75324562D01*
X116318726Y-75359481D01*
X116301524Y-75391663D01*
X116278373Y-75419873D01*
X116250163Y-75443024D01*
X116217981Y-75460226D01*
X116183062Y-75470819D01*
X116140605Y-75475000D01*
X114999395Y-75475000D01*
X114956938Y-75470819D01*
X114922019Y-75460226D01*
X114889837Y-75443024D01*
X114861627Y-75419873D01*
X114838476Y-75391663D01*
X114821274Y-75359481D01*
X114810681Y-75324562D01*
X114806500Y-75282105D01*
X114806500Y-73815895D01*
X114810681Y-73773438D01*
X114821274Y-73738519D01*
X114838476Y-73706337D01*
X114861627Y-73678127D01*
X114889837Y-73654976D01*
X114922019Y-73637774D01*
X114956938Y-73627181D01*
X114999395Y-73623000D01*
X116140605Y-73623000D01*
X116183062Y-73627181D01*
G37*
G36*
X154966000Y-74796000D02*
G01*
X152864000Y-74796000D01*
X152864000Y-73794000D01*
X154966000Y-73794000D01*
X154966000Y-74796000D01*
G37*
G36*
X137966000Y-74796000D02*
G01*
X135864000Y-74796000D01*
X135864000Y-73794000D01*
X137966000Y-73794000D01*
X137966000Y-74796000D01*
G37*
G36*
X170876000Y-73881000D02*
G01*
X170124000Y-73881000D01*
X170124000Y-71779000D01*
X170876000Y-71779000D01*
X170876000Y-73881000D01*
G37*
G36*
X172776000Y-73881000D02*
G01*
X172024000Y-73881000D01*
X172024000Y-71779000D01*
X172776000Y-71779000D01*
X172776000Y-73881000D01*
G37*
G36*
X133490562Y-72065681D02*
G01*
X133525481Y-72076274D01*
X133557663Y-72093476D01*
X133585873Y-72116627D01*
X133609024Y-72144837D01*
X133626226Y-72177019D01*
X133636819Y-72211938D01*
X133641000Y-72254395D01*
X133641000Y-73395605D01*
X133636819Y-73438062D01*
X133626226Y-73472981D01*
X133609024Y-73505163D01*
X133585873Y-73533373D01*
X133557663Y-73556524D01*
X133525481Y-73573726D01*
X133490562Y-73584319D01*
X133448105Y-73588500D01*
X131981895Y-73588500D01*
X131939438Y-73584319D01*
X131904519Y-73573726D01*
X131872337Y-73556524D01*
X131844127Y-73533373D01*
X131820976Y-73505163D01*
X131803774Y-73472981D01*
X131793181Y-73438062D01*
X131789000Y-73395605D01*
X131789000Y-72254395D01*
X131793181Y-72211938D01*
X131803774Y-72177019D01*
X131820976Y-72144837D01*
X131844127Y-72116627D01*
X131872337Y-72093476D01*
X131904519Y-72076274D01*
X131939438Y-72065681D01*
X131981895Y-72061500D01*
X133448105Y-72061500D01*
X133490562Y-72065681D01*
G37*
G36*
X130950562Y-72065681D02*
G01*
X130985481Y-72076274D01*
X131017663Y-72093476D01*
X131045873Y-72116627D01*
X131069024Y-72144837D01*
X131086226Y-72177019D01*
X131096819Y-72211938D01*
X131101000Y-72254395D01*
X131101000Y-73395605D01*
X131096819Y-73438062D01*
X131086226Y-73472981D01*
X131069024Y-73505163D01*
X131045873Y-73533373D01*
X131017663Y-73556524D01*
X130985481Y-73573726D01*
X130950562Y-73584319D01*
X130908105Y-73588500D01*
X129441895Y-73588500D01*
X129399438Y-73584319D01*
X129364519Y-73573726D01*
X129332337Y-73556524D01*
X129304127Y-73533373D01*
X129280976Y-73505163D01*
X129263774Y-73472981D01*
X129253181Y-73438062D01*
X129249000Y-73395605D01*
X129249000Y-72254395D01*
X129253181Y-72211938D01*
X129263774Y-72177019D01*
X129280976Y-72144837D01*
X129304127Y-72116627D01*
X129332337Y-72093476D01*
X129364519Y-72076274D01*
X129399438Y-72065681D01*
X129441895Y-72061500D01*
X130908105Y-72061500D01*
X130950562Y-72065681D01*
G37*
G36*
X154966000Y-73526000D02*
G01*
X152864000Y-73526000D01*
X152864000Y-72524000D01*
X154966000Y-72524000D01*
X154966000Y-73526000D01*
G37*
G36*
X137966000Y-73526000D02*
G01*
X135864000Y-73526000D01*
X135864000Y-72524000D01*
X137966000Y-72524000D01*
X137966000Y-73526000D01*
G37*
G36*
X165875562Y-71848181D02*
G01*
X165910481Y-71858774D01*
X165942663Y-71875976D01*
X165970873Y-71899127D01*
X165994024Y-71927337D01*
X166011226Y-71959519D01*
X166021819Y-71994438D01*
X166026000Y-72036895D01*
X166026000Y-73178105D01*
X166021819Y-73220562D01*
X166011226Y-73255481D01*
X165994024Y-73287663D01*
X165970873Y-73315873D01*
X165942663Y-73339024D01*
X165910481Y-73356226D01*
X165875562Y-73366819D01*
X165833105Y-73371000D01*
X164366895Y-73371000D01*
X164324438Y-73366819D01*
X164289519Y-73356226D01*
X164257337Y-73339024D01*
X164229127Y-73315873D01*
X164205976Y-73287663D01*
X164188774Y-73255481D01*
X164178181Y-73220562D01*
X164174000Y-73178105D01*
X164174000Y-72036895D01*
X164178181Y-71994438D01*
X164188774Y-71959519D01*
X164205976Y-71927337D01*
X164229127Y-71899127D01*
X164257337Y-71875976D01*
X164289519Y-71858774D01*
X164324438Y-71848181D01*
X164366895Y-71844000D01*
X165833105Y-71844000D01*
X165875562Y-71848181D01*
G37*
G36*
X168923562Y-71848181D02*
G01*
X168958481Y-71858774D01*
X168990663Y-71875976D01*
X169018873Y-71899127D01*
X169042024Y-71927337D01*
X169059226Y-71959519D01*
X169069819Y-71994438D01*
X169074000Y-72036895D01*
X169074000Y-73178105D01*
X169069819Y-73220562D01*
X169059226Y-73255481D01*
X169042024Y-73287663D01*
X169018873Y-73315873D01*
X168990663Y-73339024D01*
X168958481Y-73356226D01*
X168923562Y-73366819D01*
X168881105Y-73371000D01*
X167414895Y-73371000D01*
X167372438Y-73366819D01*
X167337519Y-73356226D01*
X167305337Y-73339024D01*
X167277127Y-73315873D01*
X167253976Y-73287663D01*
X167236774Y-73255481D01*
X167226181Y-73220562D01*
X167222000Y-73178105D01*
X167222000Y-72036895D01*
X167226181Y-71994438D01*
X167236774Y-71959519D01*
X167253976Y-71927337D01*
X167277127Y-71899127D01*
X167305337Y-71875976D01*
X167337519Y-71858774D01*
X167372438Y-71848181D01*
X167414895Y-71844000D01*
X168881105Y-71844000D01*
X168923562Y-71848181D01*
G37*
G36*
X163335562Y-71848181D02*
G01*
X163370481Y-71858774D01*
X163402663Y-71875976D01*
X163430873Y-71899127D01*
X163454024Y-71927337D01*
X163471226Y-71959519D01*
X163481819Y-71994438D01*
X163486000Y-72036895D01*
X163486000Y-73178105D01*
X163481819Y-73220562D01*
X163471226Y-73255481D01*
X163454024Y-73287663D01*
X163430873Y-73315873D01*
X163402663Y-73339024D01*
X163370481Y-73356226D01*
X163335562Y-73366819D01*
X163293105Y-73371000D01*
X161826895Y-73371000D01*
X161784438Y-73366819D01*
X161749519Y-73356226D01*
X161717337Y-73339024D01*
X161689127Y-73315873D01*
X161665976Y-73287663D01*
X161648774Y-73255481D01*
X161638181Y-73220562D01*
X161634000Y-73178105D01*
X161634000Y-72036895D01*
X161638181Y-71994438D01*
X161648774Y-71959519D01*
X161665976Y-71927337D01*
X161689127Y-71899127D01*
X161717337Y-71875976D01*
X161749519Y-71858774D01*
X161784438Y-71848181D01*
X161826895Y-71844000D01*
X163293105Y-71844000D01*
X163335562Y-71848181D01*
G37*
G36*
X175527562Y-71594181D02*
G01*
X175562481Y-71604774D01*
X175594663Y-71621976D01*
X175622873Y-71645127D01*
X175646024Y-71673337D01*
X175663226Y-71705519D01*
X175673819Y-71740438D01*
X175678000Y-71782895D01*
X175678000Y-72924105D01*
X175673819Y-72966562D01*
X175663226Y-73001481D01*
X175646024Y-73033663D01*
X175622873Y-73061873D01*
X175594663Y-73085024D01*
X175562481Y-73102226D01*
X175527562Y-73112819D01*
X175485105Y-73117000D01*
X174018895Y-73117000D01*
X173976438Y-73112819D01*
X173941519Y-73102226D01*
X173909337Y-73085024D01*
X173881127Y-73061873D01*
X173857976Y-73033663D01*
X173840774Y-73001481D01*
X173830181Y-72966562D01*
X173826000Y-72924105D01*
X173826000Y-71782895D01*
X173830181Y-71740438D01*
X173840774Y-71705519D01*
X173857976Y-71673337D01*
X173881127Y-71645127D01*
X173909337Y-71621976D01*
X173941519Y-71604774D01*
X173976438Y-71594181D01*
X174018895Y-71590000D01*
X175485105Y-71590000D01*
X175527562Y-71594181D01*
G37*
G36*
X154966000Y-72256000D02*
G01*
X152864000Y-72256000D01*
X152864000Y-71254000D01*
X154966000Y-71254000D01*
X154966000Y-72256000D01*
G37*
G36*
X137966000Y-72256000D02*
G01*
X135864000Y-72256000D01*
X135864000Y-71254000D01*
X137966000Y-71254000D01*
X137966000Y-72256000D01*
G37*
G36*
X117538700Y-72250500D02*
G01*
X116598500Y-72250500D01*
X116598500Y-70548300D01*
X117538700Y-70548300D01*
X117538700Y-72250500D01*
G37*
G36*
X119850100Y-72250500D02*
G01*
X118909900Y-72250500D01*
X118909900Y-70548300D01*
X119850100Y-70548300D01*
X119850100Y-72250500D01*
G37*
G36*
X122161500Y-72250500D02*
G01*
X121221300Y-72250500D01*
X121221300Y-70548300D01*
X122161500Y-70548300D01*
X122161500Y-72250500D01*
G37*
G36*
X125743562Y-69562181D02*
G01*
X125778481Y-69572774D01*
X125810663Y-69589976D01*
X125838873Y-69613127D01*
X125862024Y-69641337D01*
X125879226Y-69673519D01*
X125889819Y-69708438D01*
X125894000Y-69750895D01*
X125894000Y-70892105D01*
X125889819Y-70934562D01*
X125879226Y-70969481D01*
X125862024Y-71001663D01*
X125838873Y-71029873D01*
X125810663Y-71053024D01*
X125778481Y-71070226D01*
X125743562Y-71080819D01*
X125701105Y-71085000D01*
X124234895Y-71085000D01*
X124192438Y-71080819D01*
X124157519Y-71070226D01*
X124125337Y-71053024D01*
X124097127Y-71029873D01*
X124073976Y-71001663D01*
X124056774Y-70969481D01*
X124046181Y-70934562D01*
X124042000Y-70892105D01*
X124042000Y-69750895D01*
X124046181Y-69708438D01*
X124056774Y-69673519D01*
X124073976Y-69641337D01*
X124097127Y-69613127D01*
X124125337Y-69589976D01*
X124157519Y-69572774D01*
X124192438Y-69562181D01*
X124234895Y-69558000D01*
X125701105Y-69558000D01*
X125743562Y-69562181D01*
G37*
G36*
X128283562Y-69562181D02*
G01*
X128318481Y-69572774D01*
X128350663Y-69589976D01*
X128378873Y-69613127D01*
X128402024Y-69641337D01*
X128419226Y-69673519D01*
X128429819Y-69708438D01*
X128434000Y-69750895D01*
X128434000Y-70892105D01*
X128429819Y-70934562D01*
X128419226Y-70969481D01*
X128402024Y-71001663D01*
X128378873Y-71029873D01*
X128350663Y-71053024D01*
X128318481Y-71070226D01*
X128283562Y-71080819D01*
X128241105Y-71085000D01*
X126774895Y-71085000D01*
X126732438Y-71080819D01*
X126697519Y-71070226D01*
X126665337Y-71053024D01*
X126637127Y-71029873D01*
X126613976Y-71001663D01*
X126596774Y-70969481D01*
X126586181Y-70934562D01*
X126582000Y-70892105D01*
X126582000Y-69750895D01*
X126586181Y-69708438D01*
X126596774Y-69673519D01*
X126613976Y-69641337D01*
X126637127Y-69613127D01*
X126665337Y-69589976D01*
X126697519Y-69572774D01*
X126732438Y-69562181D01*
X126774895Y-69558000D01*
X128241105Y-69558000D01*
X128283562Y-69562181D01*
G37*
G36*
X154966000Y-70986000D02*
G01*
X152864000Y-70986000D01*
X152864000Y-69984000D01*
X154966000Y-69984000D01*
X154966000Y-70986000D01*
G37*
G36*
X137966000Y-70986000D02*
G01*
X135864000Y-70986000D01*
X135864000Y-69984000D01*
X137966000Y-69984000D01*
X137966000Y-70986000D01*
G37*
G36*
X110193871Y-68774786D02*
G01*
X110399530Y-68837172D01*
X110589055Y-68938475D01*
X110589058Y-68938477D01*
X110589059Y-68938478D01*
X110755186Y-69074814D01*
X110888237Y-69236938D01*
X110891525Y-69240945D01*
X110992828Y-69430470D01*
X111055214Y-69636129D01*
X111076278Y-69850000D01*
X111055214Y-70063871D01*
X110992828Y-70269530D01*
X110891525Y-70459055D01*
X110891523Y-70459058D01*
X110891522Y-70459059D01*
X110755186Y-70625186D01*
X110589059Y-70761522D01*
X110589055Y-70761525D01*
X110399530Y-70862828D01*
X110193871Y-70925214D01*
X110033591Y-70941000D01*
X108406409Y-70941000D01*
X108246129Y-70925214D01*
X108040470Y-70862828D01*
X107850945Y-70761525D01*
X107850941Y-70761522D01*
X107684814Y-70625186D01*
X107548478Y-70459059D01*
X107548477Y-70459058D01*
X107548475Y-70459055D01*
X107447172Y-70269530D01*
X107384786Y-70063871D01*
X107363722Y-69850000D01*
X107384786Y-69636129D01*
X107447172Y-69430470D01*
X107548475Y-69240945D01*
X107551763Y-69236938D01*
X107684814Y-69074814D01*
X107850941Y-68938478D01*
X107850942Y-68938477D01*
X107850945Y-68938475D01*
X108040470Y-68837172D01*
X108246129Y-68774786D01*
X108406409Y-68759000D01*
X110033591Y-68759000D01*
X110193871Y-68774786D01*
G37*
G36*
X130950562Y-69090681D02*
G01*
X130985481Y-69101274D01*
X131017663Y-69118476D01*
X131045873Y-69141627D01*
X131069024Y-69169837D01*
X131086226Y-69202019D01*
X131096819Y-69236938D01*
X131101000Y-69279395D01*
X131101000Y-70420605D01*
X131096819Y-70463062D01*
X131086226Y-70497981D01*
X131069024Y-70530163D01*
X131045873Y-70558373D01*
X131017663Y-70581524D01*
X130985481Y-70598726D01*
X130950562Y-70609319D01*
X130908105Y-70613500D01*
X129441895Y-70613500D01*
X129399438Y-70609319D01*
X129364519Y-70598726D01*
X129332337Y-70581524D01*
X129304127Y-70558373D01*
X129280976Y-70530163D01*
X129263774Y-70497981D01*
X129253181Y-70463062D01*
X129249000Y-70420605D01*
X129249000Y-69279395D01*
X129253181Y-69236938D01*
X129263774Y-69202019D01*
X129280976Y-69169837D01*
X129304127Y-69141627D01*
X129332337Y-69118476D01*
X129364519Y-69101274D01*
X129399438Y-69090681D01*
X129441895Y-69086500D01*
X130908105Y-69086500D01*
X130950562Y-69090681D01*
G37*
G36*
X133490562Y-69090681D02*
G01*
X133525481Y-69101274D01*
X133557663Y-69118476D01*
X133585873Y-69141627D01*
X133609024Y-69169837D01*
X133626226Y-69202019D01*
X133636819Y-69236938D01*
X133641000Y-69279395D01*
X133641000Y-70420605D01*
X133636819Y-70463062D01*
X133626226Y-70497981D01*
X133609024Y-70530163D01*
X133585873Y-70558373D01*
X133557663Y-70581524D01*
X133525481Y-70598726D01*
X133490562Y-70609319D01*
X133448105Y-70613500D01*
X131981895Y-70613500D01*
X131939438Y-70609319D01*
X131904519Y-70598726D01*
X131872337Y-70581524D01*
X131844127Y-70558373D01*
X131820976Y-70530163D01*
X131803774Y-70497981D01*
X131793181Y-70463062D01*
X131789000Y-70420605D01*
X131789000Y-69279395D01*
X131793181Y-69236938D01*
X131803774Y-69202019D01*
X131820976Y-69169837D01*
X131844127Y-69141627D01*
X131872337Y-69118476D01*
X131904519Y-69101274D01*
X131939438Y-69090681D01*
X131981895Y-69086500D01*
X133448105Y-69086500D01*
X133490562Y-69090681D01*
G37*
G36*
X171826000Y-70461000D02*
G01*
X171074000Y-70461000D01*
X171074000Y-68359000D01*
X171826000Y-68359000D01*
X171826000Y-70461000D01*
G37*
G36*
X163335562Y-68873181D02*
G01*
X163370481Y-68883774D01*
X163402663Y-68900976D01*
X163430873Y-68924127D01*
X163454024Y-68952337D01*
X163471226Y-68984519D01*
X163481819Y-69019438D01*
X163486000Y-69061895D01*
X163486000Y-70203105D01*
X163481819Y-70245562D01*
X163471226Y-70280481D01*
X163454024Y-70312663D01*
X163430873Y-70340873D01*
X163402663Y-70364024D01*
X163370481Y-70381226D01*
X163335562Y-70391819D01*
X163293105Y-70396000D01*
X161826895Y-70396000D01*
X161784438Y-70391819D01*
X161749519Y-70381226D01*
X161717337Y-70364024D01*
X161689127Y-70340873D01*
X161665976Y-70312663D01*
X161648774Y-70280481D01*
X161638181Y-70245562D01*
X161634000Y-70203105D01*
X161634000Y-69061895D01*
X161638181Y-69019438D01*
X161648774Y-68984519D01*
X161665976Y-68952337D01*
X161689127Y-68924127D01*
X161717337Y-68900976D01*
X161749519Y-68883774D01*
X161784438Y-68873181D01*
X161826895Y-68869000D01*
X163293105Y-68869000D01*
X163335562Y-68873181D01*
G37*
G36*
X168923562Y-68873181D02*
G01*
X168958481Y-68883774D01*
X168990663Y-68900976D01*
X169018873Y-68924127D01*
X169042024Y-68952337D01*
X169059226Y-68984519D01*
X169069819Y-69019438D01*
X169074000Y-69061895D01*
X169074000Y-70203105D01*
X169069819Y-70245562D01*
X169059226Y-70280481D01*
X169042024Y-70312663D01*
X169018873Y-70340873D01*
X168990663Y-70364024D01*
X168958481Y-70381226D01*
X168923562Y-70391819D01*
X168881105Y-70396000D01*
X167414895Y-70396000D01*
X167372438Y-70391819D01*
X167337519Y-70381226D01*
X167305337Y-70364024D01*
X167277127Y-70340873D01*
X167253976Y-70312663D01*
X167236774Y-70280481D01*
X167226181Y-70245562D01*
X167222000Y-70203105D01*
X167222000Y-69061895D01*
X167226181Y-69019438D01*
X167236774Y-68984519D01*
X167253976Y-68952337D01*
X167277127Y-68924127D01*
X167305337Y-68900976D01*
X167337519Y-68883774D01*
X167372438Y-68873181D01*
X167414895Y-68869000D01*
X168881105Y-68869000D01*
X168923562Y-68873181D01*
G37*
G36*
X165875562Y-68873181D02*
G01*
X165910481Y-68883774D01*
X165942663Y-68900976D01*
X165970873Y-68924127D01*
X165994024Y-68952337D01*
X166011226Y-68984519D01*
X166021819Y-69019438D01*
X166026000Y-69061895D01*
X166026000Y-70203105D01*
X166021819Y-70245562D01*
X166011226Y-70280481D01*
X165994024Y-70312663D01*
X165970873Y-70340873D01*
X165942663Y-70364024D01*
X165910481Y-70381226D01*
X165875562Y-70391819D01*
X165833105Y-70396000D01*
X164366895Y-70396000D01*
X164324438Y-70391819D01*
X164289519Y-70381226D01*
X164257337Y-70364024D01*
X164229127Y-70340873D01*
X164205976Y-70312663D01*
X164188774Y-70280481D01*
X164178181Y-70245562D01*
X164174000Y-70203105D01*
X164174000Y-69061895D01*
X164178181Y-69019438D01*
X164188774Y-68984519D01*
X164205976Y-68952337D01*
X164229127Y-68924127D01*
X164257337Y-68900976D01*
X164289519Y-68883774D01*
X164324438Y-68873181D01*
X164366895Y-68869000D01*
X165833105Y-68869000D01*
X165875562Y-68873181D01*
G37*
G36*
X175527562Y-68619181D02*
G01*
X175562481Y-68629774D01*
X175594663Y-68646976D01*
X175622873Y-68670127D01*
X175646024Y-68698337D01*
X175663226Y-68730519D01*
X175673819Y-68765438D01*
X175678000Y-68807895D01*
X175678000Y-69949105D01*
X175673819Y-69991562D01*
X175663226Y-70026481D01*
X175646024Y-70058663D01*
X175622873Y-70086873D01*
X175594663Y-70110024D01*
X175562481Y-70127226D01*
X175527562Y-70137819D01*
X175485105Y-70142000D01*
X174018895Y-70142000D01*
X173976438Y-70137819D01*
X173941519Y-70127226D01*
X173909337Y-70110024D01*
X173881127Y-70086873D01*
X173857976Y-70058663D01*
X173840774Y-70026481D01*
X173830181Y-69991562D01*
X173826000Y-69949105D01*
X173826000Y-68807895D01*
X173830181Y-68765438D01*
X173840774Y-68730519D01*
X173857976Y-68698337D01*
X173881127Y-68670127D01*
X173909337Y-68646976D01*
X173941519Y-68629774D01*
X173976438Y-68619181D01*
X174018895Y-68615000D01*
X175485105Y-68615000D01*
X175527562Y-68619181D01*
G37*
G36*
X154966000Y-69716000D02*
G01*
X152864000Y-69716000D01*
X152864000Y-68714000D01*
X154966000Y-68714000D01*
X154966000Y-69716000D01*
G37*
G36*
X137966000Y-69716000D02*
G01*
X135864000Y-69716000D01*
X135864000Y-68714000D01*
X137966000Y-68714000D01*
X137966000Y-69716000D01*
G37*
G36*
X128283562Y-66587181D02*
G01*
X128318481Y-66597774D01*
X128350663Y-66614976D01*
X128378873Y-66638127D01*
X128402024Y-66666337D01*
X128419226Y-66698519D01*
X128429819Y-66733438D01*
X128434000Y-66775895D01*
X128434000Y-67917105D01*
X128429819Y-67959562D01*
X128419226Y-67994481D01*
X128402024Y-68026663D01*
X128378873Y-68054873D01*
X128350663Y-68078024D01*
X128318481Y-68095226D01*
X128283562Y-68105819D01*
X128241105Y-68110000D01*
X126774895Y-68110000D01*
X126732438Y-68105819D01*
X126697519Y-68095226D01*
X126665337Y-68078024D01*
X126637127Y-68054873D01*
X126613976Y-68026663D01*
X126596774Y-67994481D01*
X126586181Y-67959562D01*
X126582000Y-67917105D01*
X126582000Y-66775895D01*
X126586181Y-66733438D01*
X126596774Y-66698519D01*
X126613976Y-66666337D01*
X126637127Y-66638127D01*
X126665337Y-66614976D01*
X126697519Y-66597774D01*
X126732438Y-66587181D01*
X126774895Y-66583000D01*
X128241105Y-66583000D01*
X128283562Y-66587181D01*
G37*
G36*
X125743562Y-66587181D02*
G01*
X125778481Y-66597774D01*
X125810663Y-66614976D01*
X125838873Y-66638127D01*
X125862024Y-66666337D01*
X125879226Y-66698519D01*
X125889819Y-66733438D01*
X125894000Y-66775895D01*
X125894000Y-67917105D01*
X125889819Y-67959562D01*
X125879226Y-67994481D01*
X125862024Y-68026663D01*
X125838873Y-68054873D01*
X125810663Y-68078024D01*
X125778481Y-68095226D01*
X125743562Y-68105819D01*
X125701105Y-68110000D01*
X124234895Y-68110000D01*
X124192438Y-68105819D01*
X124157519Y-68095226D01*
X124125337Y-68078024D01*
X124097127Y-68054873D01*
X124073976Y-68026663D01*
X124056774Y-67994481D01*
X124046181Y-67959562D01*
X124042000Y-67917105D01*
X124042000Y-66775895D01*
X124046181Y-66733438D01*
X124056774Y-66698519D01*
X124073976Y-66666337D01*
X124097127Y-66638127D01*
X124125337Y-66614976D01*
X124157519Y-66597774D01*
X124192438Y-66587181D01*
X124234895Y-66583000D01*
X125701105Y-66583000D01*
X125743562Y-66587181D01*
G37*
G36*
X164578512Y-65143927D02*
G01*
X164727812Y-65173624D01*
X164891784Y-65241544D01*
X165039354Y-65340147D01*
X165164853Y-65465646D01*
X165263456Y-65613216D01*
X165331376Y-65777188D01*
X165366000Y-65951259D01*
X165366000Y-66128741D01*
X165331376Y-66302812D01*
X165263456Y-66466784D01*
X165164853Y-66614354D01*
X165039354Y-66739853D01*
X164891784Y-66838456D01*
X164727812Y-66906376D01*
X164578512Y-66936073D01*
X164553742Y-66941000D01*
X164376258Y-66941000D01*
X164351488Y-66936073D01*
X164202188Y-66906376D01*
X164038216Y-66838456D01*
X163890646Y-66739853D01*
X163765147Y-66614354D01*
X163666544Y-66466784D01*
X163598624Y-66302812D01*
X163564000Y-66128741D01*
X163564000Y-65951259D01*
X163598624Y-65777188D01*
X163666544Y-65613216D01*
X163765147Y-65465646D01*
X163890646Y-65340147D01*
X164038216Y-65241544D01*
X164202188Y-65173624D01*
X164351488Y-65143927D01*
X164376258Y-65139000D01*
X164553742Y-65139000D01*
X164578512Y-65143927D01*
G37*
G36*
X169658512Y-65143927D02*
G01*
X169807812Y-65173624D01*
X169971784Y-65241544D01*
X170119354Y-65340147D01*
X170244853Y-65465646D01*
X170343456Y-65613216D01*
X170411376Y-65777188D01*
X170446000Y-65951259D01*
X170446000Y-66128741D01*
X170411376Y-66302812D01*
X170343456Y-66466784D01*
X170244853Y-66614354D01*
X170119354Y-66739853D01*
X169971784Y-66838456D01*
X169807812Y-66906376D01*
X169658512Y-66936073D01*
X169633742Y-66941000D01*
X169456258Y-66941000D01*
X169431488Y-66936073D01*
X169282188Y-66906376D01*
X169118216Y-66838456D01*
X168970646Y-66739853D01*
X168845147Y-66614354D01*
X168746544Y-66466784D01*
X168678624Y-66302812D01*
X168644000Y-66128741D01*
X168644000Y-65951259D01*
X168678624Y-65777188D01*
X168746544Y-65613216D01*
X168845147Y-65465646D01*
X168970646Y-65340147D01*
X169118216Y-65241544D01*
X169282188Y-65173624D01*
X169431488Y-65143927D01*
X169456258Y-65139000D01*
X169633742Y-65139000D01*
X169658512Y-65143927D01*
G37*
G36*
X167118512Y-65143927D02*
G01*
X167267812Y-65173624D01*
X167431784Y-65241544D01*
X167579354Y-65340147D01*
X167704853Y-65465646D01*
X167803456Y-65613216D01*
X167871376Y-65777188D01*
X167906000Y-65951259D01*
X167906000Y-66128741D01*
X167871376Y-66302812D01*
X167803456Y-66466784D01*
X167704853Y-66614354D01*
X167579354Y-66739853D01*
X167431784Y-66838456D01*
X167267812Y-66906376D01*
X167118512Y-66936073D01*
X167093742Y-66941000D01*
X166916258Y-66941000D01*
X166891488Y-66936073D01*
X166742188Y-66906376D01*
X166578216Y-66838456D01*
X166430646Y-66739853D01*
X166305147Y-66614354D01*
X166206544Y-66466784D01*
X166138624Y-66302812D01*
X166104000Y-66128741D01*
X166104000Y-65951259D01*
X166138624Y-65777188D01*
X166206544Y-65613216D01*
X166305147Y-65465646D01*
X166430646Y-65340147D01*
X166578216Y-65241544D01*
X166742188Y-65173624D01*
X166891488Y-65143927D01*
X166916258Y-65139000D01*
X167093742Y-65139000D01*
X167118512Y-65143927D01*
G37*
G36*
X162826000Y-66941000D02*
G01*
X161024000Y-66941000D01*
X161024000Y-65139000D01*
X162826000Y-65139000D01*
X162826000Y-66941000D01*
G37*
G36*
X172198512Y-65143927D02*
G01*
X172347812Y-65173624D01*
X172511784Y-65241544D01*
X172659354Y-65340147D01*
X172784853Y-65465646D01*
X172883456Y-65613216D01*
X172951376Y-65777188D01*
X172986000Y-65951259D01*
X172986000Y-66128741D01*
X172951376Y-66302812D01*
X172883456Y-66466784D01*
X172784853Y-66614354D01*
X172659354Y-66739853D01*
X172511784Y-66838456D01*
X172347812Y-66906376D01*
X172198512Y-66936073D01*
X172173742Y-66941000D01*
X171996258Y-66941000D01*
X171971488Y-66936073D01*
X171822188Y-66906376D01*
X171658216Y-66838456D01*
X171510646Y-66739853D01*
X171385147Y-66614354D01*
X171286544Y-66466784D01*
X171218624Y-66302812D01*
X171184000Y-66128741D01*
X171184000Y-65951259D01*
X171218624Y-65777188D01*
X171286544Y-65613216D01*
X171385147Y-65465646D01*
X171510646Y-65340147D01*
X171658216Y-65241544D01*
X171822188Y-65173624D01*
X171971488Y-65143927D01*
X171996258Y-65139000D01*
X172173742Y-65139000D01*
X172198512Y-65143927D01*
G37*
G36*
X120980400Y-65849700D02*
G01*
X117779600Y-65849700D01*
X117779600Y-64147500D01*
X120980400Y-64147500D01*
X120980400Y-65849700D01*
G37*
G36*
X128742766Y-63985321D02*
G01*
X128879257Y-64041858D01*
X129002097Y-64123937D01*
X129106563Y-64228403D01*
X129188642Y-64351243D01*
X129245179Y-64487734D01*
X129274000Y-64632630D01*
X129274000Y-64780370D01*
X129245179Y-64925266D01*
X129188642Y-65061757D01*
X129106563Y-65184597D01*
X129002097Y-65289063D01*
X128879257Y-65371142D01*
X128742766Y-65427679D01*
X128597870Y-65456500D01*
X128450130Y-65456500D01*
X128305234Y-65427679D01*
X128168743Y-65371142D01*
X128045903Y-65289063D01*
X127941437Y-65184597D01*
X127859358Y-65061757D01*
X127802821Y-64925266D01*
X127774000Y-64780370D01*
X127774000Y-64632630D01*
X127802821Y-64487734D01*
X127859358Y-64351243D01*
X127941437Y-64228403D01*
X128045903Y-64123937D01*
X128168743Y-64041858D01*
X128305234Y-63985321D01*
X128450130Y-63956500D01*
X128597870Y-63956500D01*
X128742766Y-63985321D01*
G37*
G36*
X164694000Y-61886000D02*
G01*
X163542000Y-61886000D01*
X163542000Y-60034000D01*
X164694000Y-60034000D01*
X164694000Y-61886000D01*
G37*
G36*
X162594000Y-61886000D02*
G01*
X161442000Y-61886000D01*
X161442000Y-60034000D01*
X162594000Y-60034000D01*
X162594000Y-61886000D01*
G37*
G36*
X113677000Y-61861000D02*
G01*
X111875000Y-61861000D01*
X111875000Y-60059000D01*
X113677000Y-60059000D01*
X113677000Y-61861000D01*
G37*
G36*
X115429512Y-60063927D02*
G01*
X115578812Y-60093624D01*
X115742784Y-60161544D01*
X115890354Y-60260147D01*
X116015853Y-60385646D01*
X116114456Y-60533216D01*
X116182376Y-60697188D01*
X116217000Y-60871259D01*
X116217000Y-61048741D01*
X116182376Y-61222812D01*
X116114456Y-61386784D01*
X116015853Y-61534354D01*
X115890354Y-61659853D01*
X115742784Y-61758456D01*
X115578812Y-61826376D01*
X115429512Y-61856073D01*
X115404742Y-61861000D01*
X115227258Y-61861000D01*
X115202488Y-61856073D01*
X115053188Y-61826376D01*
X114889216Y-61758456D01*
X114741646Y-61659853D01*
X114616147Y-61534354D01*
X114517544Y-61386784D01*
X114449624Y-61222812D01*
X114415000Y-61048741D01*
X114415000Y-60871259D01*
X114449624Y-60697188D01*
X114517544Y-60533216D01*
X114616147Y-60385646D01*
X114741646Y-60260147D01*
X114889216Y-60161544D01*
X115053188Y-60093624D01*
X115202488Y-60063927D01*
X115227258Y-60059000D01*
X115404742Y-60059000D01*
X115429512Y-60063927D01*
G37*
G36*
X117969512Y-60063927D02*
G01*
X118118812Y-60093624D01*
X118282784Y-60161544D01*
X118430354Y-60260147D01*
X118555853Y-60385646D01*
X118654456Y-60533216D01*
X118722376Y-60697188D01*
X118757000Y-60871259D01*
X118757000Y-61048741D01*
X118722376Y-61222812D01*
X118654456Y-61386784D01*
X118555853Y-61534354D01*
X118430354Y-61659853D01*
X118282784Y-61758456D01*
X118118812Y-61826376D01*
X117969512Y-61856073D01*
X117944742Y-61861000D01*
X117767258Y-61861000D01*
X117742488Y-61856073D01*
X117593188Y-61826376D01*
X117429216Y-61758456D01*
X117281646Y-61659853D01*
X117156147Y-61534354D01*
X117057544Y-61386784D01*
X116989624Y-61222812D01*
X116955000Y-61048741D01*
X116955000Y-60871259D01*
X116989624Y-60697188D01*
X117057544Y-60533216D01*
X117156147Y-60385646D01*
X117281646Y-60260147D01*
X117429216Y-60161544D01*
X117593188Y-60093624D01*
X117742488Y-60063927D01*
X117767258Y-60059000D01*
X117944742Y-60059000D01*
X117969512Y-60063927D01*
G37*
G36*
X130431000Y-61761000D02*
G01*
X128829000Y-61761000D01*
X128829000Y-60159000D01*
X130431000Y-60159000D01*
X130431000Y-61761000D01*
G37*
G36*
X122631000Y-61761000D02*
G01*
X121029000Y-61761000D01*
X121029000Y-60159000D01*
X122631000Y-60159000D01*
X122631000Y-61761000D01*
G37*
G36*
X168366766Y-59349821D02*
G01*
X168503257Y-59406358D01*
X168626097Y-59488437D01*
X168730563Y-59592903D01*
X168812642Y-59715743D01*
X168869179Y-59852234D01*
X168898000Y-59997130D01*
X168898000Y-60144870D01*
X168869179Y-60289766D01*
X168812642Y-60426257D01*
X168730563Y-60549097D01*
X168626097Y-60653563D01*
X168503257Y-60735642D01*
X168366766Y-60792179D01*
X168221870Y-60821000D01*
X168074130Y-60821000D01*
X167929234Y-60792179D01*
X167792743Y-60735642D01*
X167669903Y-60653563D01*
X167565437Y-60549097D01*
X167483358Y-60426257D01*
X167426821Y-60289766D01*
X167398000Y-60144870D01*
X167398000Y-59997130D01*
X167426821Y-59852234D01*
X167483358Y-59715743D01*
X167565437Y-59592903D01*
X167669903Y-59488437D01*
X167792743Y-59406358D01*
X167929234Y-59349821D01*
X168074130Y-59321000D01*
X168221870Y-59321000D01*
X168366766Y-59349821D01*
G37*
M02*
