G04 #@! TF.GenerationSoftware,KiCad,Pcbnew,5.1.5+dfsg1-2build2*
G04 #@! TF.CreationDate,2020-10-17T13:38:53+02:00*
G04 #@! TF.ProjectId,Esp32LoraBoard,45737033-324c-46f7-9261-426f6172642e,1.1*
G04 #@! TF.SameCoordinates,Original*
G04 #@! TF.FileFunction,Copper,L2,Bot*
G04 #@! TF.FilePolarity,Positive*
%FSLAX46Y46*%
G04 Gerber Fmt 4.6, Leading zero omitted, Abs format (unit mm)*
G04 Created by KiCad (PCBNEW 5.1.5+dfsg1-2build2) date 2020-10-17 13:38:53*
%MOMM*%
%LPD*%
G04 APERTURE LIST*
%ADD10R,1.700000X1.700000*%
%ADD11O,1.700000X1.700000*%
%ADD12R,4.200000X1.350000*%
%ADD13O,1.900000X1.050000*%
%ADD14R,1.000000X1.000000*%
%ADD15O,1.000000X1.000000*%
%ADD16C,0.100000*%
%ADD17O,3.600000X2.080000*%
%ADD18C,2.000000*%
%ADD19R,3.200000X2.000000*%
%ADD20R,2.000000X2.000000*%
%ADD21C,0.800000*%
%ADD22C,1.016000*%
%ADD23C,0.508000*%
%ADD24C,0.250000*%
%ADD25C,0.254000*%
G04 APERTURE END LIST*
D10*
X112776000Y-60960000D03*
D11*
X115316000Y-60960000D03*
X117856000Y-60960000D03*
D12*
X173736000Y-105822000D03*
X173736000Y-100172000D03*
D13*
X107512000Y-81388000D03*
X107512000Y-88538000D03*
D14*
X137160000Y-92710000D03*
D15*
X137160000Y-91440000D03*
X138430000Y-92710000D03*
X138430000Y-91440000D03*
X139700000Y-92710000D03*
X139700000Y-91440000D03*
X140970000Y-92710000D03*
X140970000Y-91440000D03*
X142240000Y-92710000D03*
X142240000Y-91440000D03*
D10*
X161925000Y-66040000D03*
D11*
X164465000Y-66040000D03*
X167005000Y-66040000D03*
X169545000Y-66040000D03*
X172085000Y-66040000D03*
G04 #@! TA.AperFunction,ComponentPad*
D16*
G36*
X110286505Y-93449204D02*
G01*
X110310773Y-93452804D01*
X110334572Y-93458765D01*
X110357671Y-93467030D01*
X110379850Y-93477520D01*
X110400893Y-93490132D01*
X110420599Y-93504747D01*
X110438777Y-93521223D01*
X110455253Y-93539401D01*
X110469868Y-93559107D01*
X110482480Y-93580150D01*
X110492970Y-93602329D01*
X110501235Y-93625428D01*
X110507196Y-93649227D01*
X110510796Y-93673495D01*
X110512000Y-93697999D01*
X110512000Y-95278001D01*
X110510796Y-95302505D01*
X110507196Y-95326773D01*
X110501235Y-95350572D01*
X110492970Y-95373671D01*
X110482480Y-95395850D01*
X110469868Y-95416893D01*
X110455253Y-95436599D01*
X110438777Y-95454777D01*
X110420599Y-95471253D01*
X110400893Y-95485868D01*
X110379850Y-95498480D01*
X110357671Y-95508970D01*
X110334572Y-95517235D01*
X110310773Y-95523196D01*
X110286505Y-95526796D01*
X110262001Y-95528000D01*
X107161999Y-95528000D01*
X107137495Y-95526796D01*
X107113227Y-95523196D01*
X107089428Y-95517235D01*
X107066329Y-95508970D01*
X107044150Y-95498480D01*
X107023107Y-95485868D01*
X107003401Y-95471253D01*
X106985223Y-95454777D01*
X106968747Y-95436599D01*
X106954132Y-95416893D01*
X106941520Y-95395850D01*
X106931030Y-95373671D01*
X106922765Y-95350572D01*
X106916804Y-95326773D01*
X106913204Y-95302505D01*
X106912000Y-95278001D01*
X106912000Y-93697999D01*
X106913204Y-93673495D01*
X106916804Y-93649227D01*
X106922765Y-93625428D01*
X106931030Y-93602329D01*
X106941520Y-93580150D01*
X106954132Y-93559107D01*
X106968747Y-93539401D01*
X106985223Y-93521223D01*
X107003401Y-93504747D01*
X107023107Y-93490132D01*
X107044150Y-93477520D01*
X107066329Y-93467030D01*
X107089428Y-93458765D01*
X107113227Y-93452804D01*
X107137495Y-93449204D01*
X107161999Y-93448000D01*
X110262001Y-93448000D01*
X110286505Y-93449204D01*
G37*
G04 #@! TD.AperFunction*
D17*
X108712000Y-99568000D03*
X108712000Y-104648000D03*
X108712000Y-109728000D03*
D11*
X120904000Y-119380000D03*
X118364000Y-119380000D03*
D10*
X115824000Y-119380000D03*
X126492000Y-88138000D03*
X126492000Y-97091500D03*
X166878000Y-85979000D03*
X115316000Y-82296000D03*
D11*
X117856000Y-82296000D03*
X120396000Y-82296000D03*
X122936000Y-82296000D03*
X125476000Y-82296000D03*
D10*
X173736000Y-80518000D03*
D11*
X173736000Y-83058000D03*
X173736000Y-85598000D03*
X173736000Y-88138000D03*
G04 #@! TA.AperFunction,ComponentPad*
D16*
G36*
X110794505Y-73891204D02*
G01*
X110818773Y-73894804D01*
X110842572Y-73900765D01*
X110865671Y-73909030D01*
X110887850Y-73919520D01*
X110908893Y-73932132D01*
X110928599Y-73946747D01*
X110946777Y-73963223D01*
X110963253Y-73981401D01*
X110977868Y-74001107D01*
X110990480Y-74022150D01*
X111000970Y-74044329D01*
X111009235Y-74067428D01*
X111015196Y-74091227D01*
X111018796Y-74115495D01*
X111020000Y-74139999D01*
X111020000Y-75720001D01*
X111018796Y-75744505D01*
X111015196Y-75768773D01*
X111009235Y-75792572D01*
X111000970Y-75815671D01*
X110990480Y-75837850D01*
X110977868Y-75858893D01*
X110963253Y-75878599D01*
X110946777Y-75896777D01*
X110928599Y-75913253D01*
X110908893Y-75927868D01*
X110887850Y-75940480D01*
X110865671Y-75950970D01*
X110842572Y-75959235D01*
X110818773Y-75965196D01*
X110794505Y-75968796D01*
X110770001Y-75970000D01*
X107669999Y-75970000D01*
X107645495Y-75968796D01*
X107621227Y-75965196D01*
X107597428Y-75959235D01*
X107574329Y-75950970D01*
X107552150Y-75940480D01*
X107531107Y-75927868D01*
X107511401Y-75913253D01*
X107493223Y-75896777D01*
X107476747Y-75878599D01*
X107462132Y-75858893D01*
X107449520Y-75837850D01*
X107439030Y-75815671D01*
X107430765Y-75792572D01*
X107424804Y-75768773D01*
X107421204Y-75744505D01*
X107420000Y-75720001D01*
X107420000Y-74139999D01*
X107421204Y-74115495D01*
X107424804Y-74091227D01*
X107430765Y-74067428D01*
X107439030Y-74044329D01*
X107449520Y-74022150D01*
X107462132Y-74001107D01*
X107476747Y-73981401D01*
X107493223Y-73963223D01*
X107511401Y-73946747D01*
X107531107Y-73932132D01*
X107552150Y-73919520D01*
X107574329Y-73909030D01*
X107597428Y-73900765D01*
X107621227Y-73894804D01*
X107645495Y-73891204D01*
X107669999Y-73890000D01*
X110770001Y-73890000D01*
X110794505Y-73891204D01*
G37*
G04 #@! TD.AperFunction*
D17*
X109220000Y-69850000D03*
D18*
X150390000Y-115744000D03*
X150390000Y-110744000D03*
D19*
X143390000Y-118844000D03*
X143390000Y-107644000D03*
D18*
X135890000Y-115744000D03*
X135890000Y-113244000D03*
D20*
X135890000Y-110744000D03*
D10*
X122872500Y-102870000D03*
X126555500Y-92583000D03*
X125920500Y-119761000D03*
X120586500Y-109728000D03*
D11*
X118046500Y-109728000D03*
D10*
X173228000Y-93472000D03*
D21*
X139700000Y-88900000D03*
X170465000Y-100172000D03*
X170465000Y-100172000D03*
D22*
X160274000Y-69342000D03*
X135135347Y-69342000D03*
X134366000Y-72898000D03*
X172212000Y-80772000D03*
X161036000Y-84074000D03*
X161544000Y-92202000D03*
X170434000Y-92202000D03*
X114300000Y-80772000D03*
X114300000Y-64770000D03*
X123190000Y-64008000D03*
D21*
X113538000Y-75692000D03*
X113138001Y-79647999D03*
X132842000Y-102362000D03*
X132969000Y-78105000D03*
X133096000Y-79375000D03*
X133096000Y-100457000D03*
X134112000Y-81788000D03*
X134112000Y-99568000D03*
X134837000Y-83312000D03*
X135128000Y-120904000D03*
X160020000Y-80645000D03*
X160020000Y-120777000D03*
X162560000Y-120777000D03*
X162560000Y-79375000D03*
X156210000Y-78105000D03*
X156210000Y-120777000D03*
X164465000Y-120777000D03*
X166624000Y-71120000D03*
X130810000Y-71120000D03*
D22*
X119380000Y-85344000D03*
X168148000Y-70866000D03*
X167640000Y-83820000D03*
X169418000Y-98298000D03*
X170942000Y-108458000D03*
D21*
X129540000Y-98552000D03*
D22*
X127508000Y-71628000D03*
X127508000Y-59182000D03*
D21*
X134302347Y-68262347D03*
X134112000Y-71374000D03*
X130302000Y-62611000D03*
X160655000Y-62547500D03*
X155448000Y-85598000D03*
X154686000Y-66548000D03*
D22*
X128778000Y-82296000D03*
X128778000Y-97282000D03*
X167386000Y-97282000D03*
X160782000Y-75184000D03*
X160782000Y-72898000D03*
X128270000Y-115570000D03*
X128270000Y-107950000D03*
D21*
X135562000Y-84582000D03*
X138430000Y-87122000D03*
X140648685Y-89216228D03*
X140970000Y-90170000D03*
X164084000Y-62484000D03*
X157480000Y-67564000D03*
X156993010Y-72390000D03*
X159004000Y-67601000D03*
X159004000Y-72390000D03*
X114300000Y-107124500D03*
X114300000Y-95059500D03*
X124460000Y-76962000D03*
X124206000Y-98044000D03*
X152169189Y-93535001D03*
X152569188Y-87206812D03*
X152569188Y-87206812D03*
X127857501Y-83471001D03*
D22*
X174752000Y-74168000D03*
D21*
X174752000Y-70612000D03*
D22*
X174752000Y-78168500D03*
X167640001Y-78295501D03*
X129540000Y-117729000D03*
X170434000Y-69469000D03*
X170497500Y-74612500D03*
X169728216Y-81812457D03*
X168846500Y-75247500D03*
D21*
X171459347Y-79022500D03*
X172021500Y-77152500D03*
X163830000Y-88646000D03*
X163830000Y-78486000D03*
X156268010Y-71569990D03*
X156210000Y-75946000D03*
X157480000Y-74168000D03*
X157480000Y-82296000D03*
X155702000Y-68326000D03*
X155543010Y-72392976D03*
X173482000Y-74676000D03*
X173482000Y-70612000D03*
X173482000Y-68326000D03*
X127508000Y-75692000D03*
X131318000Y-74422000D03*
X130556000Y-105664000D03*
X132080000Y-75438000D03*
X131572000Y-112776000D03*
X158750000Y-81534000D03*
X158750000Y-115570000D03*
D23*
X160567000Y-66040000D02*
X160274000Y-66333000D01*
X161925000Y-66040000D02*
X160567000Y-66040000D01*
X160274000Y-66333000D02*
X160274000Y-69342000D01*
X135135347Y-69342000D02*
X135135347Y-72128653D01*
X135135347Y-72128653D02*
X134366000Y-72898000D01*
X172311000Y-105822000D02*
X173736000Y-105822000D01*
X170465000Y-103976000D02*
X172311000Y-105822000D01*
X170465000Y-100172000D02*
X170465000Y-103976000D01*
X170465000Y-100172000D02*
X173736000Y-100172000D01*
X172378000Y-80518000D02*
X173736000Y-80518000D01*
X170465000Y-82431000D02*
X172378000Y-80518000D01*
X170465000Y-100172000D02*
X170465000Y-82431000D01*
X161036000Y-84074000D02*
X161544000Y-84582000D01*
X161544000Y-84582000D02*
X161544000Y-92202000D01*
X114807999Y-65277999D02*
X114300000Y-64770000D01*
X114300000Y-80772000D02*
X114807999Y-80264001D01*
X114807999Y-80264001D02*
X114807999Y-65277999D01*
D24*
X113138001Y-76091999D02*
X113138001Y-79647999D01*
X113538000Y-75692000D02*
X113138001Y-76091999D01*
X132569001Y-78504999D02*
X132969000Y-78105000D01*
X132370999Y-78703001D02*
X132569001Y-78504999D01*
X132370999Y-101890999D02*
X132370999Y-78703001D01*
X132842000Y-102362000D02*
X132370999Y-101890999D01*
X133096000Y-79375000D02*
X133096000Y-98425000D01*
X133096000Y-98425000D02*
X133096000Y-100457000D01*
X134112000Y-81788000D02*
X134112000Y-97536000D01*
X134112000Y-97536000D02*
X134112000Y-99568000D01*
X135128000Y-120904000D02*
X134837000Y-120613000D01*
X134837000Y-83312000D02*
X134837000Y-102399000D01*
X134837000Y-102399000D02*
X132588000Y-104648000D01*
X132588000Y-118364000D02*
X135128000Y-120904000D01*
X132588000Y-104648000D02*
X132588000Y-118364000D01*
X160020000Y-80645000D02*
X160020000Y-118745000D01*
X160020000Y-118745000D02*
X160020000Y-120777000D01*
X162560000Y-119507000D02*
X162560000Y-120777000D01*
X162560000Y-79375000D02*
X162560000Y-117475000D01*
X162560000Y-117475000D02*
X162560000Y-120777000D01*
X156210000Y-78105000D02*
X156210000Y-118745000D01*
X156210000Y-118745000D02*
X156210000Y-120777000D01*
X164465000Y-120777000D02*
X164465000Y-120777000D01*
X166624000Y-71120000D02*
X165640001Y-72168001D01*
X165640001Y-72168001D02*
X165640001Y-119601999D01*
X165640001Y-119601999D02*
X164465000Y-120777000D01*
D23*
X119888000Y-85344000D02*
X122936000Y-82296000D01*
X119380000Y-85344000D02*
X119888000Y-85344000D01*
X167640001Y-83819999D02*
X167640000Y-83820000D01*
X168148000Y-70866000D02*
X167640001Y-71373999D01*
X167640000Y-83820000D02*
X169418000Y-85598000D01*
X169418000Y-85598000D02*
X169418000Y-98298000D01*
X169418000Y-98298000D02*
X169418000Y-106934000D01*
X169418000Y-106934000D02*
X170942000Y-108458000D01*
X130410001Y-71519999D02*
X130810000Y-71120000D01*
X130410001Y-98152001D02*
X130410001Y-71519999D01*
X129540000Y-98552000D02*
X130410001Y-98152001D01*
X127508000Y-71628000D02*
X127508000Y-59182000D01*
D24*
X134302347Y-71310347D02*
X134302347Y-68262347D01*
X134112000Y-71374000D02*
X134302347Y-71310347D01*
X130302000Y-62611000D02*
X160591500Y-62611000D01*
X160591500Y-62611000D02*
X160655000Y-62547500D01*
X154686000Y-84836000D02*
X155448000Y-85598000D01*
X154686000Y-66548000D02*
X154686000Y-84836000D01*
D23*
X128778000Y-82296000D02*
X128778000Y-97282000D01*
X167386000Y-86614000D02*
X167640000Y-86360000D01*
X167386000Y-97282000D02*
X167386000Y-86614000D01*
X160782000Y-75184000D02*
X160782000Y-72898000D01*
X128778000Y-98000420D02*
X128270000Y-98508420D01*
X128778000Y-97282000D02*
X128778000Y-98000420D01*
X128270000Y-98508420D02*
X128270000Y-107950000D01*
X128270000Y-107950000D02*
X128270000Y-115570000D01*
D24*
X137160000Y-91440000D02*
X135890000Y-91440000D01*
X135890000Y-91440000D02*
X135562000Y-91112000D01*
X135562000Y-91112000D02*
X135562000Y-84582000D01*
X138430000Y-91440000D02*
X138430000Y-87122000D01*
X140456774Y-89216228D02*
X140648685Y-89216228D01*
X139700000Y-91440000D02*
X139700000Y-89973002D01*
X139700000Y-89973002D02*
X140456774Y-89216228D01*
X140970000Y-91440000D02*
X140970000Y-90170000D01*
X164084000Y-65659000D02*
X164465000Y-66040000D01*
X164084000Y-62484000D02*
X164084000Y-65659000D01*
X158278999Y-71104011D02*
X156993010Y-72390000D01*
X157480000Y-67564000D02*
X158278999Y-68362999D01*
X158278999Y-68362999D02*
X158278999Y-71104011D01*
X159004000Y-67601000D02*
X159004000Y-72390000D01*
X114300000Y-107124500D02*
X114300000Y-100076000D01*
X114300000Y-100076000D02*
X114300000Y-95059500D01*
X124460000Y-77527685D02*
X124206000Y-77781685D01*
X124460000Y-76962000D02*
X124460000Y-77527685D01*
X124206000Y-77781685D02*
X124206000Y-98044000D01*
X152569188Y-93135002D02*
X152569188Y-87206812D01*
X152169189Y-93535001D02*
X152569188Y-93135002D01*
X127857501Y-90180999D02*
X127857501Y-83471001D01*
X126555500Y-92583000D02*
X126555500Y-91483000D01*
X126555500Y-91483000D02*
X127857501Y-90180999D01*
D23*
X174752000Y-74168000D02*
X174752000Y-70612000D01*
X174752000Y-74168000D02*
X174752000Y-74886420D01*
X174752000Y-74886420D02*
X174752000Y-78168500D01*
X167640001Y-78295501D02*
X167640001Y-83819999D01*
X167640001Y-71373999D02*
X167640001Y-78295501D01*
X129540000Y-117729000D02*
X129540000Y-98552000D01*
X170434000Y-74549000D02*
X170497500Y-74612500D01*
X170434000Y-69469000D02*
X170434000Y-74549000D01*
X169728216Y-81812457D02*
X168846500Y-80930741D01*
X168846500Y-80930741D02*
X168846500Y-75247500D01*
D24*
X171459347Y-77714653D02*
X172021500Y-77152500D01*
X171459347Y-79022500D02*
X171459347Y-77714653D01*
X163830000Y-88646000D02*
X163830000Y-78486000D01*
X156268010Y-71569990D02*
X156268010Y-75887990D01*
X156268010Y-75887990D02*
X156210000Y-75946000D01*
X157480000Y-74168000D02*
X157480000Y-82296000D01*
X155302001Y-72151967D02*
X155543010Y-72392976D01*
X155702000Y-68326000D02*
X155302001Y-68725999D01*
X155302001Y-68725999D02*
X155302001Y-72151967D01*
X173482000Y-74676000D02*
X173482000Y-70612000D01*
X173482000Y-70612000D02*
X173482000Y-70046315D01*
X173482000Y-70046315D02*
X173482000Y-68326000D01*
X126809500Y-86233000D02*
X126492000Y-88138000D01*
X126809500Y-76200000D02*
X126809500Y-86233000D01*
X127000000Y-76200000D02*
X127508000Y-75692000D01*
X126809500Y-76200000D02*
X127000000Y-76200000D01*
X131121990Y-105098010D02*
X130556000Y-105664000D01*
X131121990Y-75183695D02*
X131121990Y-105098010D01*
X131318000Y-74422000D02*
X131318000Y-74987685D01*
X131318000Y-74987685D02*
X131121990Y-75183695D01*
X132080000Y-75438000D02*
X131572000Y-75946000D01*
X131572000Y-75946000D02*
X131572000Y-112776000D01*
X158750000Y-81534000D02*
X158750000Y-82099685D01*
X158750000Y-82099685D02*
X158750000Y-115570000D01*
D25*
G36*
X126408925Y-58848599D02*
G01*
X126365000Y-59069424D01*
X126365000Y-59294576D01*
X126408925Y-59515401D01*
X126495087Y-59723413D01*
X126619001Y-59908864D01*
X126619000Y-70901137D01*
X126495087Y-71086587D01*
X126408925Y-71294599D01*
X126365000Y-71515424D01*
X126365000Y-71740576D01*
X126408925Y-71961401D01*
X126495087Y-72169413D01*
X126620174Y-72356620D01*
X126779380Y-72515826D01*
X126966587Y-72640913D01*
X127174599Y-72727075D01*
X127395424Y-72771000D01*
X127620576Y-72771000D01*
X127841401Y-72727075D01*
X128049413Y-72640913D01*
X128236620Y-72515826D01*
X128395826Y-72356620D01*
X128520913Y-72169413D01*
X128607075Y-71961401D01*
X128651000Y-71740576D01*
X128651000Y-71515424D01*
X128607075Y-71294599D01*
X128520913Y-71086587D01*
X128397000Y-70901137D01*
X128397000Y-66446061D01*
X153651000Y-66446061D01*
X153651000Y-66649939D01*
X153690774Y-66849898D01*
X153768795Y-67038256D01*
X153882063Y-67207774D01*
X153926000Y-67251711D01*
X153926001Y-84798667D01*
X153922324Y-84836000D01*
X153926001Y-84873333D01*
X153936998Y-84984986D01*
X153950180Y-85028442D01*
X153980454Y-85128246D01*
X154051026Y-85260276D01*
X154119737Y-85344000D01*
X154146000Y-85376001D01*
X154174998Y-85399799D01*
X154413000Y-85637801D01*
X154413000Y-85699939D01*
X154452774Y-85899898D01*
X154530795Y-86088256D01*
X154644063Y-86257774D01*
X154788226Y-86401937D01*
X154957744Y-86515205D01*
X155146102Y-86593226D01*
X155346061Y-86633000D01*
X155450000Y-86633000D01*
X155450001Y-118707658D01*
X155450000Y-118707668D01*
X155450001Y-120073288D01*
X155406063Y-120117226D01*
X155292795Y-120286744D01*
X155214774Y-120475102D01*
X155175000Y-120675061D01*
X155175000Y-120878939D01*
X155214774Y-121078898D01*
X155292795Y-121267256D01*
X155406063Y-121436774D01*
X155550226Y-121580937D01*
X155719744Y-121694205D01*
X155908102Y-121772226D01*
X156108061Y-121812000D01*
X156311939Y-121812000D01*
X156511898Y-121772226D01*
X156700256Y-121694205D01*
X156869774Y-121580937D01*
X157013937Y-121436774D01*
X157127205Y-121267256D01*
X157205226Y-121078898D01*
X157245000Y-120878939D01*
X157245000Y-120675061D01*
X157205226Y-120475102D01*
X157127205Y-120286744D01*
X157013937Y-120117226D01*
X156970000Y-120073289D01*
X156970000Y-83200013D01*
X156989744Y-83213205D01*
X157178102Y-83291226D01*
X157378061Y-83331000D01*
X157581939Y-83331000D01*
X157781898Y-83291226D01*
X157970256Y-83213205D01*
X157990000Y-83200012D01*
X157990001Y-114866288D01*
X157946063Y-114910226D01*
X157832795Y-115079744D01*
X157754774Y-115268102D01*
X157715000Y-115468061D01*
X157715000Y-115671939D01*
X157754774Y-115871898D01*
X157832795Y-116060256D01*
X157946063Y-116229774D01*
X158090226Y-116373937D01*
X158259744Y-116487205D01*
X158448102Y-116565226D01*
X158648061Y-116605000D01*
X158851939Y-116605000D01*
X159051898Y-116565226D01*
X159240256Y-116487205D01*
X159260001Y-116474012D01*
X159260001Y-118707658D01*
X159260000Y-118707668D01*
X159260001Y-120073288D01*
X159216063Y-120117226D01*
X159102795Y-120286744D01*
X159024774Y-120475102D01*
X158985000Y-120675061D01*
X158985000Y-120878939D01*
X159024774Y-121078898D01*
X159102795Y-121267256D01*
X159216063Y-121436774D01*
X159360226Y-121580937D01*
X159529744Y-121694205D01*
X159718102Y-121772226D01*
X159918061Y-121812000D01*
X160121939Y-121812000D01*
X160321898Y-121772226D01*
X160510256Y-121694205D01*
X160679774Y-121580937D01*
X160823937Y-121436774D01*
X160937205Y-121267256D01*
X161015226Y-121078898D01*
X161055000Y-120878939D01*
X161055000Y-120675061D01*
X161015226Y-120475102D01*
X160937205Y-120286744D01*
X160823937Y-120117226D01*
X160780000Y-120073289D01*
X160780000Y-81348711D01*
X160823937Y-81304774D01*
X160937205Y-81135256D01*
X161015226Y-80946898D01*
X161055000Y-80746939D01*
X161055000Y-80543061D01*
X161015226Y-80343102D01*
X160937205Y-80154744D01*
X160823937Y-79985226D01*
X160679774Y-79841063D01*
X160510256Y-79727795D01*
X160321898Y-79649774D01*
X160121939Y-79610000D01*
X159918061Y-79610000D01*
X159718102Y-79649774D01*
X159529744Y-79727795D01*
X159360226Y-79841063D01*
X159216063Y-79985226D01*
X159102795Y-80154744D01*
X159024774Y-80343102D01*
X158988366Y-80526137D01*
X158851939Y-80499000D01*
X158648061Y-80499000D01*
X158448102Y-80538774D01*
X158259744Y-80616795D01*
X158240000Y-80629987D01*
X158240000Y-79273061D01*
X161525000Y-79273061D01*
X161525000Y-79476939D01*
X161564774Y-79676898D01*
X161642795Y-79865256D01*
X161756063Y-80034774D01*
X161800000Y-80078711D01*
X161800001Y-117437658D01*
X161800000Y-117437668D01*
X161800001Y-119469662D01*
X161800000Y-119469668D01*
X161800000Y-120073289D01*
X161756063Y-120117226D01*
X161642795Y-120286744D01*
X161564774Y-120475102D01*
X161525000Y-120675061D01*
X161525000Y-120878939D01*
X161564774Y-121078898D01*
X161642795Y-121267256D01*
X161756063Y-121436774D01*
X161900226Y-121580937D01*
X162069744Y-121694205D01*
X162258102Y-121772226D01*
X162458061Y-121812000D01*
X162661939Y-121812000D01*
X162861898Y-121772226D01*
X163050256Y-121694205D01*
X163219774Y-121580937D01*
X163363937Y-121436774D01*
X163477205Y-121267256D01*
X163512500Y-121182047D01*
X163547795Y-121267256D01*
X163661063Y-121436774D01*
X163805226Y-121580937D01*
X163974744Y-121694205D01*
X164163102Y-121772226D01*
X164363061Y-121812000D01*
X164566939Y-121812000D01*
X164766898Y-121772226D01*
X164955256Y-121694205D01*
X165124774Y-121580937D01*
X165268937Y-121436774D01*
X165382205Y-121267256D01*
X165460226Y-121078898D01*
X165500000Y-120878939D01*
X165500000Y-120816801D01*
X166151004Y-120165798D01*
X166180002Y-120142000D01*
X166274975Y-120026275D01*
X166345547Y-119894246D01*
X166389004Y-119750985D01*
X166400001Y-119639332D01*
X166400001Y-119639323D01*
X166403677Y-119602000D01*
X166400001Y-119564677D01*
X166400001Y-97863693D01*
X166498174Y-98010620D01*
X166657380Y-98169826D01*
X166844587Y-98294913D01*
X167052599Y-98381075D01*
X167273424Y-98425000D01*
X167498576Y-98425000D01*
X167719401Y-98381075D01*
X167927413Y-98294913D01*
X168114620Y-98169826D01*
X168273826Y-98010620D01*
X168342329Y-97908098D01*
X168318925Y-97964599D01*
X168275000Y-98185424D01*
X168275000Y-98410576D01*
X168318925Y-98631401D01*
X168405087Y-98839413D01*
X168529000Y-99024863D01*
X168529001Y-106890330D01*
X168524700Y-106934000D01*
X168541864Y-107108274D01*
X168592698Y-107275852D01*
X168675248Y-107430291D01*
X168694468Y-107453710D01*
X168786342Y-107565659D01*
X168820259Y-107593494D01*
X169799412Y-108572648D01*
X169842925Y-108791401D01*
X169929087Y-108999413D01*
X170054174Y-109186620D01*
X170213380Y-109345826D01*
X170400587Y-109470913D01*
X170608599Y-109557075D01*
X170829424Y-109601000D01*
X171054576Y-109601000D01*
X171275401Y-109557075D01*
X171483413Y-109470913D01*
X171670620Y-109345826D01*
X171829826Y-109186620D01*
X171954913Y-108999413D01*
X172041075Y-108791401D01*
X172085000Y-108570576D01*
X172085000Y-108345424D01*
X172041075Y-108124599D01*
X171954913Y-107916587D01*
X171829826Y-107729380D01*
X171670620Y-107570174D01*
X171483413Y-107445087D01*
X171275401Y-107358925D01*
X171056648Y-107315412D01*
X170307000Y-106565765D01*
X170307000Y-106497000D01*
X170997928Y-106497000D01*
X171010188Y-106621482D01*
X171046498Y-106741180D01*
X171105463Y-106851494D01*
X171184815Y-106948185D01*
X171281506Y-107027537D01*
X171391820Y-107086502D01*
X171511518Y-107122812D01*
X171636000Y-107135072D01*
X173450250Y-107132000D01*
X173609000Y-106973250D01*
X173609000Y-105949000D01*
X171159750Y-105949000D01*
X171001000Y-106107750D01*
X170997928Y-106497000D01*
X170307000Y-106497000D01*
X170307000Y-105147000D01*
X170997928Y-105147000D01*
X171001000Y-105536250D01*
X171159750Y-105695000D01*
X173609000Y-105695000D01*
X173609000Y-104670750D01*
X173450250Y-104512000D01*
X171636000Y-104508928D01*
X171511518Y-104521188D01*
X171391820Y-104557498D01*
X171281506Y-104616463D01*
X171184815Y-104695815D01*
X171105463Y-104792506D01*
X171046498Y-104902820D01*
X171010188Y-105022518D01*
X170997928Y-105147000D01*
X170307000Y-105147000D01*
X170307000Y-100847000D01*
X170997928Y-100847000D01*
X171010188Y-100971482D01*
X171046498Y-101091180D01*
X171105463Y-101201494D01*
X171184815Y-101298185D01*
X171281506Y-101377537D01*
X171391820Y-101436502D01*
X171511518Y-101472812D01*
X171636000Y-101485072D01*
X173450250Y-101482000D01*
X173609000Y-101323250D01*
X173609000Y-100299000D01*
X171159750Y-100299000D01*
X171001000Y-100457750D01*
X170997928Y-100847000D01*
X170307000Y-100847000D01*
X170307000Y-99497000D01*
X170997928Y-99497000D01*
X171001000Y-99886250D01*
X171159750Y-100045000D01*
X173609000Y-100045000D01*
X173609000Y-99020750D01*
X173450250Y-98862000D01*
X171636000Y-98858928D01*
X171511518Y-98871188D01*
X171391820Y-98907498D01*
X171281506Y-98966463D01*
X171184815Y-99045815D01*
X171105463Y-99142506D01*
X171046498Y-99252820D01*
X171010188Y-99372518D01*
X170997928Y-99497000D01*
X170307000Y-99497000D01*
X170307000Y-99024863D01*
X170430913Y-98839413D01*
X170517075Y-98631401D01*
X170561000Y-98410576D01*
X170561000Y-98185424D01*
X170517075Y-97964599D01*
X170430913Y-97756587D01*
X170307000Y-97571137D01*
X170307000Y-94322000D01*
X171739928Y-94322000D01*
X171752188Y-94446482D01*
X171788498Y-94566180D01*
X171847463Y-94676494D01*
X171926815Y-94773185D01*
X172023506Y-94852537D01*
X172133820Y-94911502D01*
X172253518Y-94947812D01*
X172378000Y-94960072D01*
X172942250Y-94957000D01*
X173101000Y-94798250D01*
X173101000Y-93599000D01*
X173355000Y-93599000D01*
X173355000Y-94798250D01*
X173513750Y-94957000D01*
X174078000Y-94960072D01*
X174202482Y-94947812D01*
X174322180Y-94911502D01*
X174432494Y-94852537D01*
X174529185Y-94773185D01*
X174608537Y-94676494D01*
X174667502Y-94566180D01*
X174703812Y-94446482D01*
X174716072Y-94322000D01*
X174713000Y-93757750D01*
X174554250Y-93599000D01*
X173355000Y-93599000D01*
X173101000Y-93599000D01*
X171901750Y-93599000D01*
X171743000Y-93757750D01*
X171739928Y-94322000D01*
X170307000Y-94322000D01*
X170307000Y-92622000D01*
X171739928Y-92622000D01*
X171743000Y-93186250D01*
X171901750Y-93345000D01*
X173101000Y-93345000D01*
X173101000Y-92145750D01*
X173355000Y-92145750D01*
X173355000Y-93345000D01*
X174554250Y-93345000D01*
X174713000Y-93186250D01*
X174716072Y-92622000D01*
X174703812Y-92497518D01*
X174667502Y-92377820D01*
X174608537Y-92267506D01*
X174529185Y-92170815D01*
X174432494Y-92091463D01*
X174322180Y-92032498D01*
X174202482Y-91996188D01*
X174078000Y-91983928D01*
X173513750Y-91987000D01*
X173355000Y-92145750D01*
X173101000Y-92145750D01*
X172942250Y-91987000D01*
X172378000Y-91983928D01*
X172253518Y-91996188D01*
X172133820Y-92032498D01*
X172023506Y-92091463D01*
X171926815Y-92170815D01*
X171847463Y-92267506D01*
X171788498Y-92377820D01*
X171752188Y-92497518D01*
X171739928Y-92622000D01*
X170307000Y-92622000D01*
X170307000Y-85641660D01*
X170311300Y-85598000D01*
X170307000Y-85554340D01*
X170307000Y-85554333D01*
X170294136Y-85423726D01*
X170243303Y-85256149D01*
X170160753Y-85101709D01*
X170049659Y-84966341D01*
X170015743Y-84938507D01*
X168782588Y-83705353D01*
X168739075Y-83486599D01*
X168652913Y-83278587D01*
X168529001Y-83093139D01*
X168529001Y-81870477D01*
X168585628Y-81927104D01*
X168629141Y-82145858D01*
X168715303Y-82353870D01*
X168840390Y-82541077D01*
X168999596Y-82700283D01*
X169186803Y-82825370D01*
X169394815Y-82911532D01*
X169615640Y-82955457D01*
X169840792Y-82955457D01*
X170061617Y-82911532D01*
X170269629Y-82825370D01*
X170456836Y-82700283D01*
X170616042Y-82541077D01*
X170741129Y-82353870D01*
X170827291Y-82145858D01*
X170871216Y-81925033D01*
X170871216Y-81699881D01*
X170827291Y-81479056D01*
X170781290Y-81368000D01*
X172247928Y-81368000D01*
X172260188Y-81492482D01*
X172296498Y-81612180D01*
X172355463Y-81722494D01*
X172434815Y-81819185D01*
X172531506Y-81898537D01*
X172641820Y-81957502D01*
X172714380Y-81979513D01*
X172582525Y-82111368D01*
X172420010Y-82354589D01*
X172308068Y-82624842D01*
X172251000Y-82911740D01*
X172251000Y-83204260D01*
X172308068Y-83491158D01*
X172420010Y-83761411D01*
X172582525Y-84004632D01*
X172789368Y-84211475D01*
X172963760Y-84328000D01*
X172789368Y-84444525D01*
X172582525Y-84651368D01*
X172420010Y-84894589D01*
X172308068Y-85164842D01*
X172251000Y-85451740D01*
X172251000Y-85744260D01*
X172308068Y-86031158D01*
X172420010Y-86301411D01*
X172582525Y-86544632D01*
X172789368Y-86751475D01*
X172963760Y-86868000D01*
X172789368Y-86984525D01*
X172582525Y-87191368D01*
X172420010Y-87434589D01*
X172308068Y-87704842D01*
X172251000Y-87991740D01*
X172251000Y-88284260D01*
X172308068Y-88571158D01*
X172420010Y-88841411D01*
X172582525Y-89084632D01*
X172789368Y-89291475D01*
X173032589Y-89453990D01*
X173302842Y-89565932D01*
X173589740Y-89623000D01*
X173882260Y-89623000D01*
X174169158Y-89565932D01*
X174439411Y-89453990D01*
X174682632Y-89291475D01*
X174889475Y-89084632D01*
X175051990Y-88841411D01*
X175163932Y-88571158D01*
X175221000Y-88284260D01*
X175221000Y-87991740D01*
X175163932Y-87704842D01*
X175051990Y-87434589D01*
X174889475Y-87191368D01*
X174682632Y-86984525D01*
X174508240Y-86868000D01*
X174682632Y-86751475D01*
X174889475Y-86544632D01*
X175051990Y-86301411D01*
X175163932Y-86031158D01*
X175221000Y-85744260D01*
X175221000Y-85451740D01*
X175163932Y-85164842D01*
X175051990Y-84894589D01*
X174889475Y-84651368D01*
X174682632Y-84444525D01*
X174508240Y-84328000D01*
X174682632Y-84211475D01*
X174889475Y-84004632D01*
X175051990Y-83761411D01*
X175163932Y-83491158D01*
X175221000Y-83204260D01*
X175221000Y-82911740D01*
X175163932Y-82624842D01*
X175051990Y-82354589D01*
X174889475Y-82111368D01*
X174757620Y-81979513D01*
X174830180Y-81957502D01*
X174940494Y-81898537D01*
X175037185Y-81819185D01*
X175116537Y-81722494D01*
X175175502Y-81612180D01*
X175211812Y-81492482D01*
X175224072Y-81368000D01*
X175221000Y-80803750D01*
X175062250Y-80645000D01*
X173863000Y-80645000D01*
X173863000Y-80665000D01*
X173609000Y-80665000D01*
X173609000Y-80645000D01*
X172409750Y-80645000D01*
X172251000Y-80803750D01*
X172247928Y-81368000D01*
X170781290Y-81368000D01*
X170741129Y-81271044D01*
X170616042Y-81083837D01*
X170456836Y-80924631D01*
X170269629Y-80799544D01*
X170061617Y-80713382D01*
X169842863Y-80669869D01*
X169735500Y-80562506D01*
X169735500Y-78920561D01*
X170424347Y-78920561D01*
X170424347Y-79124439D01*
X170464121Y-79324398D01*
X170542142Y-79512756D01*
X170655410Y-79682274D01*
X170799573Y-79826437D01*
X170969091Y-79939705D01*
X171157449Y-80017726D01*
X171357408Y-80057500D01*
X171561286Y-80057500D01*
X171761245Y-80017726D01*
X171949603Y-79939705D01*
X172119121Y-79826437D01*
X172248088Y-79697470D01*
X172251000Y-80232250D01*
X172409750Y-80391000D01*
X173609000Y-80391000D01*
X173609000Y-79191750D01*
X173450250Y-79033000D01*
X172886000Y-79029928D01*
X172761518Y-79042188D01*
X172641820Y-79078498D01*
X172531506Y-79137463D01*
X172484002Y-79176449D01*
X172494347Y-79124439D01*
X172494347Y-78920561D01*
X172454573Y-78720602D01*
X172376552Y-78532244D01*
X172263284Y-78362726D01*
X172219347Y-78318789D01*
X172219347Y-78168423D01*
X172323398Y-78147726D01*
X172511756Y-78069705D01*
X172681274Y-77956437D01*
X172825437Y-77812274D01*
X172938705Y-77642756D01*
X173016726Y-77454398D01*
X173056500Y-77254439D01*
X173056500Y-77050561D01*
X173016726Y-76850602D01*
X172938705Y-76662244D01*
X172825437Y-76492726D01*
X172681274Y-76348563D01*
X172511756Y-76235295D01*
X172323398Y-76157274D01*
X172123439Y-76117500D01*
X171919561Y-76117500D01*
X171719602Y-76157274D01*
X171531244Y-76235295D01*
X171361726Y-76348563D01*
X171217563Y-76492726D01*
X171104295Y-76662244D01*
X171026274Y-76850602D01*
X170986500Y-77050561D01*
X170986500Y-77112699D01*
X170948344Y-77150855D01*
X170919347Y-77174652D01*
X170895549Y-77203650D01*
X170895548Y-77203651D01*
X170824373Y-77290377D01*
X170753801Y-77422407D01*
X170733468Y-77489438D01*
X170710345Y-77565667D01*
X170699412Y-77676671D01*
X170695671Y-77714653D01*
X170699348Y-77751985D01*
X170699348Y-78318788D01*
X170655410Y-78362726D01*
X170542142Y-78532244D01*
X170464121Y-78720602D01*
X170424347Y-78920561D01*
X169735500Y-78920561D01*
X169735500Y-75974363D01*
X169859413Y-75788913D01*
X169933413Y-75610263D01*
X169956087Y-75625413D01*
X170164099Y-75711575D01*
X170384924Y-75755500D01*
X170610076Y-75755500D01*
X170830901Y-75711575D01*
X171038913Y-75625413D01*
X171226120Y-75500326D01*
X171385326Y-75341120D01*
X171510413Y-75153913D01*
X171596575Y-74945901D01*
X171640500Y-74725076D01*
X171640500Y-74499924D01*
X171596575Y-74279099D01*
X171510413Y-74071087D01*
X171385326Y-73883880D01*
X171323000Y-73821554D01*
X171323000Y-70195863D01*
X171446913Y-70010413D01*
X171533075Y-69802401D01*
X171577000Y-69581576D01*
X171577000Y-69356424D01*
X171533075Y-69135599D01*
X171446913Y-68927587D01*
X171321826Y-68740380D01*
X171162620Y-68581174D01*
X170975413Y-68456087D01*
X170767401Y-68369925D01*
X170546576Y-68326000D01*
X170321424Y-68326000D01*
X170100599Y-68369925D01*
X169892587Y-68456087D01*
X169705380Y-68581174D01*
X169546174Y-68740380D01*
X169421087Y-68927587D01*
X169334925Y-69135599D01*
X169291000Y-69356424D01*
X169291000Y-69581576D01*
X169334925Y-69802401D01*
X169421087Y-70010413D01*
X169545000Y-70195863D01*
X169545001Y-73980671D01*
X169484587Y-74071087D01*
X169410587Y-74249737D01*
X169387913Y-74234587D01*
X169179901Y-74148425D01*
X168959076Y-74104500D01*
X168733924Y-74104500D01*
X168529001Y-74145262D01*
X168529001Y-71945358D01*
X168689413Y-71878913D01*
X168876620Y-71753826D01*
X169035826Y-71594620D01*
X169160913Y-71407413D01*
X169247075Y-71199401D01*
X169291000Y-70978576D01*
X169291000Y-70753424D01*
X169247075Y-70532599D01*
X169160913Y-70324587D01*
X169035826Y-70137380D01*
X168876620Y-69978174D01*
X168689413Y-69853087D01*
X168481401Y-69766925D01*
X168260576Y-69723000D01*
X168035424Y-69723000D01*
X167814599Y-69766925D01*
X167606587Y-69853087D01*
X167419380Y-69978174D01*
X167260174Y-70137380D01*
X167184918Y-70250010D01*
X167114256Y-70202795D01*
X166925898Y-70124774D01*
X166725939Y-70085000D01*
X166522061Y-70085000D01*
X166322102Y-70124774D01*
X166133744Y-70202795D01*
X165964226Y-70316063D01*
X165820063Y-70460226D01*
X165706795Y-70629744D01*
X165628774Y-70818102D01*
X165589000Y-71018061D01*
X165589000Y-71112013D01*
X165119720Y-71611816D01*
X165100000Y-71628000D01*
X165068601Y-71666260D01*
X165060394Y-71675001D01*
X165044919Y-71695117D01*
X165005027Y-71743726D01*
X164999340Y-71754365D01*
X164991985Y-71763926D01*
X164964105Y-71820285D01*
X164934455Y-71875755D01*
X164930953Y-71887301D01*
X164925605Y-71898111D01*
X164909258Y-71958820D01*
X164890998Y-72019016D01*
X164889815Y-72031026D01*
X164886680Y-72042669D01*
X164882491Y-72105393D01*
X164880001Y-72130669D01*
X164880001Y-72142665D01*
X164876703Y-72192042D01*
X164880001Y-72217335D01*
X164880002Y-119287196D01*
X164425199Y-119742000D01*
X164363061Y-119742000D01*
X164163102Y-119781774D01*
X163974744Y-119859795D01*
X163805226Y-119973063D01*
X163661063Y-120117226D01*
X163547795Y-120286744D01*
X163512500Y-120371953D01*
X163477205Y-120286744D01*
X163363937Y-120117226D01*
X163320000Y-120073289D01*
X163320000Y-89550013D01*
X163339744Y-89563205D01*
X163528102Y-89641226D01*
X163728061Y-89681000D01*
X163931939Y-89681000D01*
X164131898Y-89641226D01*
X164320256Y-89563205D01*
X164489774Y-89449937D01*
X164633937Y-89305774D01*
X164747205Y-89136256D01*
X164825226Y-88947898D01*
X164865000Y-88747939D01*
X164865000Y-88544061D01*
X164825226Y-88344102D01*
X164747205Y-88155744D01*
X164633937Y-87986226D01*
X164590000Y-87942289D01*
X164590000Y-79189711D01*
X164633937Y-79145774D01*
X164747205Y-78976256D01*
X164825226Y-78787898D01*
X164865000Y-78587939D01*
X164865000Y-78384061D01*
X164825226Y-78184102D01*
X164747205Y-77995744D01*
X164633937Y-77826226D01*
X164489774Y-77682063D01*
X164320256Y-77568795D01*
X164131898Y-77490774D01*
X163931939Y-77451000D01*
X163728061Y-77451000D01*
X163528102Y-77490774D01*
X163339744Y-77568795D01*
X163170226Y-77682063D01*
X163026063Y-77826226D01*
X162912795Y-77995744D01*
X162834774Y-78184102D01*
X162798366Y-78367137D01*
X162661939Y-78340000D01*
X162458061Y-78340000D01*
X162258102Y-78379774D01*
X162069744Y-78457795D01*
X161900226Y-78571063D01*
X161756063Y-78715226D01*
X161642795Y-78884744D01*
X161564774Y-79073102D01*
X161525000Y-79273061D01*
X158240000Y-79273061D01*
X158240000Y-74871711D01*
X158283937Y-74827774D01*
X158397205Y-74658256D01*
X158475226Y-74469898D01*
X158515000Y-74269939D01*
X158515000Y-74066061D01*
X158475226Y-73866102D01*
X158397205Y-73677744D01*
X158283937Y-73508226D01*
X158139774Y-73364063D01*
X157970256Y-73250795D01*
X157781898Y-73172774D01*
X157691857Y-73154864D01*
X157796947Y-73049774D01*
X157910215Y-72880256D01*
X157988236Y-72691898D01*
X157998505Y-72640272D01*
X158008774Y-72691898D01*
X158086795Y-72880256D01*
X158200063Y-73049774D01*
X158344226Y-73193937D01*
X158513744Y-73307205D01*
X158702102Y-73385226D01*
X158902061Y-73425000D01*
X159105939Y-73425000D01*
X159305898Y-73385226D01*
X159494256Y-73307205D01*
X159663774Y-73193937D01*
X159673532Y-73184179D01*
X159682925Y-73231401D01*
X159769087Y-73439413D01*
X159893001Y-73624864D01*
X159893000Y-74457137D01*
X159769087Y-74642587D01*
X159682925Y-74850599D01*
X159639000Y-75071424D01*
X159639000Y-75296576D01*
X159682925Y-75517401D01*
X159769087Y-75725413D01*
X159894174Y-75912620D01*
X160053380Y-76071826D01*
X160240587Y-76196913D01*
X160448599Y-76283075D01*
X160669424Y-76327000D01*
X160894576Y-76327000D01*
X161115401Y-76283075D01*
X161323413Y-76196913D01*
X161510620Y-76071826D01*
X161669826Y-75912620D01*
X161794913Y-75725413D01*
X161881075Y-75517401D01*
X161925000Y-75296576D01*
X161925000Y-75071424D01*
X161881075Y-74850599D01*
X161794913Y-74642587D01*
X161671000Y-74457137D01*
X161671000Y-73624863D01*
X161794913Y-73439413D01*
X161881075Y-73231401D01*
X161925000Y-73010576D01*
X161925000Y-72785424D01*
X161881075Y-72564599D01*
X161794913Y-72356587D01*
X161669826Y-72169380D01*
X161510620Y-72010174D01*
X161323413Y-71885087D01*
X161115401Y-71798925D01*
X160894576Y-71755000D01*
X160669424Y-71755000D01*
X160448599Y-71798925D01*
X160240587Y-71885087D01*
X160053380Y-72010174D01*
X159992263Y-72071291D01*
X159921205Y-71899744D01*
X159807937Y-71730226D01*
X159764000Y-71686289D01*
X159764000Y-68304711D01*
X159807937Y-68260774D01*
X159921205Y-68091256D01*
X159999226Y-67902898D01*
X160039000Y-67702939D01*
X160039000Y-67499061D01*
X159999226Y-67299102D01*
X159921205Y-67110744D01*
X159807937Y-66941226D01*
X159756711Y-66890000D01*
X160436928Y-66890000D01*
X160449188Y-67014482D01*
X160485498Y-67134180D01*
X160544463Y-67244494D01*
X160623815Y-67341185D01*
X160720506Y-67420537D01*
X160830820Y-67479502D01*
X160950518Y-67515812D01*
X161075000Y-67528072D01*
X161639250Y-67525000D01*
X161798000Y-67366250D01*
X161798000Y-66167000D01*
X160598750Y-66167000D01*
X160440000Y-66325750D01*
X160436928Y-66890000D01*
X159756711Y-66890000D01*
X159663774Y-66797063D01*
X159494256Y-66683795D01*
X159305898Y-66605774D01*
X159105939Y-66566000D01*
X158902061Y-66566000D01*
X158702102Y-66605774D01*
X158513744Y-66683795D01*
X158344226Y-66797063D01*
X158260500Y-66880789D01*
X158139774Y-66760063D01*
X157970256Y-66646795D01*
X157781898Y-66568774D01*
X157581939Y-66529000D01*
X157378061Y-66529000D01*
X157178102Y-66568774D01*
X156989744Y-66646795D01*
X156820226Y-66760063D01*
X156676063Y-66904226D01*
X156562795Y-67073744D01*
X156484774Y-67262102D01*
X156445000Y-67462061D01*
X156445000Y-67605289D01*
X156361774Y-67522063D01*
X156192256Y-67408795D01*
X156003898Y-67330774D01*
X155803939Y-67291000D01*
X155600061Y-67291000D01*
X155446000Y-67321644D01*
X155446000Y-67251711D01*
X155489937Y-67207774D01*
X155603205Y-67038256D01*
X155681226Y-66849898D01*
X155721000Y-66649939D01*
X155721000Y-66446061D01*
X155681226Y-66246102D01*
X155603205Y-66057744D01*
X155489937Y-65888226D01*
X155345774Y-65744063D01*
X155176256Y-65630795D01*
X154987898Y-65552774D01*
X154787939Y-65513000D01*
X154584061Y-65513000D01*
X154384102Y-65552774D01*
X154195744Y-65630795D01*
X154026226Y-65744063D01*
X153882063Y-65888226D01*
X153768795Y-66057744D01*
X153690774Y-66246102D01*
X153651000Y-66446061D01*
X128397000Y-66446061D01*
X128397000Y-65190000D01*
X160436928Y-65190000D01*
X160440000Y-65754250D01*
X160598750Y-65913000D01*
X161798000Y-65913000D01*
X161798000Y-64713750D01*
X162052000Y-64713750D01*
X162052000Y-65913000D01*
X162072000Y-65913000D01*
X162072000Y-66167000D01*
X162052000Y-66167000D01*
X162052000Y-67366250D01*
X162210750Y-67525000D01*
X162775000Y-67528072D01*
X162899482Y-67515812D01*
X163019180Y-67479502D01*
X163129494Y-67420537D01*
X163226185Y-67341185D01*
X163305537Y-67244494D01*
X163364502Y-67134180D01*
X163386513Y-67061620D01*
X163518368Y-67193475D01*
X163761589Y-67355990D01*
X164031842Y-67467932D01*
X164318740Y-67525000D01*
X164611260Y-67525000D01*
X164898158Y-67467932D01*
X165168411Y-67355990D01*
X165411632Y-67193475D01*
X165618475Y-66986632D01*
X165735000Y-66812240D01*
X165851525Y-66986632D01*
X166058368Y-67193475D01*
X166301589Y-67355990D01*
X166571842Y-67467932D01*
X166858740Y-67525000D01*
X167151260Y-67525000D01*
X167438158Y-67467932D01*
X167708411Y-67355990D01*
X167951632Y-67193475D01*
X168158475Y-66986632D01*
X168275000Y-66812240D01*
X168391525Y-66986632D01*
X168598368Y-67193475D01*
X168841589Y-67355990D01*
X169111842Y-67467932D01*
X169398740Y-67525000D01*
X169691260Y-67525000D01*
X169978158Y-67467932D01*
X170248411Y-67355990D01*
X170491632Y-67193475D01*
X170698475Y-66986632D01*
X170815000Y-66812240D01*
X170931525Y-66986632D01*
X171138368Y-67193475D01*
X171381589Y-67355990D01*
X171651842Y-67467932D01*
X171938740Y-67525000D01*
X172231260Y-67525000D01*
X172518158Y-67467932D01*
X172788411Y-67355990D01*
X173031632Y-67193475D01*
X173238475Y-66986632D01*
X173400990Y-66743411D01*
X173512932Y-66473158D01*
X173570000Y-66186260D01*
X173570000Y-65893740D01*
X173512932Y-65606842D01*
X173400990Y-65336589D01*
X173238475Y-65093368D01*
X173031632Y-64886525D01*
X172788411Y-64724010D01*
X172518158Y-64612068D01*
X172231260Y-64555000D01*
X171938740Y-64555000D01*
X171651842Y-64612068D01*
X171381589Y-64724010D01*
X171138368Y-64886525D01*
X170931525Y-65093368D01*
X170815000Y-65267760D01*
X170698475Y-65093368D01*
X170491632Y-64886525D01*
X170248411Y-64724010D01*
X169978158Y-64612068D01*
X169691260Y-64555000D01*
X169398740Y-64555000D01*
X169111842Y-64612068D01*
X168841589Y-64724010D01*
X168598368Y-64886525D01*
X168391525Y-65093368D01*
X168275000Y-65267760D01*
X168158475Y-65093368D01*
X167951632Y-64886525D01*
X167708411Y-64724010D01*
X167438158Y-64612068D01*
X167151260Y-64555000D01*
X166858740Y-64555000D01*
X166571842Y-64612068D01*
X166301589Y-64724010D01*
X166058368Y-64886525D01*
X165851525Y-65093368D01*
X165735000Y-65267760D01*
X165618475Y-65093368D01*
X165411632Y-64886525D01*
X165168411Y-64724010D01*
X164898158Y-64612068D01*
X164844000Y-64601295D01*
X164844000Y-63187711D01*
X164887937Y-63143774D01*
X165001205Y-62974256D01*
X165079226Y-62785898D01*
X165119000Y-62585939D01*
X165119000Y-62382061D01*
X165079226Y-62182102D01*
X165001205Y-61993744D01*
X164887937Y-61824226D01*
X164743774Y-61680063D01*
X164574256Y-61566795D01*
X164385898Y-61488774D01*
X164185939Y-61449000D01*
X163982061Y-61449000D01*
X163782102Y-61488774D01*
X163593744Y-61566795D01*
X163424226Y-61680063D01*
X163280063Y-61824226D01*
X163166795Y-61993744D01*
X163088774Y-62182102D01*
X163049000Y-62382061D01*
X163049000Y-62585939D01*
X163088774Y-62785898D01*
X163166795Y-62974256D01*
X163280063Y-63143774D01*
X163324000Y-63187711D01*
X163324001Y-64870049D01*
X163305537Y-64835506D01*
X163226185Y-64738815D01*
X163129494Y-64659463D01*
X163019180Y-64600498D01*
X162899482Y-64564188D01*
X162775000Y-64551928D01*
X162210750Y-64555000D01*
X162052000Y-64713750D01*
X161798000Y-64713750D01*
X161639250Y-64555000D01*
X161075000Y-64551928D01*
X160950518Y-64564188D01*
X160830820Y-64600498D01*
X160720506Y-64659463D01*
X160623815Y-64738815D01*
X160544463Y-64835506D01*
X160485498Y-64945820D01*
X160449188Y-65065518D01*
X160436928Y-65190000D01*
X128397000Y-65190000D01*
X128397000Y-62509061D01*
X129267000Y-62509061D01*
X129267000Y-62712939D01*
X129306774Y-62912898D01*
X129384795Y-63101256D01*
X129498063Y-63270774D01*
X129642226Y-63414937D01*
X129811744Y-63528205D01*
X130000102Y-63606226D01*
X130200061Y-63646000D01*
X130403939Y-63646000D01*
X130603898Y-63606226D01*
X130792256Y-63528205D01*
X130961774Y-63414937D01*
X131005711Y-63371000D01*
X160024504Y-63371000D01*
X160164744Y-63464705D01*
X160353102Y-63542726D01*
X160553061Y-63582500D01*
X160756939Y-63582500D01*
X160956898Y-63542726D01*
X161145256Y-63464705D01*
X161314774Y-63351437D01*
X161458937Y-63207274D01*
X161572205Y-63037756D01*
X161650226Y-62849398D01*
X161690000Y-62649439D01*
X161690000Y-62445561D01*
X161650226Y-62245602D01*
X161572205Y-62057244D01*
X161458937Y-61887726D01*
X161314774Y-61743563D01*
X161145256Y-61630295D01*
X160956898Y-61552274D01*
X160756939Y-61512500D01*
X160553061Y-61512500D01*
X160353102Y-61552274D01*
X160164744Y-61630295D01*
X159995226Y-61743563D01*
X159887789Y-61851000D01*
X131005711Y-61851000D01*
X130961774Y-61807063D01*
X130792256Y-61693795D01*
X130603898Y-61615774D01*
X130403939Y-61576000D01*
X130200061Y-61576000D01*
X130000102Y-61615774D01*
X129811744Y-61693795D01*
X129642226Y-61807063D01*
X129498063Y-61951226D01*
X129384795Y-62120744D01*
X129306774Y-62309102D01*
X129267000Y-62509061D01*
X128397000Y-62509061D01*
X128397000Y-59908863D01*
X128520913Y-59723413D01*
X128607075Y-59515401D01*
X128651000Y-59294576D01*
X128651000Y-59069424D01*
X128607075Y-58848599D01*
X128528954Y-58660000D01*
X169926000Y-58660000D01*
X169926000Y-64071500D01*
X169928440Y-64096276D01*
X169935667Y-64120101D01*
X169947403Y-64142057D01*
X169963197Y-64161303D01*
X169982443Y-64177097D01*
X170004399Y-64188833D01*
X170028224Y-64196060D01*
X170053000Y-64198500D01*
X175340001Y-64198500D01*
X175340001Y-69760106D01*
X175242256Y-69694795D01*
X175053898Y-69616774D01*
X174853939Y-69577000D01*
X174650061Y-69577000D01*
X174450102Y-69616774D01*
X174261744Y-69694795D01*
X174242000Y-69707987D01*
X174242000Y-69029711D01*
X174285937Y-68985774D01*
X174399205Y-68816256D01*
X174477226Y-68627898D01*
X174517000Y-68427939D01*
X174517000Y-68224061D01*
X174477226Y-68024102D01*
X174399205Y-67835744D01*
X174285937Y-67666226D01*
X174141774Y-67522063D01*
X173972256Y-67408795D01*
X173783898Y-67330774D01*
X173583939Y-67291000D01*
X173380061Y-67291000D01*
X173180102Y-67330774D01*
X172991744Y-67408795D01*
X172822226Y-67522063D01*
X172678063Y-67666226D01*
X172564795Y-67835744D01*
X172486774Y-68024102D01*
X172447000Y-68224061D01*
X172447000Y-68427939D01*
X172486774Y-68627898D01*
X172564795Y-68816256D01*
X172678063Y-68985774D01*
X172722001Y-69029712D01*
X172722000Y-69908289D01*
X172678063Y-69952226D01*
X172564795Y-70121744D01*
X172486774Y-70310102D01*
X172447000Y-70510061D01*
X172447000Y-70713939D01*
X172486774Y-70913898D01*
X172564795Y-71102256D01*
X172678063Y-71271774D01*
X172722001Y-71315712D01*
X172722000Y-73972289D01*
X172678063Y-74016226D01*
X172564795Y-74185744D01*
X172486774Y-74374102D01*
X172447000Y-74574061D01*
X172447000Y-74777939D01*
X172486774Y-74977898D01*
X172564795Y-75166256D01*
X172678063Y-75335774D01*
X172822226Y-75479937D01*
X172991744Y-75593205D01*
X173180102Y-75671226D01*
X173380061Y-75711000D01*
X173583939Y-75711000D01*
X173783898Y-75671226D01*
X173863000Y-75638461D01*
X173863001Y-77441636D01*
X173739087Y-77627087D01*
X173652925Y-77835099D01*
X173609000Y-78055924D01*
X173609000Y-78281076D01*
X173652925Y-78501901D01*
X173739087Y-78709913D01*
X173864174Y-78897120D01*
X174010902Y-79043848D01*
X173863000Y-79191750D01*
X173863000Y-80391000D01*
X175062250Y-80391000D01*
X175221000Y-80232250D01*
X175224072Y-79668000D01*
X175211812Y-79543518D01*
X175175502Y-79423820D01*
X175116537Y-79313506D01*
X175079763Y-79268696D01*
X175085401Y-79267575D01*
X175293413Y-79181413D01*
X175340001Y-79150284D01*
X175340000Y-98859768D01*
X174021750Y-98862000D01*
X173863000Y-99020750D01*
X173863000Y-100045000D01*
X173883000Y-100045000D01*
X173883000Y-100299000D01*
X173863000Y-100299000D01*
X173863000Y-101323250D01*
X174021750Y-101482000D01*
X175340000Y-101484232D01*
X175340000Y-104509768D01*
X174021750Y-104512000D01*
X173863000Y-104670750D01*
X173863000Y-105695000D01*
X173883000Y-105695000D01*
X173883000Y-105949000D01*
X173863000Y-105949000D01*
X173863000Y-106973250D01*
X174021750Y-107132000D01*
X175340000Y-107134232D01*
X175340000Y-117030500D01*
X170161041Y-117030500D01*
X170136265Y-117032940D01*
X170112440Y-117040167D01*
X170090484Y-117051903D01*
X170071238Y-117067697D01*
X170055444Y-117086943D01*
X170043708Y-117108899D01*
X170036481Y-117132724D01*
X170034041Y-117157500D01*
X170034041Y-122340000D01*
X110321764Y-122340000D01*
X110305596Y-118530000D01*
X114335928Y-118530000D01*
X114335928Y-120230000D01*
X114348188Y-120354482D01*
X114384498Y-120474180D01*
X114443463Y-120584494D01*
X114522815Y-120681185D01*
X114619506Y-120760537D01*
X114729820Y-120819502D01*
X114849518Y-120855812D01*
X114974000Y-120868072D01*
X116674000Y-120868072D01*
X116798482Y-120855812D01*
X116918180Y-120819502D01*
X117028494Y-120760537D01*
X117125185Y-120681185D01*
X117204537Y-120584494D01*
X117263502Y-120474180D01*
X117285513Y-120401620D01*
X117417368Y-120533475D01*
X117660589Y-120695990D01*
X117930842Y-120807932D01*
X118217740Y-120865000D01*
X118510260Y-120865000D01*
X118797158Y-120807932D01*
X119067411Y-120695990D01*
X119310632Y-120533475D01*
X119517475Y-120326632D01*
X119634000Y-120152240D01*
X119750525Y-120326632D01*
X119957368Y-120533475D01*
X120200589Y-120695990D01*
X120470842Y-120807932D01*
X120757740Y-120865000D01*
X121050260Y-120865000D01*
X121337158Y-120807932D01*
X121607411Y-120695990D01*
X121734607Y-120611000D01*
X124432428Y-120611000D01*
X124444688Y-120735482D01*
X124480998Y-120855180D01*
X124539963Y-120965494D01*
X124619315Y-121062185D01*
X124716006Y-121141537D01*
X124826320Y-121200502D01*
X124946018Y-121236812D01*
X125070500Y-121249072D01*
X125634750Y-121246000D01*
X125793500Y-121087250D01*
X125793500Y-119888000D01*
X126047500Y-119888000D01*
X126047500Y-121087250D01*
X126206250Y-121246000D01*
X126770500Y-121249072D01*
X126894982Y-121236812D01*
X127014680Y-121200502D01*
X127124994Y-121141537D01*
X127221685Y-121062185D01*
X127301037Y-120965494D01*
X127360002Y-120855180D01*
X127396312Y-120735482D01*
X127408572Y-120611000D01*
X127405500Y-120046750D01*
X127246750Y-119888000D01*
X126047500Y-119888000D01*
X125793500Y-119888000D01*
X124594250Y-119888000D01*
X124435500Y-120046750D01*
X124432428Y-120611000D01*
X121734607Y-120611000D01*
X121850632Y-120533475D01*
X122057475Y-120326632D01*
X122219990Y-120083411D01*
X122331932Y-119813158D01*
X122389000Y-119526260D01*
X122389000Y-119233740D01*
X122331932Y-118946842D01*
X122317086Y-118911000D01*
X124432428Y-118911000D01*
X124435500Y-119475250D01*
X124594250Y-119634000D01*
X125793500Y-119634000D01*
X125793500Y-118434750D01*
X126047500Y-118434750D01*
X126047500Y-119634000D01*
X127246750Y-119634000D01*
X127405500Y-119475250D01*
X127408572Y-118911000D01*
X127396312Y-118786518D01*
X127360002Y-118666820D01*
X127301037Y-118556506D01*
X127221685Y-118459815D01*
X127124994Y-118380463D01*
X127014680Y-118321498D01*
X126894982Y-118285188D01*
X126770500Y-118272928D01*
X126206250Y-118276000D01*
X126047500Y-118434750D01*
X125793500Y-118434750D01*
X125634750Y-118276000D01*
X125070500Y-118272928D01*
X124946018Y-118285188D01*
X124826320Y-118321498D01*
X124716006Y-118380463D01*
X124619315Y-118459815D01*
X124539963Y-118556506D01*
X124480998Y-118666820D01*
X124444688Y-118786518D01*
X124432428Y-118911000D01*
X122317086Y-118911000D01*
X122219990Y-118676589D01*
X122057475Y-118433368D01*
X121850632Y-118226525D01*
X121607411Y-118064010D01*
X121337158Y-117952068D01*
X121050260Y-117895000D01*
X120757740Y-117895000D01*
X120470842Y-117952068D01*
X120200589Y-118064010D01*
X119957368Y-118226525D01*
X119750525Y-118433368D01*
X119634000Y-118607760D01*
X119517475Y-118433368D01*
X119310632Y-118226525D01*
X119067411Y-118064010D01*
X118797158Y-117952068D01*
X118510260Y-117895000D01*
X118217740Y-117895000D01*
X117930842Y-117952068D01*
X117660589Y-118064010D01*
X117417368Y-118226525D01*
X117285513Y-118358380D01*
X117263502Y-118285820D01*
X117204537Y-118175506D01*
X117125185Y-118078815D01*
X117028494Y-117999463D01*
X116918180Y-117940498D01*
X116798482Y-117904188D01*
X116674000Y-117891928D01*
X114974000Y-117891928D01*
X114849518Y-117904188D01*
X114729820Y-117940498D01*
X114619506Y-117999463D01*
X114522815Y-118078815D01*
X114443463Y-118175506D01*
X114384498Y-118285820D01*
X114348188Y-118405518D01*
X114335928Y-118530000D01*
X110305596Y-118530000D01*
X110299499Y-117093461D01*
X110297060Y-117069224D01*
X110289833Y-117045399D01*
X110278097Y-117023443D01*
X110262303Y-117004197D01*
X110243057Y-116988403D01*
X110221101Y-116976667D01*
X110197276Y-116969440D01*
X110172500Y-116967000D01*
X104660000Y-116967000D01*
X104660000Y-109728000D01*
X106268896Y-109728000D01*
X106301236Y-110056357D01*
X106397015Y-110372096D01*
X106552550Y-110663082D01*
X106761866Y-110918134D01*
X107016918Y-111127450D01*
X107307904Y-111282985D01*
X107623643Y-111378764D01*
X107869718Y-111403000D01*
X109554282Y-111403000D01*
X109800357Y-111378764D01*
X110116096Y-111282985D01*
X110407082Y-111127450D01*
X110662134Y-110918134D01*
X110871450Y-110663082D01*
X111026985Y-110372096D01*
X111122764Y-110056357D01*
X111155104Y-109728000D01*
X111140699Y-109581740D01*
X116561500Y-109581740D01*
X116561500Y-109874260D01*
X116618568Y-110161158D01*
X116730510Y-110431411D01*
X116893025Y-110674632D01*
X117099868Y-110881475D01*
X117343089Y-111043990D01*
X117613342Y-111155932D01*
X117900240Y-111213000D01*
X118192760Y-111213000D01*
X118479658Y-111155932D01*
X118749911Y-111043990D01*
X118993132Y-110881475D01*
X119124987Y-110749620D01*
X119146998Y-110822180D01*
X119205963Y-110932494D01*
X119285315Y-111029185D01*
X119382006Y-111108537D01*
X119492320Y-111167502D01*
X119612018Y-111203812D01*
X119736500Y-111216072D01*
X120300750Y-111213000D01*
X120459500Y-111054250D01*
X120459500Y-109855000D01*
X120713500Y-109855000D01*
X120713500Y-111054250D01*
X120872250Y-111213000D01*
X121436500Y-111216072D01*
X121560982Y-111203812D01*
X121680680Y-111167502D01*
X121790994Y-111108537D01*
X121887685Y-111029185D01*
X121967037Y-110932494D01*
X122026002Y-110822180D01*
X122062312Y-110702482D01*
X122074572Y-110578000D01*
X122071500Y-110013750D01*
X121912750Y-109855000D01*
X120713500Y-109855000D01*
X120459500Y-109855000D01*
X120439500Y-109855000D01*
X120439500Y-109601000D01*
X120459500Y-109601000D01*
X120459500Y-108401750D01*
X120713500Y-108401750D01*
X120713500Y-109601000D01*
X121912750Y-109601000D01*
X122071500Y-109442250D01*
X122074572Y-108878000D01*
X122062312Y-108753518D01*
X122026002Y-108633820D01*
X121967037Y-108523506D01*
X121887685Y-108426815D01*
X121790994Y-108347463D01*
X121680680Y-108288498D01*
X121560982Y-108252188D01*
X121436500Y-108239928D01*
X120872250Y-108243000D01*
X120713500Y-108401750D01*
X120459500Y-108401750D01*
X120300750Y-108243000D01*
X119736500Y-108239928D01*
X119612018Y-108252188D01*
X119492320Y-108288498D01*
X119382006Y-108347463D01*
X119285315Y-108426815D01*
X119205963Y-108523506D01*
X119146998Y-108633820D01*
X119124987Y-108706380D01*
X118993132Y-108574525D01*
X118749911Y-108412010D01*
X118479658Y-108300068D01*
X118192760Y-108243000D01*
X117900240Y-108243000D01*
X117613342Y-108300068D01*
X117343089Y-108412010D01*
X117099868Y-108574525D01*
X116893025Y-108781368D01*
X116730510Y-109024589D01*
X116618568Y-109294842D01*
X116561500Y-109581740D01*
X111140699Y-109581740D01*
X111122764Y-109399643D01*
X111026985Y-109083904D01*
X110871450Y-108792918D01*
X110662134Y-108537866D01*
X110407082Y-108328550D01*
X110116096Y-108173015D01*
X109800357Y-108077236D01*
X109554282Y-108053000D01*
X107869718Y-108053000D01*
X107623643Y-108077236D01*
X107307904Y-108173015D01*
X107016918Y-108328550D01*
X106761866Y-108537866D01*
X106552550Y-108792918D01*
X106397015Y-109083904D01*
X106301236Y-109399643D01*
X106268896Y-109728000D01*
X104660000Y-109728000D01*
X104660000Y-104648000D01*
X106268896Y-104648000D01*
X106301236Y-104976357D01*
X106397015Y-105292096D01*
X106552550Y-105583082D01*
X106761866Y-105838134D01*
X107016918Y-106047450D01*
X107307904Y-106202985D01*
X107623643Y-106298764D01*
X107869718Y-106323000D01*
X109554282Y-106323000D01*
X109800357Y-106298764D01*
X110116096Y-106202985D01*
X110407082Y-106047450D01*
X110662134Y-105838134D01*
X110871450Y-105583082D01*
X111026985Y-105292096D01*
X111122764Y-104976357D01*
X111155104Y-104648000D01*
X111122764Y-104319643D01*
X111026985Y-104003904D01*
X110871450Y-103712918D01*
X110662134Y-103457866D01*
X110407082Y-103248550D01*
X110116096Y-103093015D01*
X109800357Y-102997236D01*
X109554282Y-102973000D01*
X107869718Y-102973000D01*
X107623643Y-102997236D01*
X107307904Y-103093015D01*
X107016918Y-103248550D01*
X106761866Y-103457866D01*
X106552550Y-103712918D01*
X106397015Y-104003904D01*
X106301236Y-104319643D01*
X106268896Y-104648000D01*
X104660000Y-104648000D01*
X104660000Y-99568000D01*
X106268896Y-99568000D01*
X106301236Y-99896357D01*
X106397015Y-100212096D01*
X106552550Y-100503082D01*
X106761866Y-100758134D01*
X107016918Y-100967450D01*
X107307904Y-101122985D01*
X107623643Y-101218764D01*
X107869718Y-101243000D01*
X109554282Y-101243000D01*
X109800357Y-101218764D01*
X110116096Y-101122985D01*
X110407082Y-100967450D01*
X110662134Y-100758134D01*
X110871450Y-100503082D01*
X111026985Y-100212096D01*
X111122764Y-99896357D01*
X111155104Y-99568000D01*
X111122764Y-99239643D01*
X111026985Y-98923904D01*
X110871450Y-98632918D01*
X110662134Y-98377866D01*
X110407082Y-98168550D01*
X110116096Y-98013015D01*
X109800357Y-97917236D01*
X109554282Y-97893000D01*
X107869718Y-97893000D01*
X107623643Y-97917236D01*
X107307904Y-98013015D01*
X107016918Y-98168550D01*
X106761866Y-98377866D01*
X106552550Y-98632918D01*
X106397015Y-98923904D01*
X106301236Y-99239643D01*
X106268896Y-99568000D01*
X104660000Y-99568000D01*
X104660000Y-93697999D01*
X106273928Y-93697999D01*
X106273928Y-95278001D01*
X106290992Y-95451255D01*
X106341528Y-95617851D01*
X106423595Y-95771387D01*
X106534038Y-95905962D01*
X106668613Y-96016405D01*
X106822149Y-96098472D01*
X106988745Y-96149008D01*
X107161999Y-96166072D01*
X110262001Y-96166072D01*
X110435255Y-96149008D01*
X110601851Y-96098472D01*
X110755387Y-96016405D01*
X110889962Y-95905962D01*
X111000405Y-95771387D01*
X111082472Y-95617851D01*
X111133008Y-95451255D01*
X111150072Y-95278001D01*
X111150072Y-94957561D01*
X113265000Y-94957561D01*
X113265000Y-95161439D01*
X113304774Y-95361398D01*
X113382795Y-95549756D01*
X113496063Y-95719274D01*
X113540001Y-95763212D01*
X113540000Y-100113332D01*
X113540001Y-100113342D01*
X113540000Y-106420789D01*
X113496063Y-106464726D01*
X113382795Y-106634244D01*
X113304774Y-106822602D01*
X113265000Y-107022561D01*
X113265000Y-107226439D01*
X113304774Y-107426398D01*
X113382795Y-107614756D01*
X113496063Y-107784274D01*
X113640226Y-107928437D01*
X113809744Y-108041705D01*
X113998102Y-108119726D01*
X114198061Y-108159500D01*
X114401939Y-108159500D01*
X114601898Y-108119726D01*
X114790256Y-108041705D01*
X114959774Y-107928437D01*
X115103937Y-107784274D01*
X115217205Y-107614756D01*
X115295226Y-107426398D01*
X115335000Y-107226439D01*
X115335000Y-107022561D01*
X115295226Y-106822602D01*
X115217205Y-106634244D01*
X115103937Y-106464726D01*
X115060000Y-106420789D01*
X115060000Y-102020000D01*
X121384428Y-102020000D01*
X121384428Y-103720000D01*
X121396688Y-103844482D01*
X121432998Y-103964180D01*
X121491963Y-104074494D01*
X121571315Y-104171185D01*
X121668006Y-104250537D01*
X121778320Y-104309502D01*
X121898018Y-104345812D01*
X122022500Y-104358072D01*
X123722500Y-104358072D01*
X123846982Y-104345812D01*
X123966680Y-104309502D01*
X124076994Y-104250537D01*
X124173685Y-104171185D01*
X124253037Y-104074494D01*
X124312002Y-103964180D01*
X124348312Y-103844482D01*
X124360572Y-103720000D01*
X124360572Y-102020000D01*
X124348312Y-101895518D01*
X124312002Y-101775820D01*
X124253037Y-101665506D01*
X124173685Y-101568815D01*
X124076994Y-101489463D01*
X123966680Y-101430498D01*
X123846982Y-101394188D01*
X123722500Y-101381928D01*
X122022500Y-101381928D01*
X121898018Y-101394188D01*
X121778320Y-101430498D01*
X121668006Y-101489463D01*
X121571315Y-101568815D01*
X121491963Y-101665506D01*
X121432998Y-101775820D01*
X121396688Y-101895518D01*
X121384428Y-102020000D01*
X115060000Y-102020000D01*
X115060000Y-95763211D01*
X115103937Y-95719274D01*
X115217205Y-95549756D01*
X115295226Y-95361398D01*
X115335000Y-95161439D01*
X115335000Y-94957561D01*
X115295226Y-94757602D01*
X115217205Y-94569244D01*
X115103937Y-94399726D01*
X114959774Y-94255563D01*
X114790256Y-94142295D01*
X114601898Y-94064274D01*
X114401939Y-94024500D01*
X114198061Y-94024500D01*
X113998102Y-94064274D01*
X113809744Y-94142295D01*
X113640226Y-94255563D01*
X113496063Y-94399726D01*
X113382795Y-94569244D01*
X113304774Y-94757602D01*
X113265000Y-94957561D01*
X111150072Y-94957561D01*
X111150072Y-93697999D01*
X111133008Y-93524745D01*
X111082472Y-93358149D01*
X111000405Y-93204613D01*
X110889962Y-93070038D01*
X110755387Y-92959595D01*
X110601851Y-92877528D01*
X110435255Y-92826992D01*
X110262001Y-92809928D01*
X107161999Y-92809928D01*
X106988745Y-92826992D01*
X106822149Y-92877528D01*
X106668613Y-92959595D01*
X106534038Y-93070038D01*
X106423595Y-93204613D01*
X106341528Y-93358149D01*
X106290992Y-93524745D01*
X106273928Y-93697999D01*
X104660000Y-93697999D01*
X104660000Y-88538000D01*
X105921388Y-88538000D01*
X105943785Y-88765400D01*
X106010115Y-88984060D01*
X106117829Y-89185579D01*
X106262788Y-89362212D01*
X106439421Y-89507171D01*
X106640940Y-89614885D01*
X106859600Y-89681215D01*
X107030021Y-89698000D01*
X107993979Y-89698000D01*
X108164400Y-89681215D01*
X108383060Y-89614885D01*
X108584579Y-89507171D01*
X108761212Y-89362212D01*
X108906171Y-89185579D01*
X109013885Y-88984060D01*
X109080215Y-88765400D01*
X109102612Y-88538000D01*
X109080215Y-88310600D01*
X109013885Y-88091940D01*
X108906171Y-87890421D01*
X108761212Y-87713788D01*
X108584579Y-87568829D01*
X108383060Y-87461115D01*
X108164400Y-87394785D01*
X107993979Y-87378000D01*
X107030021Y-87378000D01*
X106859600Y-87394785D01*
X106640940Y-87461115D01*
X106439421Y-87568829D01*
X106262788Y-87713788D01*
X106117829Y-87890421D01*
X106010115Y-88091940D01*
X105943785Y-88310600D01*
X105921388Y-88538000D01*
X104660000Y-88538000D01*
X104660000Y-83146000D01*
X113827928Y-83146000D01*
X113840188Y-83270482D01*
X113876498Y-83390180D01*
X113935463Y-83500494D01*
X114014815Y-83597185D01*
X114111506Y-83676537D01*
X114221820Y-83735502D01*
X114341518Y-83771812D01*
X114466000Y-83784072D01*
X115030250Y-83781000D01*
X115189000Y-83622250D01*
X115189000Y-82423000D01*
X113989750Y-82423000D01*
X113831000Y-82581750D01*
X113827928Y-83146000D01*
X104660000Y-83146000D01*
X104660000Y-81388000D01*
X105921388Y-81388000D01*
X105943785Y-81615400D01*
X106010115Y-81834060D01*
X106117829Y-82035579D01*
X106262788Y-82212212D01*
X106439421Y-82357171D01*
X106640940Y-82464885D01*
X106859600Y-82531215D01*
X107030021Y-82548000D01*
X107993979Y-82548000D01*
X108164400Y-82531215D01*
X108383060Y-82464885D01*
X108584579Y-82357171D01*
X108761212Y-82212212D01*
X108906171Y-82035579D01*
X109013885Y-81834060D01*
X109080215Y-81615400D01*
X109096899Y-81446000D01*
X113827928Y-81446000D01*
X113831000Y-82010250D01*
X113989750Y-82169000D01*
X115189000Y-82169000D01*
X115189000Y-80969750D01*
X115443000Y-80969750D01*
X115443000Y-82169000D01*
X115463000Y-82169000D01*
X115463000Y-82423000D01*
X115443000Y-82423000D01*
X115443000Y-83622250D01*
X115601750Y-83781000D01*
X116166000Y-83784072D01*
X116290482Y-83771812D01*
X116410180Y-83735502D01*
X116520494Y-83676537D01*
X116617185Y-83597185D01*
X116696537Y-83500494D01*
X116755502Y-83390180D01*
X116777513Y-83317620D01*
X116909368Y-83449475D01*
X117152589Y-83611990D01*
X117422842Y-83723932D01*
X117709740Y-83781000D01*
X118002260Y-83781000D01*
X118289158Y-83723932D01*
X118559411Y-83611990D01*
X118802632Y-83449475D01*
X119009475Y-83242632D01*
X119126000Y-83068240D01*
X119242525Y-83242632D01*
X119449368Y-83449475D01*
X119692589Y-83611990D01*
X119962842Y-83723932D01*
X120203052Y-83771713D01*
X119725025Y-84249740D01*
X119713401Y-84244925D01*
X119492576Y-84201000D01*
X119267424Y-84201000D01*
X119046599Y-84244925D01*
X118838587Y-84331087D01*
X118651380Y-84456174D01*
X118492174Y-84615380D01*
X118367087Y-84802587D01*
X118280925Y-85010599D01*
X118237000Y-85231424D01*
X118237000Y-85456576D01*
X118280925Y-85677401D01*
X118367087Y-85885413D01*
X118492174Y-86072620D01*
X118651380Y-86231826D01*
X118838587Y-86356913D01*
X119046599Y-86443075D01*
X119267424Y-86487000D01*
X119492576Y-86487000D01*
X119713401Y-86443075D01*
X119921413Y-86356913D01*
X120108620Y-86231826D01*
X120145580Y-86194866D01*
X120229851Y-86169303D01*
X120384291Y-86086753D01*
X120519659Y-85975659D01*
X120547499Y-85941736D01*
X122721758Y-83767477D01*
X122789740Y-83781000D01*
X123082260Y-83781000D01*
X123369158Y-83723932D01*
X123446000Y-83692103D01*
X123446001Y-97340288D01*
X123402063Y-97384226D01*
X123288795Y-97553744D01*
X123210774Y-97742102D01*
X123171000Y-97942061D01*
X123171000Y-98145939D01*
X123210774Y-98345898D01*
X123288795Y-98534256D01*
X123402063Y-98703774D01*
X123546226Y-98847937D01*
X123715744Y-98961205D01*
X123904102Y-99039226D01*
X124104061Y-99079000D01*
X124307939Y-99079000D01*
X124507898Y-99039226D01*
X124696256Y-98961205D01*
X124865774Y-98847937D01*
X125009937Y-98703774D01*
X125123205Y-98534256D01*
X125184854Y-98385422D01*
X125190815Y-98392685D01*
X125287506Y-98472037D01*
X125397820Y-98531002D01*
X125517518Y-98567312D01*
X125642000Y-98579572D01*
X127342000Y-98579572D01*
X127381000Y-98575731D01*
X127381001Y-107223136D01*
X127257087Y-107408587D01*
X127170925Y-107616599D01*
X127127000Y-107837424D01*
X127127000Y-108062576D01*
X127170925Y-108283401D01*
X127257087Y-108491413D01*
X127381000Y-108676863D01*
X127381001Y-114843136D01*
X127257087Y-115028587D01*
X127170925Y-115236599D01*
X127127000Y-115457424D01*
X127127000Y-115682576D01*
X127170925Y-115903401D01*
X127257087Y-116111413D01*
X127382174Y-116298620D01*
X127541380Y-116457826D01*
X127728587Y-116582913D01*
X127936599Y-116669075D01*
X128157424Y-116713000D01*
X128382576Y-116713000D01*
X128603401Y-116669075D01*
X128651000Y-116649359D01*
X128651000Y-117002137D01*
X128527087Y-117187587D01*
X128440925Y-117395599D01*
X128397000Y-117616424D01*
X128397000Y-117841576D01*
X128440925Y-118062401D01*
X128527087Y-118270413D01*
X128652174Y-118457620D01*
X128811380Y-118616826D01*
X128998587Y-118741913D01*
X129206599Y-118828075D01*
X129427424Y-118872000D01*
X129652576Y-118872000D01*
X129873401Y-118828075D01*
X130081413Y-118741913D01*
X130268620Y-118616826D01*
X130427826Y-118457620D01*
X130552913Y-118270413D01*
X130639075Y-118062401D01*
X130683000Y-117841576D01*
X130683000Y-117616424D01*
X130639075Y-117395599D01*
X130552913Y-117187587D01*
X130429000Y-117002137D01*
X130429000Y-106694015D01*
X130454061Y-106699000D01*
X130657939Y-106699000D01*
X130812001Y-106668355D01*
X130812001Y-112072288D01*
X130768063Y-112116226D01*
X130654795Y-112285744D01*
X130576774Y-112474102D01*
X130537000Y-112674061D01*
X130537000Y-112877939D01*
X130576774Y-113077898D01*
X130654795Y-113266256D01*
X130768063Y-113435774D01*
X130912226Y-113579937D01*
X131081744Y-113693205D01*
X131270102Y-113771226D01*
X131470061Y-113811000D01*
X131673939Y-113811000D01*
X131828001Y-113780355D01*
X131828001Y-118326668D01*
X131824324Y-118364000D01*
X131828001Y-118401333D01*
X131833066Y-118452753D01*
X131838998Y-118512985D01*
X131882454Y-118656246D01*
X131953026Y-118788276D01*
X131985689Y-118828075D01*
X132048000Y-118904001D01*
X132076998Y-118927799D01*
X134093000Y-120943803D01*
X134093000Y-121005939D01*
X134132774Y-121205898D01*
X134210795Y-121394256D01*
X134324063Y-121563774D01*
X134468226Y-121707937D01*
X134637744Y-121821205D01*
X134826102Y-121899226D01*
X135026061Y-121939000D01*
X135229939Y-121939000D01*
X135429898Y-121899226D01*
X135618256Y-121821205D01*
X135787774Y-121707937D01*
X135931937Y-121563774D01*
X136045205Y-121394256D01*
X136123226Y-121205898D01*
X136163000Y-121005939D01*
X136163000Y-120802061D01*
X136123226Y-120602102D01*
X136045205Y-120413744D01*
X135931937Y-120244226D01*
X135787774Y-120100063D01*
X135618256Y-119986795D01*
X135429898Y-119908774D01*
X135229939Y-119869000D01*
X135167803Y-119869000D01*
X133348000Y-118049199D01*
X133348000Y-117844000D01*
X141151928Y-117844000D01*
X141151928Y-119844000D01*
X141164188Y-119968482D01*
X141200498Y-120088180D01*
X141259463Y-120198494D01*
X141338815Y-120295185D01*
X141435506Y-120374537D01*
X141545820Y-120433502D01*
X141665518Y-120469812D01*
X141790000Y-120482072D01*
X144990000Y-120482072D01*
X145114482Y-120469812D01*
X145234180Y-120433502D01*
X145344494Y-120374537D01*
X145441185Y-120295185D01*
X145520537Y-120198494D01*
X145579502Y-120088180D01*
X145615812Y-119968482D01*
X145628072Y-119844000D01*
X145628072Y-117844000D01*
X145615812Y-117719518D01*
X145579502Y-117599820D01*
X145520537Y-117489506D01*
X145441185Y-117392815D01*
X145344494Y-117313463D01*
X145234180Y-117254498D01*
X145114482Y-117218188D01*
X144990000Y-117205928D01*
X141790000Y-117205928D01*
X141665518Y-117218188D01*
X141545820Y-117254498D01*
X141435506Y-117313463D01*
X141338815Y-117392815D01*
X141259463Y-117489506D01*
X141200498Y-117599820D01*
X141164188Y-117719518D01*
X141151928Y-117844000D01*
X133348000Y-117844000D01*
X133348000Y-115582967D01*
X134255000Y-115582967D01*
X134255000Y-115905033D01*
X134317832Y-116220912D01*
X134441082Y-116518463D01*
X134620013Y-116786252D01*
X134847748Y-117013987D01*
X135115537Y-117192918D01*
X135413088Y-117316168D01*
X135728967Y-117379000D01*
X136051033Y-117379000D01*
X136366912Y-117316168D01*
X136664463Y-117192918D01*
X136932252Y-117013987D01*
X137159987Y-116786252D01*
X137338918Y-116518463D01*
X137462168Y-116220912D01*
X137525000Y-115905033D01*
X137525000Y-115582967D01*
X148755000Y-115582967D01*
X148755000Y-115905033D01*
X148817832Y-116220912D01*
X148941082Y-116518463D01*
X149120013Y-116786252D01*
X149347748Y-117013987D01*
X149615537Y-117192918D01*
X149913088Y-117316168D01*
X150228967Y-117379000D01*
X150551033Y-117379000D01*
X150866912Y-117316168D01*
X151164463Y-117192918D01*
X151432252Y-117013987D01*
X151659987Y-116786252D01*
X151838918Y-116518463D01*
X151962168Y-116220912D01*
X152025000Y-115905033D01*
X152025000Y-115582967D01*
X151962168Y-115267088D01*
X151838918Y-114969537D01*
X151659987Y-114701748D01*
X151432252Y-114474013D01*
X151164463Y-114295082D01*
X150866912Y-114171832D01*
X150551033Y-114109000D01*
X150228967Y-114109000D01*
X149913088Y-114171832D01*
X149615537Y-114295082D01*
X149347748Y-114474013D01*
X149120013Y-114701748D01*
X148941082Y-114969537D01*
X148817832Y-115267088D01*
X148755000Y-115582967D01*
X137525000Y-115582967D01*
X137462168Y-115267088D01*
X137338918Y-114969537D01*
X137159987Y-114701748D01*
X136932252Y-114474013D01*
X136835065Y-114409075D01*
X136845808Y-114379413D01*
X135890000Y-113423605D01*
X134934192Y-114379413D01*
X134944935Y-114409075D01*
X134847748Y-114474013D01*
X134620013Y-114701748D01*
X134441082Y-114969537D01*
X134317832Y-115267088D01*
X134255000Y-115582967D01*
X133348000Y-115582967D01*
X133348000Y-113306595D01*
X134248282Y-113306595D01*
X134292039Y-113625675D01*
X134397205Y-113930088D01*
X134490186Y-114104044D01*
X134754587Y-114199808D01*
X135710395Y-113244000D01*
X135696253Y-113229858D01*
X135875858Y-113050253D01*
X135890000Y-113064395D01*
X135904143Y-113050253D01*
X136083748Y-113229858D01*
X136069605Y-113244000D01*
X137025413Y-114199808D01*
X137289814Y-114104044D01*
X137430704Y-113814429D01*
X137512384Y-113502892D01*
X137531718Y-113181405D01*
X137487961Y-112862325D01*
X137382795Y-112557912D01*
X137289814Y-112383956D01*
X137140777Y-112329976D01*
X137244494Y-112274537D01*
X137341185Y-112195185D01*
X137420537Y-112098494D01*
X137479502Y-111988180D01*
X137512496Y-111879413D01*
X149434192Y-111879413D01*
X149529956Y-112143814D01*
X149819571Y-112284704D01*
X150131108Y-112366384D01*
X150452595Y-112385718D01*
X150771675Y-112341961D01*
X151076088Y-112236795D01*
X151250044Y-112143814D01*
X151345808Y-111879413D01*
X150390000Y-110923605D01*
X149434192Y-111879413D01*
X137512496Y-111879413D01*
X137515812Y-111868482D01*
X137528072Y-111744000D01*
X137528072Y-110806595D01*
X148748282Y-110806595D01*
X148792039Y-111125675D01*
X148897205Y-111430088D01*
X148990186Y-111604044D01*
X149254587Y-111699808D01*
X150210395Y-110744000D01*
X150569605Y-110744000D01*
X151525413Y-111699808D01*
X151789814Y-111604044D01*
X151930704Y-111314429D01*
X152012384Y-111002892D01*
X152031718Y-110681405D01*
X151987961Y-110362325D01*
X151882795Y-110057912D01*
X151789814Y-109883956D01*
X151525413Y-109788192D01*
X150569605Y-110744000D01*
X150210395Y-110744000D01*
X149254587Y-109788192D01*
X148990186Y-109883956D01*
X148849296Y-110173571D01*
X148767616Y-110485108D01*
X148748282Y-110806595D01*
X137528072Y-110806595D01*
X137528072Y-109744000D01*
X137515812Y-109619518D01*
X137512497Y-109608587D01*
X149434192Y-109608587D01*
X150390000Y-110564395D01*
X151345808Y-109608587D01*
X151250044Y-109344186D01*
X150960429Y-109203296D01*
X150648892Y-109121616D01*
X150327405Y-109102282D01*
X150008325Y-109146039D01*
X149703912Y-109251205D01*
X149529956Y-109344186D01*
X149434192Y-109608587D01*
X137512497Y-109608587D01*
X137479502Y-109499820D01*
X137420537Y-109389506D01*
X137341185Y-109292815D01*
X137244494Y-109213463D01*
X137134180Y-109154498D01*
X137014482Y-109118188D01*
X136890000Y-109105928D01*
X134890000Y-109105928D01*
X134765518Y-109118188D01*
X134645820Y-109154498D01*
X134535506Y-109213463D01*
X134438815Y-109292815D01*
X134359463Y-109389506D01*
X134300498Y-109499820D01*
X134264188Y-109619518D01*
X134251928Y-109744000D01*
X134251928Y-111744000D01*
X134264188Y-111868482D01*
X134300498Y-111988180D01*
X134359463Y-112098494D01*
X134438815Y-112195185D01*
X134535506Y-112274537D01*
X134639223Y-112329976D01*
X134490186Y-112383956D01*
X134349296Y-112673571D01*
X134267616Y-112985108D01*
X134248282Y-113306595D01*
X133348000Y-113306595D01*
X133348000Y-106644000D01*
X141151928Y-106644000D01*
X141151928Y-108644000D01*
X141164188Y-108768482D01*
X141200498Y-108888180D01*
X141259463Y-108998494D01*
X141338815Y-109095185D01*
X141435506Y-109174537D01*
X141545820Y-109233502D01*
X141665518Y-109269812D01*
X141790000Y-109282072D01*
X144990000Y-109282072D01*
X145114482Y-109269812D01*
X145234180Y-109233502D01*
X145344494Y-109174537D01*
X145441185Y-109095185D01*
X145520537Y-108998494D01*
X145579502Y-108888180D01*
X145615812Y-108768482D01*
X145628072Y-108644000D01*
X145628072Y-106644000D01*
X145615812Y-106519518D01*
X145579502Y-106399820D01*
X145520537Y-106289506D01*
X145441185Y-106192815D01*
X145344494Y-106113463D01*
X145234180Y-106054498D01*
X145114482Y-106018188D01*
X144990000Y-106005928D01*
X141790000Y-106005928D01*
X141665518Y-106018188D01*
X141545820Y-106054498D01*
X141435506Y-106113463D01*
X141338815Y-106192815D01*
X141259463Y-106289506D01*
X141200498Y-106399820D01*
X141164188Y-106519518D01*
X141151928Y-106644000D01*
X133348000Y-106644000D01*
X133348000Y-104962801D01*
X135348003Y-102962799D01*
X135377001Y-102939001D01*
X135471974Y-102823276D01*
X135542546Y-102691247D01*
X135586003Y-102547986D01*
X135597000Y-102436333D01*
X135597000Y-102436324D01*
X135600676Y-102399001D01*
X135597000Y-102361678D01*
X135597000Y-92145144D01*
X135597753Y-92145546D01*
X135741014Y-92189003D01*
X135852667Y-92200000D01*
X135852676Y-92200000D01*
X135889999Y-92203676D01*
X135927322Y-92200000D01*
X136022913Y-92200000D01*
X136021928Y-92210000D01*
X136021928Y-93210000D01*
X136034188Y-93334482D01*
X136070498Y-93454180D01*
X136129463Y-93564494D01*
X136208815Y-93661185D01*
X136305506Y-93740537D01*
X136415820Y-93799502D01*
X136535518Y-93835812D01*
X136660000Y-93848072D01*
X137660000Y-93848072D01*
X137784482Y-93835812D01*
X137904180Y-93799502D01*
X137993180Y-93751930D01*
X138073136Y-93787446D01*
X138128126Y-93804119D01*
X138303000Y-93677954D01*
X138303000Y-92837000D01*
X138557000Y-92837000D01*
X138557000Y-93677954D01*
X138731874Y-93804119D01*
X138786864Y-93787446D01*
X138990206Y-93697123D01*
X139065000Y-93644361D01*
X139139794Y-93697123D01*
X139343136Y-93787446D01*
X139398126Y-93804119D01*
X139573000Y-93677954D01*
X139573000Y-92837000D01*
X139827000Y-92837000D01*
X139827000Y-93677954D01*
X140001874Y-93804119D01*
X140056864Y-93787446D01*
X140260206Y-93697123D01*
X140335000Y-93644361D01*
X140409794Y-93697123D01*
X140613136Y-93787446D01*
X140668126Y-93804119D01*
X140843000Y-93677954D01*
X140843000Y-92837000D01*
X141097000Y-92837000D01*
X141097000Y-93677954D01*
X141271874Y-93804119D01*
X141326864Y-93787446D01*
X141530206Y-93697123D01*
X141605000Y-93644361D01*
X141679794Y-93697123D01*
X141883136Y-93787446D01*
X141938126Y-93804119D01*
X142113000Y-93677954D01*
X142113000Y-92837000D01*
X142367000Y-92837000D01*
X142367000Y-93677954D01*
X142541874Y-93804119D01*
X142596864Y-93787446D01*
X142800206Y-93697123D01*
X142982020Y-93568865D01*
X143111114Y-93433062D01*
X151134189Y-93433062D01*
X151134189Y-93636940D01*
X151173963Y-93836899D01*
X151251984Y-94025257D01*
X151365252Y-94194775D01*
X151509415Y-94338938D01*
X151678933Y-94452206D01*
X151867291Y-94530227D01*
X152067250Y-94570001D01*
X152271128Y-94570001D01*
X152471087Y-94530227D01*
X152659445Y-94452206D01*
X152828963Y-94338938D01*
X152973126Y-94194775D01*
X153086394Y-94025257D01*
X153164415Y-93836899D01*
X153204189Y-93636940D01*
X153204189Y-93559227D01*
X153274734Y-93427249D01*
X153318191Y-93283988D01*
X153329188Y-93172335D01*
X153329188Y-93172325D01*
X153332864Y-93135003D01*
X153329188Y-93097680D01*
X153329188Y-87910523D01*
X153373125Y-87866586D01*
X153486393Y-87697068D01*
X153564414Y-87508710D01*
X153604188Y-87308751D01*
X153604188Y-87104873D01*
X153564414Y-86904914D01*
X153486393Y-86716556D01*
X153373125Y-86547038D01*
X153228962Y-86402875D01*
X153059444Y-86289607D01*
X152871086Y-86211586D01*
X152671127Y-86171812D01*
X152467249Y-86171812D01*
X152267290Y-86211586D01*
X152078932Y-86289607D01*
X151909414Y-86402875D01*
X151765251Y-86547038D01*
X151651983Y-86716556D01*
X151573962Y-86904914D01*
X151534188Y-87104873D01*
X151534188Y-87308751D01*
X151573962Y-87508710D01*
X151651983Y-87697068D01*
X151765251Y-87866586D01*
X151809189Y-87910524D01*
X151809188Y-92563842D01*
X151678933Y-92617796D01*
X151509415Y-92731064D01*
X151365252Y-92875227D01*
X151251984Y-93044745D01*
X151173963Y-93233103D01*
X151134189Y-93433062D01*
X143111114Y-93433062D01*
X143135318Y-93407601D01*
X143254210Y-93219529D01*
X143334126Y-93011876D01*
X143209129Y-92837000D01*
X142367000Y-92837000D01*
X142113000Y-92837000D01*
X141097000Y-92837000D01*
X140843000Y-92837000D01*
X139827000Y-92837000D01*
X139573000Y-92837000D01*
X138557000Y-92837000D01*
X138303000Y-92837000D01*
X138298072Y-92837000D01*
X138298072Y-92583000D01*
X138303000Y-92583000D01*
X138303000Y-92571974D01*
X138318212Y-92575000D01*
X138541788Y-92575000D01*
X138557000Y-92571974D01*
X138557000Y-92583000D01*
X139573000Y-92583000D01*
X139573000Y-92571974D01*
X139588212Y-92575000D01*
X139811788Y-92575000D01*
X139827000Y-92571974D01*
X139827000Y-92583000D01*
X140843000Y-92583000D01*
X140843000Y-92571974D01*
X140858212Y-92575000D01*
X141081788Y-92575000D01*
X141097000Y-92571974D01*
X141097000Y-92583000D01*
X142113000Y-92583000D01*
X142113000Y-92571974D01*
X142128212Y-92575000D01*
X142351788Y-92575000D01*
X142367000Y-92571974D01*
X142367000Y-92583000D01*
X143209129Y-92583000D01*
X143334126Y-92408124D01*
X143254210Y-92200471D01*
X143177744Y-92079512D01*
X143245824Y-91977624D01*
X143331383Y-91771067D01*
X143375000Y-91551788D01*
X143375000Y-91328212D01*
X143331383Y-91108933D01*
X143245824Y-90902376D01*
X143121612Y-90716480D01*
X142963520Y-90558388D01*
X142777624Y-90434176D01*
X142571067Y-90348617D01*
X142351788Y-90305000D01*
X142128212Y-90305000D01*
X141993077Y-90331880D01*
X142005000Y-90271939D01*
X142005000Y-90068061D01*
X141965226Y-89868102D01*
X141887205Y-89679744D01*
X141773937Y-89510226D01*
X141666794Y-89403083D01*
X141683685Y-89318167D01*
X141683685Y-89114289D01*
X141643911Y-88914330D01*
X141565890Y-88725972D01*
X141452622Y-88556454D01*
X141308459Y-88412291D01*
X141138941Y-88299023D01*
X140950583Y-88221002D01*
X140750624Y-88181228D01*
X140546746Y-88181228D01*
X140346787Y-88221002D01*
X140158429Y-88299023D01*
X139988911Y-88412291D01*
X139844748Y-88556454D01*
X139731480Y-88725972D01*
X139653459Y-88914330D01*
X139645908Y-88952293D01*
X139190000Y-89408201D01*
X139190000Y-87825711D01*
X139233937Y-87781774D01*
X139347205Y-87612256D01*
X139425226Y-87423898D01*
X139465000Y-87223939D01*
X139465000Y-87020061D01*
X139425226Y-86820102D01*
X139347205Y-86631744D01*
X139233937Y-86462226D01*
X139089774Y-86318063D01*
X138920256Y-86204795D01*
X138731898Y-86126774D01*
X138531939Y-86087000D01*
X138328061Y-86087000D01*
X138128102Y-86126774D01*
X137939744Y-86204795D01*
X137770226Y-86318063D01*
X137626063Y-86462226D01*
X137512795Y-86631744D01*
X137434774Y-86820102D01*
X137395000Y-87020061D01*
X137395000Y-87223939D01*
X137434774Y-87423898D01*
X137512795Y-87612256D01*
X137626063Y-87781774D01*
X137670001Y-87825712D01*
X137670000Y-90422734D01*
X137491067Y-90348617D01*
X137271788Y-90305000D01*
X137048212Y-90305000D01*
X136828933Y-90348617D01*
X136622376Y-90434176D01*
X136436480Y-90558388D01*
X136322000Y-90672868D01*
X136322000Y-85285711D01*
X136365937Y-85241774D01*
X136479205Y-85072256D01*
X136557226Y-84883898D01*
X136597000Y-84683939D01*
X136597000Y-84480061D01*
X136557226Y-84280102D01*
X136479205Y-84091744D01*
X136365937Y-83922226D01*
X136221774Y-83778063D01*
X136052256Y-83664795D01*
X135863898Y-83586774D01*
X135838621Y-83581746D01*
X135872000Y-83413939D01*
X135872000Y-83210061D01*
X135832226Y-83010102D01*
X135754205Y-82821744D01*
X135640937Y-82652226D01*
X135496774Y-82508063D01*
X135327256Y-82394795D01*
X135138898Y-82316774D01*
X135019356Y-82292996D01*
X135029205Y-82278256D01*
X135107226Y-82089898D01*
X135147000Y-81889939D01*
X135147000Y-81686061D01*
X135107226Y-81486102D01*
X135029205Y-81297744D01*
X134915937Y-81128226D01*
X134771774Y-80984063D01*
X134602256Y-80870795D01*
X134413898Y-80792774D01*
X134213939Y-80753000D01*
X134010061Y-80753000D01*
X133856000Y-80783644D01*
X133856000Y-80078711D01*
X133899937Y-80034774D01*
X134013205Y-79865256D01*
X134091226Y-79676898D01*
X134131000Y-79476939D01*
X134131000Y-79273061D01*
X134091226Y-79073102D01*
X134013205Y-78884744D01*
X133899937Y-78715226D01*
X133843652Y-78658941D01*
X133886205Y-78595256D01*
X133964226Y-78406898D01*
X134004000Y-78206939D01*
X134004000Y-78003061D01*
X133964226Y-77803102D01*
X133886205Y-77614744D01*
X133772937Y-77445226D01*
X133628774Y-77301063D01*
X133459256Y-77187795D01*
X133270898Y-77109774D01*
X133070939Y-77070000D01*
X132867061Y-77070000D01*
X132667102Y-77109774D01*
X132478744Y-77187795D01*
X132332000Y-77285846D01*
X132332000Y-76443151D01*
X132381898Y-76433226D01*
X132570256Y-76355205D01*
X132739774Y-76241937D01*
X132883937Y-76097774D01*
X132997205Y-75928256D01*
X133075226Y-75739898D01*
X133115000Y-75539939D01*
X133115000Y-75336061D01*
X133075226Y-75136102D01*
X132997205Y-74947744D01*
X132883937Y-74778226D01*
X132739774Y-74634063D01*
X132570256Y-74520795D01*
X132381898Y-74442774D01*
X132353000Y-74437026D01*
X132353000Y-74320061D01*
X132313226Y-74120102D01*
X132235205Y-73931744D01*
X132121937Y-73762226D01*
X131977774Y-73618063D01*
X131808256Y-73504795D01*
X131619898Y-73426774D01*
X131419939Y-73387000D01*
X131299001Y-73387000D01*
X131299001Y-72037725D01*
X131300256Y-72037205D01*
X131469774Y-71923937D01*
X131613937Y-71779774D01*
X131727205Y-71610256D01*
X131805226Y-71421898D01*
X131835030Y-71272061D01*
X133077000Y-71272061D01*
X133077000Y-71475939D01*
X133116774Y-71675898D01*
X133194795Y-71864256D01*
X133308063Y-72033774D01*
X133452226Y-72177937D01*
X133621744Y-72291205D01*
X133810102Y-72369226D01*
X134010061Y-72409000D01*
X134213939Y-72409000D01*
X134413898Y-72369226D01*
X134602256Y-72291205D01*
X134771774Y-72177937D01*
X134915937Y-72033774D01*
X135029205Y-71864256D01*
X135107226Y-71675898D01*
X135147000Y-71475939D01*
X135147000Y-71272061D01*
X135107226Y-71072102D01*
X135062347Y-70963755D01*
X135062347Y-68966058D01*
X135106284Y-68922121D01*
X135219552Y-68752603D01*
X135297573Y-68564245D01*
X135337347Y-68364286D01*
X135337347Y-68160408D01*
X135297573Y-67960449D01*
X135219552Y-67772091D01*
X135106284Y-67602573D01*
X134962121Y-67458410D01*
X134792603Y-67345142D01*
X134604245Y-67267121D01*
X134404286Y-67227347D01*
X134200408Y-67227347D01*
X134000449Y-67267121D01*
X133812091Y-67345142D01*
X133642573Y-67458410D01*
X133498410Y-67602573D01*
X133385142Y-67772091D01*
X133307121Y-67960449D01*
X133267347Y-68160408D01*
X133267347Y-68364286D01*
X133307121Y-68564245D01*
X133385142Y-68752603D01*
X133498410Y-68922121D01*
X133542348Y-68966059D01*
X133542347Y-70509846D01*
X133452226Y-70570063D01*
X133308063Y-70714226D01*
X133194795Y-70883744D01*
X133116774Y-71072102D01*
X133077000Y-71272061D01*
X131835030Y-71272061D01*
X131845000Y-71221939D01*
X131845000Y-71018061D01*
X131805226Y-70818102D01*
X131727205Y-70629744D01*
X131613937Y-70460226D01*
X131469774Y-70316063D01*
X131300256Y-70202795D01*
X131111898Y-70124774D01*
X130911939Y-70085000D01*
X130708061Y-70085000D01*
X130508102Y-70124774D01*
X130319744Y-70202795D01*
X130150226Y-70316063D01*
X130006063Y-70460226D01*
X129892795Y-70629744D01*
X129814774Y-70818102D01*
X129805185Y-70866312D01*
X129778343Y-70888340D01*
X129750508Y-70922257D01*
X129750506Y-70922259D01*
X129667249Y-71023708D01*
X129584699Y-71178147D01*
X129533865Y-71345725D01*
X129516701Y-71519999D01*
X129521002Y-71563669D01*
X129521002Y-81422556D01*
X129506620Y-81408174D01*
X129319413Y-81283087D01*
X129111401Y-81196925D01*
X128890576Y-81153000D01*
X128665424Y-81153000D01*
X128444599Y-81196925D01*
X128236587Y-81283087D01*
X128049380Y-81408174D01*
X127890174Y-81567380D01*
X127765087Y-81754587D01*
X127678925Y-81962599D01*
X127635000Y-82183424D01*
X127635000Y-82408576D01*
X127644836Y-82458026D01*
X127569500Y-82473011D01*
X127569500Y-76727000D01*
X127609939Y-76727000D01*
X127809898Y-76687226D01*
X127998256Y-76609205D01*
X128167774Y-76495937D01*
X128311937Y-76351774D01*
X128425205Y-76182256D01*
X128503226Y-75993898D01*
X128543000Y-75793939D01*
X128543000Y-75590061D01*
X128503226Y-75390102D01*
X128425205Y-75201744D01*
X128311937Y-75032226D01*
X128167774Y-74888063D01*
X127998256Y-74774795D01*
X127809898Y-74696774D01*
X127609939Y-74657000D01*
X127406061Y-74657000D01*
X127206102Y-74696774D01*
X127017744Y-74774795D01*
X126848226Y-74888063D01*
X126704063Y-75032226D01*
X126590795Y-75201744D01*
X126512774Y-75390102D01*
X126489015Y-75509548D01*
X126385224Y-75565026D01*
X126269499Y-75659999D01*
X126174526Y-75775724D01*
X126103954Y-75907753D01*
X126060497Y-76051014D01*
X126045823Y-76200000D01*
X126049500Y-76237333D01*
X126049500Y-80926200D01*
X125909158Y-80868068D01*
X125622260Y-80811000D01*
X125329740Y-80811000D01*
X125042842Y-80868068D01*
X124966000Y-80899897D01*
X124966000Y-78096486D01*
X124970997Y-78091489D01*
X125000001Y-78067686D01*
X125094974Y-77951961D01*
X125165546Y-77819932D01*
X125208987Y-77676724D01*
X125263937Y-77621774D01*
X125377205Y-77452256D01*
X125455226Y-77263898D01*
X125495000Y-77063939D01*
X125495000Y-76860061D01*
X125455226Y-76660102D01*
X125377205Y-76471744D01*
X125263937Y-76302226D01*
X125119774Y-76158063D01*
X124950256Y-76044795D01*
X124761898Y-75966774D01*
X124561939Y-75927000D01*
X124358061Y-75927000D01*
X124158102Y-75966774D01*
X123969744Y-76044795D01*
X123800226Y-76158063D01*
X123656063Y-76302226D01*
X123542795Y-76471744D01*
X123464774Y-76660102D01*
X123425000Y-76860061D01*
X123425000Y-77063939D01*
X123464774Y-77263898D01*
X123532986Y-77428576D01*
X123500454Y-77489439D01*
X123456997Y-77632700D01*
X123446000Y-77744353D01*
X123446000Y-77744363D01*
X123442324Y-77781685D01*
X123446000Y-77819007D01*
X123446000Y-80899897D01*
X123369158Y-80868068D01*
X123082260Y-80811000D01*
X122789740Y-80811000D01*
X122502842Y-80868068D01*
X122232589Y-80980010D01*
X121989368Y-81142525D01*
X121782525Y-81349368D01*
X121666000Y-81523760D01*
X121549475Y-81349368D01*
X121342632Y-81142525D01*
X121099411Y-80980010D01*
X120829158Y-80868068D01*
X120542260Y-80811000D01*
X120249740Y-80811000D01*
X119962842Y-80868068D01*
X119692589Y-80980010D01*
X119449368Y-81142525D01*
X119242525Y-81349368D01*
X119126000Y-81523760D01*
X119009475Y-81349368D01*
X118802632Y-81142525D01*
X118559411Y-80980010D01*
X118289158Y-80868068D01*
X118002260Y-80811000D01*
X117709740Y-80811000D01*
X117422842Y-80868068D01*
X117152589Y-80980010D01*
X116909368Y-81142525D01*
X116777513Y-81274380D01*
X116755502Y-81201820D01*
X116696537Y-81091506D01*
X116617185Y-80994815D01*
X116520494Y-80915463D01*
X116410180Y-80856498D01*
X116290482Y-80820188D01*
X116166000Y-80807928D01*
X115601750Y-80811000D01*
X115443000Y-80969750D01*
X115189000Y-80969750D01*
X115030250Y-80811000D01*
X114466000Y-80807928D01*
X114341518Y-80820188D01*
X114221820Y-80856498D01*
X114111506Y-80915463D01*
X114014815Y-80994815D01*
X113935463Y-81091506D01*
X113876498Y-81201820D01*
X113840188Y-81321518D01*
X113827928Y-81446000D01*
X109096899Y-81446000D01*
X109102612Y-81388000D01*
X109080215Y-81160600D01*
X109013885Y-80941940D01*
X108906171Y-80740421D01*
X108761212Y-80563788D01*
X108584579Y-80418829D01*
X108383060Y-80311115D01*
X108164400Y-80244785D01*
X107993979Y-80228000D01*
X107030021Y-80228000D01*
X106859600Y-80244785D01*
X106640940Y-80311115D01*
X106439421Y-80418829D01*
X106262788Y-80563788D01*
X106117829Y-80740421D01*
X106010115Y-80941940D01*
X105943785Y-81160600D01*
X105921388Y-81388000D01*
X104660000Y-81388000D01*
X104660000Y-79546060D01*
X112103001Y-79546060D01*
X112103001Y-79749938D01*
X112142775Y-79949897D01*
X112220796Y-80138255D01*
X112334064Y-80307773D01*
X112478227Y-80451936D01*
X112647745Y-80565204D01*
X112836103Y-80643225D01*
X113036062Y-80682999D01*
X113239940Y-80682999D01*
X113439899Y-80643225D01*
X113628257Y-80565204D01*
X113797775Y-80451936D01*
X113941938Y-80307773D01*
X114055206Y-80138255D01*
X114133227Y-79949897D01*
X114173001Y-79749938D01*
X114173001Y-79546060D01*
X114133227Y-79346101D01*
X114055206Y-79157743D01*
X113941938Y-78988225D01*
X113898001Y-78944288D01*
X113898001Y-76663159D01*
X114028256Y-76609205D01*
X114197774Y-76495937D01*
X114341937Y-76351774D01*
X114455205Y-76182256D01*
X114533226Y-75993898D01*
X114573000Y-75793939D01*
X114573000Y-75590061D01*
X114533226Y-75390102D01*
X114455205Y-75201744D01*
X114341937Y-75032226D01*
X114197774Y-74888063D01*
X114028256Y-74774795D01*
X113839898Y-74696774D01*
X113639939Y-74657000D01*
X113436061Y-74657000D01*
X113236102Y-74696774D01*
X113047744Y-74774795D01*
X112878226Y-74888063D01*
X112734063Y-75032226D01*
X112620795Y-75201744D01*
X112542774Y-75390102D01*
X112503000Y-75590061D01*
X112503000Y-75667774D01*
X112445299Y-75775724D01*
X112432455Y-75799753D01*
X112388998Y-75943014D01*
X112378001Y-76054667D01*
X112378001Y-76054677D01*
X112374325Y-76091999D01*
X112378001Y-76129322D01*
X112378002Y-78944287D01*
X112334064Y-78988225D01*
X112220796Y-79157743D01*
X112142775Y-79346101D01*
X112103001Y-79546060D01*
X104660000Y-79546060D01*
X104660000Y-74139999D01*
X106781928Y-74139999D01*
X106781928Y-75720001D01*
X106798992Y-75893255D01*
X106849528Y-76059851D01*
X106931595Y-76213387D01*
X107042038Y-76347962D01*
X107176613Y-76458405D01*
X107330149Y-76540472D01*
X107496745Y-76591008D01*
X107669999Y-76608072D01*
X110770001Y-76608072D01*
X110943255Y-76591008D01*
X111109851Y-76540472D01*
X111263387Y-76458405D01*
X111397962Y-76347962D01*
X111508405Y-76213387D01*
X111590472Y-76059851D01*
X111641008Y-75893255D01*
X111658072Y-75720001D01*
X111658072Y-74139999D01*
X111641008Y-73966745D01*
X111590472Y-73800149D01*
X111508405Y-73646613D01*
X111397962Y-73512038D01*
X111263387Y-73401595D01*
X111109851Y-73319528D01*
X110943255Y-73268992D01*
X110770001Y-73251928D01*
X107669999Y-73251928D01*
X107496745Y-73268992D01*
X107330149Y-73319528D01*
X107176613Y-73401595D01*
X107042038Y-73512038D01*
X106931595Y-73646613D01*
X106849528Y-73800149D01*
X106798992Y-73966745D01*
X106781928Y-74139999D01*
X104660000Y-74139999D01*
X104660000Y-70236710D01*
X106830252Y-70236710D01*
X106863901Y-70373663D01*
X106996731Y-70674984D01*
X107185794Y-70944602D01*
X107423824Y-71172155D01*
X107701673Y-71348898D01*
X108008664Y-71468039D01*
X108333000Y-71525000D01*
X109093000Y-71525000D01*
X109093000Y-69977000D01*
X109347000Y-69977000D01*
X109347000Y-71525000D01*
X110107000Y-71525000D01*
X110431336Y-71468039D01*
X110738327Y-71348898D01*
X111016176Y-71172155D01*
X111254206Y-70944602D01*
X111443269Y-70674984D01*
X111576099Y-70373663D01*
X111609748Y-70236710D01*
X111490922Y-69977000D01*
X109347000Y-69977000D01*
X109093000Y-69977000D01*
X106949078Y-69977000D01*
X106830252Y-70236710D01*
X104660000Y-70236710D01*
X104660000Y-69463290D01*
X106830252Y-69463290D01*
X106949078Y-69723000D01*
X109093000Y-69723000D01*
X109093000Y-68175000D01*
X109347000Y-68175000D01*
X109347000Y-69723000D01*
X111490922Y-69723000D01*
X111609748Y-69463290D01*
X111576099Y-69326337D01*
X111443269Y-69025016D01*
X111254206Y-68755398D01*
X111016176Y-68527845D01*
X110738327Y-68351102D01*
X110431336Y-68231961D01*
X110107000Y-68175000D01*
X109347000Y-68175000D01*
X109093000Y-68175000D01*
X108333000Y-68175000D01*
X108008664Y-68231961D01*
X107701673Y-68351102D01*
X107423824Y-68527845D01*
X107185794Y-68755398D01*
X106996731Y-69025016D01*
X106863901Y-69326337D01*
X106830252Y-69463290D01*
X104660000Y-69463290D01*
X104660000Y-64007885D01*
X110363000Y-64007885D01*
X110387776Y-64005445D01*
X110411601Y-63998218D01*
X110433557Y-63986482D01*
X110452803Y-63970688D01*
X110468597Y-63951442D01*
X110480333Y-63929486D01*
X110487560Y-63905661D01*
X110490000Y-63880885D01*
X110490000Y-60110000D01*
X111287928Y-60110000D01*
X111287928Y-61810000D01*
X111300188Y-61934482D01*
X111336498Y-62054180D01*
X111395463Y-62164494D01*
X111474815Y-62261185D01*
X111571506Y-62340537D01*
X111681820Y-62399502D01*
X111801518Y-62435812D01*
X111926000Y-62448072D01*
X113626000Y-62448072D01*
X113750482Y-62435812D01*
X113870180Y-62399502D01*
X113980494Y-62340537D01*
X114077185Y-62261185D01*
X114156537Y-62164494D01*
X114215502Y-62054180D01*
X114237513Y-61981620D01*
X114369368Y-62113475D01*
X114612589Y-62275990D01*
X114882842Y-62387932D01*
X115169740Y-62445000D01*
X115462260Y-62445000D01*
X115749158Y-62387932D01*
X116019411Y-62275990D01*
X116262632Y-62113475D01*
X116469475Y-61906632D01*
X116586000Y-61732240D01*
X116702525Y-61906632D01*
X116909368Y-62113475D01*
X117152589Y-62275990D01*
X117422842Y-62387932D01*
X117709740Y-62445000D01*
X118002260Y-62445000D01*
X118289158Y-62387932D01*
X118559411Y-62275990D01*
X118802632Y-62113475D01*
X119009475Y-61906632D01*
X119171990Y-61663411D01*
X119283932Y-61393158D01*
X119341000Y-61106260D01*
X119341000Y-60813740D01*
X119283932Y-60526842D01*
X119171990Y-60256589D01*
X119009475Y-60013368D01*
X118802632Y-59806525D01*
X118559411Y-59644010D01*
X118289158Y-59532068D01*
X118002260Y-59475000D01*
X117709740Y-59475000D01*
X117422842Y-59532068D01*
X117152589Y-59644010D01*
X116909368Y-59806525D01*
X116702525Y-60013368D01*
X116586000Y-60187760D01*
X116469475Y-60013368D01*
X116262632Y-59806525D01*
X116019411Y-59644010D01*
X115749158Y-59532068D01*
X115462260Y-59475000D01*
X115169740Y-59475000D01*
X114882842Y-59532068D01*
X114612589Y-59644010D01*
X114369368Y-59806525D01*
X114237513Y-59938380D01*
X114215502Y-59865820D01*
X114156537Y-59755506D01*
X114077185Y-59658815D01*
X113980494Y-59579463D01*
X113870180Y-59520498D01*
X113750482Y-59484188D01*
X113626000Y-59471928D01*
X111926000Y-59471928D01*
X111801518Y-59484188D01*
X111681820Y-59520498D01*
X111571506Y-59579463D01*
X111474815Y-59658815D01*
X111395463Y-59755506D01*
X111336498Y-59865820D01*
X111300188Y-59985518D01*
X111287928Y-60110000D01*
X110490000Y-60110000D01*
X110490000Y-58660000D01*
X126487046Y-58660000D01*
X126408925Y-58848599D01*
G37*
X126408925Y-58848599D02*
X126365000Y-59069424D01*
X126365000Y-59294576D01*
X126408925Y-59515401D01*
X126495087Y-59723413D01*
X126619001Y-59908864D01*
X126619000Y-70901137D01*
X126495087Y-71086587D01*
X126408925Y-71294599D01*
X126365000Y-71515424D01*
X126365000Y-71740576D01*
X126408925Y-71961401D01*
X126495087Y-72169413D01*
X126620174Y-72356620D01*
X126779380Y-72515826D01*
X126966587Y-72640913D01*
X127174599Y-72727075D01*
X127395424Y-72771000D01*
X127620576Y-72771000D01*
X127841401Y-72727075D01*
X128049413Y-72640913D01*
X128236620Y-72515826D01*
X128395826Y-72356620D01*
X128520913Y-72169413D01*
X128607075Y-71961401D01*
X128651000Y-71740576D01*
X128651000Y-71515424D01*
X128607075Y-71294599D01*
X128520913Y-71086587D01*
X128397000Y-70901137D01*
X128397000Y-66446061D01*
X153651000Y-66446061D01*
X153651000Y-66649939D01*
X153690774Y-66849898D01*
X153768795Y-67038256D01*
X153882063Y-67207774D01*
X153926000Y-67251711D01*
X153926001Y-84798667D01*
X153922324Y-84836000D01*
X153926001Y-84873333D01*
X153936998Y-84984986D01*
X153950180Y-85028442D01*
X153980454Y-85128246D01*
X154051026Y-85260276D01*
X154119737Y-85344000D01*
X154146000Y-85376001D01*
X154174998Y-85399799D01*
X154413000Y-85637801D01*
X154413000Y-85699939D01*
X154452774Y-85899898D01*
X154530795Y-86088256D01*
X154644063Y-86257774D01*
X154788226Y-86401937D01*
X154957744Y-86515205D01*
X155146102Y-86593226D01*
X155346061Y-86633000D01*
X155450000Y-86633000D01*
X155450001Y-118707658D01*
X155450000Y-118707668D01*
X155450001Y-120073288D01*
X155406063Y-120117226D01*
X155292795Y-120286744D01*
X155214774Y-120475102D01*
X155175000Y-120675061D01*
X155175000Y-120878939D01*
X155214774Y-121078898D01*
X155292795Y-121267256D01*
X155406063Y-121436774D01*
X155550226Y-121580937D01*
X155719744Y-121694205D01*
X155908102Y-121772226D01*
X156108061Y-121812000D01*
X156311939Y-121812000D01*
X156511898Y-121772226D01*
X156700256Y-121694205D01*
X156869774Y-121580937D01*
X157013937Y-121436774D01*
X157127205Y-121267256D01*
X157205226Y-121078898D01*
X157245000Y-120878939D01*
X157245000Y-120675061D01*
X157205226Y-120475102D01*
X157127205Y-120286744D01*
X157013937Y-120117226D01*
X156970000Y-120073289D01*
X156970000Y-83200013D01*
X156989744Y-83213205D01*
X157178102Y-83291226D01*
X157378061Y-83331000D01*
X157581939Y-83331000D01*
X157781898Y-83291226D01*
X157970256Y-83213205D01*
X157990000Y-83200012D01*
X157990001Y-114866288D01*
X157946063Y-114910226D01*
X157832795Y-115079744D01*
X157754774Y-115268102D01*
X157715000Y-115468061D01*
X157715000Y-115671939D01*
X157754774Y-115871898D01*
X157832795Y-116060256D01*
X157946063Y-116229774D01*
X158090226Y-116373937D01*
X158259744Y-116487205D01*
X158448102Y-116565226D01*
X158648061Y-116605000D01*
X158851939Y-116605000D01*
X159051898Y-116565226D01*
X159240256Y-116487205D01*
X159260001Y-116474012D01*
X159260001Y-118707658D01*
X159260000Y-118707668D01*
X159260001Y-120073288D01*
X159216063Y-120117226D01*
X159102795Y-120286744D01*
X159024774Y-120475102D01*
X158985000Y-120675061D01*
X158985000Y-120878939D01*
X159024774Y-121078898D01*
X159102795Y-121267256D01*
X159216063Y-121436774D01*
X159360226Y-121580937D01*
X159529744Y-121694205D01*
X159718102Y-121772226D01*
X159918061Y-121812000D01*
X160121939Y-121812000D01*
X160321898Y-121772226D01*
X160510256Y-121694205D01*
X160679774Y-121580937D01*
X160823937Y-121436774D01*
X160937205Y-121267256D01*
X161015226Y-121078898D01*
X161055000Y-120878939D01*
X161055000Y-120675061D01*
X161015226Y-120475102D01*
X160937205Y-120286744D01*
X160823937Y-120117226D01*
X160780000Y-120073289D01*
X160780000Y-81348711D01*
X160823937Y-81304774D01*
X160937205Y-81135256D01*
X161015226Y-80946898D01*
X161055000Y-80746939D01*
X161055000Y-80543061D01*
X161015226Y-80343102D01*
X160937205Y-80154744D01*
X160823937Y-79985226D01*
X160679774Y-79841063D01*
X160510256Y-79727795D01*
X160321898Y-79649774D01*
X160121939Y-79610000D01*
X159918061Y-79610000D01*
X159718102Y-79649774D01*
X159529744Y-79727795D01*
X159360226Y-79841063D01*
X159216063Y-79985226D01*
X159102795Y-80154744D01*
X159024774Y-80343102D01*
X158988366Y-80526137D01*
X158851939Y-80499000D01*
X158648061Y-80499000D01*
X158448102Y-80538774D01*
X158259744Y-80616795D01*
X158240000Y-80629987D01*
X158240000Y-79273061D01*
X161525000Y-79273061D01*
X161525000Y-79476939D01*
X161564774Y-79676898D01*
X161642795Y-79865256D01*
X161756063Y-80034774D01*
X161800000Y-80078711D01*
X161800001Y-117437658D01*
X161800000Y-117437668D01*
X161800001Y-119469662D01*
X161800000Y-119469668D01*
X161800000Y-120073289D01*
X161756063Y-120117226D01*
X161642795Y-120286744D01*
X161564774Y-120475102D01*
X161525000Y-120675061D01*
X161525000Y-120878939D01*
X161564774Y-121078898D01*
X161642795Y-121267256D01*
X161756063Y-121436774D01*
X161900226Y-121580937D01*
X162069744Y-121694205D01*
X162258102Y-121772226D01*
X162458061Y-121812000D01*
X162661939Y-121812000D01*
X162861898Y-121772226D01*
X163050256Y-121694205D01*
X163219774Y-121580937D01*
X163363937Y-121436774D01*
X163477205Y-121267256D01*
X163512500Y-121182047D01*
X163547795Y-121267256D01*
X163661063Y-121436774D01*
X163805226Y-121580937D01*
X163974744Y-121694205D01*
X164163102Y-121772226D01*
X164363061Y-121812000D01*
X164566939Y-121812000D01*
X164766898Y-121772226D01*
X164955256Y-121694205D01*
X165124774Y-121580937D01*
X165268937Y-121436774D01*
X165382205Y-121267256D01*
X165460226Y-121078898D01*
X165500000Y-120878939D01*
X165500000Y-120816801D01*
X166151004Y-120165798D01*
X166180002Y-120142000D01*
X166274975Y-120026275D01*
X166345547Y-119894246D01*
X166389004Y-119750985D01*
X166400001Y-119639332D01*
X166400001Y-119639323D01*
X166403677Y-119602000D01*
X166400001Y-119564677D01*
X166400001Y-97863693D01*
X166498174Y-98010620D01*
X166657380Y-98169826D01*
X166844587Y-98294913D01*
X167052599Y-98381075D01*
X167273424Y-98425000D01*
X167498576Y-98425000D01*
X167719401Y-98381075D01*
X167927413Y-98294913D01*
X168114620Y-98169826D01*
X168273826Y-98010620D01*
X168342329Y-97908098D01*
X168318925Y-97964599D01*
X168275000Y-98185424D01*
X168275000Y-98410576D01*
X168318925Y-98631401D01*
X168405087Y-98839413D01*
X168529000Y-99024863D01*
X168529001Y-106890330D01*
X168524700Y-106934000D01*
X168541864Y-107108274D01*
X168592698Y-107275852D01*
X168675248Y-107430291D01*
X168694468Y-107453710D01*
X168786342Y-107565659D01*
X168820259Y-107593494D01*
X169799412Y-108572648D01*
X169842925Y-108791401D01*
X169929087Y-108999413D01*
X170054174Y-109186620D01*
X170213380Y-109345826D01*
X170400587Y-109470913D01*
X170608599Y-109557075D01*
X170829424Y-109601000D01*
X171054576Y-109601000D01*
X171275401Y-109557075D01*
X171483413Y-109470913D01*
X171670620Y-109345826D01*
X171829826Y-109186620D01*
X171954913Y-108999413D01*
X172041075Y-108791401D01*
X172085000Y-108570576D01*
X172085000Y-108345424D01*
X172041075Y-108124599D01*
X171954913Y-107916587D01*
X171829826Y-107729380D01*
X171670620Y-107570174D01*
X171483413Y-107445087D01*
X171275401Y-107358925D01*
X171056648Y-107315412D01*
X170307000Y-106565765D01*
X170307000Y-106497000D01*
X170997928Y-106497000D01*
X171010188Y-106621482D01*
X171046498Y-106741180D01*
X171105463Y-106851494D01*
X171184815Y-106948185D01*
X171281506Y-107027537D01*
X171391820Y-107086502D01*
X171511518Y-107122812D01*
X171636000Y-107135072D01*
X173450250Y-107132000D01*
X173609000Y-106973250D01*
X173609000Y-105949000D01*
X171159750Y-105949000D01*
X171001000Y-106107750D01*
X170997928Y-106497000D01*
X170307000Y-106497000D01*
X170307000Y-105147000D01*
X170997928Y-105147000D01*
X171001000Y-105536250D01*
X171159750Y-105695000D01*
X173609000Y-105695000D01*
X173609000Y-104670750D01*
X173450250Y-104512000D01*
X171636000Y-104508928D01*
X171511518Y-104521188D01*
X171391820Y-104557498D01*
X171281506Y-104616463D01*
X171184815Y-104695815D01*
X171105463Y-104792506D01*
X171046498Y-104902820D01*
X171010188Y-105022518D01*
X170997928Y-105147000D01*
X170307000Y-105147000D01*
X170307000Y-100847000D01*
X170997928Y-100847000D01*
X171010188Y-100971482D01*
X171046498Y-101091180D01*
X171105463Y-101201494D01*
X171184815Y-101298185D01*
X171281506Y-101377537D01*
X171391820Y-101436502D01*
X171511518Y-101472812D01*
X171636000Y-101485072D01*
X173450250Y-101482000D01*
X173609000Y-101323250D01*
X173609000Y-100299000D01*
X171159750Y-100299000D01*
X171001000Y-100457750D01*
X170997928Y-100847000D01*
X170307000Y-100847000D01*
X170307000Y-99497000D01*
X170997928Y-99497000D01*
X171001000Y-99886250D01*
X171159750Y-100045000D01*
X173609000Y-100045000D01*
X173609000Y-99020750D01*
X173450250Y-98862000D01*
X171636000Y-98858928D01*
X171511518Y-98871188D01*
X171391820Y-98907498D01*
X171281506Y-98966463D01*
X171184815Y-99045815D01*
X171105463Y-99142506D01*
X171046498Y-99252820D01*
X171010188Y-99372518D01*
X170997928Y-99497000D01*
X170307000Y-99497000D01*
X170307000Y-99024863D01*
X170430913Y-98839413D01*
X170517075Y-98631401D01*
X170561000Y-98410576D01*
X170561000Y-98185424D01*
X170517075Y-97964599D01*
X170430913Y-97756587D01*
X170307000Y-97571137D01*
X170307000Y-94322000D01*
X171739928Y-94322000D01*
X171752188Y-94446482D01*
X171788498Y-94566180D01*
X171847463Y-94676494D01*
X171926815Y-94773185D01*
X172023506Y-94852537D01*
X172133820Y-94911502D01*
X172253518Y-94947812D01*
X172378000Y-94960072D01*
X172942250Y-94957000D01*
X173101000Y-94798250D01*
X173101000Y-93599000D01*
X173355000Y-93599000D01*
X173355000Y-94798250D01*
X173513750Y-94957000D01*
X174078000Y-94960072D01*
X174202482Y-94947812D01*
X174322180Y-94911502D01*
X174432494Y-94852537D01*
X174529185Y-94773185D01*
X174608537Y-94676494D01*
X174667502Y-94566180D01*
X174703812Y-94446482D01*
X174716072Y-94322000D01*
X174713000Y-93757750D01*
X174554250Y-93599000D01*
X173355000Y-93599000D01*
X173101000Y-93599000D01*
X171901750Y-93599000D01*
X171743000Y-93757750D01*
X171739928Y-94322000D01*
X170307000Y-94322000D01*
X170307000Y-92622000D01*
X171739928Y-92622000D01*
X171743000Y-93186250D01*
X171901750Y-93345000D01*
X173101000Y-93345000D01*
X173101000Y-92145750D01*
X173355000Y-92145750D01*
X173355000Y-93345000D01*
X174554250Y-93345000D01*
X174713000Y-93186250D01*
X174716072Y-92622000D01*
X174703812Y-92497518D01*
X174667502Y-92377820D01*
X174608537Y-92267506D01*
X174529185Y-92170815D01*
X174432494Y-92091463D01*
X174322180Y-92032498D01*
X174202482Y-91996188D01*
X174078000Y-91983928D01*
X173513750Y-91987000D01*
X173355000Y-92145750D01*
X173101000Y-92145750D01*
X172942250Y-91987000D01*
X172378000Y-91983928D01*
X172253518Y-91996188D01*
X172133820Y-92032498D01*
X172023506Y-92091463D01*
X171926815Y-92170815D01*
X171847463Y-92267506D01*
X171788498Y-92377820D01*
X171752188Y-92497518D01*
X171739928Y-92622000D01*
X170307000Y-92622000D01*
X170307000Y-85641660D01*
X170311300Y-85598000D01*
X170307000Y-85554340D01*
X170307000Y-85554333D01*
X170294136Y-85423726D01*
X170243303Y-85256149D01*
X170160753Y-85101709D01*
X170049659Y-84966341D01*
X170015743Y-84938507D01*
X168782588Y-83705353D01*
X168739075Y-83486599D01*
X168652913Y-83278587D01*
X168529001Y-83093139D01*
X168529001Y-81870477D01*
X168585628Y-81927104D01*
X168629141Y-82145858D01*
X168715303Y-82353870D01*
X168840390Y-82541077D01*
X168999596Y-82700283D01*
X169186803Y-82825370D01*
X169394815Y-82911532D01*
X169615640Y-82955457D01*
X169840792Y-82955457D01*
X170061617Y-82911532D01*
X170269629Y-82825370D01*
X170456836Y-82700283D01*
X170616042Y-82541077D01*
X170741129Y-82353870D01*
X170827291Y-82145858D01*
X170871216Y-81925033D01*
X170871216Y-81699881D01*
X170827291Y-81479056D01*
X170781290Y-81368000D01*
X172247928Y-81368000D01*
X172260188Y-81492482D01*
X172296498Y-81612180D01*
X172355463Y-81722494D01*
X172434815Y-81819185D01*
X172531506Y-81898537D01*
X172641820Y-81957502D01*
X172714380Y-81979513D01*
X172582525Y-82111368D01*
X172420010Y-82354589D01*
X172308068Y-82624842D01*
X172251000Y-82911740D01*
X172251000Y-83204260D01*
X172308068Y-83491158D01*
X172420010Y-83761411D01*
X172582525Y-84004632D01*
X172789368Y-84211475D01*
X172963760Y-84328000D01*
X172789368Y-84444525D01*
X172582525Y-84651368D01*
X172420010Y-84894589D01*
X172308068Y-85164842D01*
X172251000Y-85451740D01*
X172251000Y-85744260D01*
X172308068Y-86031158D01*
X172420010Y-86301411D01*
X172582525Y-86544632D01*
X172789368Y-86751475D01*
X172963760Y-86868000D01*
X172789368Y-86984525D01*
X172582525Y-87191368D01*
X172420010Y-87434589D01*
X172308068Y-87704842D01*
X172251000Y-87991740D01*
X172251000Y-88284260D01*
X172308068Y-88571158D01*
X172420010Y-88841411D01*
X172582525Y-89084632D01*
X172789368Y-89291475D01*
X173032589Y-89453990D01*
X173302842Y-89565932D01*
X173589740Y-89623000D01*
X173882260Y-89623000D01*
X174169158Y-89565932D01*
X174439411Y-89453990D01*
X174682632Y-89291475D01*
X174889475Y-89084632D01*
X175051990Y-88841411D01*
X175163932Y-88571158D01*
X175221000Y-88284260D01*
X175221000Y-87991740D01*
X175163932Y-87704842D01*
X175051990Y-87434589D01*
X174889475Y-87191368D01*
X174682632Y-86984525D01*
X174508240Y-86868000D01*
X174682632Y-86751475D01*
X174889475Y-86544632D01*
X175051990Y-86301411D01*
X175163932Y-86031158D01*
X175221000Y-85744260D01*
X175221000Y-85451740D01*
X175163932Y-85164842D01*
X175051990Y-84894589D01*
X174889475Y-84651368D01*
X174682632Y-84444525D01*
X174508240Y-84328000D01*
X174682632Y-84211475D01*
X174889475Y-84004632D01*
X175051990Y-83761411D01*
X175163932Y-83491158D01*
X175221000Y-83204260D01*
X175221000Y-82911740D01*
X175163932Y-82624842D01*
X175051990Y-82354589D01*
X174889475Y-82111368D01*
X174757620Y-81979513D01*
X174830180Y-81957502D01*
X174940494Y-81898537D01*
X175037185Y-81819185D01*
X175116537Y-81722494D01*
X175175502Y-81612180D01*
X175211812Y-81492482D01*
X175224072Y-81368000D01*
X175221000Y-80803750D01*
X175062250Y-80645000D01*
X173863000Y-80645000D01*
X173863000Y-80665000D01*
X173609000Y-80665000D01*
X173609000Y-80645000D01*
X172409750Y-80645000D01*
X172251000Y-80803750D01*
X172247928Y-81368000D01*
X170781290Y-81368000D01*
X170741129Y-81271044D01*
X170616042Y-81083837D01*
X170456836Y-80924631D01*
X170269629Y-80799544D01*
X170061617Y-80713382D01*
X169842863Y-80669869D01*
X169735500Y-80562506D01*
X169735500Y-78920561D01*
X170424347Y-78920561D01*
X170424347Y-79124439D01*
X170464121Y-79324398D01*
X170542142Y-79512756D01*
X170655410Y-79682274D01*
X170799573Y-79826437D01*
X170969091Y-79939705D01*
X171157449Y-80017726D01*
X171357408Y-80057500D01*
X171561286Y-80057500D01*
X171761245Y-80017726D01*
X171949603Y-79939705D01*
X172119121Y-79826437D01*
X172248088Y-79697470D01*
X172251000Y-80232250D01*
X172409750Y-80391000D01*
X173609000Y-80391000D01*
X173609000Y-79191750D01*
X173450250Y-79033000D01*
X172886000Y-79029928D01*
X172761518Y-79042188D01*
X172641820Y-79078498D01*
X172531506Y-79137463D01*
X172484002Y-79176449D01*
X172494347Y-79124439D01*
X172494347Y-78920561D01*
X172454573Y-78720602D01*
X172376552Y-78532244D01*
X172263284Y-78362726D01*
X172219347Y-78318789D01*
X172219347Y-78168423D01*
X172323398Y-78147726D01*
X172511756Y-78069705D01*
X172681274Y-77956437D01*
X172825437Y-77812274D01*
X172938705Y-77642756D01*
X173016726Y-77454398D01*
X173056500Y-77254439D01*
X173056500Y-77050561D01*
X173016726Y-76850602D01*
X172938705Y-76662244D01*
X172825437Y-76492726D01*
X172681274Y-76348563D01*
X172511756Y-76235295D01*
X172323398Y-76157274D01*
X172123439Y-76117500D01*
X171919561Y-76117500D01*
X171719602Y-76157274D01*
X171531244Y-76235295D01*
X171361726Y-76348563D01*
X171217563Y-76492726D01*
X171104295Y-76662244D01*
X171026274Y-76850602D01*
X170986500Y-77050561D01*
X170986500Y-77112699D01*
X170948344Y-77150855D01*
X170919347Y-77174652D01*
X170895549Y-77203650D01*
X170895548Y-77203651D01*
X170824373Y-77290377D01*
X170753801Y-77422407D01*
X170733468Y-77489438D01*
X170710345Y-77565667D01*
X170699412Y-77676671D01*
X170695671Y-77714653D01*
X170699348Y-77751985D01*
X170699348Y-78318788D01*
X170655410Y-78362726D01*
X170542142Y-78532244D01*
X170464121Y-78720602D01*
X170424347Y-78920561D01*
X169735500Y-78920561D01*
X169735500Y-75974363D01*
X169859413Y-75788913D01*
X169933413Y-75610263D01*
X169956087Y-75625413D01*
X170164099Y-75711575D01*
X170384924Y-75755500D01*
X170610076Y-75755500D01*
X170830901Y-75711575D01*
X171038913Y-75625413D01*
X171226120Y-75500326D01*
X171385326Y-75341120D01*
X171510413Y-75153913D01*
X171596575Y-74945901D01*
X171640500Y-74725076D01*
X171640500Y-74499924D01*
X171596575Y-74279099D01*
X171510413Y-74071087D01*
X171385326Y-73883880D01*
X171323000Y-73821554D01*
X171323000Y-70195863D01*
X171446913Y-70010413D01*
X171533075Y-69802401D01*
X171577000Y-69581576D01*
X171577000Y-69356424D01*
X171533075Y-69135599D01*
X171446913Y-68927587D01*
X171321826Y-68740380D01*
X171162620Y-68581174D01*
X170975413Y-68456087D01*
X170767401Y-68369925D01*
X170546576Y-68326000D01*
X170321424Y-68326000D01*
X170100599Y-68369925D01*
X169892587Y-68456087D01*
X169705380Y-68581174D01*
X169546174Y-68740380D01*
X169421087Y-68927587D01*
X169334925Y-69135599D01*
X169291000Y-69356424D01*
X169291000Y-69581576D01*
X169334925Y-69802401D01*
X169421087Y-70010413D01*
X169545000Y-70195863D01*
X169545001Y-73980671D01*
X169484587Y-74071087D01*
X169410587Y-74249737D01*
X169387913Y-74234587D01*
X169179901Y-74148425D01*
X168959076Y-74104500D01*
X168733924Y-74104500D01*
X168529001Y-74145262D01*
X168529001Y-71945358D01*
X168689413Y-71878913D01*
X168876620Y-71753826D01*
X169035826Y-71594620D01*
X169160913Y-71407413D01*
X169247075Y-71199401D01*
X169291000Y-70978576D01*
X169291000Y-70753424D01*
X169247075Y-70532599D01*
X169160913Y-70324587D01*
X169035826Y-70137380D01*
X168876620Y-69978174D01*
X168689413Y-69853087D01*
X168481401Y-69766925D01*
X168260576Y-69723000D01*
X168035424Y-69723000D01*
X167814599Y-69766925D01*
X167606587Y-69853087D01*
X167419380Y-69978174D01*
X167260174Y-70137380D01*
X167184918Y-70250010D01*
X167114256Y-70202795D01*
X166925898Y-70124774D01*
X166725939Y-70085000D01*
X166522061Y-70085000D01*
X166322102Y-70124774D01*
X166133744Y-70202795D01*
X165964226Y-70316063D01*
X165820063Y-70460226D01*
X165706795Y-70629744D01*
X165628774Y-70818102D01*
X165589000Y-71018061D01*
X165589000Y-71112013D01*
X165119720Y-71611816D01*
X165100000Y-71628000D01*
X165068601Y-71666260D01*
X165060394Y-71675001D01*
X165044919Y-71695117D01*
X165005027Y-71743726D01*
X164999340Y-71754365D01*
X164991985Y-71763926D01*
X164964105Y-71820285D01*
X164934455Y-71875755D01*
X164930953Y-71887301D01*
X164925605Y-71898111D01*
X164909258Y-71958820D01*
X164890998Y-72019016D01*
X164889815Y-72031026D01*
X164886680Y-72042669D01*
X164882491Y-72105393D01*
X164880001Y-72130669D01*
X164880001Y-72142665D01*
X164876703Y-72192042D01*
X164880001Y-72217335D01*
X164880002Y-119287196D01*
X164425199Y-119742000D01*
X164363061Y-119742000D01*
X164163102Y-119781774D01*
X163974744Y-119859795D01*
X163805226Y-119973063D01*
X163661063Y-120117226D01*
X163547795Y-120286744D01*
X163512500Y-120371953D01*
X163477205Y-120286744D01*
X163363937Y-120117226D01*
X163320000Y-120073289D01*
X163320000Y-89550013D01*
X163339744Y-89563205D01*
X163528102Y-89641226D01*
X163728061Y-89681000D01*
X163931939Y-89681000D01*
X164131898Y-89641226D01*
X164320256Y-89563205D01*
X164489774Y-89449937D01*
X164633937Y-89305774D01*
X164747205Y-89136256D01*
X164825226Y-88947898D01*
X164865000Y-88747939D01*
X164865000Y-88544061D01*
X164825226Y-88344102D01*
X164747205Y-88155744D01*
X164633937Y-87986226D01*
X164590000Y-87942289D01*
X164590000Y-79189711D01*
X164633937Y-79145774D01*
X164747205Y-78976256D01*
X164825226Y-78787898D01*
X164865000Y-78587939D01*
X164865000Y-78384061D01*
X164825226Y-78184102D01*
X164747205Y-77995744D01*
X164633937Y-77826226D01*
X164489774Y-77682063D01*
X164320256Y-77568795D01*
X164131898Y-77490774D01*
X163931939Y-77451000D01*
X163728061Y-77451000D01*
X163528102Y-77490774D01*
X163339744Y-77568795D01*
X163170226Y-77682063D01*
X163026063Y-77826226D01*
X162912795Y-77995744D01*
X162834774Y-78184102D01*
X162798366Y-78367137D01*
X162661939Y-78340000D01*
X162458061Y-78340000D01*
X162258102Y-78379774D01*
X162069744Y-78457795D01*
X161900226Y-78571063D01*
X161756063Y-78715226D01*
X161642795Y-78884744D01*
X161564774Y-79073102D01*
X161525000Y-79273061D01*
X158240000Y-79273061D01*
X158240000Y-74871711D01*
X158283937Y-74827774D01*
X158397205Y-74658256D01*
X158475226Y-74469898D01*
X158515000Y-74269939D01*
X158515000Y-74066061D01*
X158475226Y-73866102D01*
X158397205Y-73677744D01*
X158283937Y-73508226D01*
X158139774Y-73364063D01*
X157970256Y-73250795D01*
X157781898Y-73172774D01*
X157691857Y-73154864D01*
X157796947Y-73049774D01*
X157910215Y-72880256D01*
X157988236Y-72691898D01*
X157998505Y-72640272D01*
X158008774Y-72691898D01*
X158086795Y-72880256D01*
X158200063Y-73049774D01*
X158344226Y-73193937D01*
X158513744Y-73307205D01*
X158702102Y-73385226D01*
X158902061Y-73425000D01*
X159105939Y-73425000D01*
X159305898Y-73385226D01*
X159494256Y-73307205D01*
X159663774Y-73193937D01*
X159673532Y-73184179D01*
X159682925Y-73231401D01*
X159769087Y-73439413D01*
X159893001Y-73624864D01*
X159893000Y-74457137D01*
X159769087Y-74642587D01*
X159682925Y-74850599D01*
X159639000Y-75071424D01*
X159639000Y-75296576D01*
X159682925Y-75517401D01*
X159769087Y-75725413D01*
X159894174Y-75912620D01*
X160053380Y-76071826D01*
X160240587Y-76196913D01*
X160448599Y-76283075D01*
X160669424Y-76327000D01*
X160894576Y-76327000D01*
X161115401Y-76283075D01*
X161323413Y-76196913D01*
X161510620Y-76071826D01*
X161669826Y-75912620D01*
X161794913Y-75725413D01*
X161881075Y-75517401D01*
X161925000Y-75296576D01*
X161925000Y-75071424D01*
X161881075Y-74850599D01*
X161794913Y-74642587D01*
X161671000Y-74457137D01*
X161671000Y-73624863D01*
X161794913Y-73439413D01*
X161881075Y-73231401D01*
X161925000Y-73010576D01*
X161925000Y-72785424D01*
X161881075Y-72564599D01*
X161794913Y-72356587D01*
X161669826Y-72169380D01*
X161510620Y-72010174D01*
X161323413Y-71885087D01*
X161115401Y-71798925D01*
X160894576Y-71755000D01*
X160669424Y-71755000D01*
X160448599Y-71798925D01*
X160240587Y-71885087D01*
X160053380Y-72010174D01*
X159992263Y-72071291D01*
X159921205Y-71899744D01*
X159807937Y-71730226D01*
X159764000Y-71686289D01*
X159764000Y-68304711D01*
X159807937Y-68260774D01*
X159921205Y-68091256D01*
X159999226Y-67902898D01*
X160039000Y-67702939D01*
X160039000Y-67499061D01*
X159999226Y-67299102D01*
X159921205Y-67110744D01*
X159807937Y-66941226D01*
X159756711Y-66890000D01*
X160436928Y-66890000D01*
X160449188Y-67014482D01*
X160485498Y-67134180D01*
X160544463Y-67244494D01*
X160623815Y-67341185D01*
X160720506Y-67420537D01*
X160830820Y-67479502D01*
X160950518Y-67515812D01*
X161075000Y-67528072D01*
X161639250Y-67525000D01*
X161798000Y-67366250D01*
X161798000Y-66167000D01*
X160598750Y-66167000D01*
X160440000Y-66325750D01*
X160436928Y-66890000D01*
X159756711Y-66890000D01*
X159663774Y-66797063D01*
X159494256Y-66683795D01*
X159305898Y-66605774D01*
X159105939Y-66566000D01*
X158902061Y-66566000D01*
X158702102Y-66605774D01*
X158513744Y-66683795D01*
X158344226Y-66797063D01*
X158260500Y-66880789D01*
X158139774Y-66760063D01*
X157970256Y-66646795D01*
X157781898Y-66568774D01*
X157581939Y-66529000D01*
X157378061Y-66529000D01*
X157178102Y-66568774D01*
X156989744Y-66646795D01*
X156820226Y-66760063D01*
X156676063Y-66904226D01*
X156562795Y-67073744D01*
X156484774Y-67262102D01*
X156445000Y-67462061D01*
X156445000Y-67605289D01*
X156361774Y-67522063D01*
X156192256Y-67408795D01*
X156003898Y-67330774D01*
X155803939Y-67291000D01*
X155600061Y-67291000D01*
X155446000Y-67321644D01*
X155446000Y-67251711D01*
X155489937Y-67207774D01*
X155603205Y-67038256D01*
X155681226Y-66849898D01*
X155721000Y-66649939D01*
X155721000Y-66446061D01*
X155681226Y-66246102D01*
X155603205Y-66057744D01*
X155489937Y-65888226D01*
X155345774Y-65744063D01*
X155176256Y-65630795D01*
X154987898Y-65552774D01*
X154787939Y-65513000D01*
X154584061Y-65513000D01*
X154384102Y-65552774D01*
X154195744Y-65630795D01*
X154026226Y-65744063D01*
X153882063Y-65888226D01*
X153768795Y-66057744D01*
X153690774Y-66246102D01*
X153651000Y-66446061D01*
X128397000Y-66446061D01*
X128397000Y-65190000D01*
X160436928Y-65190000D01*
X160440000Y-65754250D01*
X160598750Y-65913000D01*
X161798000Y-65913000D01*
X161798000Y-64713750D01*
X162052000Y-64713750D01*
X162052000Y-65913000D01*
X162072000Y-65913000D01*
X162072000Y-66167000D01*
X162052000Y-66167000D01*
X162052000Y-67366250D01*
X162210750Y-67525000D01*
X162775000Y-67528072D01*
X162899482Y-67515812D01*
X163019180Y-67479502D01*
X163129494Y-67420537D01*
X163226185Y-67341185D01*
X163305537Y-67244494D01*
X163364502Y-67134180D01*
X163386513Y-67061620D01*
X163518368Y-67193475D01*
X163761589Y-67355990D01*
X164031842Y-67467932D01*
X164318740Y-67525000D01*
X164611260Y-67525000D01*
X164898158Y-67467932D01*
X165168411Y-67355990D01*
X165411632Y-67193475D01*
X165618475Y-66986632D01*
X165735000Y-66812240D01*
X165851525Y-66986632D01*
X166058368Y-67193475D01*
X166301589Y-67355990D01*
X166571842Y-67467932D01*
X166858740Y-67525000D01*
X167151260Y-67525000D01*
X167438158Y-67467932D01*
X167708411Y-67355990D01*
X167951632Y-67193475D01*
X168158475Y-66986632D01*
X168275000Y-66812240D01*
X168391525Y-66986632D01*
X168598368Y-67193475D01*
X168841589Y-67355990D01*
X169111842Y-67467932D01*
X169398740Y-67525000D01*
X169691260Y-67525000D01*
X169978158Y-67467932D01*
X170248411Y-67355990D01*
X170491632Y-67193475D01*
X170698475Y-66986632D01*
X170815000Y-66812240D01*
X170931525Y-66986632D01*
X171138368Y-67193475D01*
X171381589Y-67355990D01*
X171651842Y-67467932D01*
X171938740Y-67525000D01*
X172231260Y-67525000D01*
X172518158Y-67467932D01*
X172788411Y-67355990D01*
X173031632Y-67193475D01*
X173238475Y-66986632D01*
X173400990Y-66743411D01*
X173512932Y-66473158D01*
X173570000Y-66186260D01*
X173570000Y-65893740D01*
X173512932Y-65606842D01*
X173400990Y-65336589D01*
X173238475Y-65093368D01*
X173031632Y-64886525D01*
X172788411Y-64724010D01*
X172518158Y-64612068D01*
X172231260Y-64555000D01*
X171938740Y-64555000D01*
X171651842Y-64612068D01*
X171381589Y-64724010D01*
X171138368Y-64886525D01*
X170931525Y-65093368D01*
X170815000Y-65267760D01*
X170698475Y-65093368D01*
X170491632Y-64886525D01*
X170248411Y-64724010D01*
X169978158Y-64612068D01*
X169691260Y-64555000D01*
X169398740Y-64555000D01*
X169111842Y-64612068D01*
X168841589Y-64724010D01*
X168598368Y-64886525D01*
X168391525Y-65093368D01*
X168275000Y-65267760D01*
X168158475Y-65093368D01*
X167951632Y-64886525D01*
X167708411Y-64724010D01*
X167438158Y-64612068D01*
X167151260Y-64555000D01*
X166858740Y-64555000D01*
X166571842Y-64612068D01*
X166301589Y-64724010D01*
X166058368Y-64886525D01*
X165851525Y-65093368D01*
X165735000Y-65267760D01*
X165618475Y-65093368D01*
X165411632Y-64886525D01*
X165168411Y-64724010D01*
X164898158Y-64612068D01*
X164844000Y-64601295D01*
X164844000Y-63187711D01*
X164887937Y-63143774D01*
X165001205Y-62974256D01*
X165079226Y-62785898D01*
X165119000Y-62585939D01*
X165119000Y-62382061D01*
X165079226Y-62182102D01*
X165001205Y-61993744D01*
X164887937Y-61824226D01*
X164743774Y-61680063D01*
X164574256Y-61566795D01*
X164385898Y-61488774D01*
X164185939Y-61449000D01*
X163982061Y-61449000D01*
X163782102Y-61488774D01*
X163593744Y-61566795D01*
X163424226Y-61680063D01*
X163280063Y-61824226D01*
X163166795Y-61993744D01*
X163088774Y-62182102D01*
X163049000Y-62382061D01*
X163049000Y-62585939D01*
X163088774Y-62785898D01*
X163166795Y-62974256D01*
X163280063Y-63143774D01*
X163324000Y-63187711D01*
X163324001Y-64870049D01*
X163305537Y-64835506D01*
X163226185Y-64738815D01*
X163129494Y-64659463D01*
X163019180Y-64600498D01*
X162899482Y-64564188D01*
X162775000Y-64551928D01*
X162210750Y-64555000D01*
X162052000Y-64713750D01*
X161798000Y-64713750D01*
X161639250Y-64555000D01*
X161075000Y-64551928D01*
X160950518Y-64564188D01*
X160830820Y-64600498D01*
X160720506Y-64659463D01*
X160623815Y-64738815D01*
X160544463Y-64835506D01*
X160485498Y-64945820D01*
X160449188Y-65065518D01*
X160436928Y-65190000D01*
X128397000Y-65190000D01*
X128397000Y-62509061D01*
X129267000Y-62509061D01*
X129267000Y-62712939D01*
X129306774Y-62912898D01*
X129384795Y-63101256D01*
X129498063Y-63270774D01*
X129642226Y-63414937D01*
X129811744Y-63528205D01*
X130000102Y-63606226D01*
X130200061Y-63646000D01*
X130403939Y-63646000D01*
X130603898Y-63606226D01*
X130792256Y-63528205D01*
X130961774Y-63414937D01*
X131005711Y-63371000D01*
X160024504Y-63371000D01*
X160164744Y-63464705D01*
X160353102Y-63542726D01*
X160553061Y-63582500D01*
X160756939Y-63582500D01*
X160956898Y-63542726D01*
X161145256Y-63464705D01*
X161314774Y-63351437D01*
X161458937Y-63207274D01*
X161572205Y-63037756D01*
X161650226Y-62849398D01*
X161690000Y-62649439D01*
X161690000Y-62445561D01*
X161650226Y-62245602D01*
X161572205Y-62057244D01*
X161458937Y-61887726D01*
X161314774Y-61743563D01*
X161145256Y-61630295D01*
X160956898Y-61552274D01*
X160756939Y-61512500D01*
X160553061Y-61512500D01*
X160353102Y-61552274D01*
X160164744Y-61630295D01*
X159995226Y-61743563D01*
X159887789Y-61851000D01*
X131005711Y-61851000D01*
X130961774Y-61807063D01*
X130792256Y-61693795D01*
X130603898Y-61615774D01*
X130403939Y-61576000D01*
X130200061Y-61576000D01*
X130000102Y-61615774D01*
X129811744Y-61693795D01*
X129642226Y-61807063D01*
X129498063Y-61951226D01*
X129384795Y-62120744D01*
X129306774Y-62309102D01*
X129267000Y-62509061D01*
X128397000Y-62509061D01*
X128397000Y-59908863D01*
X128520913Y-59723413D01*
X128607075Y-59515401D01*
X128651000Y-59294576D01*
X128651000Y-59069424D01*
X128607075Y-58848599D01*
X128528954Y-58660000D01*
X169926000Y-58660000D01*
X169926000Y-64071500D01*
X169928440Y-64096276D01*
X169935667Y-64120101D01*
X169947403Y-64142057D01*
X169963197Y-64161303D01*
X169982443Y-64177097D01*
X170004399Y-64188833D01*
X170028224Y-64196060D01*
X170053000Y-64198500D01*
X175340001Y-64198500D01*
X175340001Y-69760106D01*
X175242256Y-69694795D01*
X175053898Y-69616774D01*
X174853939Y-69577000D01*
X174650061Y-69577000D01*
X174450102Y-69616774D01*
X174261744Y-69694795D01*
X174242000Y-69707987D01*
X174242000Y-69029711D01*
X174285937Y-68985774D01*
X174399205Y-68816256D01*
X174477226Y-68627898D01*
X174517000Y-68427939D01*
X174517000Y-68224061D01*
X174477226Y-68024102D01*
X174399205Y-67835744D01*
X174285937Y-67666226D01*
X174141774Y-67522063D01*
X173972256Y-67408795D01*
X173783898Y-67330774D01*
X173583939Y-67291000D01*
X173380061Y-67291000D01*
X173180102Y-67330774D01*
X172991744Y-67408795D01*
X172822226Y-67522063D01*
X172678063Y-67666226D01*
X172564795Y-67835744D01*
X172486774Y-68024102D01*
X172447000Y-68224061D01*
X172447000Y-68427939D01*
X172486774Y-68627898D01*
X172564795Y-68816256D01*
X172678063Y-68985774D01*
X172722001Y-69029712D01*
X172722000Y-69908289D01*
X172678063Y-69952226D01*
X172564795Y-70121744D01*
X172486774Y-70310102D01*
X172447000Y-70510061D01*
X172447000Y-70713939D01*
X172486774Y-70913898D01*
X172564795Y-71102256D01*
X172678063Y-71271774D01*
X172722001Y-71315712D01*
X172722000Y-73972289D01*
X172678063Y-74016226D01*
X172564795Y-74185744D01*
X172486774Y-74374102D01*
X172447000Y-74574061D01*
X172447000Y-74777939D01*
X172486774Y-74977898D01*
X172564795Y-75166256D01*
X172678063Y-75335774D01*
X172822226Y-75479937D01*
X172991744Y-75593205D01*
X173180102Y-75671226D01*
X173380061Y-75711000D01*
X173583939Y-75711000D01*
X173783898Y-75671226D01*
X173863000Y-75638461D01*
X173863001Y-77441636D01*
X173739087Y-77627087D01*
X173652925Y-77835099D01*
X173609000Y-78055924D01*
X173609000Y-78281076D01*
X173652925Y-78501901D01*
X173739087Y-78709913D01*
X173864174Y-78897120D01*
X174010902Y-79043848D01*
X173863000Y-79191750D01*
X173863000Y-80391000D01*
X175062250Y-80391000D01*
X175221000Y-80232250D01*
X175224072Y-79668000D01*
X175211812Y-79543518D01*
X175175502Y-79423820D01*
X175116537Y-79313506D01*
X175079763Y-79268696D01*
X175085401Y-79267575D01*
X175293413Y-79181413D01*
X175340001Y-79150284D01*
X175340000Y-98859768D01*
X174021750Y-98862000D01*
X173863000Y-99020750D01*
X173863000Y-100045000D01*
X173883000Y-100045000D01*
X173883000Y-100299000D01*
X173863000Y-100299000D01*
X173863000Y-101323250D01*
X174021750Y-101482000D01*
X175340000Y-101484232D01*
X175340000Y-104509768D01*
X174021750Y-104512000D01*
X173863000Y-104670750D01*
X173863000Y-105695000D01*
X173883000Y-105695000D01*
X173883000Y-105949000D01*
X173863000Y-105949000D01*
X173863000Y-106973250D01*
X174021750Y-107132000D01*
X175340000Y-107134232D01*
X175340000Y-117030500D01*
X170161041Y-117030500D01*
X170136265Y-117032940D01*
X170112440Y-117040167D01*
X170090484Y-117051903D01*
X170071238Y-117067697D01*
X170055444Y-117086943D01*
X170043708Y-117108899D01*
X170036481Y-117132724D01*
X170034041Y-117157500D01*
X170034041Y-122340000D01*
X110321764Y-122340000D01*
X110305596Y-118530000D01*
X114335928Y-118530000D01*
X114335928Y-120230000D01*
X114348188Y-120354482D01*
X114384498Y-120474180D01*
X114443463Y-120584494D01*
X114522815Y-120681185D01*
X114619506Y-120760537D01*
X114729820Y-120819502D01*
X114849518Y-120855812D01*
X114974000Y-120868072D01*
X116674000Y-120868072D01*
X116798482Y-120855812D01*
X116918180Y-120819502D01*
X117028494Y-120760537D01*
X117125185Y-120681185D01*
X117204537Y-120584494D01*
X117263502Y-120474180D01*
X117285513Y-120401620D01*
X117417368Y-120533475D01*
X117660589Y-120695990D01*
X117930842Y-120807932D01*
X118217740Y-120865000D01*
X118510260Y-120865000D01*
X118797158Y-120807932D01*
X119067411Y-120695990D01*
X119310632Y-120533475D01*
X119517475Y-120326632D01*
X119634000Y-120152240D01*
X119750525Y-120326632D01*
X119957368Y-120533475D01*
X120200589Y-120695990D01*
X120470842Y-120807932D01*
X120757740Y-120865000D01*
X121050260Y-120865000D01*
X121337158Y-120807932D01*
X121607411Y-120695990D01*
X121734607Y-120611000D01*
X124432428Y-120611000D01*
X124444688Y-120735482D01*
X124480998Y-120855180D01*
X124539963Y-120965494D01*
X124619315Y-121062185D01*
X124716006Y-121141537D01*
X124826320Y-121200502D01*
X124946018Y-121236812D01*
X125070500Y-121249072D01*
X125634750Y-121246000D01*
X125793500Y-121087250D01*
X125793500Y-119888000D01*
X126047500Y-119888000D01*
X126047500Y-121087250D01*
X126206250Y-121246000D01*
X126770500Y-121249072D01*
X126894982Y-121236812D01*
X127014680Y-121200502D01*
X127124994Y-121141537D01*
X127221685Y-121062185D01*
X127301037Y-120965494D01*
X127360002Y-120855180D01*
X127396312Y-120735482D01*
X127408572Y-120611000D01*
X127405500Y-120046750D01*
X127246750Y-119888000D01*
X126047500Y-119888000D01*
X125793500Y-119888000D01*
X124594250Y-119888000D01*
X124435500Y-120046750D01*
X124432428Y-120611000D01*
X121734607Y-120611000D01*
X121850632Y-120533475D01*
X122057475Y-120326632D01*
X122219990Y-120083411D01*
X122331932Y-119813158D01*
X122389000Y-119526260D01*
X122389000Y-119233740D01*
X122331932Y-118946842D01*
X122317086Y-118911000D01*
X124432428Y-118911000D01*
X124435500Y-119475250D01*
X124594250Y-119634000D01*
X125793500Y-119634000D01*
X125793500Y-118434750D01*
X126047500Y-118434750D01*
X126047500Y-119634000D01*
X127246750Y-119634000D01*
X127405500Y-119475250D01*
X127408572Y-118911000D01*
X127396312Y-118786518D01*
X127360002Y-118666820D01*
X127301037Y-118556506D01*
X127221685Y-118459815D01*
X127124994Y-118380463D01*
X127014680Y-118321498D01*
X126894982Y-118285188D01*
X126770500Y-118272928D01*
X126206250Y-118276000D01*
X126047500Y-118434750D01*
X125793500Y-118434750D01*
X125634750Y-118276000D01*
X125070500Y-118272928D01*
X124946018Y-118285188D01*
X124826320Y-118321498D01*
X124716006Y-118380463D01*
X124619315Y-118459815D01*
X124539963Y-118556506D01*
X124480998Y-118666820D01*
X124444688Y-118786518D01*
X124432428Y-118911000D01*
X122317086Y-118911000D01*
X122219990Y-118676589D01*
X122057475Y-118433368D01*
X121850632Y-118226525D01*
X121607411Y-118064010D01*
X121337158Y-117952068D01*
X121050260Y-117895000D01*
X120757740Y-117895000D01*
X120470842Y-117952068D01*
X120200589Y-118064010D01*
X119957368Y-118226525D01*
X119750525Y-118433368D01*
X119634000Y-118607760D01*
X119517475Y-118433368D01*
X119310632Y-118226525D01*
X119067411Y-118064010D01*
X118797158Y-117952068D01*
X118510260Y-117895000D01*
X118217740Y-117895000D01*
X117930842Y-117952068D01*
X117660589Y-118064010D01*
X117417368Y-118226525D01*
X117285513Y-118358380D01*
X117263502Y-118285820D01*
X117204537Y-118175506D01*
X117125185Y-118078815D01*
X117028494Y-117999463D01*
X116918180Y-117940498D01*
X116798482Y-117904188D01*
X116674000Y-117891928D01*
X114974000Y-117891928D01*
X114849518Y-117904188D01*
X114729820Y-117940498D01*
X114619506Y-117999463D01*
X114522815Y-118078815D01*
X114443463Y-118175506D01*
X114384498Y-118285820D01*
X114348188Y-118405518D01*
X114335928Y-118530000D01*
X110305596Y-118530000D01*
X110299499Y-117093461D01*
X110297060Y-117069224D01*
X110289833Y-117045399D01*
X110278097Y-117023443D01*
X110262303Y-117004197D01*
X110243057Y-116988403D01*
X110221101Y-116976667D01*
X110197276Y-116969440D01*
X110172500Y-116967000D01*
X104660000Y-116967000D01*
X104660000Y-109728000D01*
X106268896Y-109728000D01*
X106301236Y-110056357D01*
X106397015Y-110372096D01*
X106552550Y-110663082D01*
X106761866Y-110918134D01*
X107016918Y-111127450D01*
X107307904Y-111282985D01*
X107623643Y-111378764D01*
X107869718Y-111403000D01*
X109554282Y-111403000D01*
X109800357Y-111378764D01*
X110116096Y-111282985D01*
X110407082Y-111127450D01*
X110662134Y-110918134D01*
X110871450Y-110663082D01*
X111026985Y-110372096D01*
X111122764Y-110056357D01*
X111155104Y-109728000D01*
X111140699Y-109581740D01*
X116561500Y-109581740D01*
X116561500Y-109874260D01*
X116618568Y-110161158D01*
X116730510Y-110431411D01*
X116893025Y-110674632D01*
X117099868Y-110881475D01*
X117343089Y-111043990D01*
X117613342Y-111155932D01*
X117900240Y-111213000D01*
X118192760Y-111213000D01*
X118479658Y-111155932D01*
X118749911Y-111043990D01*
X118993132Y-110881475D01*
X119124987Y-110749620D01*
X119146998Y-110822180D01*
X119205963Y-110932494D01*
X119285315Y-111029185D01*
X119382006Y-111108537D01*
X119492320Y-111167502D01*
X119612018Y-111203812D01*
X119736500Y-111216072D01*
X120300750Y-111213000D01*
X120459500Y-111054250D01*
X120459500Y-109855000D01*
X120713500Y-109855000D01*
X120713500Y-111054250D01*
X120872250Y-111213000D01*
X121436500Y-111216072D01*
X121560982Y-111203812D01*
X121680680Y-111167502D01*
X121790994Y-111108537D01*
X121887685Y-111029185D01*
X121967037Y-110932494D01*
X122026002Y-110822180D01*
X122062312Y-110702482D01*
X122074572Y-110578000D01*
X122071500Y-110013750D01*
X121912750Y-109855000D01*
X120713500Y-109855000D01*
X120459500Y-109855000D01*
X120439500Y-109855000D01*
X120439500Y-109601000D01*
X120459500Y-109601000D01*
X120459500Y-108401750D01*
X120713500Y-108401750D01*
X120713500Y-109601000D01*
X121912750Y-109601000D01*
X122071500Y-109442250D01*
X122074572Y-108878000D01*
X122062312Y-108753518D01*
X122026002Y-108633820D01*
X121967037Y-108523506D01*
X121887685Y-108426815D01*
X121790994Y-108347463D01*
X121680680Y-108288498D01*
X121560982Y-108252188D01*
X121436500Y-108239928D01*
X120872250Y-108243000D01*
X120713500Y-108401750D01*
X120459500Y-108401750D01*
X120300750Y-108243000D01*
X119736500Y-108239928D01*
X119612018Y-108252188D01*
X119492320Y-108288498D01*
X119382006Y-108347463D01*
X119285315Y-108426815D01*
X119205963Y-108523506D01*
X119146998Y-108633820D01*
X119124987Y-108706380D01*
X118993132Y-108574525D01*
X118749911Y-108412010D01*
X118479658Y-108300068D01*
X118192760Y-108243000D01*
X117900240Y-108243000D01*
X117613342Y-108300068D01*
X117343089Y-108412010D01*
X117099868Y-108574525D01*
X116893025Y-108781368D01*
X116730510Y-109024589D01*
X116618568Y-109294842D01*
X116561500Y-109581740D01*
X111140699Y-109581740D01*
X111122764Y-109399643D01*
X111026985Y-109083904D01*
X110871450Y-108792918D01*
X110662134Y-108537866D01*
X110407082Y-108328550D01*
X110116096Y-108173015D01*
X109800357Y-108077236D01*
X109554282Y-108053000D01*
X107869718Y-108053000D01*
X107623643Y-108077236D01*
X107307904Y-108173015D01*
X107016918Y-108328550D01*
X106761866Y-108537866D01*
X106552550Y-108792918D01*
X106397015Y-109083904D01*
X106301236Y-109399643D01*
X106268896Y-109728000D01*
X104660000Y-109728000D01*
X104660000Y-104648000D01*
X106268896Y-104648000D01*
X106301236Y-104976357D01*
X106397015Y-105292096D01*
X106552550Y-105583082D01*
X106761866Y-105838134D01*
X107016918Y-106047450D01*
X107307904Y-106202985D01*
X107623643Y-106298764D01*
X107869718Y-106323000D01*
X109554282Y-106323000D01*
X109800357Y-106298764D01*
X110116096Y-106202985D01*
X110407082Y-106047450D01*
X110662134Y-105838134D01*
X110871450Y-105583082D01*
X111026985Y-105292096D01*
X111122764Y-104976357D01*
X111155104Y-104648000D01*
X111122764Y-104319643D01*
X111026985Y-104003904D01*
X110871450Y-103712918D01*
X110662134Y-103457866D01*
X110407082Y-103248550D01*
X110116096Y-103093015D01*
X109800357Y-102997236D01*
X109554282Y-102973000D01*
X107869718Y-102973000D01*
X107623643Y-102997236D01*
X107307904Y-103093015D01*
X107016918Y-103248550D01*
X106761866Y-103457866D01*
X106552550Y-103712918D01*
X106397015Y-104003904D01*
X106301236Y-104319643D01*
X106268896Y-104648000D01*
X104660000Y-104648000D01*
X104660000Y-99568000D01*
X106268896Y-99568000D01*
X106301236Y-99896357D01*
X106397015Y-100212096D01*
X106552550Y-100503082D01*
X106761866Y-100758134D01*
X107016918Y-100967450D01*
X107307904Y-101122985D01*
X107623643Y-101218764D01*
X107869718Y-101243000D01*
X109554282Y-101243000D01*
X109800357Y-101218764D01*
X110116096Y-101122985D01*
X110407082Y-100967450D01*
X110662134Y-100758134D01*
X110871450Y-100503082D01*
X111026985Y-100212096D01*
X111122764Y-99896357D01*
X111155104Y-99568000D01*
X111122764Y-99239643D01*
X111026985Y-98923904D01*
X110871450Y-98632918D01*
X110662134Y-98377866D01*
X110407082Y-98168550D01*
X110116096Y-98013015D01*
X109800357Y-97917236D01*
X109554282Y-97893000D01*
X107869718Y-97893000D01*
X107623643Y-97917236D01*
X107307904Y-98013015D01*
X107016918Y-98168550D01*
X106761866Y-98377866D01*
X106552550Y-98632918D01*
X106397015Y-98923904D01*
X106301236Y-99239643D01*
X106268896Y-99568000D01*
X104660000Y-99568000D01*
X104660000Y-93697999D01*
X106273928Y-93697999D01*
X106273928Y-95278001D01*
X106290992Y-95451255D01*
X106341528Y-95617851D01*
X106423595Y-95771387D01*
X106534038Y-95905962D01*
X106668613Y-96016405D01*
X106822149Y-96098472D01*
X106988745Y-96149008D01*
X107161999Y-96166072D01*
X110262001Y-96166072D01*
X110435255Y-96149008D01*
X110601851Y-96098472D01*
X110755387Y-96016405D01*
X110889962Y-95905962D01*
X111000405Y-95771387D01*
X111082472Y-95617851D01*
X111133008Y-95451255D01*
X111150072Y-95278001D01*
X111150072Y-94957561D01*
X113265000Y-94957561D01*
X113265000Y-95161439D01*
X113304774Y-95361398D01*
X113382795Y-95549756D01*
X113496063Y-95719274D01*
X113540001Y-95763212D01*
X113540000Y-100113332D01*
X113540001Y-100113342D01*
X113540000Y-106420789D01*
X113496063Y-106464726D01*
X113382795Y-106634244D01*
X113304774Y-106822602D01*
X113265000Y-107022561D01*
X113265000Y-107226439D01*
X113304774Y-107426398D01*
X113382795Y-107614756D01*
X113496063Y-107784274D01*
X113640226Y-107928437D01*
X113809744Y-108041705D01*
X113998102Y-108119726D01*
X114198061Y-108159500D01*
X114401939Y-108159500D01*
X114601898Y-108119726D01*
X114790256Y-108041705D01*
X114959774Y-107928437D01*
X115103937Y-107784274D01*
X115217205Y-107614756D01*
X115295226Y-107426398D01*
X115335000Y-107226439D01*
X115335000Y-107022561D01*
X115295226Y-106822602D01*
X115217205Y-106634244D01*
X115103937Y-106464726D01*
X115060000Y-106420789D01*
X115060000Y-102020000D01*
X121384428Y-102020000D01*
X121384428Y-103720000D01*
X121396688Y-103844482D01*
X121432998Y-103964180D01*
X121491963Y-104074494D01*
X121571315Y-104171185D01*
X121668006Y-104250537D01*
X121778320Y-104309502D01*
X121898018Y-104345812D01*
X122022500Y-104358072D01*
X123722500Y-104358072D01*
X123846982Y-104345812D01*
X123966680Y-104309502D01*
X124076994Y-104250537D01*
X124173685Y-104171185D01*
X124253037Y-104074494D01*
X124312002Y-103964180D01*
X124348312Y-103844482D01*
X124360572Y-103720000D01*
X124360572Y-102020000D01*
X124348312Y-101895518D01*
X124312002Y-101775820D01*
X124253037Y-101665506D01*
X124173685Y-101568815D01*
X124076994Y-101489463D01*
X123966680Y-101430498D01*
X123846982Y-101394188D01*
X123722500Y-101381928D01*
X122022500Y-101381928D01*
X121898018Y-101394188D01*
X121778320Y-101430498D01*
X121668006Y-101489463D01*
X121571315Y-101568815D01*
X121491963Y-101665506D01*
X121432998Y-101775820D01*
X121396688Y-101895518D01*
X121384428Y-102020000D01*
X115060000Y-102020000D01*
X115060000Y-95763211D01*
X115103937Y-95719274D01*
X115217205Y-95549756D01*
X115295226Y-95361398D01*
X115335000Y-95161439D01*
X115335000Y-94957561D01*
X115295226Y-94757602D01*
X115217205Y-94569244D01*
X115103937Y-94399726D01*
X114959774Y-94255563D01*
X114790256Y-94142295D01*
X114601898Y-94064274D01*
X114401939Y-94024500D01*
X114198061Y-94024500D01*
X113998102Y-94064274D01*
X113809744Y-94142295D01*
X113640226Y-94255563D01*
X113496063Y-94399726D01*
X113382795Y-94569244D01*
X113304774Y-94757602D01*
X113265000Y-94957561D01*
X111150072Y-94957561D01*
X111150072Y-93697999D01*
X111133008Y-93524745D01*
X111082472Y-93358149D01*
X111000405Y-93204613D01*
X110889962Y-93070038D01*
X110755387Y-92959595D01*
X110601851Y-92877528D01*
X110435255Y-92826992D01*
X110262001Y-92809928D01*
X107161999Y-92809928D01*
X106988745Y-92826992D01*
X106822149Y-92877528D01*
X106668613Y-92959595D01*
X106534038Y-93070038D01*
X106423595Y-93204613D01*
X106341528Y-93358149D01*
X106290992Y-93524745D01*
X106273928Y-93697999D01*
X104660000Y-93697999D01*
X104660000Y-88538000D01*
X105921388Y-88538000D01*
X105943785Y-88765400D01*
X106010115Y-88984060D01*
X106117829Y-89185579D01*
X106262788Y-89362212D01*
X106439421Y-89507171D01*
X106640940Y-89614885D01*
X106859600Y-89681215D01*
X107030021Y-89698000D01*
X107993979Y-89698000D01*
X108164400Y-89681215D01*
X108383060Y-89614885D01*
X108584579Y-89507171D01*
X108761212Y-89362212D01*
X108906171Y-89185579D01*
X109013885Y-88984060D01*
X109080215Y-88765400D01*
X109102612Y-88538000D01*
X109080215Y-88310600D01*
X109013885Y-88091940D01*
X108906171Y-87890421D01*
X108761212Y-87713788D01*
X108584579Y-87568829D01*
X108383060Y-87461115D01*
X108164400Y-87394785D01*
X107993979Y-87378000D01*
X107030021Y-87378000D01*
X106859600Y-87394785D01*
X106640940Y-87461115D01*
X106439421Y-87568829D01*
X106262788Y-87713788D01*
X106117829Y-87890421D01*
X106010115Y-88091940D01*
X105943785Y-88310600D01*
X105921388Y-88538000D01*
X104660000Y-88538000D01*
X104660000Y-83146000D01*
X113827928Y-83146000D01*
X113840188Y-83270482D01*
X113876498Y-83390180D01*
X113935463Y-83500494D01*
X114014815Y-83597185D01*
X114111506Y-83676537D01*
X114221820Y-83735502D01*
X114341518Y-83771812D01*
X114466000Y-83784072D01*
X115030250Y-83781000D01*
X115189000Y-83622250D01*
X115189000Y-82423000D01*
X113989750Y-82423000D01*
X113831000Y-82581750D01*
X113827928Y-83146000D01*
X104660000Y-83146000D01*
X104660000Y-81388000D01*
X105921388Y-81388000D01*
X105943785Y-81615400D01*
X106010115Y-81834060D01*
X106117829Y-82035579D01*
X106262788Y-82212212D01*
X106439421Y-82357171D01*
X106640940Y-82464885D01*
X106859600Y-82531215D01*
X107030021Y-82548000D01*
X107993979Y-82548000D01*
X108164400Y-82531215D01*
X108383060Y-82464885D01*
X108584579Y-82357171D01*
X108761212Y-82212212D01*
X108906171Y-82035579D01*
X109013885Y-81834060D01*
X109080215Y-81615400D01*
X109096899Y-81446000D01*
X113827928Y-81446000D01*
X113831000Y-82010250D01*
X113989750Y-82169000D01*
X115189000Y-82169000D01*
X115189000Y-80969750D01*
X115443000Y-80969750D01*
X115443000Y-82169000D01*
X115463000Y-82169000D01*
X115463000Y-82423000D01*
X115443000Y-82423000D01*
X115443000Y-83622250D01*
X115601750Y-83781000D01*
X116166000Y-83784072D01*
X116290482Y-83771812D01*
X116410180Y-83735502D01*
X116520494Y-83676537D01*
X116617185Y-83597185D01*
X116696537Y-83500494D01*
X116755502Y-83390180D01*
X116777513Y-83317620D01*
X116909368Y-83449475D01*
X117152589Y-83611990D01*
X117422842Y-83723932D01*
X117709740Y-83781000D01*
X118002260Y-83781000D01*
X118289158Y-83723932D01*
X118559411Y-83611990D01*
X118802632Y-83449475D01*
X119009475Y-83242632D01*
X119126000Y-83068240D01*
X119242525Y-83242632D01*
X119449368Y-83449475D01*
X119692589Y-83611990D01*
X119962842Y-83723932D01*
X120203052Y-83771713D01*
X119725025Y-84249740D01*
X119713401Y-84244925D01*
X119492576Y-84201000D01*
X119267424Y-84201000D01*
X119046599Y-84244925D01*
X118838587Y-84331087D01*
X118651380Y-84456174D01*
X118492174Y-84615380D01*
X118367087Y-84802587D01*
X118280925Y-85010599D01*
X118237000Y-85231424D01*
X118237000Y-85456576D01*
X118280925Y-85677401D01*
X118367087Y-85885413D01*
X118492174Y-86072620D01*
X118651380Y-86231826D01*
X118838587Y-86356913D01*
X119046599Y-86443075D01*
X119267424Y-86487000D01*
X119492576Y-86487000D01*
X119713401Y-86443075D01*
X119921413Y-86356913D01*
X120108620Y-86231826D01*
X120145580Y-86194866D01*
X120229851Y-86169303D01*
X120384291Y-86086753D01*
X120519659Y-85975659D01*
X120547499Y-85941736D01*
X122721758Y-83767477D01*
X122789740Y-83781000D01*
X123082260Y-83781000D01*
X123369158Y-83723932D01*
X123446000Y-83692103D01*
X123446001Y-97340288D01*
X123402063Y-97384226D01*
X123288795Y-97553744D01*
X123210774Y-97742102D01*
X123171000Y-97942061D01*
X123171000Y-98145939D01*
X123210774Y-98345898D01*
X123288795Y-98534256D01*
X123402063Y-98703774D01*
X123546226Y-98847937D01*
X123715744Y-98961205D01*
X123904102Y-99039226D01*
X124104061Y-99079000D01*
X124307939Y-99079000D01*
X124507898Y-99039226D01*
X124696256Y-98961205D01*
X124865774Y-98847937D01*
X125009937Y-98703774D01*
X125123205Y-98534256D01*
X125184854Y-98385422D01*
X125190815Y-98392685D01*
X125287506Y-98472037D01*
X125397820Y-98531002D01*
X125517518Y-98567312D01*
X125642000Y-98579572D01*
X127342000Y-98579572D01*
X127381000Y-98575731D01*
X127381001Y-107223136D01*
X127257087Y-107408587D01*
X127170925Y-107616599D01*
X127127000Y-107837424D01*
X127127000Y-108062576D01*
X127170925Y-108283401D01*
X127257087Y-108491413D01*
X127381000Y-108676863D01*
X127381001Y-114843136D01*
X127257087Y-115028587D01*
X127170925Y-115236599D01*
X127127000Y-115457424D01*
X127127000Y-115682576D01*
X127170925Y-115903401D01*
X127257087Y-116111413D01*
X127382174Y-116298620D01*
X127541380Y-116457826D01*
X127728587Y-116582913D01*
X127936599Y-116669075D01*
X128157424Y-116713000D01*
X128382576Y-116713000D01*
X128603401Y-116669075D01*
X128651000Y-116649359D01*
X128651000Y-117002137D01*
X128527087Y-117187587D01*
X128440925Y-117395599D01*
X128397000Y-117616424D01*
X128397000Y-117841576D01*
X128440925Y-118062401D01*
X128527087Y-118270413D01*
X128652174Y-118457620D01*
X128811380Y-118616826D01*
X128998587Y-118741913D01*
X129206599Y-118828075D01*
X129427424Y-118872000D01*
X129652576Y-118872000D01*
X129873401Y-118828075D01*
X130081413Y-118741913D01*
X130268620Y-118616826D01*
X130427826Y-118457620D01*
X130552913Y-118270413D01*
X130639075Y-118062401D01*
X130683000Y-117841576D01*
X130683000Y-117616424D01*
X130639075Y-117395599D01*
X130552913Y-117187587D01*
X130429000Y-117002137D01*
X130429000Y-106694015D01*
X130454061Y-106699000D01*
X130657939Y-106699000D01*
X130812001Y-106668355D01*
X130812001Y-112072288D01*
X130768063Y-112116226D01*
X130654795Y-112285744D01*
X130576774Y-112474102D01*
X130537000Y-112674061D01*
X130537000Y-112877939D01*
X130576774Y-113077898D01*
X130654795Y-113266256D01*
X130768063Y-113435774D01*
X130912226Y-113579937D01*
X131081744Y-113693205D01*
X131270102Y-113771226D01*
X131470061Y-113811000D01*
X131673939Y-113811000D01*
X131828001Y-113780355D01*
X131828001Y-118326668D01*
X131824324Y-118364000D01*
X131828001Y-118401333D01*
X131833066Y-118452753D01*
X131838998Y-118512985D01*
X131882454Y-118656246D01*
X131953026Y-118788276D01*
X131985689Y-118828075D01*
X132048000Y-118904001D01*
X132076998Y-118927799D01*
X134093000Y-120943803D01*
X134093000Y-121005939D01*
X134132774Y-121205898D01*
X134210795Y-121394256D01*
X134324063Y-121563774D01*
X134468226Y-121707937D01*
X134637744Y-121821205D01*
X134826102Y-121899226D01*
X135026061Y-121939000D01*
X135229939Y-121939000D01*
X135429898Y-121899226D01*
X135618256Y-121821205D01*
X135787774Y-121707937D01*
X135931937Y-121563774D01*
X136045205Y-121394256D01*
X136123226Y-121205898D01*
X136163000Y-121005939D01*
X136163000Y-120802061D01*
X136123226Y-120602102D01*
X136045205Y-120413744D01*
X135931937Y-120244226D01*
X135787774Y-120100063D01*
X135618256Y-119986795D01*
X135429898Y-119908774D01*
X135229939Y-119869000D01*
X135167803Y-119869000D01*
X133348000Y-118049199D01*
X133348000Y-117844000D01*
X141151928Y-117844000D01*
X141151928Y-119844000D01*
X141164188Y-119968482D01*
X141200498Y-120088180D01*
X141259463Y-120198494D01*
X141338815Y-120295185D01*
X141435506Y-120374537D01*
X141545820Y-120433502D01*
X141665518Y-120469812D01*
X141790000Y-120482072D01*
X144990000Y-120482072D01*
X145114482Y-120469812D01*
X145234180Y-120433502D01*
X145344494Y-120374537D01*
X145441185Y-120295185D01*
X145520537Y-120198494D01*
X145579502Y-120088180D01*
X145615812Y-119968482D01*
X145628072Y-119844000D01*
X145628072Y-117844000D01*
X145615812Y-117719518D01*
X145579502Y-117599820D01*
X145520537Y-117489506D01*
X145441185Y-117392815D01*
X145344494Y-117313463D01*
X145234180Y-117254498D01*
X145114482Y-117218188D01*
X144990000Y-117205928D01*
X141790000Y-117205928D01*
X141665518Y-117218188D01*
X141545820Y-117254498D01*
X141435506Y-117313463D01*
X141338815Y-117392815D01*
X141259463Y-117489506D01*
X141200498Y-117599820D01*
X141164188Y-117719518D01*
X141151928Y-117844000D01*
X133348000Y-117844000D01*
X133348000Y-115582967D01*
X134255000Y-115582967D01*
X134255000Y-115905033D01*
X134317832Y-116220912D01*
X134441082Y-116518463D01*
X134620013Y-116786252D01*
X134847748Y-117013987D01*
X135115537Y-117192918D01*
X135413088Y-117316168D01*
X135728967Y-117379000D01*
X136051033Y-117379000D01*
X136366912Y-117316168D01*
X136664463Y-117192918D01*
X136932252Y-117013987D01*
X137159987Y-116786252D01*
X137338918Y-116518463D01*
X137462168Y-116220912D01*
X137525000Y-115905033D01*
X137525000Y-115582967D01*
X148755000Y-115582967D01*
X148755000Y-115905033D01*
X148817832Y-116220912D01*
X148941082Y-116518463D01*
X149120013Y-116786252D01*
X149347748Y-117013987D01*
X149615537Y-117192918D01*
X149913088Y-117316168D01*
X150228967Y-117379000D01*
X150551033Y-117379000D01*
X150866912Y-117316168D01*
X151164463Y-117192918D01*
X151432252Y-117013987D01*
X151659987Y-116786252D01*
X151838918Y-116518463D01*
X151962168Y-116220912D01*
X152025000Y-115905033D01*
X152025000Y-115582967D01*
X151962168Y-115267088D01*
X151838918Y-114969537D01*
X151659987Y-114701748D01*
X151432252Y-114474013D01*
X151164463Y-114295082D01*
X150866912Y-114171832D01*
X150551033Y-114109000D01*
X150228967Y-114109000D01*
X149913088Y-114171832D01*
X149615537Y-114295082D01*
X149347748Y-114474013D01*
X149120013Y-114701748D01*
X148941082Y-114969537D01*
X148817832Y-115267088D01*
X148755000Y-115582967D01*
X137525000Y-115582967D01*
X137462168Y-115267088D01*
X137338918Y-114969537D01*
X137159987Y-114701748D01*
X136932252Y-114474013D01*
X136835065Y-114409075D01*
X136845808Y-114379413D01*
X135890000Y-113423605D01*
X134934192Y-114379413D01*
X134944935Y-114409075D01*
X134847748Y-114474013D01*
X134620013Y-114701748D01*
X134441082Y-114969537D01*
X134317832Y-115267088D01*
X134255000Y-115582967D01*
X133348000Y-115582967D01*
X133348000Y-113306595D01*
X134248282Y-113306595D01*
X134292039Y-113625675D01*
X134397205Y-113930088D01*
X134490186Y-114104044D01*
X134754587Y-114199808D01*
X135710395Y-113244000D01*
X135696253Y-113229858D01*
X135875858Y-113050253D01*
X135890000Y-113064395D01*
X135904143Y-113050253D01*
X136083748Y-113229858D01*
X136069605Y-113244000D01*
X137025413Y-114199808D01*
X137289814Y-114104044D01*
X137430704Y-113814429D01*
X137512384Y-113502892D01*
X137531718Y-113181405D01*
X137487961Y-112862325D01*
X137382795Y-112557912D01*
X137289814Y-112383956D01*
X137140777Y-112329976D01*
X137244494Y-112274537D01*
X137341185Y-112195185D01*
X137420537Y-112098494D01*
X137479502Y-111988180D01*
X137512496Y-111879413D01*
X149434192Y-111879413D01*
X149529956Y-112143814D01*
X149819571Y-112284704D01*
X150131108Y-112366384D01*
X150452595Y-112385718D01*
X150771675Y-112341961D01*
X151076088Y-112236795D01*
X151250044Y-112143814D01*
X151345808Y-111879413D01*
X150390000Y-110923605D01*
X149434192Y-111879413D01*
X137512496Y-111879413D01*
X137515812Y-111868482D01*
X137528072Y-111744000D01*
X137528072Y-110806595D01*
X148748282Y-110806595D01*
X148792039Y-111125675D01*
X148897205Y-111430088D01*
X148990186Y-111604044D01*
X149254587Y-111699808D01*
X150210395Y-110744000D01*
X150569605Y-110744000D01*
X151525413Y-111699808D01*
X151789814Y-111604044D01*
X151930704Y-111314429D01*
X152012384Y-111002892D01*
X152031718Y-110681405D01*
X151987961Y-110362325D01*
X151882795Y-110057912D01*
X151789814Y-109883956D01*
X151525413Y-109788192D01*
X150569605Y-110744000D01*
X150210395Y-110744000D01*
X149254587Y-109788192D01*
X148990186Y-109883956D01*
X148849296Y-110173571D01*
X148767616Y-110485108D01*
X148748282Y-110806595D01*
X137528072Y-110806595D01*
X137528072Y-109744000D01*
X137515812Y-109619518D01*
X137512497Y-109608587D01*
X149434192Y-109608587D01*
X150390000Y-110564395D01*
X151345808Y-109608587D01*
X151250044Y-109344186D01*
X150960429Y-109203296D01*
X150648892Y-109121616D01*
X150327405Y-109102282D01*
X150008325Y-109146039D01*
X149703912Y-109251205D01*
X149529956Y-109344186D01*
X149434192Y-109608587D01*
X137512497Y-109608587D01*
X137479502Y-109499820D01*
X137420537Y-109389506D01*
X137341185Y-109292815D01*
X137244494Y-109213463D01*
X137134180Y-109154498D01*
X137014482Y-109118188D01*
X136890000Y-109105928D01*
X134890000Y-109105928D01*
X134765518Y-109118188D01*
X134645820Y-109154498D01*
X134535506Y-109213463D01*
X134438815Y-109292815D01*
X134359463Y-109389506D01*
X134300498Y-109499820D01*
X134264188Y-109619518D01*
X134251928Y-109744000D01*
X134251928Y-111744000D01*
X134264188Y-111868482D01*
X134300498Y-111988180D01*
X134359463Y-112098494D01*
X134438815Y-112195185D01*
X134535506Y-112274537D01*
X134639223Y-112329976D01*
X134490186Y-112383956D01*
X134349296Y-112673571D01*
X134267616Y-112985108D01*
X134248282Y-113306595D01*
X133348000Y-113306595D01*
X133348000Y-106644000D01*
X141151928Y-106644000D01*
X141151928Y-108644000D01*
X141164188Y-108768482D01*
X141200498Y-108888180D01*
X141259463Y-108998494D01*
X141338815Y-109095185D01*
X141435506Y-109174537D01*
X141545820Y-109233502D01*
X141665518Y-109269812D01*
X141790000Y-109282072D01*
X144990000Y-109282072D01*
X145114482Y-109269812D01*
X145234180Y-109233502D01*
X145344494Y-109174537D01*
X145441185Y-109095185D01*
X145520537Y-108998494D01*
X145579502Y-108888180D01*
X145615812Y-108768482D01*
X145628072Y-108644000D01*
X145628072Y-106644000D01*
X145615812Y-106519518D01*
X145579502Y-106399820D01*
X145520537Y-106289506D01*
X145441185Y-106192815D01*
X145344494Y-106113463D01*
X145234180Y-106054498D01*
X145114482Y-106018188D01*
X144990000Y-106005928D01*
X141790000Y-106005928D01*
X141665518Y-106018188D01*
X141545820Y-106054498D01*
X141435506Y-106113463D01*
X141338815Y-106192815D01*
X141259463Y-106289506D01*
X141200498Y-106399820D01*
X141164188Y-106519518D01*
X141151928Y-106644000D01*
X133348000Y-106644000D01*
X133348000Y-104962801D01*
X135348003Y-102962799D01*
X135377001Y-102939001D01*
X135471974Y-102823276D01*
X135542546Y-102691247D01*
X135586003Y-102547986D01*
X135597000Y-102436333D01*
X135597000Y-102436324D01*
X135600676Y-102399001D01*
X135597000Y-102361678D01*
X135597000Y-92145144D01*
X135597753Y-92145546D01*
X135741014Y-92189003D01*
X135852667Y-92200000D01*
X135852676Y-92200000D01*
X135889999Y-92203676D01*
X135927322Y-92200000D01*
X136022913Y-92200000D01*
X136021928Y-92210000D01*
X136021928Y-93210000D01*
X136034188Y-93334482D01*
X136070498Y-93454180D01*
X136129463Y-93564494D01*
X136208815Y-93661185D01*
X136305506Y-93740537D01*
X136415820Y-93799502D01*
X136535518Y-93835812D01*
X136660000Y-93848072D01*
X137660000Y-93848072D01*
X137784482Y-93835812D01*
X137904180Y-93799502D01*
X137993180Y-93751930D01*
X138073136Y-93787446D01*
X138128126Y-93804119D01*
X138303000Y-93677954D01*
X138303000Y-92837000D01*
X138557000Y-92837000D01*
X138557000Y-93677954D01*
X138731874Y-93804119D01*
X138786864Y-93787446D01*
X138990206Y-93697123D01*
X139065000Y-93644361D01*
X139139794Y-93697123D01*
X139343136Y-93787446D01*
X139398126Y-93804119D01*
X139573000Y-93677954D01*
X139573000Y-92837000D01*
X139827000Y-92837000D01*
X139827000Y-93677954D01*
X140001874Y-93804119D01*
X140056864Y-93787446D01*
X140260206Y-93697123D01*
X140335000Y-93644361D01*
X140409794Y-93697123D01*
X140613136Y-93787446D01*
X140668126Y-93804119D01*
X140843000Y-93677954D01*
X140843000Y-92837000D01*
X141097000Y-92837000D01*
X141097000Y-93677954D01*
X141271874Y-93804119D01*
X141326864Y-93787446D01*
X141530206Y-93697123D01*
X141605000Y-93644361D01*
X141679794Y-93697123D01*
X141883136Y-93787446D01*
X141938126Y-93804119D01*
X142113000Y-93677954D01*
X142113000Y-92837000D01*
X142367000Y-92837000D01*
X142367000Y-93677954D01*
X142541874Y-93804119D01*
X142596864Y-93787446D01*
X142800206Y-93697123D01*
X142982020Y-93568865D01*
X143111114Y-93433062D01*
X151134189Y-93433062D01*
X151134189Y-93636940D01*
X151173963Y-93836899D01*
X151251984Y-94025257D01*
X151365252Y-94194775D01*
X151509415Y-94338938D01*
X151678933Y-94452206D01*
X151867291Y-94530227D01*
X152067250Y-94570001D01*
X152271128Y-94570001D01*
X152471087Y-94530227D01*
X152659445Y-94452206D01*
X152828963Y-94338938D01*
X152973126Y-94194775D01*
X153086394Y-94025257D01*
X153164415Y-93836899D01*
X153204189Y-93636940D01*
X153204189Y-93559227D01*
X153274734Y-93427249D01*
X153318191Y-93283988D01*
X153329188Y-93172335D01*
X153329188Y-93172325D01*
X153332864Y-93135003D01*
X153329188Y-93097680D01*
X153329188Y-87910523D01*
X153373125Y-87866586D01*
X153486393Y-87697068D01*
X153564414Y-87508710D01*
X153604188Y-87308751D01*
X153604188Y-87104873D01*
X153564414Y-86904914D01*
X153486393Y-86716556D01*
X153373125Y-86547038D01*
X153228962Y-86402875D01*
X153059444Y-86289607D01*
X152871086Y-86211586D01*
X152671127Y-86171812D01*
X152467249Y-86171812D01*
X152267290Y-86211586D01*
X152078932Y-86289607D01*
X151909414Y-86402875D01*
X151765251Y-86547038D01*
X151651983Y-86716556D01*
X151573962Y-86904914D01*
X151534188Y-87104873D01*
X151534188Y-87308751D01*
X151573962Y-87508710D01*
X151651983Y-87697068D01*
X151765251Y-87866586D01*
X151809189Y-87910524D01*
X151809188Y-92563842D01*
X151678933Y-92617796D01*
X151509415Y-92731064D01*
X151365252Y-92875227D01*
X151251984Y-93044745D01*
X151173963Y-93233103D01*
X151134189Y-93433062D01*
X143111114Y-93433062D01*
X143135318Y-93407601D01*
X143254210Y-93219529D01*
X143334126Y-93011876D01*
X143209129Y-92837000D01*
X142367000Y-92837000D01*
X142113000Y-92837000D01*
X141097000Y-92837000D01*
X140843000Y-92837000D01*
X139827000Y-92837000D01*
X139573000Y-92837000D01*
X138557000Y-92837000D01*
X138303000Y-92837000D01*
X138298072Y-92837000D01*
X138298072Y-92583000D01*
X138303000Y-92583000D01*
X138303000Y-92571974D01*
X138318212Y-92575000D01*
X138541788Y-92575000D01*
X138557000Y-92571974D01*
X138557000Y-92583000D01*
X139573000Y-92583000D01*
X139573000Y-92571974D01*
X139588212Y-92575000D01*
X139811788Y-92575000D01*
X139827000Y-92571974D01*
X139827000Y-92583000D01*
X140843000Y-92583000D01*
X140843000Y-92571974D01*
X140858212Y-92575000D01*
X141081788Y-92575000D01*
X141097000Y-92571974D01*
X141097000Y-92583000D01*
X142113000Y-92583000D01*
X142113000Y-92571974D01*
X142128212Y-92575000D01*
X142351788Y-92575000D01*
X142367000Y-92571974D01*
X142367000Y-92583000D01*
X143209129Y-92583000D01*
X143334126Y-92408124D01*
X143254210Y-92200471D01*
X143177744Y-92079512D01*
X143245824Y-91977624D01*
X143331383Y-91771067D01*
X143375000Y-91551788D01*
X143375000Y-91328212D01*
X143331383Y-91108933D01*
X143245824Y-90902376D01*
X143121612Y-90716480D01*
X142963520Y-90558388D01*
X142777624Y-90434176D01*
X142571067Y-90348617D01*
X142351788Y-90305000D01*
X142128212Y-90305000D01*
X141993077Y-90331880D01*
X142005000Y-90271939D01*
X142005000Y-90068061D01*
X141965226Y-89868102D01*
X141887205Y-89679744D01*
X141773937Y-89510226D01*
X141666794Y-89403083D01*
X141683685Y-89318167D01*
X141683685Y-89114289D01*
X141643911Y-88914330D01*
X141565890Y-88725972D01*
X141452622Y-88556454D01*
X141308459Y-88412291D01*
X141138941Y-88299023D01*
X140950583Y-88221002D01*
X140750624Y-88181228D01*
X140546746Y-88181228D01*
X140346787Y-88221002D01*
X140158429Y-88299023D01*
X139988911Y-88412291D01*
X139844748Y-88556454D01*
X139731480Y-88725972D01*
X139653459Y-88914330D01*
X139645908Y-88952293D01*
X139190000Y-89408201D01*
X139190000Y-87825711D01*
X139233937Y-87781774D01*
X139347205Y-87612256D01*
X139425226Y-87423898D01*
X139465000Y-87223939D01*
X139465000Y-87020061D01*
X139425226Y-86820102D01*
X139347205Y-86631744D01*
X139233937Y-86462226D01*
X139089774Y-86318063D01*
X138920256Y-86204795D01*
X138731898Y-86126774D01*
X138531939Y-86087000D01*
X138328061Y-86087000D01*
X138128102Y-86126774D01*
X137939744Y-86204795D01*
X137770226Y-86318063D01*
X137626063Y-86462226D01*
X137512795Y-86631744D01*
X137434774Y-86820102D01*
X137395000Y-87020061D01*
X137395000Y-87223939D01*
X137434774Y-87423898D01*
X137512795Y-87612256D01*
X137626063Y-87781774D01*
X137670001Y-87825712D01*
X137670000Y-90422734D01*
X137491067Y-90348617D01*
X137271788Y-90305000D01*
X137048212Y-90305000D01*
X136828933Y-90348617D01*
X136622376Y-90434176D01*
X136436480Y-90558388D01*
X136322000Y-90672868D01*
X136322000Y-85285711D01*
X136365937Y-85241774D01*
X136479205Y-85072256D01*
X136557226Y-84883898D01*
X136597000Y-84683939D01*
X136597000Y-84480061D01*
X136557226Y-84280102D01*
X136479205Y-84091744D01*
X136365937Y-83922226D01*
X136221774Y-83778063D01*
X136052256Y-83664795D01*
X135863898Y-83586774D01*
X135838621Y-83581746D01*
X135872000Y-83413939D01*
X135872000Y-83210061D01*
X135832226Y-83010102D01*
X135754205Y-82821744D01*
X135640937Y-82652226D01*
X135496774Y-82508063D01*
X135327256Y-82394795D01*
X135138898Y-82316774D01*
X135019356Y-82292996D01*
X135029205Y-82278256D01*
X135107226Y-82089898D01*
X135147000Y-81889939D01*
X135147000Y-81686061D01*
X135107226Y-81486102D01*
X135029205Y-81297744D01*
X134915937Y-81128226D01*
X134771774Y-80984063D01*
X134602256Y-80870795D01*
X134413898Y-80792774D01*
X134213939Y-80753000D01*
X134010061Y-80753000D01*
X133856000Y-80783644D01*
X133856000Y-80078711D01*
X133899937Y-80034774D01*
X134013205Y-79865256D01*
X134091226Y-79676898D01*
X134131000Y-79476939D01*
X134131000Y-79273061D01*
X134091226Y-79073102D01*
X134013205Y-78884744D01*
X133899937Y-78715226D01*
X133843652Y-78658941D01*
X133886205Y-78595256D01*
X133964226Y-78406898D01*
X134004000Y-78206939D01*
X134004000Y-78003061D01*
X133964226Y-77803102D01*
X133886205Y-77614744D01*
X133772937Y-77445226D01*
X133628774Y-77301063D01*
X133459256Y-77187795D01*
X133270898Y-77109774D01*
X133070939Y-77070000D01*
X132867061Y-77070000D01*
X132667102Y-77109774D01*
X132478744Y-77187795D01*
X132332000Y-77285846D01*
X132332000Y-76443151D01*
X132381898Y-76433226D01*
X132570256Y-76355205D01*
X132739774Y-76241937D01*
X132883937Y-76097774D01*
X132997205Y-75928256D01*
X133075226Y-75739898D01*
X133115000Y-75539939D01*
X133115000Y-75336061D01*
X133075226Y-75136102D01*
X132997205Y-74947744D01*
X132883937Y-74778226D01*
X132739774Y-74634063D01*
X132570256Y-74520795D01*
X132381898Y-74442774D01*
X132353000Y-74437026D01*
X132353000Y-74320061D01*
X132313226Y-74120102D01*
X132235205Y-73931744D01*
X132121937Y-73762226D01*
X131977774Y-73618063D01*
X131808256Y-73504795D01*
X131619898Y-73426774D01*
X131419939Y-73387000D01*
X131299001Y-73387000D01*
X131299001Y-72037725D01*
X131300256Y-72037205D01*
X131469774Y-71923937D01*
X131613937Y-71779774D01*
X131727205Y-71610256D01*
X131805226Y-71421898D01*
X131835030Y-71272061D01*
X133077000Y-71272061D01*
X133077000Y-71475939D01*
X133116774Y-71675898D01*
X133194795Y-71864256D01*
X133308063Y-72033774D01*
X133452226Y-72177937D01*
X133621744Y-72291205D01*
X133810102Y-72369226D01*
X134010061Y-72409000D01*
X134213939Y-72409000D01*
X134413898Y-72369226D01*
X134602256Y-72291205D01*
X134771774Y-72177937D01*
X134915937Y-72033774D01*
X135029205Y-71864256D01*
X135107226Y-71675898D01*
X135147000Y-71475939D01*
X135147000Y-71272061D01*
X135107226Y-71072102D01*
X135062347Y-70963755D01*
X135062347Y-68966058D01*
X135106284Y-68922121D01*
X135219552Y-68752603D01*
X135297573Y-68564245D01*
X135337347Y-68364286D01*
X135337347Y-68160408D01*
X135297573Y-67960449D01*
X135219552Y-67772091D01*
X135106284Y-67602573D01*
X134962121Y-67458410D01*
X134792603Y-67345142D01*
X134604245Y-67267121D01*
X134404286Y-67227347D01*
X134200408Y-67227347D01*
X134000449Y-67267121D01*
X133812091Y-67345142D01*
X133642573Y-67458410D01*
X133498410Y-67602573D01*
X133385142Y-67772091D01*
X133307121Y-67960449D01*
X133267347Y-68160408D01*
X133267347Y-68364286D01*
X133307121Y-68564245D01*
X133385142Y-68752603D01*
X133498410Y-68922121D01*
X133542348Y-68966059D01*
X133542347Y-70509846D01*
X133452226Y-70570063D01*
X133308063Y-70714226D01*
X133194795Y-70883744D01*
X133116774Y-71072102D01*
X133077000Y-71272061D01*
X131835030Y-71272061D01*
X131845000Y-71221939D01*
X131845000Y-71018061D01*
X131805226Y-70818102D01*
X131727205Y-70629744D01*
X131613937Y-70460226D01*
X131469774Y-70316063D01*
X131300256Y-70202795D01*
X131111898Y-70124774D01*
X130911939Y-70085000D01*
X130708061Y-70085000D01*
X130508102Y-70124774D01*
X130319744Y-70202795D01*
X130150226Y-70316063D01*
X130006063Y-70460226D01*
X129892795Y-70629744D01*
X129814774Y-70818102D01*
X129805185Y-70866312D01*
X129778343Y-70888340D01*
X129750508Y-70922257D01*
X129750506Y-70922259D01*
X129667249Y-71023708D01*
X129584699Y-71178147D01*
X129533865Y-71345725D01*
X129516701Y-71519999D01*
X129521002Y-71563669D01*
X129521002Y-81422556D01*
X129506620Y-81408174D01*
X129319413Y-81283087D01*
X129111401Y-81196925D01*
X128890576Y-81153000D01*
X128665424Y-81153000D01*
X128444599Y-81196925D01*
X128236587Y-81283087D01*
X128049380Y-81408174D01*
X127890174Y-81567380D01*
X127765087Y-81754587D01*
X127678925Y-81962599D01*
X127635000Y-82183424D01*
X127635000Y-82408576D01*
X127644836Y-82458026D01*
X127569500Y-82473011D01*
X127569500Y-76727000D01*
X127609939Y-76727000D01*
X127809898Y-76687226D01*
X127998256Y-76609205D01*
X128167774Y-76495937D01*
X128311937Y-76351774D01*
X128425205Y-76182256D01*
X128503226Y-75993898D01*
X128543000Y-75793939D01*
X128543000Y-75590061D01*
X128503226Y-75390102D01*
X128425205Y-75201744D01*
X128311937Y-75032226D01*
X128167774Y-74888063D01*
X127998256Y-74774795D01*
X127809898Y-74696774D01*
X127609939Y-74657000D01*
X127406061Y-74657000D01*
X127206102Y-74696774D01*
X127017744Y-74774795D01*
X126848226Y-74888063D01*
X126704063Y-75032226D01*
X126590795Y-75201744D01*
X126512774Y-75390102D01*
X126489015Y-75509548D01*
X126385224Y-75565026D01*
X126269499Y-75659999D01*
X126174526Y-75775724D01*
X126103954Y-75907753D01*
X126060497Y-76051014D01*
X126045823Y-76200000D01*
X126049500Y-76237333D01*
X126049500Y-80926200D01*
X125909158Y-80868068D01*
X125622260Y-80811000D01*
X125329740Y-80811000D01*
X125042842Y-80868068D01*
X124966000Y-80899897D01*
X124966000Y-78096486D01*
X124970997Y-78091489D01*
X125000001Y-78067686D01*
X125094974Y-77951961D01*
X125165546Y-77819932D01*
X125208987Y-77676724D01*
X125263937Y-77621774D01*
X125377205Y-77452256D01*
X125455226Y-77263898D01*
X125495000Y-77063939D01*
X125495000Y-76860061D01*
X125455226Y-76660102D01*
X125377205Y-76471744D01*
X125263937Y-76302226D01*
X125119774Y-76158063D01*
X124950256Y-76044795D01*
X124761898Y-75966774D01*
X124561939Y-75927000D01*
X124358061Y-75927000D01*
X124158102Y-75966774D01*
X123969744Y-76044795D01*
X123800226Y-76158063D01*
X123656063Y-76302226D01*
X123542795Y-76471744D01*
X123464774Y-76660102D01*
X123425000Y-76860061D01*
X123425000Y-77063939D01*
X123464774Y-77263898D01*
X123532986Y-77428576D01*
X123500454Y-77489439D01*
X123456997Y-77632700D01*
X123446000Y-77744353D01*
X123446000Y-77744363D01*
X123442324Y-77781685D01*
X123446000Y-77819007D01*
X123446000Y-80899897D01*
X123369158Y-80868068D01*
X123082260Y-80811000D01*
X122789740Y-80811000D01*
X122502842Y-80868068D01*
X122232589Y-80980010D01*
X121989368Y-81142525D01*
X121782525Y-81349368D01*
X121666000Y-81523760D01*
X121549475Y-81349368D01*
X121342632Y-81142525D01*
X121099411Y-80980010D01*
X120829158Y-80868068D01*
X120542260Y-80811000D01*
X120249740Y-80811000D01*
X119962842Y-80868068D01*
X119692589Y-80980010D01*
X119449368Y-81142525D01*
X119242525Y-81349368D01*
X119126000Y-81523760D01*
X119009475Y-81349368D01*
X118802632Y-81142525D01*
X118559411Y-80980010D01*
X118289158Y-80868068D01*
X118002260Y-80811000D01*
X117709740Y-80811000D01*
X117422842Y-80868068D01*
X117152589Y-80980010D01*
X116909368Y-81142525D01*
X116777513Y-81274380D01*
X116755502Y-81201820D01*
X116696537Y-81091506D01*
X116617185Y-80994815D01*
X116520494Y-80915463D01*
X116410180Y-80856498D01*
X116290482Y-80820188D01*
X116166000Y-80807928D01*
X115601750Y-80811000D01*
X115443000Y-80969750D01*
X115189000Y-80969750D01*
X115030250Y-80811000D01*
X114466000Y-80807928D01*
X114341518Y-80820188D01*
X114221820Y-80856498D01*
X114111506Y-80915463D01*
X114014815Y-80994815D01*
X113935463Y-81091506D01*
X113876498Y-81201820D01*
X113840188Y-81321518D01*
X113827928Y-81446000D01*
X109096899Y-81446000D01*
X109102612Y-81388000D01*
X109080215Y-81160600D01*
X109013885Y-80941940D01*
X108906171Y-80740421D01*
X108761212Y-80563788D01*
X108584579Y-80418829D01*
X108383060Y-80311115D01*
X108164400Y-80244785D01*
X107993979Y-80228000D01*
X107030021Y-80228000D01*
X106859600Y-80244785D01*
X106640940Y-80311115D01*
X106439421Y-80418829D01*
X106262788Y-80563788D01*
X106117829Y-80740421D01*
X106010115Y-80941940D01*
X105943785Y-81160600D01*
X105921388Y-81388000D01*
X104660000Y-81388000D01*
X104660000Y-79546060D01*
X112103001Y-79546060D01*
X112103001Y-79749938D01*
X112142775Y-79949897D01*
X112220796Y-80138255D01*
X112334064Y-80307773D01*
X112478227Y-80451936D01*
X112647745Y-80565204D01*
X112836103Y-80643225D01*
X113036062Y-80682999D01*
X113239940Y-80682999D01*
X113439899Y-80643225D01*
X113628257Y-80565204D01*
X113797775Y-80451936D01*
X113941938Y-80307773D01*
X114055206Y-80138255D01*
X114133227Y-79949897D01*
X114173001Y-79749938D01*
X114173001Y-79546060D01*
X114133227Y-79346101D01*
X114055206Y-79157743D01*
X113941938Y-78988225D01*
X113898001Y-78944288D01*
X113898001Y-76663159D01*
X114028256Y-76609205D01*
X114197774Y-76495937D01*
X114341937Y-76351774D01*
X114455205Y-76182256D01*
X114533226Y-75993898D01*
X114573000Y-75793939D01*
X114573000Y-75590061D01*
X114533226Y-75390102D01*
X114455205Y-75201744D01*
X114341937Y-75032226D01*
X114197774Y-74888063D01*
X114028256Y-74774795D01*
X113839898Y-74696774D01*
X113639939Y-74657000D01*
X113436061Y-74657000D01*
X113236102Y-74696774D01*
X113047744Y-74774795D01*
X112878226Y-74888063D01*
X112734063Y-75032226D01*
X112620795Y-75201744D01*
X112542774Y-75390102D01*
X112503000Y-75590061D01*
X112503000Y-75667774D01*
X112445299Y-75775724D01*
X112432455Y-75799753D01*
X112388998Y-75943014D01*
X112378001Y-76054667D01*
X112378001Y-76054677D01*
X112374325Y-76091999D01*
X112378001Y-76129322D01*
X112378002Y-78944287D01*
X112334064Y-78988225D01*
X112220796Y-79157743D01*
X112142775Y-79346101D01*
X112103001Y-79546060D01*
X104660000Y-79546060D01*
X104660000Y-74139999D01*
X106781928Y-74139999D01*
X106781928Y-75720001D01*
X106798992Y-75893255D01*
X106849528Y-76059851D01*
X106931595Y-76213387D01*
X107042038Y-76347962D01*
X107176613Y-76458405D01*
X107330149Y-76540472D01*
X107496745Y-76591008D01*
X107669999Y-76608072D01*
X110770001Y-76608072D01*
X110943255Y-76591008D01*
X111109851Y-76540472D01*
X111263387Y-76458405D01*
X111397962Y-76347962D01*
X111508405Y-76213387D01*
X111590472Y-76059851D01*
X111641008Y-75893255D01*
X111658072Y-75720001D01*
X111658072Y-74139999D01*
X111641008Y-73966745D01*
X111590472Y-73800149D01*
X111508405Y-73646613D01*
X111397962Y-73512038D01*
X111263387Y-73401595D01*
X111109851Y-73319528D01*
X110943255Y-73268992D01*
X110770001Y-73251928D01*
X107669999Y-73251928D01*
X107496745Y-73268992D01*
X107330149Y-73319528D01*
X107176613Y-73401595D01*
X107042038Y-73512038D01*
X106931595Y-73646613D01*
X106849528Y-73800149D01*
X106798992Y-73966745D01*
X106781928Y-74139999D01*
X104660000Y-74139999D01*
X104660000Y-70236710D01*
X106830252Y-70236710D01*
X106863901Y-70373663D01*
X106996731Y-70674984D01*
X107185794Y-70944602D01*
X107423824Y-71172155D01*
X107701673Y-71348898D01*
X108008664Y-71468039D01*
X108333000Y-71525000D01*
X109093000Y-71525000D01*
X109093000Y-69977000D01*
X109347000Y-69977000D01*
X109347000Y-71525000D01*
X110107000Y-71525000D01*
X110431336Y-71468039D01*
X110738327Y-71348898D01*
X111016176Y-71172155D01*
X111254206Y-70944602D01*
X111443269Y-70674984D01*
X111576099Y-70373663D01*
X111609748Y-70236710D01*
X111490922Y-69977000D01*
X109347000Y-69977000D01*
X109093000Y-69977000D01*
X106949078Y-69977000D01*
X106830252Y-70236710D01*
X104660000Y-70236710D01*
X104660000Y-69463290D01*
X106830252Y-69463290D01*
X106949078Y-69723000D01*
X109093000Y-69723000D01*
X109093000Y-68175000D01*
X109347000Y-68175000D01*
X109347000Y-69723000D01*
X111490922Y-69723000D01*
X111609748Y-69463290D01*
X111576099Y-69326337D01*
X111443269Y-69025016D01*
X111254206Y-68755398D01*
X111016176Y-68527845D01*
X110738327Y-68351102D01*
X110431336Y-68231961D01*
X110107000Y-68175000D01*
X109347000Y-68175000D01*
X109093000Y-68175000D01*
X108333000Y-68175000D01*
X108008664Y-68231961D01*
X107701673Y-68351102D01*
X107423824Y-68527845D01*
X107185794Y-68755398D01*
X106996731Y-69025016D01*
X106863901Y-69326337D01*
X106830252Y-69463290D01*
X104660000Y-69463290D01*
X104660000Y-64007885D01*
X110363000Y-64007885D01*
X110387776Y-64005445D01*
X110411601Y-63998218D01*
X110433557Y-63986482D01*
X110452803Y-63970688D01*
X110468597Y-63951442D01*
X110480333Y-63929486D01*
X110487560Y-63905661D01*
X110490000Y-63880885D01*
X110490000Y-60110000D01*
X111287928Y-60110000D01*
X111287928Y-61810000D01*
X111300188Y-61934482D01*
X111336498Y-62054180D01*
X111395463Y-62164494D01*
X111474815Y-62261185D01*
X111571506Y-62340537D01*
X111681820Y-62399502D01*
X111801518Y-62435812D01*
X111926000Y-62448072D01*
X113626000Y-62448072D01*
X113750482Y-62435812D01*
X113870180Y-62399502D01*
X113980494Y-62340537D01*
X114077185Y-62261185D01*
X114156537Y-62164494D01*
X114215502Y-62054180D01*
X114237513Y-61981620D01*
X114369368Y-62113475D01*
X114612589Y-62275990D01*
X114882842Y-62387932D01*
X115169740Y-62445000D01*
X115462260Y-62445000D01*
X115749158Y-62387932D01*
X116019411Y-62275990D01*
X116262632Y-62113475D01*
X116469475Y-61906632D01*
X116586000Y-61732240D01*
X116702525Y-61906632D01*
X116909368Y-62113475D01*
X117152589Y-62275990D01*
X117422842Y-62387932D01*
X117709740Y-62445000D01*
X118002260Y-62445000D01*
X118289158Y-62387932D01*
X118559411Y-62275990D01*
X118802632Y-62113475D01*
X119009475Y-61906632D01*
X119171990Y-61663411D01*
X119283932Y-61393158D01*
X119341000Y-61106260D01*
X119341000Y-60813740D01*
X119283932Y-60526842D01*
X119171990Y-60256589D01*
X119009475Y-60013368D01*
X118802632Y-59806525D01*
X118559411Y-59644010D01*
X118289158Y-59532068D01*
X118002260Y-59475000D01*
X117709740Y-59475000D01*
X117422842Y-59532068D01*
X117152589Y-59644010D01*
X116909368Y-59806525D01*
X116702525Y-60013368D01*
X116586000Y-60187760D01*
X116469475Y-60013368D01*
X116262632Y-59806525D01*
X116019411Y-59644010D01*
X115749158Y-59532068D01*
X115462260Y-59475000D01*
X115169740Y-59475000D01*
X114882842Y-59532068D01*
X114612589Y-59644010D01*
X114369368Y-59806525D01*
X114237513Y-59938380D01*
X114215502Y-59865820D01*
X114156537Y-59755506D01*
X114077185Y-59658815D01*
X113980494Y-59579463D01*
X113870180Y-59520498D01*
X113750482Y-59484188D01*
X113626000Y-59471928D01*
X111926000Y-59471928D01*
X111801518Y-59484188D01*
X111681820Y-59520498D01*
X111571506Y-59579463D01*
X111474815Y-59658815D01*
X111395463Y-59755506D01*
X111336498Y-59865820D01*
X111300188Y-59985518D01*
X111287928Y-60110000D01*
X110490000Y-60110000D01*
X110490000Y-58660000D01*
X126487046Y-58660000D01*
X126408925Y-58848599D01*
M02*
